M48
;Layer_Color=9474304
;FILE_FORMAT=4:4
METRIC,LZ
;TYPE=PLATED
T1F00S00C0.6000
T2F00S00C0.6350
T3F00S00C0.7000
T4F00S00C0.8000
T5F00S00C0.8500
T6F00S00C0.9000
T7F00S00C0.9500
T8F00S00C1.0000
T9F00S00C2.0320
%
T01
X00045466Y-005025
X00096774Y-004454
X00211416Y-00490816
X0030353Y-0051393
X00385826Y-0047202
X00388366Y-0043773
X00475488Y-00492848
X00506119Y-00487244
X00516636Y-00519091
X00642112Y-00456288
X00778764Y-00460082
X006985Y-0054568
X00723138Y-00581748
X00699262Y-0069808
X008763Y-00637374
X0097917Y-00655916
X00983742Y-0056473
X00998982Y-0051647
X0098933Y-00492848
X0092964Y-00486244
X00821182Y-0044789
X00834302Y-00543648
X01112266Y-0047075
X01221232Y-00439508
X01304544Y-00486752
X0130175Y-0055965
X01228928Y-0058665
X0120993Y-00602068
X01413256Y-006168
X01422908Y-00550506
X01379728Y-0052409
X013843Y-00666076
X01473454Y-00650582
X01614678Y-00487006
X01411732Y-00279996
X01225296Y-00235292
X013335Y-0006308
X00951992Y-00060032
X00953174Y-00202526
X0095885Y-00268566
X00990854Y-00253072
X00882904Y-0026247
X00818642Y-00270344
X00811784Y-00383882
X01103884Y-00279488
X00786892Y-00220052
X00766826Y-0021421
X00755826Y-00202526
X00707976Y-00235116
X00705688Y-0025071
X00680212Y-00226148
X00608584Y-00190842
X00684022Y-00116166
X00530352Y-00269582
X0054864Y-00311238
X00243586Y-00406996
X00101092Y-00413492
X00085598Y-0042
X00101092Y-0021548
X01524508Y-0002371
T02
X000381Y-005842
Y-005334
X001397
Y-005842
X00184Y-004474
X002094
X002348
X002602
X002856
X004634
Y-004728
X00524Y-004474
X005494
X005748
X006002
X006256
X00635Y-005588
X006096
X005842
X006604
X006858
X007112
X007366
X00762
X007874
Y-006604
X00762
X007366
X007112
X006858
X006604
X00635
X006096
X005842
X004572
X004064
X008128
X008382Y-006604
X008636Y-006604
X00889
X009144
Y-005588
X00889
X008636
X008382Y-005588
X008128Y-005588
X008034Y-004728
Y-004474
X00864
X008894
X009148
X009402
X009656
X011434
Y-004728
X013212
Y-004474
X0136
X013854
X014108
X014362
X014616
X0156
X015854
X015774Y-005565
X015266
Y-006835
X015774
X016596
X017104
Y-005565
X016596
X016616Y-004474
X016362
X016108
Y-00295
X016362
X016616
X017526Y-002921
Y-003175
X017272Y-002159
Y-001905
X016256
Y-002159
X015854Y-00295
X0156
X014616
X014362
X014108
X013854
X0136
X013212
Y-002696
Y-003204
Y-003458
Y-003712
Y-003966
Y-00422
X011434
Y-003966
Y-003712
Y-003458
Y-003204
Y-00295
Y-002696
X009656Y-00295
X009402
X009148
X008894
X00864
X008034
Y-002696
Y-003204
Y-003458
Y-003712
Y-003966
Y-00422
X006256Y-00295
X006002
X005748
X005494
X00524
X004634
Y-002696
Y-003204
Y-003458
Y-003712
Y-003966
Y-00422
X002856Y-00295
X002602
X002348
X002094
X00184
T03
X012954Y-001651
X013204
X013208Y-001143
X012958
T04
X00053625Y-004708
Y-004454
X00133
Y-004708
X00381Y-006985
X004064
X004572
X004826
X00133Y-0042
Y-003946
Y-003692
Y-003438
Y-003184
Y-00293
Y-002676
X00053625
Y-00293
Y-003184
Y-003438
Y-003692
Y-003946
Y-0042
T05
X00101Y-001702
X00126
X00151
X00176
X00201
X00226
X00251
X00276
X00301
X00326
Y-00094
X00301
X00276
X00251
X00226
X00201
X00176
X00151
X00126
X00101
T06
X002032Y-006096
X002286
X00254
X002794
X003048
X003302
X003556
X00381
Y-005334
X003556
X003302
X003048
X002794
X00254
X002286
X002032
X003364Y-004728
Y-004474
X004126
Y-004728
X004064Y-005334
X004318
X004572
X004826
X00508
X005334
Y-006096
X00508
X004826
X004572
X004318
X004064
X006764Y-004728
Y-004474
X007526
Y-004728
X010164
Y-004474
X010926
Y-004728
X011942
Y-004474
X012704
Y-004728
Y-00422
Y-003966
Y-003712
Y-003458
Y-003204
Y-00295
X011942
Y-003204
Y-003458
Y-003712
Y-003966
Y-00422
X010926
Y-003966
Y-003712
Y-003458
Y-003204
Y-00295
X010164
Y-003204
Y-003458
Y-003712
Y-003966
Y-00422
X010287Y-001778
X010541
X010033
X009779
X009525
X009271
X009017
X008763
Y-001016
X009017
X009271
X009525
X009779
X010033
X010287
X010541
X008001
Y-001778
X007747
X007493
X007239
X006985
X006731
X006477
X006223
Y-001016
X006477
X006731
X006985
X007239
X007493
X007747
X007526Y-00295
Y-003204
Y-003458
Y-003712
Y-003966
Y-00422
X006764
Y-003966
Y-003712
Y-003458
Y-003204
Y-00295
X004126
Y-003204
Y-003458
Y-003712
Y-003966
Y-00422
X003364
Y-003966
Y-003712
Y-003458
Y-003204
Y-00295
T07
X016273Y-0013
X016527
X016973
X017227
T08
X013735Y-001658
Y-001404
Y-00115
T09
X0004Y-007
X0178
Y-0004
X0004
M30
