M48
;Layer_Color=9474304
;FILE_FORMAT=4:4
METRIC,LZ
;TYPE=PLATED
T1F00S00C0.6350
T2F00S00C0.7000
T3F00S00C0.8000
T4F00S00C0.8500
T5F00S00C0.9000
T6F00S00C0.9500
T7F00S00C1.0000
T8F00S00C2.0320
%
T01
X020766Y-002385
X021274
X022096
X022604
Y-001115
X022096
X021274
X020766
X014898Y-001138
X014644
X01439
X014136
X013882
X013628
X013374Y-001138
X01312Y-001138
X012866
X012612
X012358
X012104
Y-002154
X012358
X012612
X012866
X01312
X013374Y-002154
X013628Y-002154
X013882
X014136
X01439
X014644
X014898
X01185
X011596
X011342
Y-001138
X011596
X01185
X010072Y-002154
X009564
X006778Y-001604
Y-001096
X005762
Y-001604
X00734Y-000024
X007594
X007848
Y0015
X007594
X00734
X007286Y002079
X008302
X008356Y0015
X008102
Y-000024
X008356
X01074
X010994
X011248
X011502
X011756
Y0015
X011502
X011248
X010994
X01074
X010588Y002079
X011604
X014144
X01414Y0015
X014394
X014648
X014902
X015156
X01516Y002079
X015156Y-000024
X014902
X014648
X014394
X01414
X018712
Y-000278
Y00023
Y000484
Y000738
Y000992
Y001246
Y0015
Y001754
X0191Y0015
X019354
X019608
Y-000024
X019354
X0191
X019862
X020116
X0211
X021354
X021608
X021862
X022116
Y0015
X021862
X021608
X021354
X0211
X020116
X019862
X020494Y00246
X021002
X023026Y001529
Y001275
X021002Y003476
X020494
T02
X018454Y002799
X018704
X018708Y003307
X018458
T03
X015406Y-001138
X01566
X010334Y-00262
X01008
X009572
X009318
X00683Y-000258
Y-000004
Y00025
Y000504
Y000758
Y001012
Y001266
Y00152
Y001774
X00603625
Y00152
Y001266
Y001012
Y000758
Y000504
Y00025
Y-000004
Y-000258
T04
X00651Y002748
X00676
X00701
X00726
X00751
X00776
X00801
X00826
X00851
X00876
Y00351
X00851
X00826
X00801
X00776
X00751
X00726
X00701
X00676
X00651
T05
X02036826Y-00236684
X02148332Y-0018309
X0223774Y-0017166
X02283382Y-0026775
X01970278Y-0025175
X01849374Y-00270974
X01728747Y-00228416
X01649915Y-00156674
X01625346Y-0015515
X01796542Y-00140762
X01561338Y-00171406
X01548638Y-00240601
X01560576Y-00256788
X01491742Y-0007641
X01274826Y-00095968
X01262126Y-00139656
X01257808Y-00282658
X01209294Y-00263862
X011596Y-00249772
X0114681Y-00194991
X0110744Y-0021992
X010834Y-001646
X01058
X010326
X010072
X009818
X009564
X00931
X009056
X008802
X008548
X008294
X00804
Y-000884
X008294
X008548
X008802
X009056
X00931
X009564
X009818
X010072
X010326
X01058
X010834
X01122934Y-00083268
X0110363Y-00115018
X007786Y-000884
X007532
Y-001646
X007786
X00760222Y00212388
X00603625Y00227425
X0084963Y00182924
X008864Y0015
Y001246
Y000992
Y000738
Y000484
Y00023
Y-000024
Y-000278
X009626
Y-000024
Y00023
Y000484
Y000738
Y000992
Y001246
Y0015
X00934212Y00197027
X0090805Y0019791
X00834644Y00079546
X00796798Y00061766
X01014984Y00101898
X01047502
X01081024Y00085896
X01086866Y-00019514
X0098171Y-00041358
X01111758Y00249726
X011723Y002672
X0117983Y0019537
X011977Y002672
X012231
X012485
X012739
X012993
X013247
X013501
X01387602Y00288842
X014263Y002672
X014517
X014771
X015025
X015279
X015533
X015787
X015664Y0015
Y001246
Y000992
Y000738
Y000484
Y00023
Y-000024
Y-000278
X01416304Y-00046946
X01426464Y00060885
X01432814Y00177844
X013026Y0015
Y001246
Y000992
Y000738
Y000484
Y00023
Y-000024
Y-000278
X0126873Y-00061932
X012264Y-000278
Y-000024
Y00023
Y000484
Y000738
Y000992
Y001246
Y0015
X016426
Y001246
Y000992
Y000738
Y000484
Y00023
Y-000024
Y-000278
X01674368
X01660652Y-00060662
X01611122Y-00045639
X017442Y-000278
Y-000024
Y00023
Y000484
Y000738
Y000992
Y001246
Y0015
X01693418Y00137204
X01707134Y00085466
X01707896Y00012096
X018204Y00023
Y000484
Y000738
Y000992
Y001246
Y0015
X01788414Y00188766
X0180213Y00211626
X01806702Y00250742
X01737868Y00311956
X01650238Y00242106
X016041Y002672
X01947926Y00181146
X018204Y-000024
Y-000278
X02037842Y001179
X01999234Y00319322
X01909318Y00376218
X0187071Y00375202
X016041Y003434
X015787
X015533
X015279
X015025
X014771
X014517
X014263
X01418082Y00382314
X01444498Y00386378
X01434592Y00420414
X01395405Y00416604
X013501Y003434
X013247
X012993
X012739
X012485
X012231
X011977
X01207968Y00443782
X011723Y003434
T06
X021773Y00315
X022027
X022473
X022727
T07
X019235Y002792
Y003046
Y0033
T08
X0233Y-0026
X0059
X0233Y0041
X0059
M30
