M48
;Layer_Color=9474304
;FILE_FORMAT=4:4
METRIC,LZ
;TYPE=PLATED
T1F00S00C0.6350
T2F00S00C0.7000
T3F00S00C0.8000
T4F00S00C0.8500
T5F00S00C0.9000
T6F00S00C0.9500
T7F00S00C1.0000
T8F00S00C2.0320
%
T01
X020766Y-002385
X021274
X022096
X022604
Y-001115
X022096
X021274
X020766
X014898Y-001138
X014644
X01439
X014136
X013882
X013628
X013374Y-001138
X01312Y-001138
X012866
X012612
X012358
X012104
Y-002154
X012358
X012612
X012866
X01312
X013374Y-002154
X013628Y-002154
X013882
X014136
X01439
X014644
X014898
X01185
X011596
X011342
Y-001138
X011596
X01185
X010072Y-002154
X009564
X006778Y-001604
Y-001096
X005762
Y-001604
X00734Y-000024
X007594
X007848
Y0015
X007594
X00734
X007286Y002079
X008302
X008356Y0015
X008102
Y-000024
X008356
X01074
X010994
X011248
X011502
X011756
Y0015
X011502
X011248
X010994
X01074
X010588Y002079
X011604
X014144
X01414Y0015
X014394
X014648
X014902
X015156
X01516Y002079
X015156Y-000024
X014902
X014648
X014394
X01414
X018712
Y-000278
Y00023
Y000484
Y000738
Y000992
Y001246
Y0015
Y001754
X0191Y0015
X019354
X019608
Y-000024
X019354
X0191
X019862
X020116
X0211
X021354
X021608
X021862
X022116
Y0015
X021862
X021608
X021354
X0211
X020116
X019862
X020494Y00246
X021002
X023026Y001529
Y001275
X021002Y003476
X020494
T02
X018454Y002799
X018704
X018708Y003307
X018458
T03
X015406Y-001138
X01566
X010334Y-00262
X01008
X009572
X009318
X00683Y-000258
Y-000004
Y00025
Y000504
Y000758
Y001012
Y001266
Y00152
Y001774
X00603625
Y00152
Y001266
Y001012
Y000758
Y000504
Y00025
Y-000004
Y-000258
T04
X00651Y002748
X00676
X00701
X00726
X00751
X00776
X00801
X00826
X00851
X00876
Y00351
X00851
X00826
X00801
X00776
X00751
X00726
X00701
X00676
X00651
T05
X0200279Y-00234398
X02034286Y-00149308
X02170176Y-001488
X02185416Y-00173946
X0197866Y-00186646
X01795272Y-00218552
X01595882Y-00232874
X0153797Y-0017905
X01555242Y-0015134
X01227328Y-00078442
X01237742Y-00247606
X01185164Y-0016404
X01123696Y-00165056
X010834Y-001646
X01058
X010326
X010072
X01007618Y-00185884
X009818Y-001646
X009564
X00931
X009056
X008802
X008548
X008294
X00804
Y-000884
X008294
X008548
X008802
X009056
X00931
X009564
X009525Y-00067266
X009841Y-00070822
X009818Y-000884
X010072
X010326
X01058
X010834
X01116838Y-00088348
X01055878Y-00212554
X0109619Y-00254718
X007786Y-001646
X0078613Y-00147022
X007532Y-001646
Y-000884
X007786
X00771906Y0024363
X0085217Y00143808
X008864Y0015
Y001246
Y000992
Y000738
Y000484
Y00023
Y-000024
Y-000278
X009626
Y-000024
Y00023
Y000484
Y000738
Y000992
Y001246
Y0015
X00978154Y0011028
X01019302Y0008361
X00924306Y00073606
X010326Y-0005355
X0105283Y0018755
X011723Y002672
X011977
X012231
X012485
X012739
X012993
X013247
X013501
X01345266Y00243712
X01345851Y00225755
X01367282Y00241344
X01374902Y0028681
X01387094Y0030078
X014263Y002672
X014517
X014771
X015025
X015279
X015533
X015787
X0152795Y00190684
X015664Y0015
Y001246
Y000992
Y000738
Y000484
Y00023
Y-000024
Y-000278
X0151271Y-0004339
X01513213Y-00063837
X014648Y00077532
X01464826Y00103133
X01491234Y0011536
X01416304Y00181908
X01440434Y00239312
X0128905Y0020807
X013026Y0015
Y001246
Y000992
Y000738
Y000484
Y00023
Y-000024
X0132461Y-00000972
X013026Y-000278
X012264
Y-000024
Y00023
Y000484
Y000738
Y000992
Y001246
Y0015
X0135261Y00137458
X0159004Y00198164
X016041Y002672
X016426Y0015
Y001246
Y000992
X01663954Y00103246
X01679956Y00112644
X016426Y000738
Y000484
Y00023
Y-000024
Y-000278
X01659783Y-00033337
X01608074Y-00044914
X017442Y-000278
Y-000024
Y00023
Y000484
Y000738
Y000992
Y001246
Y0015
X018204
Y001246
Y000992
Y000738
Y000484
Y00023
Y-000024
Y-000278
X01935734Y0011917
X0191Y0019537
X01742694Y00243884
X02023618Y00346754
X01754378Y00381298
X01609598Y0037698
X016041Y003434
X015787
X015533
X015279
X015025
X014771
X014517
X014263
X013501
X013247
X012993
X012739
X012485
X012231
X011977
X01326896Y00381298
X011723Y003434
T06
X021773Y00315
X022027
X022473
X022727
T07
X019235Y002792
Y003046
Y0033
T08
X0233Y-0026
X0059
X0233Y0041
X0059
M30
