M48
;Layer_Color=9474304
;FILE_FORMAT=4:4
METRIC,LZ
;TYPE=PLATED
T1F00S00C0.6350
T2F00S00C0.7000
T3F00S00C0.8000
T4F00S00C0.8500
T5F00S00C0.9000
T6F00S00C0.9500
T7F00S00C1.0000
T8F00S00C2.0320
%
T01
X020766Y-002385
X021274
X022096
X022604
Y-001115
X022096
X021274
X020766
X014898Y-001138
X014644
X01439
X014136
X013882
X013628
X013374Y-001138
X01312Y-001138
X012866
X012612
X012358
X012104
Y-002154
X012358
X012612
X012866
X01312
X013374Y-002154
X013628Y-002154
X013882
X014136
X01439
X014644
X014898
X01185
X011596
X011342
Y-001138
X011596
X01185
X010072Y-002154
X009564
X006778Y-001604
Y-001096
X005762
Y-001604
X00734Y-000024
X007594
X007848
Y0015
X007594
X00734
X007286Y002079
X008302
X008356Y0015
X008102
Y-000024
X008356
X01074
X010994
X011248
X011502
X011756
Y0015
X011502
X011248
X010994
X01074
X010588Y002079
X011604
X014144
X01414Y0015
X014394
X014648
X014902
X015156
X01516Y002079
X015156Y-000024
X014902
X014648
X014394
X01414
X018712
Y-000278
Y00023
Y000484
Y000738
Y000992
Y001246
Y0015
Y001754
X0191Y0015
X019354
X019608
Y-000024
X019354
X0191
X019862
X020116
X0211
X021354
X021608
X021862
X022116
Y0015
X021862
X021608
X021354
X0211
X020116
X019862
X020494Y00246
X021002
X023026Y001529
Y001275
X021002Y003476
X020494
T02
X018454Y002799
X018704
X018708Y003307
X018458
T03
X015406Y-001138
X01566
X010334Y-00262
X01008
X009572
X009318
X00683Y-000258
Y-000004
Y00025
Y000504
Y000758
Y001012
Y001266
Y00152
Y001774
X00603625
Y00152
Y001266
Y001012
Y000758
Y000504
Y00025
Y-000004
Y-000258
T04
X00651Y002748
X00676
X00701
X00726
X00751
X00776
X00801
X00826
X00851
X00876
Y00351
X00851
X00826
X00801
X00776
X00751
X00726
X00701
X00676
X00651
T05
X02005838Y-00199597
X02167636Y-00175978
X02242058Y-0012086
X0231902Y-0013991
X02217928Y-00326346
X0197866Y-00257004
X0189611Y-00217126
X0184635Y-0016912
X01788922Y-00188932
X0177038Y-00182582
X0169545Y-00125686
X0172212Y-0007514
X01944624Y-00098
X01582674Y-00081998
X01576578Y-00245066
X01536998Y-00251826
X01516888Y-00307804
X01291374Y-00347174
X01245146Y-00326346
X01240667Y-00271066
X0130937Y-00148038
X01347216Y-00148148
X01252474Y-00069044
X01190831Y-00084044
X010834Y-000884
X01058
X010326
X010072
X009818
X009564
X00931
X009056
X008802
X008548
X008294
X00804
Y-001646
X008294
X008548
X008802
X009056
X00931
X009564
X009818
X010072
X010326
X01058
X010834
X01081024Y-00122892
X01057656Y-00265894
X00805688Y-0021611
X00860082Y-00119082
X0076519Y-0012721
X007532Y-001646
X007786
Y-000884
X007532
X00692912Y-0012721
X00688086Y-00231858
X00732536Y-00207728
X00667258Y00258616
X00585807Y002748
X00600807Y00206644
X00536702Y00309849
X00834136Y00304844
X008864Y0015
Y001246
Y000992
Y000738
Y000484
Y00023
Y-000024
Y-000278
X009626
Y-000024
Y00023
Y000484
Y000738
Y000992
Y001246
Y0015
X01017397Y00128949
X010287Y000793
X01051017Y00076217
X01088147Y00087947
X01135634Y00095548
X01165352Y00051606
X01124966Y00167938
X0118999Y00193846
X011723Y002672
X01174242Y00311263
X01151636Y00302558
X01073404Y00313734
X0102235Y00032556
X0081534Y00034334
X00807212Y-000218
X012264Y-000278
Y-000024
Y00023
Y000484
Y000738
Y000992
Y001246
Y0015
X01211326Y0020299
X0120523Y00225088
X011977Y002672
X012231
X012485
X012739
X012993
X013247
X013501
X01387856Y00283762
X01395222Y0024998
X014263Y002672
X014517
X014771
X015025
X015279
X015533
X015787
X01557901Y00211118
X015664Y0015
Y001246
Y000992
Y000738
Y000484
Y00023
X01585468Y00029254
X015664Y-000024
Y-000278
X01495044Y00058972
X01514602Y0008361
X01585468Y00132632
X01486154Y00236772
X014471Y00232961
X0136168Y0018799
X01340358Y00169208
X013026Y0015
Y001246
Y000992
Y000738
Y000484
Y00023
Y-000024
Y-000278
X01256538Y-0001164
X01342644Y00007664
X01306576Y00213404
X01257046Y00236264
X01242568Y00301796
X016041Y002672
X01694448Y00223925
X017442Y0015
Y001246
Y000992
Y000738
Y000484
Y00023
Y-000024
Y-000278
X01766824Y00012998
X018204Y00023
Y000484
Y000738
Y000992
Y001246
Y0015
X01827022Y00293414
X01810766Y00310178
X0177157Y002932
X016426Y0015
Y001246
Y000992
X01664434Y001015
X01679448Y00086404
X01679194Y00037206
X016426Y000484
Y000738
Y00023
Y-000024
Y-000278
X01604518Y-00019768
X018204Y-000278
Y-000024
X01929384Y-00020022
X02006092Y-00052788
X02081276Y00107486
X0212598Y00118662
X02117598Y00201212
X02160016Y00186734
X0200533Y00191052
X02338578Y0001376
X022027Y004735
X02081276Y00438956
X01800606Y0037063
X01681988Y00458006
X016041Y003434
X015787
X015533
X015279
X015025
X014771
X014517
X014263
X014113Y0038841
X013501Y003434
X013247
X012993
X012739
X012485
X012231
X011977
X01232804Y00403904
X011723Y003434
X01019302Y00341166
T06
X021773Y00315
X022027
X022473
X022727
T07
X019235Y002792
Y003046
Y0033
T08
X0233Y-0026
X0059
X0233Y0041
X0059
M30
