G04*
G04 #@! TF.GenerationSoftware,Altium Limited,Altium Designer,22.10.1 (41)*
G04*
G04 Layer_Physical_Order=1*
G04 Layer_Color=255*
%FSLAX44Y44*%
%MOMM*%
G71*
G04*
G04 #@! TF.SameCoordinates,B69FFBF1-EEC0-48B6-B947-E14A7B7049DC*
G04*
G04*
G04 #@! TF.FilePolarity,Positive*
G04*
G01*
G75*
%ADD13C,0.6000*%
%ADD14C,1.2700*%
%ADD15R,1.2700X1.2700*%
D13*
X1686632Y437168D02*
X1700000Y423800D01*
X1662568Y437168D02*
X1686632D01*
X1649200Y423800D02*
X1662568Y437168D01*
X1974600Y423800D02*
X1988156Y410244D01*
X2011844D01*
X2025400Y423800D01*
X225400Y149200D02*
Y276200D01*
X200000Y123800D02*
X225400Y149200D01*
X500000Y123800D02*
X513530Y110270D01*
X537270D01*
X550800Y123800D01*
X749200D02*
X786860Y86140D01*
X813140D01*
X850800Y123800D01*
X786404Y737396D02*
X800000Y723800D01*
X762796Y737396D02*
X786404D01*
X749200Y723800D02*
X762796Y737396D01*
X1074600Y723800D02*
X1088182Y710218D01*
X1111818D01*
X1125400Y723800D01*
X1425400Y749200D02*
Y876200D01*
X1400000Y723800D02*
X1425400Y749200D01*
X1700000Y723800D02*
X1713582Y710218D01*
X1737218D01*
X1750800Y723800D01*
X486430Y1037370D02*
X500000Y1023800D01*
X462770Y1037370D02*
X486430D01*
X449200Y1023800D02*
X462770Y1037370D01*
X174600Y723800D02*
X188182Y710218D01*
X211818D01*
X225400Y723800D01*
X1750800Y576200D02*
X1764400Y562600D01*
Y415324D02*
Y562600D01*
X1758050Y408974D02*
X1764400Y415324D01*
X1689426Y408974D02*
X1758050D01*
X1674600Y423800D02*
X1689426Y408974D01*
X2025400Y449200D02*
Y576200D01*
X2000000Y423800D02*
X2025400Y449200D01*
X850800Y876200D02*
X864224Y862776D01*
Y718092D02*
Y862776D01*
X856350Y710218D02*
X864224Y718092D01*
X788182Y710218D02*
X856350D01*
X774600Y723800D02*
X788182Y710218D01*
X1125400Y749200D02*
Y876200D01*
X1100000Y723800D02*
X1125400Y749200D01*
X474600Y1023800D02*
X489732Y1008668D01*
X557900D01*
X564250Y1015018D01*
Y1162750D01*
X550800Y1176200D02*
X564250Y1162750D01*
X225400Y749200D02*
Y876200D01*
X200000Y723800D02*
X225400Y749200D01*
X1949200Y723800D02*
X1975736Y697264D01*
X2024264D01*
X2050800Y723800D01*
X228100Y401100D02*
X250800Y423800D01*
X197300Y401100D02*
X228100D01*
X174600Y423800D02*
X197300Y401100D01*
X1437270Y110270D02*
X1450800Y123800D01*
X1362730Y110270D02*
X1437270D01*
X1349200Y123800D02*
X1362730Y110270D01*
X449200Y423800D02*
X471900Y401100D01*
X528100D01*
X550800Y423800D01*
X1986606Y137194D02*
X2000000Y123800D01*
X1962594Y137194D02*
X1986606D01*
X1949200Y123800D02*
X1962594Y137194D01*
X1974600Y123800D02*
X1989400Y109000D01*
X2036000D01*
X2050800Y123800D01*
X149200D02*
X164000Y109000D01*
X210600D01*
X225400Y123800D01*
X1411818Y710218D02*
X1425400Y723800D01*
X1362782Y710218D02*
X1411818D01*
X1349200Y723800D02*
X1362782Y710218D01*
X1136000Y109000D02*
X1150800Y123800D01*
X1089400Y109000D02*
X1136000D01*
X1074600Y123800D02*
X1089400Y109000D01*
X1086632Y437168D02*
X1100000Y423800D01*
X1062568Y437168D02*
X1086632D01*
X1049200Y423800D02*
X1062568Y437168D01*
X1074600Y423800D02*
X1097300Y401100D01*
X1128100D01*
X1150800Y423800D01*
X1974600Y723800D02*
X1988182Y710218D01*
X2011818D01*
X2025400Y723800D01*
X1986150Y737650D02*
X2000000Y723800D01*
X1963050Y737650D02*
X1986150D01*
X1949200Y723800D02*
X1963050Y737650D01*
X774600Y123800D02*
X788130Y110270D01*
X811870D01*
X825400Y123800D01*
X783050Y140750D02*
X800000Y123800D01*
X766150Y140750D02*
X783050D01*
X749200Y123800D02*
X766150Y140750D01*
X449200Y876200D02*
X474600D01*
X500000D01*
X525400Y723800D02*
X550800D01*
X449200D02*
Y876200D01*
X500000Y723800D02*
X525400D01*
X449200D02*
X474600D01*
X500000D01*
X525400Y576200D02*
X550800D01*
X525400Y423800D02*
Y576200D01*
X474600Y423800D02*
X500000D01*
X525400D01*
X1349200Y576200D02*
X1374600D01*
X1400000D01*
X1425400Y423800D02*
X1450800D01*
X1349200D02*
Y576200D01*
X1400000Y423800D02*
X1425400D01*
X1349200D02*
X1374600D01*
X1400000D01*
X1649200Y576200D02*
X1674600D01*
X1700000D01*
X1649200Y423800D02*
Y576200D01*
X1700000Y423800D02*
X1725400D01*
X1750800D01*
X1974600Y576200D02*
X2000000D01*
X1949200D02*
X1974600D01*
X2025400Y423800D02*
X2050800D01*
X1974600D02*
Y576200D01*
X1949200Y423800D02*
X1974600D01*
X149200Y276200D02*
X174600D01*
X200000D01*
X149200Y123800D02*
Y276200D01*
X225400Y123800D02*
X250800D01*
X225400Y276200D02*
X250800D01*
X174600Y123800D02*
X200000D01*
X474600Y276200D02*
X500000D01*
X449200D02*
X474600D01*
X500000Y123800D02*
Y276200D01*
X449200Y123800D02*
X474600D01*
X500000D01*
X774600Y276200D02*
X800000D01*
X749200D02*
X774600D01*
X800000Y123800D02*
Y276200D01*
X825400D02*
X850800D01*
X825400Y123800D02*
Y276200D01*
X1049200Y123800D02*
X1074600D01*
Y276200D01*
X1049200D02*
X1074600D01*
X1100000D01*
X1125400D02*
X1150800D01*
X1125400Y123800D02*
Y276200D01*
X1100000Y123800D02*
X1125400D01*
X1374600Y276200D02*
X1400000D01*
X1349200D02*
X1374600D01*
X1349200Y123800D02*
Y276200D01*
X1425400D02*
X1450800D01*
X1425400Y123800D02*
Y276200D01*
X1374600Y123800D02*
X1400000D01*
X1425400D01*
X1674600Y276200D02*
X1700000D01*
X1649200D02*
X1674600D01*
X1700000Y123800D02*
Y276200D01*
Y123800D02*
X1725400D01*
X1674600D02*
X1700000D01*
X1649200D02*
X1674600D01*
X1949200Y276200D02*
X1974600D01*
X2000000D01*
X1949200Y123800D02*
Y276200D01*
X2000000Y123800D02*
X2025400D01*
Y276200D02*
X2050800D01*
Y123800D02*
Y276200D01*
X749200Y876200D02*
X774600D01*
X800000D01*
X749200Y723800D02*
Y876200D01*
X800000Y723800D02*
X825400D01*
X850800D01*
X1074600Y876200D02*
X1100000D01*
X1049200D02*
X1074600D01*
X1125400Y723800D02*
X1150800D01*
X1074600D02*
Y876200D01*
X1049200Y723800D02*
X1074600D01*
X1349200Y876200D02*
X1374600D01*
X1400000D01*
X1349200Y723800D02*
Y876200D01*
X1425400Y723800D02*
X1450800D01*
X1425400Y876200D02*
X1450800D01*
X1374600Y723800D02*
X1400000D01*
X1674600Y876200D02*
X1700000D01*
X1649200D02*
X1674600D01*
X1700000Y723800D02*
Y876200D01*
X1649200Y723800D02*
X1674600D01*
X1700000D01*
X1974600Y876200D02*
X2000000D01*
X1949200D02*
X1974600D01*
X2000000Y723800D02*
Y876200D01*
X2025400D02*
X2050800D01*
X2025400Y723800D02*
Y876200D01*
X149200Y423800D02*
X174600D01*
Y576200D01*
X149200D02*
X174600D01*
X200000D01*
X225400D02*
X250800D01*
X225400Y423800D02*
Y576200D01*
X200000Y423800D02*
X225400D01*
X474600Y576200D02*
X500000D01*
X449200D02*
X474600D01*
X449200Y423800D02*
Y576200D01*
X774600D02*
X800000D01*
X749200D02*
X774600D01*
X800000Y423800D02*
Y576200D01*
Y423800D02*
X825400D01*
X774600D02*
X800000D01*
X749200D02*
X774600D01*
X1049200Y576200D02*
X1074600D01*
X1100000D01*
X1049200Y423800D02*
Y576200D01*
X1100000Y423800D02*
X1125400D01*
Y576200D02*
X1150800D01*
Y423800D02*
Y576200D01*
X149200Y1176200D02*
X174600D01*
X200000D01*
X225400Y1023800D02*
X250800D01*
X149200D02*
Y1176200D01*
X200000Y1023800D02*
X225400D01*
X149200D02*
X174600D01*
X200000D01*
X449200Y1176200D02*
X474600D01*
X500000D01*
X449200Y1023800D02*
Y1176200D01*
X500000Y1023800D02*
X525400D01*
X550800D01*
X174600Y876200D02*
X200000D01*
X149200D02*
X174600D01*
X225400Y723800D02*
X250800D01*
X174600D02*
Y876200D01*
X149200Y723800D02*
X174600D01*
X1425400Y576200D02*
X1450800D01*
X1725400D02*
X1750800D01*
X2025400D02*
X2050800D01*
X525400Y123800D02*
Y276200D01*
X550800D01*
X1750800Y123800D02*
Y276200D01*
X1725400D02*
X1750800D01*
X525400Y876200D02*
X550800D01*
X825400D02*
X850800D01*
X1125400D02*
X1150800D01*
X1725400Y723800D02*
Y876200D01*
X1750800D01*
X850800Y423800D02*
Y576200D01*
X825400D02*
X850800D01*
X225400Y1176200D02*
X250800D01*
X525400D02*
X550800D01*
X225400Y876200D02*
X250800D01*
D14*
X2000000Y276200D02*
D03*
X2050800D02*
D03*
X2025400D02*
D03*
X1974600D02*
D03*
X2050800Y123800D02*
D03*
X2025400D02*
D03*
X2000000D02*
D03*
X1974600D02*
D03*
X1949200D02*
D03*
X1700000Y276200D02*
D03*
X1750800D02*
D03*
X1725400D02*
D03*
X1674600D02*
D03*
X1750800Y123800D02*
D03*
X1725400D02*
D03*
X1700000D02*
D03*
X1674600D02*
D03*
X1649200D02*
D03*
X1400000Y276200D02*
D03*
X1450800D02*
D03*
X1425400D02*
D03*
X1374600D02*
D03*
X1450800Y123800D02*
D03*
X1425400D02*
D03*
X1400000D02*
D03*
X1374600D02*
D03*
X1349200D02*
D03*
X1100000Y276200D02*
D03*
X1150800D02*
D03*
X1125400D02*
D03*
X1074600D02*
D03*
X1150800Y123800D02*
D03*
X1125400D02*
D03*
X1100000D02*
D03*
X1074600D02*
D03*
X1049200D02*
D03*
X800000Y276200D02*
D03*
X850800D02*
D03*
X825400D02*
D03*
X774600D02*
D03*
X850800Y123800D02*
D03*
X825400D02*
D03*
X800000D02*
D03*
X774600D02*
D03*
X749200D02*
D03*
X500000Y276200D02*
D03*
X550800D02*
D03*
X525400D02*
D03*
X474600D02*
D03*
X550800Y123800D02*
D03*
X525400D02*
D03*
X500000D02*
D03*
X474600D02*
D03*
X449200D02*
D03*
X200000Y276200D02*
D03*
X250800D02*
D03*
X225400D02*
D03*
X174600D02*
D03*
X250800Y123800D02*
D03*
X225400D02*
D03*
X200000D02*
D03*
X174600D02*
D03*
X149200D02*
D03*
X2000000Y576200D02*
D03*
X2050800D02*
D03*
X2025400D02*
D03*
X1974600D02*
D03*
X2050800Y423800D02*
D03*
X2025400D02*
D03*
X2000000D02*
D03*
X1974600D02*
D03*
X1949200D02*
D03*
X1700000Y576200D02*
D03*
X1750800D02*
D03*
X1725400D02*
D03*
X1674600D02*
D03*
X1750800Y423800D02*
D03*
X1725400D02*
D03*
X1700000D02*
D03*
X1674600D02*
D03*
X1649200D02*
D03*
X1400000Y576200D02*
D03*
X1450800D02*
D03*
X1425400D02*
D03*
X1374600D02*
D03*
X1450800Y423800D02*
D03*
X1425400D02*
D03*
X1400000D02*
D03*
X1374600D02*
D03*
X1349200D02*
D03*
X1100000Y576200D02*
D03*
X1150800D02*
D03*
X1125400D02*
D03*
X1074600D02*
D03*
X1150800Y423800D02*
D03*
X1125400D02*
D03*
X1100000D02*
D03*
X1074600D02*
D03*
X1049200D02*
D03*
X800000Y576200D02*
D03*
X850800D02*
D03*
X825400D02*
D03*
X774600D02*
D03*
X850800Y423800D02*
D03*
X825400D02*
D03*
X800000D02*
D03*
X774600D02*
D03*
X749200D02*
D03*
X500000Y576200D02*
D03*
X550800D02*
D03*
X525400D02*
D03*
X474600D02*
D03*
X550800Y423800D02*
D03*
X525400D02*
D03*
X500000D02*
D03*
X474600D02*
D03*
X449200D02*
D03*
X200000Y576200D02*
D03*
X250800D02*
D03*
X225400D02*
D03*
X174600D02*
D03*
X250800Y423800D02*
D03*
X225400D02*
D03*
X200000D02*
D03*
X174600D02*
D03*
X149200D02*
D03*
X2000000Y876200D02*
D03*
X2050800D02*
D03*
X2025400D02*
D03*
X1974600D02*
D03*
X2050800Y723800D02*
D03*
X2025400D02*
D03*
X2000000D02*
D03*
X1974600D02*
D03*
X1949200D02*
D03*
X1700000Y876200D02*
D03*
X1750800D02*
D03*
X1725400D02*
D03*
X1674600D02*
D03*
X1750800Y723800D02*
D03*
X1725400D02*
D03*
X1700000D02*
D03*
X1674600D02*
D03*
X1649200D02*
D03*
X1400000Y876200D02*
D03*
X1450800D02*
D03*
X1425400D02*
D03*
X1374600D02*
D03*
X1450800Y723800D02*
D03*
X1425400D02*
D03*
X1400000D02*
D03*
X1374600D02*
D03*
X1349200D02*
D03*
X1100000Y876200D02*
D03*
X1150800D02*
D03*
X1125400D02*
D03*
X1074600D02*
D03*
X1150800Y723800D02*
D03*
X1125400D02*
D03*
X1100000D02*
D03*
X1074600D02*
D03*
X1049200D02*
D03*
X800000Y876200D02*
D03*
X850800D02*
D03*
X825400D02*
D03*
X774600D02*
D03*
X850800Y723800D02*
D03*
X825400D02*
D03*
X800000D02*
D03*
X774600D02*
D03*
X749200D02*
D03*
X500000Y876200D02*
D03*
X550800D02*
D03*
X525400D02*
D03*
X474600D02*
D03*
X550800Y723800D02*
D03*
X525400D02*
D03*
X500000D02*
D03*
X474600D02*
D03*
X449200D02*
D03*
X200000Y876200D02*
D03*
X250800D02*
D03*
X225400D02*
D03*
X174600D02*
D03*
X250800Y723800D02*
D03*
X225400D02*
D03*
X200000D02*
D03*
X174600D02*
D03*
X149200D02*
D03*
X500000Y1176200D02*
D03*
X550800D02*
D03*
X525400D02*
D03*
X474600D02*
D03*
X550800Y1023800D02*
D03*
X525400D02*
D03*
X500000D02*
D03*
X474600D02*
D03*
X449200D02*
D03*
X200000Y1176200D02*
D03*
X250800D02*
D03*
X225400D02*
D03*
X174600D02*
D03*
X250800Y1023800D02*
D03*
X225400D02*
D03*
X200000D02*
D03*
X174600D02*
D03*
X149200D02*
D03*
D15*
X1949200Y276200D02*
D03*
X1649200D02*
D03*
X1349200D02*
D03*
X1049200D02*
D03*
X749200D02*
D03*
X449200D02*
D03*
X149200D02*
D03*
X1949200Y576200D02*
D03*
X1649200D02*
D03*
X1349200D02*
D03*
X1049200D02*
D03*
X749200D02*
D03*
X449200D02*
D03*
X149200D02*
D03*
X1949200Y876200D02*
D03*
X1649200D02*
D03*
X1349200D02*
D03*
X1049200D02*
D03*
X749200D02*
D03*
X449200D02*
D03*
X149200D02*
D03*
X449200Y1176200D02*
D03*
X149200D02*
D03*
M02*
