G04*
G04 #@! TF.GenerationSoftware,Altium Limited,Altium Designer,22.10.1 (41)*
G04*
G04 Layer_Color=65535*
%FSLAX44Y44*%
%MOMM*%
G71*
G04*
G04 #@! TF.SameCoordinates,B69FFBF1-EEC0-48B6-B947-E14A7B7049DC*
G04*
G04*
G04 #@! TF.FilePolarity,Positive*
G04*
G01*
G75*
%ADD10C,0.2540*%
D10*
X650000Y350000D02*
X950000D01*
X650000Y650000D02*
X950000D01*
Y350000D02*
Y650000D01*
X650000Y350000D02*
Y650000D01*
X1850000D02*
X2150000D01*
X1850000Y950000D02*
X2150000D01*
Y650000D02*
Y950000D01*
X1850000Y650000D02*
Y950000D01*
X950000Y650000D02*
X1250000D01*
X950000Y950000D02*
X1250000D01*
Y650000D02*
Y950000D01*
X950000Y650000D02*
Y950000D01*
Y50000D02*
X1250000D01*
X950000Y350000D02*
X1250000D01*
Y50000D02*
Y350000D01*
X950000Y50000D02*
Y350000D01*
X350000Y50000D02*
X650000D01*
X350000Y350000D02*
X650000D01*
Y50000D02*
Y350000D01*
X350000Y50000D02*
Y350000D01*
X1550000Y50000D02*
X1850000D01*
X1550000Y350000D02*
X1850000D01*
Y50000D02*
Y350000D01*
X1550000Y50000D02*
Y350000D01*
X350000D02*
X650000D01*
X350000Y650000D02*
X650000D01*
Y350000D02*
Y650000D01*
X350000Y350000D02*
Y650000D01*
X1250000Y350000D02*
X1550000D01*
X1250000Y650000D02*
X1550000D01*
Y350000D02*
Y650000D01*
X1250000Y350000D02*
Y650000D01*
X650000D02*
X950000D01*
X650000Y950000D02*
X950000D01*
Y650000D02*
Y950000D01*
X650000Y650000D02*
Y950000D01*
X1850000Y350000D02*
X2150000D01*
X1850000Y650000D02*
X2150000D01*
Y350000D02*
Y650000D01*
X1850000Y350000D02*
Y650000D01*
X50000Y350000D02*
X350000D01*
X50000Y650000D02*
X350000D01*
Y350000D02*
Y650000D01*
X50000Y350000D02*
Y650000D01*
X1850000Y50000D02*
X2150000D01*
X1850000Y350000D02*
X2150000D01*
Y50000D02*
Y350000D01*
X1850000Y50000D02*
Y350000D01*
X1250000Y50000D02*
X1550000D01*
X1250000Y350000D02*
X1550000D01*
Y50000D02*
Y350000D01*
X1250000Y50000D02*
Y350000D01*
Y650000D02*
X1550000D01*
X1250000Y950000D02*
X1550000D01*
Y650000D02*
Y950000D01*
X1250000Y650000D02*
Y950000D01*
X50000Y650000D02*
X350000D01*
X50000Y950000D02*
X350000D01*
Y650000D02*
Y950000D01*
X50000Y650000D02*
Y950000D01*
Y50000D02*
X350000D01*
X50000Y350000D02*
X350000D01*
Y50000D02*
Y350000D01*
X50000Y50000D02*
Y350000D01*
X950000D02*
X1250000D01*
X950000Y650000D02*
X1250000D01*
Y350000D02*
Y650000D01*
X950000Y350000D02*
Y650000D01*
X1550000D02*
X1850000D01*
X1550000Y950000D02*
X1850000D01*
Y650000D02*
Y950000D01*
X1550000Y650000D02*
Y950000D01*
X650000Y50000D02*
X950000D01*
X650000Y350000D02*
X950000D01*
Y50000D02*
Y350000D01*
X650000Y50000D02*
Y350000D01*
X1550000D02*
X1850000D01*
X1550000Y650000D02*
X1850000D01*
Y350000D02*
Y650000D01*
X1550000Y350000D02*
Y650000D01*
X50000Y950000D02*
X350000D01*
X50000Y1250000D02*
X350000D01*
Y950000D02*
Y1250000D01*
X50000Y950000D02*
Y1250000D01*
X350000Y950000D02*
X650000D01*
X350000Y1250000D02*
X650000D01*
Y950000D02*
Y1250000D01*
X350000Y950000D02*
Y1250000D01*
Y650000D02*
X650000D01*
X350000Y950000D02*
X650000D01*
Y650000D02*
Y950000D01*
X350000Y650000D02*
Y950000D01*
X1550000Y350000D02*
X1850000D01*
X1550000D02*
X1850000D01*
X1993650Y200000D02*
X2006350D01*
X2000000Y193650D02*
Y206350D01*
X1936500Y263500D02*
X2063500D01*
Y111100D02*
Y288900D01*
X1936500D02*
X2063500D01*
X1936500Y111100D02*
Y288900D01*
Y111100D02*
X2063500D01*
X1936500Y136500D02*
X2063500D01*
X1693650Y200000D02*
X1706350D01*
X1700000Y193650D02*
Y206350D01*
X1636500Y263500D02*
X1763500D01*
Y111100D02*
Y288900D01*
X1636500D02*
X1763500D01*
X1636500Y111100D02*
Y288900D01*
Y111100D02*
X1763500D01*
X1636500Y136500D02*
X1763500D01*
X1393650Y200000D02*
X1406350D01*
X1400000Y193650D02*
Y206350D01*
X1336500Y263500D02*
X1463500D01*
Y111100D02*
Y288900D01*
X1336500D02*
X1463500D01*
X1336500Y111100D02*
Y288900D01*
Y111100D02*
X1463500D01*
X1336500Y136500D02*
X1463500D01*
X1093650Y200000D02*
X1106350D01*
X1100000Y193650D02*
Y206350D01*
X1036500Y263500D02*
X1163500D01*
Y111100D02*
Y288900D01*
X1036500D02*
X1163500D01*
X1036500Y111100D02*
Y288900D01*
Y111100D02*
X1163500D01*
X1036500Y136500D02*
X1163500D01*
X793650Y200000D02*
X806350D01*
X800000Y193650D02*
Y206350D01*
X736500Y263500D02*
X863500D01*
Y111100D02*
Y288900D01*
X736500D02*
X863500D01*
X736500Y111100D02*
Y288900D01*
Y111100D02*
X863500D01*
X736500Y136500D02*
X863500D01*
X493650Y200000D02*
X506350D01*
X500000Y193650D02*
Y206350D01*
X436500Y263500D02*
X563500D01*
Y111100D02*
Y288900D01*
X436500D02*
X563500D01*
X436500Y111100D02*
Y288900D01*
Y111100D02*
X563500D01*
X436500Y136500D02*
X563500D01*
X193650Y200000D02*
X206350D01*
X200000Y193650D02*
Y206350D01*
X136500Y263500D02*
X263500D01*
Y111100D02*
Y288900D01*
X136500D02*
X263500D01*
X136500Y111100D02*
Y288900D01*
Y111100D02*
X263500D01*
X136500Y136500D02*
X263500D01*
X1993650Y500000D02*
X2006350D01*
X2000000Y493650D02*
Y506350D01*
X1936500Y563500D02*
X2063500D01*
Y411100D02*
Y588900D01*
X1936500D02*
X2063500D01*
X1936500Y411100D02*
Y588900D01*
Y411100D02*
X2063500D01*
X1936500Y436500D02*
X2063500D01*
X1693650Y500000D02*
X1706350D01*
X1700000Y493650D02*
Y506350D01*
X1636500Y563500D02*
X1763500D01*
Y411100D02*
Y588900D01*
X1636500D02*
X1763500D01*
X1636500Y411100D02*
Y588900D01*
Y411100D02*
X1763500D01*
X1636500Y436500D02*
X1763500D01*
X1393650Y500000D02*
X1406350D01*
X1400000Y493650D02*
Y506350D01*
X1336500Y563500D02*
X1463500D01*
Y411100D02*
Y588900D01*
X1336500D02*
X1463500D01*
X1336500Y411100D02*
Y588900D01*
Y411100D02*
X1463500D01*
X1336500Y436500D02*
X1463500D01*
X1093650Y500000D02*
X1106350D01*
X1100000Y493650D02*
Y506350D01*
X1036500Y563500D02*
X1163500D01*
Y411100D02*
Y588900D01*
X1036500D02*
X1163500D01*
X1036500Y411100D02*
Y588900D01*
Y411100D02*
X1163500D01*
X1036500Y436500D02*
X1163500D01*
X793650Y500000D02*
X806350D01*
X800000Y493650D02*
Y506350D01*
X736500Y563500D02*
X863500D01*
Y411100D02*
Y588900D01*
X736500D02*
X863500D01*
X736500Y411100D02*
Y588900D01*
Y411100D02*
X863500D01*
X736500Y436500D02*
X863500D01*
X493650Y500000D02*
X506350D01*
X500000Y493650D02*
Y506350D01*
X436500Y563500D02*
X563500D01*
Y411100D02*
Y588900D01*
X436500D02*
X563500D01*
X436500Y411100D02*
Y588900D01*
Y411100D02*
X563500D01*
X436500Y436500D02*
X563500D01*
X193650Y500000D02*
X206350D01*
X200000Y493650D02*
Y506350D01*
X136500Y563500D02*
X263500D01*
Y411100D02*
Y588900D01*
X136500D02*
X263500D01*
X136500Y411100D02*
Y588900D01*
Y411100D02*
X263500D01*
X136500Y436500D02*
X263500D01*
X1993650Y800000D02*
X2006350D01*
X2000000Y793650D02*
Y806350D01*
X1936500Y863500D02*
X2063500D01*
Y711100D02*
Y888900D01*
X1936500D02*
X2063500D01*
X1936500Y711100D02*
Y888900D01*
Y711100D02*
X2063500D01*
X1936500Y736500D02*
X2063500D01*
X1693650Y800000D02*
X1706350D01*
X1700000Y793650D02*
Y806350D01*
X1636500Y863500D02*
X1763500D01*
Y711100D02*
Y888900D01*
X1636500D02*
X1763500D01*
X1636500Y711100D02*
Y888900D01*
Y711100D02*
X1763500D01*
X1636500Y736500D02*
X1763500D01*
X1393650Y800000D02*
X1406350D01*
X1400000Y793650D02*
Y806350D01*
X1336500Y863500D02*
X1463500D01*
Y711100D02*
Y888900D01*
X1336500D02*
X1463500D01*
X1336500Y711100D02*
Y888900D01*
Y711100D02*
X1463500D01*
X1336500Y736500D02*
X1463500D01*
X1093650Y800000D02*
X1106350D01*
X1100000Y793650D02*
Y806350D01*
X1036500Y863500D02*
X1163500D01*
Y711100D02*
Y888900D01*
X1036500D02*
X1163500D01*
X1036500Y711100D02*
Y888900D01*
Y711100D02*
X1163500D01*
X1036500Y736500D02*
X1163500D01*
X793650Y800000D02*
X806350D01*
X800000Y793650D02*
Y806350D01*
X736500Y863500D02*
X863500D01*
Y711100D02*
Y888900D01*
X736500D02*
X863500D01*
X736500Y711100D02*
Y888900D01*
Y711100D02*
X863500D01*
X736500Y736500D02*
X863500D01*
X493650Y800000D02*
X506350D01*
X500000Y793650D02*
Y806350D01*
X436500Y863500D02*
X563500D01*
Y711100D02*
Y888900D01*
X436500D02*
X563500D01*
X436500Y711100D02*
Y888900D01*
Y711100D02*
X563500D01*
X436500Y736500D02*
X563500D01*
X193650Y800000D02*
X206350D01*
X200000Y793650D02*
Y806350D01*
X136500Y863500D02*
X263500D01*
Y711100D02*
Y888900D01*
X136500D02*
X263500D01*
X136500Y711100D02*
Y888900D01*
Y711100D02*
X263500D01*
X136500Y736500D02*
X263500D01*
X493650Y1100000D02*
X506350D01*
X500000Y1093650D02*
Y1106350D01*
X436500Y1163500D02*
X563500D01*
Y1011100D02*
Y1188900D01*
X436500D02*
X563500D01*
X436500Y1011100D02*
Y1188900D01*
Y1011100D02*
X563500D01*
X436500Y1036500D02*
X563500D01*
X193650Y1100000D02*
X206350D01*
X200000Y1093650D02*
Y1106350D01*
X136500Y1163500D02*
X263500D01*
Y1011100D02*
Y1188900D01*
X136500D02*
X263500D01*
X136500Y1011100D02*
Y1188900D01*
Y1011100D02*
X263500D01*
X136500Y1036500D02*
X263500D01*
X1366991Y831996D02*
Y816760D01*
X1374608D01*
X1377147Y819300D01*
Y821839D01*
X1374608Y824378D01*
X1366991D01*
X1374608D01*
X1377147Y826917D01*
Y829456D01*
X1374608Y831996D01*
X1366991D01*
X1382226Y816760D02*
X1387304D01*
X1384765D01*
Y831996D01*
X1382226D01*
X1397461Y816760D02*
X1402539D01*
X1405078Y819300D01*
Y824378D01*
X1402539Y826917D01*
X1397461D01*
X1394922Y824378D01*
Y819300D01*
X1397461Y816760D01*
X1420313Y826917D02*
X1412696D01*
X1410157Y824378D01*
Y819300D01*
X1412696Y816760D01*
X1420313D01*
X1425392D02*
Y831996D01*
Y821839D02*
X1433009Y826917D01*
X1425392Y821839D02*
X1433009Y816760D01*
X1379687Y768004D02*
Y783239D01*
X1387304D01*
X1389843Y780700D01*
Y775622D01*
X1387304Y773083D01*
X1379687D01*
X1384765D02*
X1389843Y768004D01*
X1402539D02*
X1397461D01*
X1394922Y770544D01*
Y775622D01*
X1397461Y778161D01*
X1402539D01*
X1405078Y775622D01*
Y773083D01*
X1394922D01*
X1410157Y778161D02*
X1415235Y768004D01*
X1420313Y778161D01*
X166991Y231996D02*
Y216761D01*
X174608D01*
X177147Y219300D01*
Y221839D01*
X174608Y224378D01*
X166991D01*
X174608D01*
X177147Y226917D01*
Y229456D01*
X174608Y231996D01*
X166991D01*
X182226Y216761D02*
X187304D01*
X184765D01*
Y231996D01*
X182226D01*
X197461Y216761D02*
X202539D01*
X205078Y219300D01*
Y224378D01*
X202539Y226917D01*
X197461D01*
X194922Y224378D01*
Y219300D01*
X197461Y216761D01*
X220313Y226917D02*
X212696D01*
X210157Y224378D01*
Y219300D01*
X212696Y216761D01*
X220313D01*
X225392D02*
Y231996D01*
Y221839D02*
X233009Y226917D01*
X225392Y221839D02*
X233009Y216761D01*
X179687Y168004D02*
Y183239D01*
X187304D01*
X189843Y180700D01*
Y175622D01*
X187304Y173083D01*
X179687D01*
X184765D02*
X189843Y168004D01*
X202539D02*
X197461D01*
X194922Y170543D01*
Y175622D01*
X197461Y178161D01*
X202539D01*
X205078Y175622D01*
Y173083D01*
X194922D01*
X210157Y178161D02*
X215235Y168004D01*
X220313Y178161D01*
X166991Y831996D02*
Y816760D01*
X174608D01*
X177147Y819300D01*
Y821839D01*
X174608Y824378D01*
X166991D01*
X174608D01*
X177147Y826917D01*
Y829456D01*
X174608Y831996D01*
X166991D01*
X182226Y816760D02*
X187304D01*
X184765D01*
Y831996D01*
X182226D01*
X197461Y816760D02*
X202539D01*
X205078Y819300D01*
Y824378D01*
X202539Y826917D01*
X197461D01*
X194922Y824378D01*
Y819300D01*
X197461Y816760D01*
X220313Y826917D02*
X212696D01*
X210157Y824378D01*
Y819300D01*
X212696Y816760D01*
X220313D01*
X225392D02*
Y831996D01*
Y821839D02*
X233009Y826917D01*
X225392Y821839D02*
X233009Y816760D01*
X179687Y768004D02*
Y783239D01*
X187304D01*
X189843Y780700D01*
Y775622D01*
X187304Y773083D01*
X179687D01*
X184765D02*
X189843Y768004D01*
X202539D02*
X197461D01*
X194922Y770544D01*
Y775622D01*
X197461Y778161D01*
X202539D01*
X205078Y775622D01*
Y773083D01*
X194922D01*
X210157Y778161D02*
X215235Y768004D01*
X220313Y778161D01*
X766991Y531996D02*
Y516760D01*
X774608D01*
X777147Y519300D01*
Y521839D01*
X774608Y524378D01*
X766991D01*
X774608D01*
X777147Y526917D01*
Y529456D01*
X774608Y531996D01*
X766991D01*
X782226Y516760D02*
X787304D01*
X784765D01*
Y531996D01*
X782226D01*
X797461Y516760D02*
X802539D01*
X805078Y519300D01*
Y524378D01*
X802539Y526917D01*
X797461D01*
X794922Y524378D01*
Y519300D01*
X797461Y516760D01*
X820313Y526917D02*
X812696D01*
X810157Y524378D01*
Y519300D01*
X812696Y516760D01*
X820313D01*
X825392D02*
Y531996D01*
Y521839D02*
X833009Y526917D01*
X825392Y521839D02*
X833009Y516760D01*
X779687Y468004D02*
Y483239D01*
X787304D01*
X789843Y480700D01*
Y475622D01*
X787304Y473083D01*
X779687D01*
X784765D02*
X789843Y468004D01*
X802539D02*
X797461D01*
X794922Y470544D01*
Y475622D01*
X797461Y478161D01*
X802539D01*
X805078Y475622D01*
Y473083D01*
X794922D01*
X810157Y478161D02*
X815235Y468004D01*
X820313Y478161D01*
X766991Y831996D02*
Y816760D01*
X774608D01*
X777147Y819300D01*
Y821839D01*
X774608Y824378D01*
X766991D01*
X774608D01*
X777147Y826917D01*
Y829456D01*
X774608Y831996D01*
X766991D01*
X782226Y816760D02*
X787304D01*
X784765D01*
Y831996D01*
X782226D01*
X797461Y816760D02*
X802539D01*
X805078Y819300D01*
Y824378D01*
X802539Y826917D01*
X797461D01*
X794922Y824378D01*
Y819300D01*
X797461Y816760D01*
X820313Y826917D02*
X812696D01*
X810157Y824378D01*
Y819300D01*
X812696Y816760D01*
X820313D01*
X825392D02*
Y831996D01*
Y821839D02*
X833009Y826917D01*
X825392Y821839D02*
X833009Y816760D01*
X779687Y768004D02*
Y783239D01*
X787304D01*
X789843Y780700D01*
Y775622D01*
X787304Y773083D01*
X779687D01*
X784765D02*
X789843Y768004D01*
X802539D02*
X797461D01*
X794922Y770544D01*
Y775622D01*
X797461Y778161D01*
X802539D01*
X805078Y775622D01*
Y773083D01*
X794922D01*
X810157Y778161D02*
X815235Y768004D01*
X820313Y778161D01*
X166991Y531996D02*
Y516760D01*
X174608D01*
X177147Y519300D01*
Y521839D01*
X174608Y524378D01*
X166991D01*
X174608D01*
X177147Y526917D01*
Y529456D01*
X174608Y531996D01*
X166991D01*
X182226Y516760D02*
X187304D01*
X184765D01*
Y531996D01*
X182226D01*
X197461Y516760D02*
X202539D01*
X205078Y519300D01*
Y524378D01*
X202539Y526917D01*
X197461D01*
X194922Y524378D01*
Y519300D01*
X197461Y516760D01*
X220313Y526917D02*
X212696D01*
X210157Y524378D01*
Y519300D01*
X212696Y516760D01*
X220313D01*
X225392D02*
Y531996D01*
Y521839D02*
X233009Y526917D01*
X225392Y521839D02*
X233009Y516760D01*
X179687Y468004D02*
Y483239D01*
X187304D01*
X189843Y480700D01*
Y475622D01*
X187304Y473083D01*
X179687D01*
X184765D02*
X189843Y468004D01*
X202539D02*
X197461D01*
X194922Y470544D01*
Y475622D01*
X197461Y478161D01*
X202539D01*
X205078Y475622D01*
Y473083D01*
X194922D01*
X210157Y478161D02*
X215235Y468004D01*
X220313Y478161D01*
X1966991Y531996D02*
Y516760D01*
X1974608D01*
X1977147Y519300D01*
Y521839D01*
X1974608Y524378D01*
X1966991D01*
X1974608D01*
X1977147Y526917D01*
Y529456D01*
X1974608Y531996D01*
X1966991D01*
X1982226Y516760D02*
X1987304D01*
X1984765D01*
Y531996D01*
X1982226D01*
X1997461Y516760D02*
X2002539D01*
X2005078Y519300D01*
Y524378D01*
X2002539Y526917D01*
X1997461D01*
X1994922Y524378D01*
Y519300D01*
X1997461Y516760D01*
X2020314Y526917D02*
X2012696D01*
X2010157Y524378D01*
Y519300D01*
X2012696Y516760D01*
X2020314D01*
X2025392D02*
Y531996D01*
Y521839D02*
X2033009Y526917D01*
X2025392Y521839D02*
X2033009Y516760D01*
X1979687Y468004D02*
Y483239D01*
X1987304D01*
X1989843Y480700D01*
Y475622D01*
X1987304Y473083D01*
X1979687D01*
X1984765D02*
X1989843Y468004D01*
X2002539D02*
X1997461D01*
X1994922Y470544D01*
Y475622D01*
X1997461Y478161D01*
X2002539D01*
X2005078Y475622D01*
Y473083D01*
X1994922D01*
X2010157Y478161D02*
X2015235Y468004D01*
X2020314Y478161D01*
X1066991Y231996D02*
Y216761D01*
X1074608D01*
X1077147Y219300D01*
Y221839D01*
X1074608Y224378D01*
X1066991D01*
X1074608D01*
X1077147Y226917D01*
Y229456D01*
X1074608Y231996D01*
X1066991D01*
X1082226Y216761D02*
X1087304D01*
X1084765D01*
Y231996D01*
X1082226D01*
X1097461Y216761D02*
X1102539D01*
X1105078Y219300D01*
Y224378D01*
X1102539Y226917D01*
X1097461D01*
X1094922Y224378D01*
Y219300D01*
X1097461Y216761D01*
X1120313Y226917D02*
X1112696D01*
X1110157Y224378D01*
Y219300D01*
X1112696Y216761D01*
X1120313D01*
X1125392D02*
Y231996D01*
Y221839D02*
X1133009Y226917D01*
X1125392Y221839D02*
X1133009Y216761D01*
X1079687Y168004D02*
Y183239D01*
X1087304D01*
X1089843Y180700D01*
Y175622D01*
X1087304Y173083D01*
X1079687D01*
X1084765D02*
X1089843Y168004D01*
X1102539D02*
X1097461D01*
X1094922Y170543D01*
Y175622D01*
X1097461Y178161D01*
X1102539D01*
X1105078Y175622D01*
Y173083D01*
X1094922D01*
X1110157Y178161D02*
X1115235Y168004D01*
X1120313Y178161D01*
X1066991Y531996D02*
Y516760D01*
X1074608D01*
X1077147Y519300D01*
Y521839D01*
X1074608Y524378D01*
X1066991D01*
X1074608D01*
X1077147Y526917D01*
Y529456D01*
X1074608Y531996D01*
X1066991D01*
X1082226Y516760D02*
X1087304D01*
X1084765D01*
Y531996D01*
X1082226D01*
X1097461Y516760D02*
X1102539D01*
X1105078Y519300D01*
Y524378D01*
X1102539Y526917D01*
X1097461D01*
X1094922Y524378D01*
Y519300D01*
X1097461Y516760D01*
X1120313Y526917D02*
X1112696D01*
X1110157Y524378D01*
Y519300D01*
X1112696Y516760D01*
X1120313D01*
X1125392D02*
Y531996D01*
Y521839D02*
X1133009Y526917D01*
X1125392Y521839D02*
X1133009Y516760D01*
X1079687Y468004D02*
Y483239D01*
X1087304D01*
X1089843Y480700D01*
Y475622D01*
X1087304Y473083D01*
X1079687D01*
X1084765D02*
X1089843Y468004D01*
X1102539D02*
X1097461D01*
X1094922Y470544D01*
Y475622D01*
X1097461Y478161D01*
X1102539D01*
X1105078Y475622D01*
Y473083D01*
X1094922D01*
X1110157Y478161D02*
X1115235Y468004D01*
X1120313Y478161D01*
X1666991Y531996D02*
Y516760D01*
X1674608D01*
X1677147Y519300D01*
Y521839D01*
X1674608Y524378D01*
X1666991D01*
X1674608D01*
X1677147Y526917D01*
Y529456D01*
X1674608Y531996D01*
X1666991D01*
X1682226Y516760D02*
X1687304D01*
X1684765D01*
Y531996D01*
X1682226D01*
X1697461Y516760D02*
X1702539D01*
X1705078Y519300D01*
Y524378D01*
X1702539Y526917D01*
X1697461D01*
X1694922Y524378D01*
Y519300D01*
X1697461Y516760D01*
X1720314Y526917D02*
X1712696D01*
X1710157Y524378D01*
Y519300D01*
X1712696Y516760D01*
X1720314D01*
X1725392D02*
Y531996D01*
Y521839D02*
X1733009Y526917D01*
X1725392Y521839D02*
X1733009Y516760D01*
X1679687Y468004D02*
Y483239D01*
X1687304D01*
X1689843Y480700D01*
Y475622D01*
X1687304Y473083D01*
X1679687D01*
X1684765D02*
X1689843Y468004D01*
X1702539D02*
X1697461D01*
X1694922Y470544D01*
Y475622D01*
X1697461Y478161D01*
X1702539D01*
X1705078Y475622D01*
Y473083D01*
X1694922D01*
X1710157Y478161D02*
X1715235Y468004D01*
X1720314Y478161D01*
X166991Y1131996D02*
Y1116760D01*
X174608D01*
X177147Y1119300D01*
Y1121839D01*
X174608Y1124378D01*
X166991D01*
X174608D01*
X177147Y1126917D01*
Y1129456D01*
X174608Y1131996D01*
X166991D01*
X182226Y1116760D02*
X187304D01*
X184765D01*
Y1131996D01*
X182226D01*
X197461Y1116760D02*
X202539D01*
X205078Y1119300D01*
Y1124378D01*
X202539Y1126917D01*
X197461D01*
X194922Y1124378D01*
Y1119300D01*
X197461Y1116760D01*
X220313Y1126917D02*
X212696D01*
X210157Y1124378D01*
Y1119300D01*
X212696Y1116760D01*
X220313D01*
X225392D02*
Y1131996D01*
Y1121839D02*
X233009Y1126917D01*
X225392Y1121839D02*
X233009Y1116760D01*
X179687Y1068004D02*
Y1083239D01*
X187304D01*
X189843Y1080700D01*
Y1075622D01*
X187304Y1073083D01*
X179687D01*
X184765D02*
X189843Y1068004D01*
X202539D02*
X197461D01*
X194922Y1070544D01*
Y1075622D01*
X197461Y1078161D01*
X202539D01*
X205078Y1075622D01*
Y1073083D01*
X194922D01*
X210157Y1078161D02*
X215235Y1068004D01*
X220313Y1078161D01*
X1366991Y231996D02*
Y216761D01*
X1374608D01*
X1377147Y219300D01*
Y221839D01*
X1374608Y224378D01*
X1366991D01*
X1374608D01*
X1377147Y226917D01*
Y229456D01*
X1374608Y231996D01*
X1366991D01*
X1382226Y216761D02*
X1387304D01*
X1384765D01*
Y231996D01*
X1382226D01*
X1397461Y216761D02*
X1402539D01*
X1405078Y219300D01*
Y224378D01*
X1402539Y226917D01*
X1397461D01*
X1394922Y224378D01*
Y219300D01*
X1397461Y216761D01*
X1420313Y226917D02*
X1412696D01*
X1410157Y224378D01*
Y219300D01*
X1412696Y216761D01*
X1420313D01*
X1425392D02*
Y231996D01*
Y221839D02*
X1433009Y226917D01*
X1425392Y221839D02*
X1433009Y216761D01*
X1379687Y168004D02*
Y183239D01*
X1387304D01*
X1389843Y180700D01*
Y175622D01*
X1387304Y173083D01*
X1379687D01*
X1384765D02*
X1389843Y168004D01*
X1402539D02*
X1397461D01*
X1394922Y170543D01*
Y175622D01*
X1397461Y178161D01*
X1402539D01*
X1405078Y175622D01*
Y173083D01*
X1394922D01*
X1410157Y178161D02*
X1415235Y168004D01*
X1420313Y178161D01*
X466991Y831996D02*
Y816760D01*
X474608D01*
X477147Y819300D01*
Y821839D01*
X474608Y824378D01*
X466991D01*
X474608D01*
X477147Y826917D01*
Y829456D01*
X474608Y831996D01*
X466991D01*
X482226Y816760D02*
X487304D01*
X484765D01*
Y831996D01*
X482226D01*
X497461Y816760D02*
X502539D01*
X505078Y819300D01*
Y824378D01*
X502539Y826917D01*
X497461D01*
X494922Y824378D01*
Y819300D01*
X497461Y816760D01*
X520313Y826917D02*
X512696D01*
X510157Y824378D01*
Y819300D01*
X512696Y816760D01*
X520313D01*
X525392D02*
Y831996D01*
Y821839D02*
X533009Y826917D01*
X525392Y821839D02*
X533009Y816760D01*
X479687Y768004D02*
Y783239D01*
X487304D01*
X489843Y780700D01*
Y775622D01*
X487304Y773083D01*
X479687D01*
X484765D02*
X489843Y768004D01*
X502539D02*
X497461D01*
X494922Y770544D01*
Y775622D01*
X497461Y778161D01*
X502539D01*
X505078Y775622D01*
Y773083D01*
X494922D01*
X510157Y778161D02*
X515235Y768004D01*
X520313Y778161D01*
X466991Y231996D02*
Y216761D01*
X474608D01*
X477147Y219300D01*
Y221839D01*
X474608Y224378D01*
X466991D01*
X474608D01*
X477147Y226917D01*
Y229456D01*
X474608Y231996D01*
X466991D01*
X482226Y216761D02*
X487304D01*
X484765D01*
Y231996D01*
X482226D01*
X497461Y216761D02*
X502539D01*
X505078Y219300D01*
Y224378D01*
X502539Y226917D01*
X497461D01*
X494922Y224378D01*
Y219300D01*
X497461Y216761D01*
X520313Y226917D02*
X512696D01*
X510157Y224378D01*
Y219300D01*
X512696Y216761D01*
X520313D01*
X525392D02*
Y231996D01*
Y221839D02*
X533009Y226917D01*
X525392Y221839D02*
X533009Y216761D01*
X479687Y168004D02*
Y183239D01*
X487304D01*
X489843Y180700D01*
Y175622D01*
X487304Y173083D01*
X479687D01*
X484765D02*
X489843Y168004D01*
X502539D02*
X497461D01*
X494922Y170543D01*
Y175622D01*
X497461Y178161D01*
X502539D01*
X505078Y175622D01*
Y173083D01*
X494922D01*
X510157Y178161D02*
X515235Y168004D01*
X520313Y178161D01*
X1966991Y831996D02*
Y816760D01*
X1974608D01*
X1977147Y819300D01*
Y821839D01*
X1974608Y824378D01*
X1966991D01*
X1974608D01*
X1977147Y826917D01*
Y829456D01*
X1974608Y831996D01*
X1966991D01*
X1982226Y816760D02*
X1987304D01*
X1984765D01*
Y831996D01*
X1982226D01*
X1997461Y816760D02*
X2002539D01*
X2005078Y819300D01*
Y824378D01*
X2002539Y826917D01*
X1997461D01*
X1994922Y824378D01*
Y819300D01*
X1997461Y816760D01*
X2020314Y826917D02*
X2012696D01*
X2010157Y824378D01*
Y819300D01*
X2012696Y816760D01*
X2020314D01*
X2025392D02*
Y831996D01*
Y821839D02*
X2033009Y826917D01*
X2025392Y821839D02*
X2033009Y816760D01*
X1979687Y768004D02*
Y783239D01*
X1987304D01*
X1989843Y780700D01*
Y775622D01*
X1987304Y773083D01*
X1979687D01*
X1984765D02*
X1989843Y768004D01*
X2002539D02*
X1997461D01*
X1994922Y770544D01*
Y775622D01*
X1997461Y778161D01*
X2002539D01*
X2005078Y775622D01*
Y773083D01*
X1994922D01*
X2010157Y778161D02*
X2015235Y768004D01*
X2020314Y778161D01*
X1966991Y231996D02*
Y216761D01*
X1974608D01*
X1977147Y219300D01*
Y221839D01*
X1974608Y224378D01*
X1966991D01*
X1974608D01*
X1977147Y226917D01*
Y229456D01*
X1974608Y231996D01*
X1966991D01*
X1982226Y216761D02*
X1987304D01*
X1984765D01*
Y231996D01*
X1982226D01*
X1997461Y216761D02*
X2002539D01*
X2005078Y219300D01*
Y224378D01*
X2002539Y226917D01*
X1997461D01*
X1994922Y224378D01*
Y219300D01*
X1997461Y216761D01*
X2020314Y226917D02*
X2012696D01*
X2010157Y224378D01*
Y219300D01*
X2012696Y216761D01*
X2020314D01*
X2025392D02*
Y231996D01*
Y221839D02*
X2033009Y226917D01*
X2025392Y221839D02*
X2033009Y216761D01*
X1979687Y168004D02*
Y183239D01*
X1987304D01*
X1989843Y180700D01*
Y175622D01*
X1987304Y173083D01*
X1979687D01*
X1984765D02*
X1989843Y168004D01*
X2002539D02*
X1997461D01*
X1994922Y170543D01*
Y175622D01*
X1997461Y178161D01*
X2002539D01*
X2005078Y175622D01*
Y173083D01*
X1994922D01*
X2010157Y178161D02*
X2015235Y168004D01*
X2020314Y178161D01*
X466991Y1131996D02*
Y1116760D01*
X474608D01*
X477147Y1119300D01*
Y1121839D01*
X474608Y1124378D01*
X466991D01*
X474608D01*
X477147Y1126917D01*
Y1129456D01*
X474608Y1131996D01*
X466991D01*
X482226Y1116760D02*
X487304D01*
X484765D01*
Y1131996D01*
X482226D01*
X497461Y1116760D02*
X502539D01*
X505078Y1119300D01*
Y1124378D01*
X502539Y1126917D01*
X497461D01*
X494922Y1124378D01*
Y1119300D01*
X497461Y1116760D01*
X520313Y1126917D02*
X512696D01*
X510157Y1124378D01*
Y1119300D01*
X512696Y1116760D01*
X520313D01*
X525392D02*
Y1131996D01*
Y1121839D02*
X533009Y1126917D01*
X525392Y1121839D02*
X533009Y1116760D01*
X479687Y1068004D02*
Y1083239D01*
X487304D01*
X489843Y1080700D01*
Y1075622D01*
X487304Y1073083D01*
X479687D01*
X484765D02*
X489843Y1068004D01*
X502539D02*
X497461D01*
X494922Y1070544D01*
Y1075622D01*
X497461Y1078161D01*
X502539D01*
X505078Y1075622D01*
Y1073083D01*
X494922D01*
X510157Y1078161D02*
X515235Y1068004D01*
X520313Y1078161D01*
X466991Y531996D02*
Y516760D01*
X474608D01*
X477147Y519300D01*
Y521839D01*
X474608Y524378D01*
X466991D01*
X474608D01*
X477147Y526917D01*
Y529456D01*
X474608Y531996D01*
X466991D01*
X482226Y516760D02*
X487304D01*
X484765D01*
Y531996D01*
X482226D01*
X497461Y516760D02*
X502539D01*
X505078Y519300D01*
Y524378D01*
X502539Y526917D01*
X497461D01*
X494922Y524378D01*
Y519300D01*
X497461Y516760D01*
X520313Y526917D02*
X512696D01*
X510157Y524378D01*
Y519300D01*
X512696Y516760D01*
X520313D01*
X525392D02*
Y531996D01*
Y521839D02*
X533009Y526917D01*
X525392Y521839D02*
X533009Y516760D01*
X479687Y468004D02*
Y483239D01*
X487304D01*
X489843Y480700D01*
Y475622D01*
X487304Y473083D01*
X479687D01*
X484765D02*
X489843Y468004D01*
X502539D02*
X497461D01*
X494922Y470544D01*
Y475622D01*
X497461Y478161D01*
X502539D01*
X505078Y475622D01*
Y473083D01*
X494922D01*
X510157Y478161D02*
X515235Y468004D01*
X520313Y478161D01*
X1666991Y231996D02*
Y216761D01*
X1674608D01*
X1677147Y219300D01*
Y221839D01*
X1674608Y224378D01*
X1666991D01*
X1674608D01*
X1677147Y226917D01*
Y229456D01*
X1674608Y231996D01*
X1666991D01*
X1682226Y216761D02*
X1687304D01*
X1684765D01*
Y231996D01*
X1682226D01*
X1697461Y216761D02*
X1702539D01*
X1705078Y219300D01*
Y224378D01*
X1702539Y226917D01*
X1697461D01*
X1694922Y224378D01*
Y219300D01*
X1697461Y216761D01*
X1720314Y226917D02*
X1712696D01*
X1710157Y224378D01*
Y219300D01*
X1712696Y216761D01*
X1720314D01*
X1725392D02*
Y231996D01*
Y221839D02*
X1733009Y226917D01*
X1725392Y221839D02*
X1733009Y216761D01*
X1679687Y168004D02*
Y183239D01*
X1687304D01*
X1689843Y180700D01*
Y175622D01*
X1687304Y173083D01*
X1679687D01*
X1684765D02*
X1689843Y168004D01*
X1702539D02*
X1697461D01*
X1694922Y170543D01*
Y175622D01*
X1697461Y178161D01*
X1702539D01*
X1705078Y175622D01*
Y173083D01*
X1694922D01*
X1710157Y178161D02*
X1715235Y168004D01*
X1720314Y178161D01*
X1666991Y831996D02*
Y816760D01*
X1674608D01*
X1677147Y819300D01*
Y821839D01*
X1674608Y824378D01*
X1666991D01*
X1674608D01*
X1677147Y826917D01*
Y829456D01*
X1674608Y831996D01*
X1666991D01*
X1682226Y816760D02*
X1687304D01*
X1684765D01*
Y831996D01*
X1682226D01*
X1697461Y816760D02*
X1702539D01*
X1705078Y819300D01*
Y824378D01*
X1702539Y826917D01*
X1697461D01*
X1694922Y824378D01*
Y819300D01*
X1697461Y816760D01*
X1720314Y826917D02*
X1712696D01*
X1710157Y824378D01*
Y819300D01*
X1712696Y816760D01*
X1720314D01*
X1725392D02*
Y831996D01*
Y821839D02*
X1733009Y826917D01*
X1725392Y821839D02*
X1733009Y816760D01*
X1679687Y768004D02*
Y783239D01*
X1687304D01*
X1689843Y780700D01*
Y775622D01*
X1687304Y773083D01*
X1679687D01*
X1684765D02*
X1689843Y768004D01*
X1702539D02*
X1697461D01*
X1694922Y770544D01*
Y775622D01*
X1697461Y778161D01*
X1702539D01*
X1705078Y775622D01*
Y773083D01*
X1694922D01*
X1710157Y778161D02*
X1715235Y768004D01*
X1720314Y778161D01*
X1066991Y831996D02*
Y816760D01*
X1074608D01*
X1077147Y819300D01*
Y821839D01*
X1074608Y824378D01*
X1066991D01*
X1074608D01*
X1077147Y826917D01*
Y829456D01*
X1074608Y831996D01*
X1066991D01*
X1082226Y816760D02*
X1087304D01*
X1084765D01*
Y831996D01*
X1082226D01*
X1097461Y816760D02*
X1102539D01*
X1105078Y819300D01*
Y824378D01*
X1102539Y826917D01*
X1097461D01*
X1094922Y824378D01*
Y819300D01*
X1097461Y816760D01*
X1120313Y826917D02*
X1112696D01*
X1110157Y824378D01*
Y819300D01*
X1112696Y816760D01*
X1120313D01*
X1125392D02*
Y831996D01*
Y821839D02*
X1133009Y826917D01*
X1125392Y821839D02*
X1133009Y816760D01*
X1079687Y768004D02*
Y783239D01*
X1087304D01*
X1089843Y780700D01*
Y775622D01*
X1087304Y773083D01*
X1079687D01*
X1084765D02*
X1089843Y768004D01*
X1102539D02*
X1097461D01*
X1094922Y770544D01*
Y775622D01*
X1097461Y778161D01*
X1102539D01*
X1105078Y775622D01*
Y773083D01*
X1094922D01*
X1110157Y778161D02*
X1115235Y768004D01*
X1120313Y778161D01*
X766991Y231996D02*
Y216761D01*
X774608D01*
X777147Y219300D01*
Y221839D01*
X774608Y224378D01*
X766991D01*
X774608D01*
X777147Y226917D01*
Y229456D01*
X774608Y231996D01*
X766991D01*
X782226Y216761D02*
X787304D01*
X784765D01*
Y231996D01*
X782226D01*
X797461Y216761D02*
X802539D01*
X805078Y219300D01*
Y224378D01*
X802539Y226917D01*
X797461D01*
X794922Y224378D01*
Y219300D01*
X797461Y216761D01*
X820313Y226917D02*
X812696D01*
X810157Y224378D01*
Y219300D01*
X812696Y216761D01*
X820313D01*
X825392D02*
Y231996D01*
Y221839D02*
X833009Y226917D01*
X825392Y221839D02*
X833009Y216761D01*
X779687Y168004D02*
Y183239D01*
X787304D01*
X789843Y180700D01*
Y175622D01*
X787304Y173083D01*
X779687D01*
X784765D02*
X789843Y168004D01*
X802539D02*
X797461D01*
X794922Y170543D01*
Y175622D01*
X797461Y178161D01*
X802539D01*
X805078Y175622D01*
Y173083D01*
X794922D01*
X810157Y178161D02*
X815235Y168004D01*
X820313Y178161D01*
X1366991Y531996D02*
Y516760D01*
X1374608D01*
X1377147Y519300D01*
Y521839D01*
X1374608Y524378D01*
X1366991D01*
X1374608D01*
X1377147Y526917D01*
Y529456D01*
X1374608Y531996D01*
X1366991D01*
X1382226Y516760D02*
X1387304D01*
X1384765D01*
Y531996D01*
X1382226D01*
X1397461Y516760D02*
X1402539D01*
X1405078Y519300D01*
Y524378D01*
X1402539Y526917D01*
X1397461D01*
X1394922Y524378D01*
Y519300D01*
X1397461Y516760D01*
X1420313Y526917D02*
X1412696D01*
X1410157Y524378D01*
Y519300D01*
X1412696Y516760D01*
X1420313D01*
X1425392D02*
Y531996D01*
Y521839D02*
X1433009Y526917D01*
X1425392Y521839D02*
X1433009Y516760D01*
X1379687Y468004D02*
Y483239D01*
X1387304D01*
X1389843Y480700D01*
Y475622D01*
X1387304Y473083D01*
X1379687D01*
X1384765D02*
X1389843Y468004D01*
X1402539D02*
X1397461D01*
X1394922Y470544D01*
Y475622D01*
X1397461Y478161D01*
X1402539D01*
X1405078Y475622D01*
Y473083D01*
X1394922D01*
X1410157Y478161D02*
X1415235Y468004D01*
X1420313Y478161D01*
X1937882Y315497D02*
Y300262D01*
X1945500D01*
X1948039Y302801D01*
Y305340D01*
X1945500Y307880D01*
X1937882D01*
X1945500D01*
X1948039Y310419D01*
Y312958D01*
X1945500Y315497D01*
X1937882D01*
X1953117D02*
Y300262D01*
X1963274D01*
X1968352Y315497D02*
Y300262D01*
Y305340D01*
X1978509Y315497D01*
X1970891Y307880D01*
X1978509Y300262D01*
X1983587Y297723D02*
X1993744D01*
X1998822Y300262D02*
Y315497D01*
X2008979Y300262D01*
Y315497D01*
X2014057D02*
Y302801D01*
X2016597Y300262D01*
X2021675D01*
X2024214Y302801D01*
Y315497D01*
X2029292Y300262D02*
Y315497D01*
X2034371Y310419D01*
X2039449Y315497D01*
Y300262D01*
X2044527D02*
X2049606D01*
X2047067D01*
Y315497D01*
X2044527Y312958D01*
X2057223Y297723D02*
X2067380D01*
X2072458Y302801D02*
X2074998Y300262D01*
X2080076D01*
X2082615Y302801D01*
Y312958D01*
X2080076Y315497D01*
X2074998D01*
X2072458Y312958D01*
Y310419D01*
X2074998Y307880D01*
X2082615D01*
X1637654Y315497D02*
Y300262D01*
X1645271D01*
X1647811Y302801D01*
Y305340D01*
X1645271Y307880D01*
X1637654D01*
X1645271D01*
X1647811Y310419D01*
Y312958D01*
X1645271Y315497D01*
X1637654D01*
X1652889D02*
Y300262D01*
X1663046D01*
X1668124Y315497D02*
Y300262D01*
Y305340D01*
X1678281Y315497D01*
X1670663Y307880D01*
X1678281Y300262D01*
X1683359Y297723D02*
X1693516D01*
X1698594Y300262D02*
Y315497D01*
X1708751Y300262D01*
Y315497D01*
X1713829D02*
Y302801D01*
X1716369Y300262D01*
X1721447D01*
X1723986Y302801D01*
Y315497D01*
X1729064Y300262D02*
Y315497D01*
X1734143Y310419D01*
X1739221Y315497D01*
Y300262D01*
X1744299D02*
X1749378D01*
X1746839D01*
Y315497D01*
X1744299Y312958D01*
X1756995Y297723D02*
X1767152D01*
X1772231Y312958D02*
X1774770Y315497D01*
X1779848D01*
X1782387Y312958D01*
Y310419D01*
X1779848Y307880D01*
X1782387Y305340D01*
Y302801D01*
X1779848Y300262D01*
X1774770D01*
X1772231Y302801D01*
Y305340D01*
X1774770Y307880D01*
X1772231Y310419D01*
Y312958D01*
X1774770Y307880D02*
X1779848D01*
X1337680Y315497D02*
Y300262D01*
X1345298D01*
X1347837Y302801D01*
Y305340D01*
X1345298Y307880D01*
X1337680D01*
X1345298D01*
X1347837Y310419D01*
Y312958D01*
X1345298Y315497D01*
X1337680D01*
X1352915D02*
Y300262D01*
X1363072D01*
X1368150Y315497D02*
Y300262D01*
Y305340D01*
X1378307Y315497D01*
X1370689Y307880D01*
X1378307Y300262D01*
X1383385Y297723D02*
X1393542D01*
X1398620Y300262D02*
Y315497D01*
X1408777Y300262D01*
Y315497D01*
X1413855D02*
Y302801D01*
X1416395Y300262D01*
X1421473D01*
X1424012Y302801D01*
Y315497D01*
X1429090Y300262D02*
Y315497D01*
X1434169Y310419D01*
X1439247Y315497D01*
Y300262D01*
X1444326D02*
X1449404D01*
X1446865D01*
Y315497D01*
X1444326Y312958D01*
X1457021Y297723D02*
X1467178D01*
X1472256Y315497D02*
X1482413D01*
Y312958D01*
X1472256Y302801D01*
Y300262D01*
X1037706Y315497D02*
Y300262D01*
X1045323D01*
X1047863Y302801D01*
Y305340D01*
X1045323Y307880D01*
X1037706D01*
X1045323D01*
X1047863Y310419D01*
Y312958D01*
X1045323Y315497D01*
X1037706D01*
X1052941D02*
Y300262D01*
X1063098D01*
X1068176Y315497D02*
Y300262D01*
Y305340D01*
X1078333Y315497D01*
X1070715Y307880D01*
X1078333Y300262D01*
X1083411Y297723D02*
X1093568D01*
X1098646Y300262D02*
Y315497D01*
X1108803Y300262D01*
Y315497D01*
X1113881D02*
Y302801D01*
X1116421Y300262D01*
X1121499D01*
X1124038Y302801D01*
Y315497D01*
X1129116Y300262D02*
Y315497D01*
X1134195Y310419D01*
X1139273Y315497D01*
Y300262D01*
X1144352D02*
X1149430D01*
X1146891D01*
Y315497D01*
X1144352Y312958D01*
X1157047Y297723D02*
X1167204D01*
X1182439Y315497D02*
X1177361Y312958D01*
X1172282Y307880D01*
Y302801D01*
X1174822Y300262D01*
X1179900D01*
X1182439Y302801D01*
Y305340D01*
X1179900Y307880D01*
X1172282D01*
X737732Y315497D02*
Y300262D01*
X745350D01*
X747889Y302801D01*
Y305340D01*
X745350Y307880D01*
X737732D01*
X745350D01*
X747889Y310419D01*
Y312958D01*
X745350Y315497D01*
X737732D01*
X752967D02*
Y300262D01*
X763124D01*
X768202Y315497D02*
Y300262D01*
Y305340D01*
X778359Y315497D01*
X770741Y307880D01*
X778359Y300262D01*
X783437Y297723D02*
X793594D01*
X798672Y300262D02*
Y315497D01*
X808829Y300262D01*
Y315497D01*
X813907D02*
Y302801D01*
X816447Y300262D01*
X821525D01*
X824064Y302801D01*
Y315497D01*
X829142Y300262D02*
Y315497D01*
X834221Y310419D01*
X839299Y315497D01*
Y300262D01*
X844378D02*
X849456D01*
X846917D01*
Y315497D01*
X844378Y312958D01*
X857073Y297723D02*
X867230D01*
X882465Y315497D02*
X872309D01*
Y307880D01*
X877387Y310419D01*
X879926D01*
X882465Y307880D01*
Y302801D01*
X879926Y300262D01*
X874848D01*
X872309Y302801D01*
X437758Y315497D02*
Y300262D01*
X445376D01*
X447915Y302801D01*
Y305340D01*
X445376Y307880D01*
X437758D01*
X445376D01*
X447915Y310419D01*
Y312958D01*
X445376Y315497D01*
X437758D01*
X452993D02*
Y300262D01*
X463150D01*
X468228Y315497D02*
Y300262D01*
Y305340D01*
X478385Y315497D01*
X470767Y307880D01*
X478385Y300262D01*
X483463Y297723D02*
X493620D01*
X498698Y300262D02*
Y315497D01*
X508855Y300262D01*
Y315497D01*
X513933D02*
Y302801D01*
X516473Y300262D01*
X521551D01*
X524090Y302801D01*
Y315497D01*
X529168Y300262D02*
Y315497D01*
X534247Y310419D01*
X539325Y315497D01*
Y300262D01*
X544403D02*
X549482D01*
X546943D01*
Y315497D01*
X544403Y312958D01*
X557099Y297723D02*
X567256D01*
X579952Y300262D02*
Y315497D01*
X572335Y307880D01*
X582491D01*
X137784Y315497D02*
Y300262D01*
X145401D01*
X147941Y302801D01*
Y305340D01*
X145401Y307880D01*
X137784D01*
X145401D01*
X147941Y310419D01*
Y312958D01*
X145401Y315497D01*
X137784D01*
X153019D02*
Y300262D01*
X163176D01*
X168254Y315497D02*
Y300262D01*
Y305340D01*
X178411Y315497D01*
X170793Y307880D01*
X178411Y300262D01*
X183489Y297723D02*
X193646D01*
X198724Y300262D02*
Y315497D01*
X208881Y300262D01*
Y315497D01*
X213959D02*
Y302801D01*
X216499Y300262D01*
X221577D01*
X224116Y302801D01*
Y315497D01*
X229194Y300262D02*
Y315497D01*
X234273Y310419D01*
X239351Y315497D01*
Y300262D01*
X244429D02*
X249508D01*
X246969D01*
Y315497D01*
X244429Y312958D01*
X257125Y297723D02*
X267282D01*
X272360Y312958D02*
X274900Y315497D01*
X279978D01*
X282517Y312958D01*
Y310419D01*
X279978Y307880D01*
X277439D01*
X279978D01*
X282517Y305340D01*
Y302801D01*
X279978Y300262D01*
X274900D01*
X272360Y302801D01*
X1937882Y615471D02*
Y600236D01*
X1945500D01*
X1948039Y602775D01*
Y605314D01*
X1945500Y607854D01*
X1937882D01*
X1945500D01*
X1948039Y610393D01*
Y612932D01*
X1945500Y615471D01*
X1937882D01*
X1953117D02*
Y600236D01*
X1963274D01*
X1968352Y615471D02*
Y600236D01*
Y605314D01*
X1978509Y615471D01*
X1970891Y607854D01*
X1978509Y600236D01*
X1983587Y597697D02*
X1993744D01*
X1998822Y600236D02*
Y615471D01*
X2008979Y600236D01*
Y615471D01*
X2014057D02*
Y602775D01*
X2016597Y600236D01*
X2021675D01*
X2024214Y602775D01*
Y615471D01*
X2029292Y600236D02*
Y615471D01*
X2034371Y610393D01*
X2039449Y615471D01*
Y600236D01*
X2044527D02*
X2049606D01*
X2047067D01*
Y615471D01*
X2044527Y612932D01*
X2057223Y597697D02*
X2067380D01*
X2082615Y600236D02*
X2072458D01*
X2082615Y610393D01*
Y612932D01*
X2080076Y615471D01*
X2074998D01*
X2072458Y612932D01*
X1637654Y615471D02*
Y600236D01*
X1645271D01*
X1647811Y602775D01*
Y605314D01*
X1645271Y607854D01*
X1637654D01*
X1645271D01*
X1647811Y610393D01*
Y612932D01*
X1645271Y615471D01*
X1637654D01*
X1652889D02*
Y600236D01*
X1663046D01*
X1668124Y615471D02*
Y600236D01*
Y605314D01*
X1678281Y615471D01*
X1670663Y607854D01*
X1678281Y600236D01*
X1683359Y597697D02*
X1693516D01*
X1698594Y600236D02*
Y615471D01*
X1708751Y600236D01*
Y615471D01*
X1713829D02*
Y602775D01*
X1716369Y600236D01*
X1721447D01*
X1723986Y602775D01*
Y615471D01*
X1729064Y600236D02*
Y615471D01*
X1734143Y610393D01*
X1739221Y615471D01*
Y600236D01*
X1744299D02*
X1749378D01*
X1746839D01*
Y615471D01*
X1744299Y612932D01*
X1756995Y597697D02*
X1767152D01*
X1772231Y600236D02*
X1777309D01*
X1774770D01*
Y615471D01*
X1772231Y612932D01*
X1337680Y615471D02*
Y600236D01*
X1345298D01*
X1347837Y602775D01*
Y605314D01*
X1345298Y607854D01*
X1337680D01*
X1345298D01*
X1347837Y610393D01*
Y612932D01*
X1345298Y615471D01*
X1337680D01*
X1352915D02*
Y600236D01*
X1363072D01*
X1368150Y615471D02*
Y600236D01*
Y605314D01*
X1378307Y615471D01*
X1370689Y607854D01*
X1378307Y600236D01*
X1383385Y597697D02*
X1393542D01*
X1398620Y600236D02*
Y615471D01*
X1408777Y600236D01*
Y615471D01*
X1413855D02*
Y602775D01*
X1416395Y600236D01*
X1421473D01*
X1424012Y602775D01*
Y615471D01*
X1429090Y600236D02*
Y615471D01*
X1434169Y610393D01*
X1439247Y615471D01*
Y600236D01*
X1444326D02*
X1449404D01*
X1446865D01*
Y615471D01*
X1444326Y612932D01*
X1457021Y597697D02*
X1467178D01*
X1472256Y612932D02*
X1474796Y615471D01*
X1479874D01*
X1482413Y612932D01*
Y602775D01*
X1479874Y600236D01*
X1474796D01*
X1472256Y602775D01*
Y612932D01*
X1037706Y615471D02*
Y600236D01*
X1045323D01*
X1047863Y602775D01*
Y605314D01*
X1045323Y607854D01*
X1037706D01*
X1045323D01*
X1047863Y610393D01*
Y612932D01*
X1045323Y615471D01*
X1037706D01*
X1052941D02*
Y600236D01*
X1063098D01*
X1068176Y615471D02*
Y600236D01*
Y605314D01*
X1078333Y615471D01*
X1070715Y607854D01*
X1078333Y600236D01*
X1083411Y597697D02*
X1093568D01*
X1098646Y600236D02*
Y615471D01*
X1108803Y600236D01*
Y615471D01*
X1113881D02*
Y602775D01*
X1116421Y600236D01*
X1121499D01*
X1124038Y602775D01*
Y615471D01*
X1129116Y600236D02*
Y615471D01*
X1134195Y610393D01*
X1139273Y615471D01*
Y600236D01*
X1154508D02*
X1144352D01*
X1154508Y610393D01*
Y612932D01*
X1151969Y615471D01*
X1146891D01*
X1144352Y612932D01*
X1159587Y597697D02*
X1169743D01*
X1174822Y602775D02*
X1177361Y600236D01*
X1182439D01*
X1184978Y602775D01*
Y612932D01*
X1182439Y615471D01*
X1177361D01*
X1174822Y612932D01*
Y610393D01*
X1177361Y607854D01*
X1184978D01*
X737732Y615471D02*
Y600236D01*
X745350D01*
X747889Y602775D01*
Y605314D01*
X745350Y607854D01*
X737732D01*
X745350D01*
X747889Y610393D01*
Y612932D01*
X745350Y615471D01*
X737732D01*
X752967D02*
Y600236D01*
X763124D01*
X768202Y615471D02*
Y600236D01*
Y605314D01*
X778359Y615471D01*
X770741Y607854D01*
X778359Y600236D01*
X783437Y597697D02*
X793594D01*
X798672Y600236D02*
Y615471D01*
X808829Y600236D01*
Y615471D01*
X813907D02*
Y602775D01*
X816447Y600236D01*
X821525D01*
X824064Y602775D01*
Y615471D01*
X829142Y600236D02*
Y615471D01*
X834221Y610393D01*
X839299Y615471D01*
Y600236D01*
X854534D02*
X844378D01*
X854534Y610393D01*
Y612932D01*
X851995Y615471D01*
X846917D01*
X844378Y612932D01*
X859613Y597697D02*
X869769D01*
X874848Y612932D02*
X877387Y615471D01*
X882465D01*
X885004Y612932D01*
Y610393D01*
X882465Y607854D01*
X885004Y605314D01*
Y602775D01*
X882465Y600236D01*
X877387D01*
X874848Y602775D01*
Y605314D01*
X877387Y607854D01*
X874848Y610393D01*
Y612932D01*
X877387Y607854D02*
X882465D01*
X437758Y615471D02*
Y600236D01*
X445376D01*
X447915Y602775D01*
Y605314D01*
X445376Y607854D01*
X437758D01*
X445376D01*
X447915Y610393D01*
Y612932D01*
X445376Y615471D01*
X437758D01*
X452993D02*
Y600236D01*
X463150D01*
X468228Y615471D02*
Y600236D01*
Y605314D01*
X478385Y615471D01*
X470767Y607854D01*
X478385Y600236D01*
X483463Y597697D02*
X493620D01*
X498698Y600236D02*
Y615471D01*
X508855Y600236D01*
Y615471D01*
X513933D02*
Y602775D01*
X516473Y600236D01*
X521551D01*
X524090Y602775D01*
Y615471D01*
X529168Y600236D02*
Y615471D01*
X534247Y610393D01*
X539325Y615471D01*
Y600236D01*
X554560D02*
X544403D01*
X554560Y610393D01*
Y612932D01*
X552021Y615471D01*
X546943D01*
X544403Y612932D01*
X559639Y597697D02*
X569795D01*
X574874Y615471D02*
X585030D01*
Y612932D01*
X574874Y602775D01*
Y600236D01*
X137784Y615471D02*
Y600236D01*
X145401D01*
X147941Y602775D01*
Y605314D01*
X145401Y607854D01*
X137784D01*
X145401D01*
X147941Y610393D01*
Y612932D01*
X145401Y615471D01*
X137784D01*
X153019D02*
Y600236D01*
X163176D01*
X168254Y615471D02*
Y600236D01*
Y605314D01*
X178411Y615471D01*
X170793Y607854D01*
X178411Y600236D01*
X183489Y597697D02*
X193646D01*
X198724Y600236D02*
Y615471D01*
X208881Y600236D01*
Y615471D01*
X213959D02*
Y602775D01*
X216499Y600236D01*
X221577D01*
X224116Y602775D01*
Y615471D01*
X229194Y600236D02*
Y615471D01*
X234273Y610393D01*
X239351Y615471D01*
Y600236D01*
X254586D02*
X244429D01*
X254586Y610393D01*
Y612932D01*
X252047Y615471D01*
X246969D01*
X244429Y612932D01*
X259665Y597697D02*
X269821D01*
X285056Y615471D02*
X279978Y612932D01*
X274900Y607854D01*
Y602775D01*
X277439Y600236D01*
X282517D01*
X285056Y602775D01*
Y605314D01*
X282517Y607854D01*
X274900D01*
X1937882Y915445D02*
Y900210D01*
X1945500D01*
X1948039Y902749D01*
Y905288D01*
X1945500Y907828D01*
X1937882D01*
X1945500D01*
X1948039Y910367D01*
Y912906D01*
X1945500Y915445D01*
X1937882D01*
X1953117D02*
Y900210D01*
X1963274D01*
X1968352Y915445D02*
Y900210D01*
Y905288D01*
X1978509Y915445D01*
X1970891Y907828D01*
X1978509Y900210D01*
X1983587Y897671D02*
X1993744D01*
X1998822Y900210D02*
Y915445D01*
X2008979Y900210D01*
Y915445D01*
X2014057D02*
Y902749D01*
X2016597Y900210D01*
X2021675D01*
X2024214Y902749D01*
Y915445D01*
X2029292Y900210D02*
Y915445D01*
X2034371Y910367D01*
X2039449Y915445D01*
Y900210D01*
X2054684D02*
X2044527D01*
X2054684Y910367D01*
Y912906D01*
X2052145Y915445D01*
X2047067D01*
X2044527Y912906D01*
X2059763Y897671D02*
X2069919D01*
X2085154Y915445D02*
X2074998D01*
Y907828D01*
X2080076Y910367D01*
X2082615D01*
X2085154Y907828D01*
Y902749D01*
X2082615Y900210D01*
X2077537D01*
X2074998Y902749D01*
X1637654Y915445D02*
Y900210D01*
X1645271D01*
X1647811Y902749D01*
Y905288D01*
X1645271Y907828D01*
X1637654D01*
X1645271D01*
X1647811Y910367D01*
Y912906D01*
X1645271Y915445D01*
X1637654D01*
X1652889D02*
Y900210D01*
X1663046D01*
X1668124Y915445D02*
Y900210D01*
Y905288D01*
X1678281Y915445D01*
X1670663Y907828D01*
X1678281Y900210D01*
X1683359Y897671D02*
X1693516D01*
X1698594Y900210D02*
Y915445D01*
X1708751Y900210D01*
Y915445D01*
X1713829D02*
Y902749D01*
X1716369Y900210D01*
X1721447D01*
X1723986Y902749D01*
Y915445D01*
X1729064Y900210D02*
Y915445D01*
X1734143Y910367D01*
X1739221Y915445D01*
Y900210D01*
X1754456D02*
X1744299D01*
X1754456Y910367D01*
Y912906D01*
X1751917Y915445D01*
X1746839D01*
X1744299Y912906D01*
X1759535Y897671D02*
X1769691D01*
X1782387Y900210D02*
Y915445D01*
X1774770Y907828D01*
X1784926D01*
X1337680Y915445D02*
Y900210D01*
X1345298D01*
X1347837Y902749D01*
Y905288D01*
X1345298Y907828D01*
X1337680D01*
X1345298D01*
X1347837Y910367D01*
Y912906D01*
X1345298Y915445D01*
X1337680D01*
X1352915D02*
Y900210D01*
X1363072D01*
X1368150Y915445D02*
Y900210D01*
Y905288D01*
X1378307Y915445D01*
X1370689Y907828D01*
X1378307Y900210D01*
X1383385Y897671D02*
X1393542D01*
X1398620Y900210D02*
Y915445D01*
X1408777Y900210D01*
Y915445D01*
X1413855D02*
Y902749D01*
X1416395Y900210D01*
X1421473D01*
X1424012Y902749D01*
Y915445D01*
X1429090Y900210D02*
Y915445D01*
X1434169Y910367D01*
X1439247Y915445D01*
Y900210D01*
X1454482D02*
X1444326D01*
X1454482Y910367D01*
Y912906D01*
X1451943Y915445D01*
X1446865D01*
X1444326Y912906D01*
X1459561Y897671D02*
X1469717D01*
X1474796Y912906D02*
X1477335Y915445D01*
X1482413D01*
X1484952Y912906D01*
Y910367D01*
X1482413Y907828D01*
X1479874D01*
X1482413D01*
X1484952Y905288D01*
Y902749D01*
X1482413Y900210D01*
X1477335D01*
X1474796Y902749D01*
X1037706Y915445D02*
Y900210D01*
X1045323D01*
X1047863Y902749D01*
Y905288D01*
X1045323Y907828D01*
X1037706D01*
X1045323D01*
X1047863Y910367D01*
Y912906D01*
X1045323Y915445D01*
X1037706D01*
X1052941D02*
Y900210D01*
X1063098D01*
X1068176Y915445D02*
Y900210D01*
Y905288D01*
X1078333Y915445D01*
X1070715Y907828D01*
X1078333Y900210D01*
X1083411Y897671D02*
X1093568D01*
X1098646Y900210D02*
Y915445D01*
X1108803Y900210D01*
Y915445D01*
X1113881D02*
Y902749D01*
X1116421Y900210D01*
X1121499D01*
X1124038Y902749D01*
Y915445D01*
X1129116Y900210D02*
Y915445D01*
X1134195Y910367D01*
X1139273Y915445D01*
Y900210D01*
X1154508D02*
X1144352D01*
X1154508Y910367D01*
Y912906D01*
X1151969Y915445D01*
X1146891D01*
X1144352Y912906D01*
X1159587Y897671D02*
X1169743D01*
X1184978Y900210D02*
X1174822D01*
X1184978Y910367D01*
Y912906D01*
X1182439Y915445D01*
X1177361D01*
X1174822Y912906D01*
X737732Y915445D02*
Y900210D01*
X745350D01*
X747889Y902749D01*
Y905288D01*
X745350Y907828D01*
X737732D01*
X745350D01*
X747889Y910367D01*
Y912906D01*
X745350Y915445D01*
X737732D01*
X752967D02*
Y900210D01*
X763124D01*
X768202Y915445D02*
Y900210D01*
Y905288D01*
X778359Y915445D01*
X770741Y907828D01*
X778359Y900210D01*
X783437Y897671D02*
X793594D01*
X798672Y900210D02*
Y915445D01*
X808829Y900210D01*
Y915445D01*
X813907D02*
Y902749D01*
X816447Y900210D01*
X821525D01*
X824064Y902749D01*
Y915445D01*
X829142Y900210D02*
Y915445D01*
X834221Y910367D01*
X839299Y915445D01*
Y900210D01*
X854534D02*
X844378D01*
X854534Y910367D01*
Y912906D01*
X851995Y915445D01*
X846917D01*
X844378Y912906D01*
X859613Y897671D02*
X869769D01*
X874848Y900210D02*
X879926D01*
X877387D01*
Y915445D01*
X874848Y912906D01*
X437758Y915445D02*
Y900210D01*
X445376D01*
X447915Y902749D01*
Y905288D01*
X445376Y907828D01*
X437758D01*
X445376D01*
X447915Y910367D01*
Y912906D01*
X445376Y915445D01*
X437758D01*
X452993D02*
Y900210D01*
X463150D01*
X468228Y915445D02*
Y900210D01*
Y905288D01*
X478385Y915445D01*
X470767Y907828D01*
X478385Y900210D01*
X483463Y897671D02*
X493620D01*
X498698Y900210D02*
Y915445D01*
X508855Y900210D01*
Y915445D01*
X513933D02*
Y902749D01*
X516473Y900210D01*
X521551D01*
X524090Y902749D01*
Y915445D01*
X529168Y900210D02*
Y915445D01*
X534247Y910367D01*
X539325Y915445D01*
Y900210D01*
X554560D02*
X544403D01*
X554560Y910367D01*
Y912906D01*
X552021Y915445D01*
X546943D01*
X544403Y912906D01*
X559639Y897671D02*
X569795D01*
X574874Y912906D02*
X577413Y915445D01*
X582491D01*
X585030Y912906D01*
Y902749D01*
X582491Y900210D01*
X577413D01*
X574874Y902749D01*
Y912906D01*
X137784Y915445D02*
Y900210D01*
X145401D01*
X147941Y902749D01*
Y905288D01*
X145401Y907828D01*
X137784D01*
X145401D01*
X147941Y910367D01*
Y912906D01*
X145401Y915445D01*
X137784D01*
X153019D02*
Y900210D01*
X163176D01*
X168254Y915445D02*
Y900210D01*
Y905288D01*
X178411Y915445D01*
X170793Y907828D01*
X178411Y900210D01*
X183489Y897671D02*
X193646D01*
X206342Y915445D02*
X201264D01*
X198724Y912906D01*
Y902749D01*
X201264Y900210D01*
X206342D01*
X208881Y902749D01*
Y912906D01*
X206342Y915445D01*
X213959Y900210D02*
Y915445D01*
X221577D01*
X224116Y912906D01*
Y907828D01*
X221577Y905288D01*
X213959D01*
X229194Y897671D02*
X239351D01*
X254586Y900210D02*
X244429D01*
X254586Y910367D01*
Y912906D01*
X252047Y915445D01*
X246969D01*
X244429Y912906D01*
X437758Y1215673D02*
Y1200438D01*
X445376D01*
X447915Y1202977D01*
Y1205516D01*
X445376Y1208055D01*
X437758D01*
X445376D01*
X447915Y1210595D01*
Y1213134D01*
X445376Y1215673D01*
X437758D01*
X452993D02*
Y1200438D01*
X463150D01*
X468228Y1215673D02*
Y1200438D01*
Y1205516D01*
X478385Y1215673D01*
X470767Y1208055D01*
X478385Y1200438D01*
X483463Y1197899D02*
X493620D01*
X506316Y1215673D02*
X501237D01*
X498698Y1213134D01*
Y1202977D01*
X501237Y1200438D01*
X506316D01*
X508855Y1202977D01*
Y1213134D01*
X506316Y1215673D01*
X513933Y1200438D02*
Y1215673D01*
X521551D01*
X524090Y1213134D01*
Y1208055D01*
X521551Y1205516D01*
X513933D01*
X529168Y1197899D02*
X539325D01*
X544403Y1200438D02*
X549482D01*
X546943D01*
Y1215673D01*
X544403Y1213134D01*
X137784Y1215673D02*
Y1200438D01*
X145401D01*
X147941Y1202977D01*
Y1205516D01*
X145401Y1208055D01*
X137784D01*
X145401D01*
X147941Y1210595D01*
Y1213134D01*
X145401Y1215673D01*
X137784D01*
X153019D02*
Y1200438D01*
X163176D01*
X168254Y1215673D02*
Y1200438D01*
Y1205516D01*
X178411Y1215673D01*
X170793Y1208055D01*
X178411Y1200438D01*
X183489Y1197899D02*
X193646D01*
X206342Y1215673D02*
X201264D01*
X198724Y1213134D01*
Y1202977D01*
X201264Y1200438D01*
X206342D01*
X208881Y1202977D01*
Y1213134D01*
X206342Y1215673D01*
X213959Y1200438D02*
Y1215673D01*
X221577D01*
X224116Y1213134D01*
Y1208055D01*
X221577Y1205516D01*
X213959D01*
X229194Y1197899D02*
X239351D01*
X244429Y1213134D02*
X246969Y1215673D01*
X252047D01*
X254586Y1213134D01*
Y1202977D01*
X252047Y1200438D01*
X246969D01*
X244429Y1202977D01*
Y1213134D01*
M02*
