G04*
G04 #@! TF.GenerationSoftware,Altium Limited,Altium Designer,22.10.1 (41)*
G04*
G04 Layer_Physical_Order=1*
G04 Layer_Color=255*
%FSLAX44Y44*%
%MOMM*%
G71*
G04*
G04 #@! TF.SameCoordinates,DC14263B-851C-4228-9BCC-B2AFAE25A1D2*
G04*
G04*
G04 #@! TF.FilePolarity,Positive*
G04*
G01*
G75*
%ADD13C,0.8000*%
%ADD14C,1.2700*%
%ADD15R,1.2700X1.2700*%
D13*
X225400Y149200D02*
Y276200D01*
X200000Y123800D02*
X225400Y149200D01*
X1425400Y749200D02*
Y876200D01*
X1400000Y723800D02*
X1425400Y749200D01*
X2025400Y449200D02*
Y576200D01*
X2000000Y423800D02*
X2025400Y449200D01*
X1125400Y749200D02*
Y876200D01*
X1100000Y723800D02*
X1125400Y749200D01*
X474600Y1023800D02*
Y1125400D01*
X525400Y1176200D01*
X225400Y749200D02*
Y876200D01*
X200000Y723800D02*
X225400Y749200D01*
X1933818Y764582D02*
X1974600Y723800D01*
X1933818Y764582D02*
Y887764D01*
X1942200Y896146D01*
X2005454D01*
X2025400Y876200D01*
X796512Y305088D02*
X825400Y276200D01*
X748400Y305088D02*
X796512D01*
X733668Y290356D02*
X748400Y305088D01*
X733668Y164732D02*
Y290356D01*
Y164732D02*
X774600Y123800D01*
Y825400D02*
X825400Y876200D01*
X774600Y723800D02*
Y825400D01*
X474200Y998000D02*
X500000Y1023800D01*
X461500Y998000D02*
X474200D01*
X449200Y1010300D02*
X461500Y998000D01*
X449200Y1010300D02*
Y1023800D01*
X800000Y109000D02*
Y123800D01*
Y109000D02*
X812700Y96300D01*
X823300D01*
X850800Y123800D01*
X500000Y102130D02*
Y123800D01*
Y102130D02*
X505830Y96300D01*
X523300D01*
X550800Y123800D01*
X1649200Y423800D02*
X1665550Y407450D01*
X1683650D01*
X1700000Y423800D01*
X1674600Y525400D02*
X1725400Y576200D01*
X1674600Y423800D02*
Y525400D01*
X782100Y705900D02*
X800000Y723800D01*
X767100Y705900D02*
X782100D01*
X749200Y723800D02*
X767100Y705900D01*
X522766Y395766D02*
X550800Y423800D01*
X477234Y395766D02*
X522766D01*
X449200Y423800D02*
X477234Y395766D01*
X1349200Y123800D02*
X1376700Y96300D01*
X1423300D01*
X1450800Y123800D01*
X209838Y108238D02*
X225400Y123800D01*
X164762Y108238D02*
X209838D01*
X149200Y123800D02*
X164762Y108238D01*
X1974600Y123800D02*
X1997900Y147100D01*
X2027500D01*
X2050800Y123800D01*
X174600Y423800D02*
X201618Y396782D01*
X223782D01*
X250800Y423800D01*
X1074600Y123800D02*
X1090162Y108238D01*
X1135238D01*
X1150800Y123800D01*
X1389466Y687866D02*
X1425400Y723800D01*
X1385134Y687866D02*
X1389466D01*
X1349200Y723800D02*
X1385134Y687866D01*
X1074600Y423800D02*
X1090000Y439200D01*
X1135400D01*
X1150800Y423800D01*
X1984438Y108238D02*
X2000000Y123800D01*
X1964762Y108238D02*
X1984438D01*
X1949200Y123800D02*
X1964762Y108238D01*
X174600Y723800D02*
X194652Y703748D01*
X205348D01*
X225400Y723800D01*
X2009050Y407450D02*
X2025400Y423800D01*
X1990950Y407450D02*
X2009050D01*
X1974600Y423800D02*
X1990950Y407450D01*
X2026550Y699550D02*
X2050800Y723800D01*
X2024250Y699550D02*
X2026550D01*
X2000000Y723800D02*
X2024250Y699550D01*
X1949200Y723800D02*
X1964560Y708440D01*
X1984640D01*
X2000000Y723800D01*
X749200Y123800D02*
X764762Y108238D01*
X784438D01*
X800000Y123800D01*
X1732900Y705900D02*
X1750800Y723800D01*
X1717900Y705900D02*
X1732900D01*
X1700000Y723800D02*
X1717900Y705900D01*
X1049200Y423800D02*
X1065550Y407450D01*
X1083650D01*
X1100000Y423800D01*
X1107500Y705900D02*
X1125400Y723800D01*
X1092500Y705900D02*
X1107500D01*
X1074600Y723800D02*
X1092500Y705900D01*
X449200Y876200D02*
X474600D01*
X500000D01*
X525400Y723800D02*
X550800D01*
X449200D02*
Y876200D01*
X500000Y723800D02*
X525400D01*
X449200D02*
X474600D01*
X500000D01*
X525400Y576200D02*
X550800D01*
X525400Y423800D02*
Y576200D01*
X474600Y423800D02*
X500000D01*
X525400D01*
X1349200Y576200D02*
X1374600D01*
X1400000D01*
X1425400Y423800D02*
X1450800D01*
X1349200D02*
Y576200D01*
X1400000Y423800D02*
X1425400D01*
X1349200D02*
X1374600D01*
X1400000D01*
X1649200Y576200D02*
X1674600D01*
X1700000D01*
X1649200Y423800D02*
Y576200D01*
X1700000Y423800D02*
X1725400D01*
X1750800D01*
X1974600Y576200D02*
X2000000D01*
X1949200D02*
X1974600D01*
X2025400Y423800D02*
X2050800D01*
X1974600D02*
Y576200D01*
X1949200Y423800D02*
X1974600D01*
X149200Y276200D02*
X174600D01*
X200000D01*
X149200Y123800D02*
Y276200D01*
X225400Y123800D02*
X250800D01*
X225400Y276200D02*
X250800D01*
X174600Y123800D02*
X200000D01*
X474600Y276200D02*
X500000D01*
X449200D02*
X474600D01*
X500000Y123800D02*
Y276200D01*
X449200Y123800D02*
X474600D01*
X500000D01*
X774600Y276200D02*
X800000D01*
X749200D02*
X774600D01*
X800000Y123800D02*
Y276200D01*
X825400D02*
X850800D01*
X825400Y123800D02*
Y276200D01*
X1049200Y123800D02*
X1074600D01*
Y276200D01*
X1049200D02*
X1074600D01*
X1100000D01*
X1125400D02*
X1150800D01*
X1125400Y123800D02*
Y276200D01*
X1100000Y123800D02*
X1125400D01*
X1374600Y276200D02*
X1400000D01*
X1349200D02*
X1374600D01*
X1349200Y123800D02*
Y276200D01*
X1425400D02*
X1450800D01*
X1425400Y123800D02*
Y276200D01*
X1374600Y123800D02*
X1400000D01*
X1425400D01*
X1674600Y276200D02*
X1700000D01*
X1649200D02*
X1674600D01*
X1700000Y123800D02*
Y276200D01*
Y123800D02*
X1725400D01*
X1674600D02*
X1700000D01*
X1649200D02*
X1674600D01*
X1949200Y276200D02*
X1974600D01*
X2000000D01*
X1949200Y123800D02*
Y276200D01*
X2000000Y123800D02*
X2025400D01*
Y276200D02*
X2050800D01*
Y123800D02*
Y276200D01*
X749200Y876200D02*
X774600D01*
X800000D01*
X749200Y723800D02*
Y876200D01*
X800000Y723800D02*
X825400D01*
X850800D01*
X1074600Y876200D02*
X1100000D01*
X1049200D02*
X1074600D01*
X1125400Y723800D02*
X1150800D01*
X1074600D02*
Y876200D01*
X1049200Y723800D02*
X1074600D01*
X1349200Y876200D02*
X1374600D01*
X1400000D01*
X1349200Y723800D02*
Y876200D01*
X1425400Y723800D02*
X1450800D01*
X1425400Y876200D02*
X1450800D01*
X1374600Y723800D02*
X1400000D01*
X1674600Y876200D02*
X1700000D01*
X1649200D02*
X1674600D01*
X1700000Y723800D02*
Y876200D01*
X1649200Y723800D02*
X1674600D01*
X1700000D01*
X1974600Y876200D02*
X2000000D01*
X1949200D02*
X1974600D01*
X2000000Y723800D02*
Y876200D01*
X2025400D02*
X2050800D01*
X2025400Y723800D02*
Y876200D01*
X149200Y423800D02*
X174600D01*
Y576200D01*
X149200D02*
X174600D01*
X200000D01*
X225400D02*
X250800D01*
X225400Y423800D02*
Y576200D01*
X200000Y423800D02*
X225400D01*
X474600Y576200D02*
X500000D01*
X449200D02*
X474600D01*
X449200Y423800D02*
Y576200D01*
X774600D02*
X800000D01*
X749200D02*
X774600D01*
X800000Y423800D02*
Y576200D01*
Y423800D02*
X825400D01*
X774600D02*
X800000D01*
X749200D02*
X774600D01*
X1049200Y576200D02*
X1074600D01*
X1100000D01*
X1049200Y423800D02*
Y576200D01*
X1100000Y423800D02*
X1125400D01*
Y576200D02*
X1150800D01*
Y423800D02*
Y576200D01*
X149200Y1176200D02*
X174600D01*
X200000D01*
X225400Y1023800D02*
X250800D01*
X149200D02*
Y1176200D01*
X200000Y1023800D02*
X225400D01*
X149200D02*
X174600D01*
X200000D01*
X449200Y1176200D02*
X474600D01*
X500000D01*
X449200Y1023800D02*
Y1176200D01*
X500000Y1023800D02*
X525400D01*
X550800D01*
X174600Y876200D02*
X200000D01*
X149200D02*
X174600D01*
X225400Y723800D02*
X250800D01*
X174600D02*
Y876200D01*
X149200Y723800D02*
X174600D01*
X1425400Y576200D02*
X1450800D01*
X1725400D02*
X1750800D01*
X2025400D02*
X2050800D01*
X525400Y123800D02*
Y276200D01*
X550800D01*
X1750800Y123800D02*
Y276200D01*
X1725400D02*
X1750800D01*
X525400Y876200D02*
X550800D01*
X825400D02*
X850800D01*
X1125400D02*
X1150800D01*
X1725400Y723800D02*
Y876200D01*
X1750800D01*
X850800Y423800D02*
Y576200D01*
X825400D02*
X850800D01*
X225400Y1176200D02*
X250800D01*
X525400D02*
X550800D01*
X225400Y876200D02*
X250800D01*
D14*
X2000000Y276200D02*
D03*
X2050800D02*
D03*
X2025400D02*
D03*
X1974600D02*
D03*
X2050800Y123800D02*
D03*
X2025400D02*
D03*
X2000000D02*
D03*
X1974600D02*
D03*
X1949200D02*
D03*
X1700000Y276200D02*
D03*
X1750800D02*
D03*
X1725400D02*
D03*
X1674600D02*
D03*
X1750800Y123800D02*
D03*
X1725400D02*
D03*
X1700000D02*
D03*
X1674600D02*
D03*
X1649200D02*
D03*
X1400000Y276200D02*
D03*
X1450800D02*
D03*
X1425400D02*
D03*
X1374600D02*
D03*
X1450800Y123800D02*
D03*
X1425400D02*
D03*
X1400000D02*
D03*
X1374600D02*
D03*
X1349200D02*
D03*
X1100000Y276200D02*
D03*
X1150800D02*
D03*
X1125400D02*
D03*
X1074600D02*
D03*
X1150800Y123800D02*
D03*
X1125400D02*
D03*
X1100000D02*
D03*
X1074600D02*
D03*
X1049200D02*
D03*
X800000Y276200D02*
D03*
X850800D02*
D03*
X825400D02*
D03*
X774600D02*
D03*
X850800Y123800D02*
D03*
X825400D02*
D03*
X800000D02*
D03*
X774600D02*
D03*
X749200D02*
D03*
X500000Y276200D02*
D03*
X550800D02*
D03*
X525400D02*
D03*
X474600D02*
D03*
X550800Y123800D02*
D03*
X525400D02*
D03*
X500000D02*
D03*
X474600D02*
D03*
X449200D02*
D03*
X200000Y276200D02*
D03*
X250800D02*
D03*
X225400D02*
D03*
X174600D02*
D03*
X250800Y123800D02*
D03*
X225400D02*
D03*
X200000D02*
D03*
X174600D02*
D03*
X149200D02*
D03*
X2000000Y576200D02*
D03*
X2050800D02*
D03*
X2025400D02*
D03*
X1974600D02*
D03*
X2050800Y423800D02*
D03*
X2025400D02*
D03*
X2000000D02*
D03*
X1974600D02*
D03*
X1949200D02*
D03*
X1700000Y576200D02*
D03*
X1750800D02*
D03*
X1725400D02*
D03*
X1674600D02*
D03*
X1750800Y423800D02*
D03*
X1725400D02*
D03*
X1700000D02*
D03*
X1674600D02*
D03*
X1649200D02*
D03*
X1400000Y576200D02*
D03*
X1450800D02*
D03*
X1425400D02*
D03*
X1374600D02*
D03*
X1450800Y423800D02*
D03*
X1425400D02*
D03*
X1400000D02*
D03*
X1374600D02*
D03*
X1349200D02*
D03*
X1100000Y576200D02*
D03*
X1150800D02*
D03*
X1125400D02*
D03*
X1074600D02*
D03*
X1150800Y423800D02*
D03*
X1125400D02*
D03*
X1100000D02*
D03*
X1074600D02*
D03*
X1049200D02*
D03*
X800000Y576200D02*
D03*
X850800D02*
D03*
X825400D02*
D03*
X774600D02*
D03*
X850800Y423800D02*
D03*
X825400D02*
D03*
X800000D02*
D03*
X774600D02*
D03*
X749200D02*
D03*
X500000Y576200D02*
D03*
X550800D02*
D03*
X525400D02*
D03*
X474600D02*
D03*
X550800Y423800D02*
D03*
X525400D02*
D03*
X500000D02*
D03*
X474600D02*
D03*
X449200D02*
D03*
X200000Y576200D02*
D03*
X250800D02*
D03*
X225400D02*
D03*
X174600D02*
D03*
X250800Y423800D02*
D03*
X225400D02*
D03*
X200000D02*
D03*
X174600D02*
D03*
X149200D02*
D03*
X2000000Y876200D02*
D03*
X2050800D02*
D03*
X2025400D02*
D03*
X1974600D02*
D03*
X2050800Y723800D02*
D03*
X2025400D02*
D03*
X2000000D02*
D03*
X1974600D02*
D03*
X1949200D02*
D03*
X1700000Y876200D02*
D03*
X1750800D02*
D03*
X1725400D02*
D03*
X1674600D02*
D03*
X1750800Y723800D02*
D03*
X1725400D02*
D03*
X1700000D02*
D03*
X1674600D02*
D03*
X1649200D02*
D03*
X1400000Y876200D02*
D03*
X1450800D02*
D03*
X1425400D02*
D03*
X1374600D02*
D03*
X1450800Y723800D02*
D03*
X1425400D02*
D03*
X1400000D02*
D03*
X1374600D02*
D03*
X1349200D02*
D03*
X1100000Y876200D02*
D03*
X1150800D02*
D03*
X1125400D02*
D03*
X1074600D02*
D03*
X1150800Y723800D02*
D03*
X1125400D02*
D03*
X1100000D02*
D03*
X1074600D02*
D03*
X1049200D02*
D03*
X800000Y876200D02*
D03*
X850800D02*
D03*
X825400D02*
D03*
X774600D02*
D03*
X850800Y723800D02*
D03*
X825400D02*
D03*
X800000D02*
D03*
X774600D02*
D03*
X749200D02*
D03*
X500000Y876200D02*
D03*
X550800D02*
D03*
X525400D02*
D03*
X474600D02*
D03*
X550800Y723800D02*
D03*
X525400D02*
D03*
X500000D02*
D03*
X474600D02*
D03*
X449200D02*
D03*
X200000Y876200D02*
D03*
X250800D02*
D03*
X225400D02*
D03*
X174600D02*
D03*
X250800Y723800D02*
D03*
X225400D02*
D03*
X200000D02*
D03*
X174600D02*
D03*
X149200D02*
D03*
X500000Y1176200D02*
D03*
X550800D02*
D03*
X525400D02*
D03*
X474600D02*
D03*
X550800Y1023800D02*
D03*
X525400D02*
D03*
X500000D02*
D03*
X474600D02*
D03*
X449200D02*
D03*
X200000Y1176200D02*
D03*
X250800D02*
D03*
X225400D02*
D03*
X174600D02*
D03*
X250800Y1023800D02*
D03*
X225400D02*
D03*
X200000D02*
D03*
X174600D02*
D03*
X149200D02*
D03*
D15*
X1949200Y276200D02*
D03*
X1649200D02*
D03*
X1349200D02*
D03*
X1049200D02*
D03*
X749200D02*
D03*
X449200D02*
D03*
X149200D02*
D03*
X1949200Y576200D02*
D03*
X1649200D02*
D03*
X1349200D02*
D03*
X1049200D02*
D03*
X749200D02*
D03*
X449200D02*
D03*
X149200D02*
D03*
X1949200Y876200D02*
D03*
X1649200D02*
D03*
X1349200D02*
D03*
X1049200D02*
D03*
X749200D02*
D03*
X449200D02*
D03*
X149200D02*
D03*
X449200Y1176200D02*
D03*
X149200D02*
D03*
M02*
