M48
;Layer_Color=9474304
;FILE_FORMAT=4:4
METRIC,LZ
;TYPE=PLATED
T1F00S00C0.6000
T2F00S00C0.6350
T3F00S00C0.7000
T4F00S00C0.8000
T5F00S00C0.8500
T6F00S00C0.9000
T7F00S00C0.9500
T8F00S00C1.0000
T9F00S00C2.0320
%
T01
X00038354Y-00627722
X00080518Y-0060156
X00112776Y-00613752
X00170301Y-00551135
X00155362Y-00473798
X0009017Y-00481945
X0022225Y-00495134
X00305308Y-00492086
X00367792Y-00449668
X00370078Y-00566508
X00408432Y-0050758
X00495808Y-00516724
X00569468Y-00489038
X00606552Y-00476927
X00668762Y-00528662
X00692912Y-00437222
X00693166
X007335Y-00638101
X007366Y-00698842
X005842Y-00673696
X00568706Y-00720178
X00535178Y-00657948
X00540766Y-00631532
X00504444Y-00675982
X00446532Y-00628484
X0044704Y-0043836
X00834136Y-00449922
X00858774Y-00479132
X00882396Y-00497928
X00889Y-00541424
X00921004Y-00515962
X00937006Y-0050123
X00952754Y-00485354
X00957484Y-00528758
X01008888Y-0053552
X01044188Y-00535768
X01023874Y-005715
X00954278Y-00589114
X00870919Y-00642454
X00823722
X00833374Y-005152
X01097788Y-00538568
X0114173Y-00516724
X01174242
X0115951Y-00433158
X01113272Y-00604852
X01112266Y-00700366
X01159787Y-00698588
X01173734Y-00712558
X01216523Y-00669225
X01204722Y-00591908
X01214222Y-00549399
X01239012Y-0052663
X01247648Y-00567524
X01275588Y-00555586
X01316251Y-00587336
X01310686Y-00635596
X0137287Y-00587336
X01447546Y-00572096
X01415796Y-00520788
X01325118
X01309156Y-00512384
X01239012Y-00466686
X01485141Y-00429856
X01530096Y-00439254
X0155194Y-00683602
X0142113Y-00678014
X0135001Y-0070697
X01625092Y-00597496
X01611376Y-0054115
X01650746Y-00501738
X01686814Y-00371944
X01570482Y-00370674
X01514094Y-00347494
X01460246Y-00329526
X01410716Y-00218782
X01288288Y-00193128
Y-00265264
X0128524Y-00282028
X011942Y-00250528
X01208786Y-0021929
X0119888Y-0016214
X01201928Y-0007705
X01223518Y-00094068
X01265428
X01259536Y-00130928
X0135763Y-00097878
X0137287Y-0006181
X01307846Y-00043014
X01530096Y-0013928
X01234694Y-0036026
X01251458Y-00394804
X01125474Y-00331812
X01124204Y-0023961
X01153563Y-00238248
X01094508Y-00216518
X01117092Y-00189318
X01128587Y-00150563
X01103684Y-00146465
X01111504Y-00096862
X01169416
X01143254Y-0005165
X010287Y-00210146
X01024738Y-0024408
X00985774Y-00233006
X00969265Y-00267803
X009271Y-00241388
X00884682Y-00240118
X00847598Y-00223608
X0083312Y-0025104
X00814832Y-00208876
X0084455Y-00176872
X00829564Y-00086956
X00885698Y-00380326
X0099297Y-00333082
X01033272Y-0033486
X007874Y-003374
X00775716Y-00398884
X00710946Y-00395058
X00709168Y-00357974
X00733806Y-00313489
X0070739Y-00270598
X00678012Y-00238934
X00654812Y-00249516
X006002Y-00233878
X00575818Y-0023961
X00537718Y-0027771
X00518922Y-00356196
Y-00403186
X0044577Y-00388708
X004634Y-0023961
X00461772Y-0016087
X00514812Y-00169506
X00529336Y-00137248
X00567436Y-00110531
X00597916Y-00165696
X00630892Y-00047075
X00783336Y-00050888
X00752348Y-00081876
X007239Y-00133692
X00724916Y-00225132
X00761238Y-00209384
X00656082Y-00336638
X00413747Y-0020405
X00396941Y-0018841
X0042503Y-0008403
X00395456Y-00087188
X00350012Y-00107044
X0026084Y-00237324
X00229958Y-00216242
X00205974Y-00215226
X00168402Y-00230849
X00177546Y-00333596
X00120142Y-00322922
X00305054Y-00337654
X00381508Y-00363816
X00370586Y-00405472
X00025908Y-00123808
X00055186Y-00094
X00617474Y-0002371
X01221994Y-00014566
T02
X000381Y-005842
Y-005334
X001397
Y-005842
X00184Y-004474
X002094
X002348
X002602
X002856
X004634
Y-004728
X00524Y-004474
X005494
X005748
X006002
X006256
X00635Y-005588
X006096
X005842
X006604
X006858
X007112
X007366
X00762
X007874
Y-006604
X00762
X007366
X007112
X006858
X006604
X00635
X006096
X005842
X004572
X004064
X008128
X008382Y-006604
X008636Y-006604
X00889
X009144
Y-005588
X00889
X008636
X008382Y-005588
X008128Y-005588
X008034Y-004728
Y-004474
X00864
X008894
X009148
X009402
X009656
X011434
Y-004728
X013212
Y-004474
X0136
X013854
X014108
X014362
X014616
X0156
X015854
X015774Y-005565
X015266
Y-006835
X015774
X016596
X017104
Y-005565
X016596
X016616Y-004474
X016362
X016108
X01905Y-006041
Y-007057
X017526Y-003175
Y-002921
X016616Y-00295
X016362
X016108
X016256Y-002159
Y-001905
X017272
Y-002159
X015854Y-00295
X0156
X014616
X014362
X014108
X013854
X0136
X013212
Y-002696
Y-003204
Y-003458
Y-003712
Y-003966
Y-00422
X011434
Y-003966
Y-003712
Y-003458
Y-003204
Y-00295
Y-002696
X009656Y-00295
X009402
X009148
X008894
X00864
X008034
Y-002696
Y-003204
Y-003458
Y-003712
Y-003966
Y-00422
X006256Y-00295
X006002
X005748
X005494
X00524
X004634
Y-002696
Y-003204
Y-003458
Y-003712
Y-003966
Y-00422
X002856Y-00295
X002602
X002348
X002094
X00184
T03
X012954Y-001651
X013204
X013208Y-001143
X012958
T04
X00053625Y-004708
Y-004454
X00133
Y-004708
X00381Y-006985
X004064
X004572
X004826
X018415Y-006041
X018669
X00133Y-0042
Y-003946
Y-003692
Y-003438
Y-003184
Y-00293
Y-002676
X00053625
Y-00293
Y-003184
Y-003438
Y-003692
Y-003946
Y-0042
T05
X00101Y-001702
X00126
X00151
X00176
X00201
X00226
X00251
X00276
X00301
X00326
Y-00094
X00301
X00276
X00251
X00226
X00201
X00176
X00151
X00126
X00101
T06
X002032Y-006096
X002286
X00254
X002794
X003048
X003302
X003556
X00381
Y-005334
X003556
X003302
X003048
X002794
X00254
X002286
X002032
X003364Y-004728
Y-004474
X004126
Y-004728
X004064Y-005334
X004318
X004572
X004826
X00508
X005334
Y-006096
X00508
X004826
X004572
X004318
X004064
X006764Y-004728
Y-004474
X007526
Y-004728
X010164
Y-004474
X010926
Y-004728
X011942
Y-004474
X012704
Y-004728
Y-00422
Y-003966
Y-003712
Y-003458
Y-003204
Y-00295
X011942
Y-003204
Y-003458
Y-003712
Y-003966
Y-00422
X010926
Y-003966
Y-003712
Y-003458
Y-003204
Y-00295
X010164
Y-003204
Y-003458
Y-003712
Y-003966
Y-00422
X010287Y-001778
X010541
X010033
X009779
X009525
X009271
X009017
X008763
Y-001016
X009017
X009271
X009525
X009779
X010033
X010287
X010541
X008001
Y-001778
X007747
X007493
X007239
X006985
X006731
X006477
X006223
Y-001016
X006477
X006731
X006985
X007239
X007493
X007747
X007526Y-00295
Y-003204
Y-003458
Y-003712
Y-003966
Y-00422
X006764
Y-003966
Y-003712
Y-003458
Y-003204
Y-00295
X004126
Y-003204
Y-003458
Y-003712
Y-003966
Y-00422
X003364
Y-003966
Y-003712
Y-003458
Y-003204
Y-00295
T07
X016273Y-0013
X016527
X016973
X017227
T08
X013735Y-001658
Y-001404
Y-00115
T09
X0004Y-007
X0178
Y-0004
X0004
M30
