G04*
G04 #@! TF.GenerationSoftware,Altium Limited,Altium Designer,22.10.1 (41)*
G04*
G04 Layer_Color=65535*
%FSLAX44Y44*%
%MOMM*%
G71*
G04*
G04 #@! TF.SameCoordinates,F08F2889-53CF-420F-BFEE-BD02D6E72818*
G04*
G04*
G04 #@! TF.FilePolarity,Positive*
G04*
G01*
G75*
%ADD10C,0.2540*%
%ADD11C,0.2000*%
%ADD12C,0.2500*%
%ADD13C,0.6000*%
%ADD14C,0.5000*%
%ADD15C,0.1500*%
%ADD16R,1.0160X1.5240*%
D10*
X376800Y-660400D02*
G03*
X396800Y-680400I20000J0D01*
G01*
Y-640400D02*
G03*
X376800Y-660400I0J-20000D01*
G01*
X466800Y-680400D02*
G03*
X486800Y-660400I0J20000D01*
G01*
Y-660400D02*
G03*
X466800Y-640400I-20000J0D01*
G01*
X65400Y-40000D02*
G03*
X65400Y-40000I-25400J0D01*
G01*
X1805400D02*
G03*
X1805400Y-40000I-25400J0D01*
G01*
Y-700000D02*
G03*
X1805400Y-700000I-25400J0D01*
G01*
X65400D02*
G03*
X65400Y-700000I-25400J0D01*
G01*
X1054100Y-673100D02*
X1244600D01*
X1054100Y-546100D02*
X1244600D01*
Y-673100D02*
Y-546100D01*
X1054100Y-673100D02*
Y-546100D01*
X1905000Y-621880D02*
Y-616800D01*
Y-693000D02*
Y-687920D01*
X1897380D02*
X1912620D01*
X1897380Y-621880D02*
X1912620D01*
X1897380Y-687920D02*
Y-621880D01*
X1912620Y-687920D02*
Y-621880D01*
X478640Y-485500D02*
Y-256900D01*
X448160Y-485500D02*
X478640D01*
X455780Y-256900D02*
X478640D01*
X448160Y-264520D02*
X455780Y-256900D01*
X448160Y-485500D02*
Y-264520D01*
X818640Y-485500D02*
Y-256900D01*
X788160Y-485500D02*
X818640D01*
X795780Y-256900D02*
X818640D01*
X788160Y-264520D02*
X795780Y-256900D01*
X788160Y-485500D02*
Y-264520D01*
X1158640Y-485500D02*
Y-256900D01*
X1128160Y-485500D02*
X1158640D01*
X1135780Y-256900D02*
X1158640D01*
X1128160Y-264520D02*
X1135780Y-256900D01*
X1128160Y-485500D02*
Y-264520D01*
X1336440Y-485500D02*
Y-256900D01*
X1305960Y-485500D02*
X1336440D01*
X1313580Y-256900D02*
X1336440D01*
X1305960Y-264520D02*
X1313580Y-256900D01*
X1305960Y-485500D02*
Y-264520D01*
X1577400Y-658100D02*
Y-581900D01*
X1526600Y-658100D02*
Y-581900D01*
X1501200Y-531100D02*
X1602800D01*
Y-708900D02*
Y-531100D01*
X1501200Y-708900D02*
Y-531100D01*
Y-708900D02*
X1602800D01*
X1526600Y-620000D02*
X1539300D01*
X1564700D02*
X1577400D01*
X1536760Y-612380D02*
X1567240D01*
X1552000D02*
Y-602220D01*
X1710400Y-658100D02*
Y-581900D01*
X1659600Y-658100D02*
Y-581900D01*
X1634200Y-531100D02*
X1735800D01*
Y-708900D02*
Y-531100D01*
X1634200Y-708900D02*
Y-531100D01*
Y-708900D02*
X1735800D01*
X1659600Y-620000D02*
X1672300D01*
X1697700D02*
X1710400D01*
X1669760Y-612380D02*
X1700240D01*
X1685000D02*
Y-602220D01*
X1744980Y-279400D02*
X1767840D01*
X1737360Y-287020D02*
X1744980Y-279400D01*
X1737360Y-330200D02*
Y-287020D01*
Y-330200D02*
X1767840D01*
Y-279400D01*
X419100Y-660400D02*
X424180D01*
X439420D02*
X444500D01*
X424180Y-665480D02*
Y-655320D01*
X439420Y-665480D02*
Y-655320D01*
X396800Y-640400D02*
X466800D01*
X396800Y-680400D02*
X466800D01*
X584200Y-647700D02*
Y-642620D01*
Y-576580D02*
Y-571500D01*
X576580Y-576580D02*
X591820D01*
X576580Y-642620D02*
X591820D01*
Y-576580D01*
X576580Y-642620D02*
Y-576580D01*
X609600D02*
Y-571500D01*
Y-647700D02*
Y-642620D01*
X601980D02*
X617220D01*
X601980Y-576580D02*
X617220D01*
X601980Y-642620D02*
Y-576580D01*
X617220Y-642620D02*
Y-576580D01*
X635000Y-647700D02*
Y-642620D01*
Y-576580D02*
Y-571500D01*
X627380Y-576580D02*
X642620D01*
X627380Y-642620D02*
X642620D01*
Y-576580D01*
X627380Y-642620D02*
Y-576580D01*
X660400D02*
Y-571500D01*
Y-647700D02*
Y-642620D01*
X652780D02*
X668020D01*
X652780Y-576580D02*
X668020D01*
X652780Y-642620D02*
Y-576580D01*
X668020Y-642620D02*
Y-576580D01*
X685800Y-647700D02*
Y-642620D01*
Y-576580D02*
Y-571500D01*
X678180Y-576580D02*
X693420D01*
X678180Y-642620D02*
X693420D01*
Y-576580D01*
X678180Y-642620D02*
Y-576580D01*
X711200D02*
Y-571500D01*
Y-647700D02*
Y-642620D01*
X703580D02*
X718820D01*
X703580Y-576580D02*
X718820D01*
X703580Y-642620D02*
Y-576580D01*
X718820Y-642620D02*
Y-576580D01*
X736600Y-647700D02*
Y-642620D01*
Y-576580D02*
Y-571500D01*
X728980Y-576580D02*
X744220D01*
X728980Y-642620D02*
X744220D01*
Y-576580D01*
X728980Y-642620D02*
Y-576580D01*
X762000D02*
Y-571500D01*
Y-647700D02*
Y-642620D01*
X754380D02*
X769620D01*
X754380Y-576580D02*
X769620D01*
X754380Y-642620D02*
Y-576580D01*
X769620Y-642620D02*
Y-576580D01*
X787400D02*
Y-571500D01*
Y-647700D02*
Y-642620D01*
X779780D02*
X795020D01*
X779780Y-576580D02*
X795020D01*
X779780Y-642620D02*
Y-576580D01*
X795020Y-642620D02*
Y-576580D01*
X812800D02*
Y-571500D01*
Y-647700D02*
Y-642620D01*
X805180D02*
X820420D01*
X805180Y-576580D02*
X820420D01*
X805180Y-642620D02*
Y-576580D01*
X820420Y-642620D02*
Y-576580D01*
X838200Y-576580D02*
Y-571500D01*
Y-647700D02*
Y-642620D01*
X830580D02*
X845820D01*
X830580Y-576580D02*
X845820D01*
X830580Y-642620D02*
Y-576580D01*
X845820Y-642620D02*
Y-576580D01*
X863600Y-576580D02*
Y-571500D01*
Y-647700D02*
Y-642620D01*
X855980D02*
X871220D01*
X855980Y-576580D02*
X871220D01*
X855980Y-642620D02*
Y-576580D01*
X871220Y-642620D02*
Y-576580D01*
X889000Y-647700D02*
Y-642620D01*
Y-576580D02*
Y-571500D01*
X881380Y-576580D02*
X896620D01*
X881380Y-642620D02*
X896620D01*
Y-576580D01*
X881380Y-642620D02*
Y-576580D01*
X914400D02*
Y-571500D01*
Y-647700D02*
Y-642620D01*
X906780D02*
X922020D01*
X906780Y-576580D02*
X922020D01*
X906780Y-642620D02*
Y-576580D01*
X922020Y-642620D02*
Y-576580D01*
X1709420Y-190500D02*
X1714500D01*
X1638300D02*
X1643380D01*
Y-198120D02*
Y-182880D01*
X1709420Y-198120D02*
Y-182880D01*
X1643380D02*
X1709420D01*
X1643380Y-198120D02*
X1709420D01*
Y-215900D02*
X1714500D01*
X1638300D02*
X1643380D01*
Y-223520D02*
Y-208280D01*
X1709420Y-223520D02*
Y-208280D01*
X1643380D02*
X1709420D01*
X1643380Y-223520D02*
X1709420D01*
X50800Y-533400D02*
X55880D01*
X121920D02*
X127000D01*
X121920Y-541020D02*
Y-525780D01*
X55880Y-541020D02*
Y-525780D01*
Y-541020D02*
X121920D01*
X55880Y-525780D02*
X121920D01*
X50800Y-584200D02*
X55880D01*
X121920D02*
X127000D01*
X121920Y-591820D02*
Y-576580D01*
X55880Y-591820D02*
Y-576580D01*
Y-591820D02*
X121920D01*
X55880Y-576580D02*
X121920D01*
X171300Y-434700D02*
X298300D01*
X171300Y-460100D02*
X298300D01*
X171300D02*
Y-282300D01*
X298300D01*
Y-460100D02*
Y-282300D01*
X171300Y-307700D02*
X298300D01*
X511300Y-434700D02*
X638300D01*
X511300Y-460100D02*
X638300D01*
X511300D02*
Y-282300D01*
X638300D01*
Y-460100D02*
Y-282300D01*
X511300Y-307700D02*
X638300D01*
X851300Y-434700D02*
X978300D01*
X851300Y-460100D02*
X978300D01*
X851300D02*
Y-282300D01*
X978300D01*
Y-460100D02*
Y-282300D01*
X851300Y-307700D02*
X978300D01*
X1347300Y-434700D02*
X1474300D01*
X1347300Y-460100D02*
X1474300D01*
X1347300D02*
Y-282300D01*
X1474300D01*
Y-460100D02*
Y-282300D01*
X1347300Y-307700D02*
X1474300D01*
X1547300Y-434700D02*
X1674300D01*
X1547300Y-460100D02*
X1674300D01*
X1547300D02*
Y-282300D01*
X1674300D01*
Y-460100D02*
Y-282300D01*
X1547300Y-307700D02*
X1674300D01*
X1079497Y-569491D02*
X1069340D01*
Y-584726D01*
X1079497D01*
X1069340Y-577108D02*
X1074418D01*
X1094732Y-569491D02*
X1084575D01*
Y-584726D01*
X1094732D01*
X1084575Y-577108D02*
X1089653D01*
X1099810Y-572030D02*
X1102349Y-569491D01*
X1107428D01*
X1109967Y-572030D01*
Y-574569D01*
X1107428Y-577108D01*
X1104889D01*
X1107428D01*
X1109967Y-579647D01*
Y-582187D01*
X1107428Y-584726D01*
X1102349D01*
X1099810Y-582187D01*
X1125202Y-569491D02*
X1115045D01*
Y-577108D01*
X1120124Y-574569D01*
X1122663D01*
X1125202Y-577108D01*
Y-582187D01*
X1122663Y-584726D01*
X1117584D01*
X1115045Y-582187D01*
X1140437Y-569491D02*
X1135359Y-572030D01*
X1130280Y-577108D01*
Y-582187D01*
X1132820Y-584726D01*
X1137898D01*
X1140437Y-582187D01*
Y-579647D01*
X1137898Y-577108D01*
X1130280D01*
X1145515Y-574569D02*
X1148055D01*
Y-577108D01*
X1145515D01*
Y-574569D01*
Y-582187D02*
X1148055D01*
Y-584726D01*
X1145515D01*
Y-582187D01*
X1183603Y-572030D02*
X1181064Y-569491D01*
X1175985D01*
X1173446Y-572030D01*
Y-582187D01*
X1175985Y-584726D01*
X1181064D01*
X1183603Y-582187D01*
Y-577108D01*
X1178525D01*
X1188681Y-584726D02*
X1193760D01*
X1191221D01*
Y-569491D01*
X1188681Y-572030D01*
X1201377D02*
X1203916Y-569491D01*
X1208995D01*
X1211534Y-572030D01*
Y-582187D01*
X1208995Y-584726D01*
X1203916D01*
X1201377Y-582187D01*
Y-572030D01*
X1079497Y-593869D02*
X1069340D01*
Y-609104D01*
X1079497D01*
X1069340Y-601486D02*
X1074418D01*
X1084575Y-609104D02*
X1094732Y-598947D01*
X1099810Y-609104D02*
X1104889D01*
X1102349D01*
Y-593869D01*
X1099810Y-596408D01*
X1112506Y-593869D02*
X1122663D01*
Y-596408D01*
X1112506Y-606565D01*
Y-609104D01*
X1127741D02*
X1137898Y-598947D01*
X1142976Y-609104D02*
X1148055D01*
X1145515D01*
Y-593869D01*
X1142976Y-596408D01*
X1163290Y-609104D02*
Y-593869D01*
X1155672Y-601486D01*
X1165829D01*
X1181064Y-593869D02*
X1175985Y-596408D01*
X1170907Y-601486D01*
Y-606565D01*
X1173446Y-609104D01*
X1178525D01*
X1181064Y-606565D01*
Y-604025D01*
X1178525Y-601486D01*
X1170907D01*
X1079497Y-618247D02*
X1069340D01*
Y-633482D01*
X1079497D01*
X1069340Y-625864D02*
X1074418D01*
X1084575Y-633482D02*
X1094732Y-623325D01*
X1099810Y-633482D02*
X1104889D01*
X1102349D01*
Y-618247D01*
X1099810Y-620786D01*
X1112506Y-618247D02*
X1122663D01*
Y-620786D01*
X1112506Y-630943D01*
Y-633482D01*
X1127741D02*
X1137898Y-623325D01*
X1153133Y-633482D02*
X1142976D01*
X1153133Y-623325D01*
Y-620786D01*
X1150594Y-618247D01*
X1145515D01*
X1142976Y-620786D01*
X1158211D02*
X1160750Y-618247D01*
X1165829D01*
X1168368Y-620786D01*
Y-623325D01*
X1165829Y-625864D01*
X1163290D01*
X1165829D01*
X1168368Y-628404D01*
Y-630943D01*
X1165829Y-633482D01*
X1160750D01*
X1158211Y-630943D01*
X1181064Y-633482D02*
Y-618247D01*
X1173446Y-625864D01*
X1183603D01*
X1079497Y-642625D02*
X1069340D01*
Y-657860D01*
X1079497D01*
X1069340Y-650242D02*
X1074418D01*
X1084575Y-657860D02*
X1094732Y-647703D01*
X1099810Y-657860D02*
X1104889D01*
X1102349D01*
Y-642625D01*
X1099810Y-645164D01*
X1112506Y-642625D02*
X1122663D01*
Y-645164D01*
X1112506Y-655321D01*
Y-657860D01*
X1127741D02*
X1137898Y-647703D01*
X1142976Y-645164D02*
X1145515Y-642625D01*
X1150594D01*
X1153133Y-645164D01*
Y-647703D01*
X1150594Y-650242D01*
X1148055D01*
X1150594D01*
X1153133Y-652782D01*
Y-655321D01*
X1150594Y-657860D01*
X1145515D01*
X1142976Y-655321D01*
X1158211Y-642625D02*
X1168368D01*
Y-645164D01*
X1158211Y-655321D01*
Y-657860D01*
X1173446D02*
X1178525D01*
X1175985D01*
Y-642625D01*
X1173446Y-645164D01*
X1898523Y-589241D02*
Y-574006D01*
X1906140D01*
X1908680Y-576545D01*
Y-581623D01*
X1906140Y-584163D01*
X1898523D01*
X1903601D02*
X1908680Y-589241D01*
X1913758Y-576545D02*
X1916297Y-574006D01*
X1921376D01*
X1923915Y-576545D01*
Y-579084D01*
X1918836Y-584163D01*
Y-586702D02*
Y-589241D01*
X1846450Y-569941D02*
X1843911Y-567402D01*
X1838832D01*
X1836293Y-569941D01*
Y-580098D01*
X1838832Y-582637D01*
X1843911D01*
X1846450Y-580098D01*
X1851528Y-569941D02*
X1854067Y-567402D01*
X1859146D01*
X1861685Y-569941D01*
Y-572480D01*
X1856606Y-577559D01*
Y-580098D02*
Y-582637D01*
X201791Y-363582D02*
Y-378818D01*
X209408D01*
X211947Y-376278D01*
Y-373739D01*
X209408Y-371200D01*
X201791D01*
X209408D01*
X211947Y-368661D01*
Y-366122D01*
X209408Y-363582D01*
X201791D01*
X217026Y-378818D02*
X222104D01*
X219565D01*
Y-363582D01*
X217026D01*
X232261Y-378818D02*
X237339D01*
X239878Y-376278D01*
Y-371200D01*
X237339Y-368661D01*
X232261D01*
X229722Y-371200D01*
Y-376278D01*
X232261Y-378818D01*
X255113Y-368661D02*
X247496D01*
X244957Y-371200D01*
Y-376278D01*
X247496Y-378818D01*
X255113D01*
X260192D02*
Y-363582D01*
Y-373739D02*
X267809Y-368661D01*
X260192Y-373739D02*
X267809Y-378818D01*
X541791Y-363582D02*
Y-378818D01*
X549408D01*
X551947Y-376278D01*
Y-373739D01*
X549408Y-371200D01*
X541791D01*
X549408D01*
X551947Y-368661D01*
Y-366122D01*
X549408Y-363582D01*
X541791D01*
X557026Y-378818D02*
X562104D01*
X559565D01*
Y-363582D01*
X557026D01*
X572261Y-378818D02*
X577339D01*
X579878Y-376278D01*
Y-371200D01*
X577339Y-368661D01*
X572261D01*
X569722Y-371200D01*
Y-376278D01*
X572261Y-378818D01*
X595113Y-368661D02*
X587496D01*
X584957Y-371200D01*
Y-376278D01*
X587496Y-378818D01*
X595113D01*
X600192D02*
Y-363582D01*
Y-373739D02*
X607809Y-368661D01*
X600192Y-373739D02*
X607809Y-378818D01*
X881791Y-363582D02*
Y-378818D01*
X889408D01*
X891947Y-376278D01*
Y-373739D01*
X889408Y-371200D01*
X881791D01*
X889408D01*
X891947Y-368661D01*
Y-366122D01*
X889408Y-363582D01*
X881791D01*
X897026Y-378818D02*
X902104D01*
X899565D01*
Y-363582D01*
X897026D01*
X912261Y-378818D02*
X917339D01*
X919878Y-376278D01*
Y-371200D01*
X917339Y-368661D01*
X912261D01*
X909722Y-371200D01*
Y-376278D01*
X912261Y-378818D01*
X935113Y-368661D02*
X927496D01*
X924957Y-371200D01*
Y-376278D01*
X927496Y-378818D01*
X935113D01*
X940192D02*
Y-363582D01*
Y-373739D02*
X947809Y-368661D01*
X940192Y-373739D02*
X947809Y-378818D01*
X1377791Y-366122D02*
X1375251Y-363582D01*
X1370173D01*
X1367634Y-366122D01*
Y-376278D01*
X1370173Y-378818D01*
X1375251D01*
X1377791Y-376278D01*
X1382869Y-378818D02*
Y-368661D01*
X1387947Y-363582D01*
X1393026Y-368661D01*
Y-378818D01*
Y-371200D01*
X1382869D01*
X1413339Y-363582D02*
X1423496D01*
Y-366122D01*
X1413339Y-376278D01*
Y-378818D01*
X1438731Y-366122D02*
X1436192Y-363582D01*
X1431113D01*
X1428574Y-366122D01*
Y-368661D01*
X1431113Y-371200D01*
X1436192D01*
X1438731Y-373739D01*
Y-376278D01*
X1436192Y-378818D01*
X1431113D01*
X1428574Y-376278D01*
X1443809Y-363582D02*
Y-378818D01*
X1451427D01*
X1453966Y-376278D01*
Y-366122D01*
X1451427Y-363582D01*
X1443809D01*
X1577791Y-366122D02*
X1575251Y-363582D01*
X1570173D01*
X1567634Y-366122D01*
Y-376278D01*
X1570173Y-378818D01*
X1575251D01*
X1577791Y-376278D01*
X1582869Y-378818D02*
Y-368661D01*
X1587947Y-363582D01*
X1593026Y-368661D01*
Y-378818D01*
Y-371200D01*
X1582869D01*
X1613339Y-363582D02*
X1623496D01*
Y-366122D01*
X1613339Y-376278D01*
Y-378818D01*
X1638731Y-366122D02*
X1636192Y-363582D01*
X1631113D01*
X1628574Y-366122D01*
Y-368661D01*
X1631113Y-371200D01*
X1636192D01*
X1638731Y-373739D01*
Y-376278D01*
X1636192Y-378818D01*
X1631113D01*
X1628574Y-376278D01*
X1643809Y-363582D02*
Y-378818D01*
X1651427D01*
X1653966Y-376278D01*
Y-366122D01*
X1651427Y-363582D01*
X1643809D01*
X345443Y-652782D02*
X355600Y-668017D01*
Y-652782D02*
X345443Y-668017D01*
X360678D02*
X365756D01*
X363217D01*
Y-652782D01*
X360678Y-655321D01*
X340361Y-693422D02*
X337822Y-690882D01*
X332743D01*
X330204Y-693422D01*
Y-703578D01*
X332743Y-706117D01*
X337822D01*
X340361Y-703578D01*
X353057Y-706117D02*
Y-690882D01*
X345439Y-698500D01*
X355596D01*
X518161Y-693422D02*
X515622Y-690882D01*
X510543D01*
X508004Y-693422D01*
Y-703578D01*
X510543Y-706117D01*
X515622D01*
X518161Y-703578D01*
X523239Y-693422D02*
X525778Y-690882D01*
X530857D01*
X533396Y-693422D01*
Y-695961D01*
X530857Y-698500D01*
X528317D01*
X530857D01*
X533396Y-701039D01*
Y-703578D01*
X530857Y-706117D01*
X525778D01*
X523239Y-703578D01*
X82069Y-707617D02*
Y-692383D01*
X89687D01*
X92226Y-694922D01*
Y-700000D01*
X89687Y-702539D01*
X82069D01*
X97304Y-692383D02*
X107461D01*
X102382D01*
Y-707617D01*
X112539Y-692383D02*
Y-707617D01*
Y-700000D01*
X122696D01*
Y-692383D01*
Y-707617D01*
X135392D02*
Y-692383D01*
X127774Y-700000D01*
X137931D01*
X1752069Y-667617D02*
Y-652383D01*
X1759687D01*
X1762226Y-654922D01*
Y-660000D01*
X1759687Y-662539D01*
X1752069D01*
X1767304Y-652383D02*
X1777461D01*
X1772383D01*
Y-667617D01*
X1782539Y-652383D02*
Y-667617D01*
Y-660000D01*
X1792696D01*
Y-652383D01*
Y-667617D01*
X1797774Y-654922D02*
X1800313Y-652383D01*
X1805392D01*
X1807931Y-654922D01*
Y-657461D01*
X1805392Y-660000D01*
X1802853D01*
X1805392D01*
X1807931Y-662539D01*
Y-665078D01*
X1805392Y-667617D01*
X1800313D01*
X1797774Y-665078D01*
X1682069Y-47618D02*
Y-32383D01*
X1689687D01*
X1692226Y-34922D01*
Y-40000D01*
X1689687Y-42539D01*
X1682069D01*
X1697304Y-32383D02*
X1707461D01*
X1702383D01*
Y-47618D01*
X1712539Y-32383D02*
Y-47618D01*
Y-40000D01*
X1722696D01*
Y-32383D01*
Y-47618D01*
X1737931D02*
X1727774D01*
X1737931Y-37461D01*
Y-34922D01*
X1735392Y-32383D01*
X1730314D01*
X1727774Y-34922D01*
X76208Y-45718D02*
Y-30482D01*
X83826D01*
X86365Y-33022D01*
Y-38100D01*
X83826Y-40639D01*
X76208D01*
X91443Y-30482D02*
X101600D01*
X96522D01*
Y-45718D01*
X106678Y-30482D02*
Y-45718D01*
Y-38100D01*
X116835D01*
Y-30482D01*
Y-45718D01*
X121913D02*
X126992D01*
X124453D01*
Y-30482D01*
X121913Y-33022D01*
X1411604Y-132782D02*
Y-145478D01*
X1414143Y-148018D01*
X1419222D01*
X1421761Y-145478D01*
Y-132782D01*
X1426839Y-145478D02*
X1429378Y-148018D01*
X1434457D01*
X1436996Y-145478D01*
Y-135322D01*
X1434457Y-132782D01*
X1429378D01*
X1426839Y-135322D01*
Y-137861D01*
X1429378Y-140400D01*
X1436996D01*
X1748787Y-255363D02*
X1743708D01*
X1746248D01*
Y-268059D01*
X1743708Y-270598D01*
X1741169D01*
X1738630Y-268059D01*
X1753865Y-270598D02*
X1758943D01*
X1756404D01*
Y-255363D01*
X1753865Y-257902D01*
X1254761Y-160022D02*
X1252222Y-157483D01*
X1247143D01*
X1244604Y-160022D01*
Y-170178D01*
X1247143Y-172717D01*
X1252222D01*
X1254761Y-170178D01*
X1269996Y-172717D02*
X1259839D01*
X1269996Y-162561D01*
Y-160022D01*
X1267457Y-157483D01*
X1262378D01*
X1259839Y-160022D01*
X1257300Y-109221D02*
X1254761Y-106682D01*
X1249683D01*
X1247143Y-109221D01*
Y-119378D01*
X1249683Y-121917D01*
X1254761D01*
X1257300Y-119378D01*
X1262378Y-121917D02*
X1267457D01*
X1264918D01*
Y-106682D01*
X1262378Y-109221D01*
X1307338Y-247992D02*
Y-232757D01*
X1314955D01*
X1317495Y-235296D01*
Y-240375D01*
X1314955Y-242914D01*
X1307338D01*
X1312416D02*
X1317495Y-247992D01*
X1322573D02*
Y-232757D01*
X1330191D01*
X1332730Y-235296D01*
Y-240375D01*
X1330191Y-242914D01*
X1322573D01*
X1345426Y-247992D02*
Y-232757D01*
X1337808Y-240375D01*
X1347965D01*
X1129538Y-247992D02*
Y-232757D01*
X1137156D01*
X1139695Y-235296D01*
Y-240375D01*
X1137156Y-242914D01*
X1129538D01*
X1134616D02*
X1139695Y-247992D01*
X1144773D02*
Y-232757D01*
X1152391D01*
X1154930Y-235296D01*
Y-240375D01*
X1152391Y-242914D01*
X1144773D01*
X1160008Y-235296D02*
X1162547Y-232757D01*
X1167626D01*
X1170165Y-235296D01*
Y-237835D01*
X1167626Y-240375D01*
X1165087D01*
X1167626D01*
X1170165Y-242914D01*
Y-245453D01*
X1167626Y-247992D01*
X1162547D01*
X1160008Y-245453D01*
X789432Y-247992D02*
Y-232757D01*
X797049D01*
X799589Y-235296D01*
Y-240375D01*
X797049Y-242914D01*
X789432D01*
X794510D02*
X799589Y-247992D01*
X804667D02*
Y-232757D01*
X812285D01*
X814824Y-235296D01*
Y-240375D01*
X812285Y-242914D01*
X804667D01*
X830059Y-247992D02*
X819902D01*
X830059Y-237835D01*
Y-235296D01*
X827520Y-232757D01*
X822441D01*
X819902Y-235296D01*
X449326Y-247992D02*
Y-232757D01*
X456944D01*
X459483Y-235296D01*
Y-240375D01*
X456944Y-242914D01*
X449326D01*
X454404D02*
X459483Y-247992D01*
X464561D02*
Y-232757D01*
X472179D01*
X474718Y-235296D01*
Y-240375D01*
X472179Y-242914D01*
X464561D01*
X479796Y-247992D02*
X484874D01*
X482335D01*
Y-232757D01*
X479796Y-235296D01*
X40894Y-224883D02*
Y-237579D01*
X43433Y-240118D01*
X48512D01*
X51051Y-237579D01*
Y-224883D01*
X56129Y-227422D02*
X58668Y-224883D01*
X63747D01*
X66286Y-227422D01*
Y-229961D01*
X63747Y-232500D01*
X66286Y-235040D01*
Y-237579D01*
X63747Y-240118D01*
X58668D01*
X56129Y-237579D01*
Y-235040D01*
X58668Y-232500D01*
X56129Y-229961D01*
Y-227422D01*
X58668Y-232500D02*
X63747D01*
X33274Y-567778D02*
Y-552543D01*
X40891D01*
X43431Y-555082D01*
Y-560160D01*
X40891Y-562700D01*
X33274D01*
X38352D02*
X43431Y-567778D01*
X48509D02*
X53587D01*
X51048D01*
Y-552543D01*
X48509Y-555082D01*
X61205D02*
X63744Y-552543D01*
X68822D01*
X71362Y-555082D01*
Y-557621D01*
X68822Y-560160D01*
X71362Y-562700D01*
Y-565239D01*
X68822Y-567778D01*
X63744D01*
X61205Y-565239D01*
Y-562700D01*
X63744Y-560160D01*
X61205Y-557621D01*
Y-555082D01*
X63744Y-560160D02*
X68822D01*
X33274Y-516978D02*
Y-501743D01*
X40891D01*
X43431Y-504282D01*
Y-509361D01*
X40891Y-511900D01*
X33274D01*
X38352D02*
X43431Y-516978D01*
X48509D02*
X53587D01*
X51048D01*
Y-501743D01*
X48509Y-504282D01*
X61205Y-501743D02*
X71362D01*
Y-504282D01*
X61205Y-514439D01*
Y-516978D01*
X355604Y-81283D02*
Y-96517D01*
X363222D01*
X365761Y-93978D01*
Y-83822D01*
X363222Y-81283D01*
X355604D01*
X370839Y-83822D02*
X373378Y-81283D01*
X378457D01*
X380996Y-83822D01*
Y-86361D01*
X378457Y-88900D01*
X375918D01*
X378457D01*
X380996Y-91439D01*
Y-93978D01*
X378457Y-96517D01*
X373378D01*
X370839Y-93978D01*
X1746256Y-223517D02*
Y-208283D01*
X1753874D01*
X1756413Y-210822D01*
Y-215900D01*
X1753874Y-218439D01*
X1746256D01*
X1751335D02*
X1756413Y-223517D01*
X1761491D02*
X1766570D01*
X1764030D01*
Y-208283D01*
X1761491Y-210822D01*
X1784344Y-208283D02*
X1779265Y-210822D01*
X1774187Y-215900D01*
Y-220978D01*
X1776726Y-223517D01*
X1781805D01*
X1784344Y-220978D01*
Y-218439D01*
X1781805Y-215900D01*
X1774187D01*
X1746256Y-198118D02*
Y-182882D01*
X1753874D01*
X1756413Y-185422D01*
Y-190500D01*
X1753874Y-193039D01*
X1746256D01*
X1751335D02*
X1756413Y-198118D01*
X1761491D02*
X1766570D01*
X1764030D01*
Y-182882D01*
X1761491Y-185422D01*
X1784344Y-182882D02*
X1774187D01*
Y-190500D01*
X1779265Y-187961D01*
X1781805D01*
X1784344Y-190500D01*
Y-195578D01*
X1781805Y-198118D01*
X1776726D01*
X1774187Y-195578D01*
X1679956Y-74769D02*
Y-90004D01*
X1687574D01*
X1690113Y-87465D01*
Y-77308D01*
X1687574Y-74769D01*
X1679956D01*
X1705348Y-90004D02*
X1695191D01*
X1705348Y-79847D01*
Y-77308D01*
X1702809Y-74769D01*
X1697730D01*
X1695191Y-77308D01*
X1610106Y-74769D02*
Y-90004D01*
X1617724D01*
X1620263Y-87465D01*
Y-77308D01*
X1617724Y-74769D01*
X1610106D01*
X1625341Y-90004D02*
X1630419D01*
X1627880D01*
Y-74769D01*
X1625341Y-77308D01*
X1645663Y-509616D02*
X1643123Y-507077D01*
X1638045D01*
X1635506Y-509616D01*
Y-512155D01*
X1638045Y-514695D01*
X1643123D01*
X1645663Y-517234D01*
Y-519773D01*
X1643123Y-522312D01*
X1638045D01*
X1635506Y-519773D01*
X1650741Y-507077D02*
Y-522312D01*
X1655819Y-517234D01*
X1660898Y-522312D01*
Y-507077D01*
X1676133Y-522312D02*
X1665976D01*
X1676133Y-512155D01*
Y-509616D01*
X1673594Y-507077D01*
X1668515D01*
X1665976Y-509616D01*
X1512567D02*
X1510027Y-507077D01*
X1504949D01*
X1502410Y-509616D01*
Y-512155D01*
X1504949Y-514695D01*
X1510027D01*
X1512567Y-517234D01*
Y-519773D01*
X1510027Y-522312D01*
X1504949D01*
X1502410Y-519773D01*
X1517645Y-507077D02*
Y-522312D01*
X1522723Y-517234D01*
X1527802Y-522312D01*
Y-507077D01*
X1532880Y-522312D02*
X1537959D01*
X1535419D01*
Y-507077D01*
X1532880Y-509616D01*
X852678Y-258157D02*
Y-273392D01*
X860295D01*
X862835Y-270853D01*
Y-268314D01*
X860295Y-265774D01*
X852678D01*
X860295D01*
X862835Y-263235D01*
Y-260696D01*
X860295Y-258157D01*
X852678D01*
X867913D02*
Y-273392D01*
X878070D01*
X883148Y-258157D02*
Y-273392D01*
Y-268314D01*
X893305Y-258157D01*
X885687Y-265774D01*
X893305Y-273392D01*
X898383Y-260696D02*
X900922Y-258157D01*
X906001D01*
X908540Y-260696D01*
Y-263235D01*
X906001Y-265774D01*
X903462D01*
X906001D01*
X908540Y-268314D01*
Y-270853D01*
X906001Y-273392D01*
X900922D01*
X898383Y-270853D01*
X1558795Y-260696D02*
X1556255Y-258157D01*
X1551177D01*
X1548638Y-260696D01*
Y-263235D01*
X1551177Y-265774D01*
X1556255D01*
X1558795Y-268314D01*
Y-270853D01*
X1556255Y-273392D01*
X1551177D01*
X1548638Y-270853D01*
X1563873Y-258157D02*
Y-273392D01*
X1571491D01*
X1574030Y-270853D01*
Y-260696D01*
X1571491Y-258157D01*
X1563873D01*
X1589265Y-273392D02*
X1579108D01*
X1589265Y-263235D01*
Y-260696D01*
X1586726Y-258157D01*
X1581647D01*
X1579108Y-260696D01*
X1358643D02*
X1356104Y-258157D01*
X1351025D01*
X1348486Y-260696D01*
Y-263235D01*
X1351025Y-265774D01*
X1356104D01*
X1358643Y-268314D01*
Y-270853D01*
X1356104Y-273392D01*
X1351025D01*
X1348486Y-270853D01*
X1363721Y-258157D02*
Y-273392D01*
X1371339D01*
X1373878Y-270853D01*
Y-260696D01*
X1371339Y-258157D01*
X1363721D01*
X1378956Y-273392D02*
X1384034D01*
X1381495D01*
Y-258157D01*
X1378956Y-260696D01*
X512572Y-258157D02*
Y-273392D01*
X520190D01*
X522729Y-270853D01*
Y-268314D01*
X520190Y-265774D01*
X512572D01*
X520190D01*
X522729Y-263235D01*
Y-260696D01*
X520190Y-258157D01*
X512572D01*
X527807D02*
Y-273392D01*
X537964D01*
X543042Y-258157D02*
Y-273392D01*
Y-268314D01*
X553199Y-258157D01*
X545581Y-265774D01*
X553199Y-273392D01*
X568434D02*
X558277D01*
X568434Y-263235D01*
Y-260696D01*
X565895Y-258157D01*
X560816D01*
X558277Y-260696D01*
X172466Y-258157D02*
Y-273392D01*
X180084D01*
X182623Y-270853D01*
Y-268314D01*
X180084Y-265774D01*
X172466D01*
X180084D01*
X182623Y-263235D01*
Y-260696D01*
X180084Y-258157D01*
X172466D01*
X187701D02*
Y-273392D01*
X197858D01*
X202936Y-258157D02*
Y-273392D01*
Y-268314D01*
X213093Y-258157D01*
X205475Y-265774D01*
X213093Y-273392D01*
X218171D02*
X223250D01*
X220710D01*
Y-258157D01*
X218171Y-260696D01*
X190246Y-501997D02*
Y-514693D01*
X192785Y-517232D01*
X197864D01*
X200403Y-514693D01*
Y-501997D01*
X205481D02*
X215638D01*
Y-504536D01*
X205481Y-514693D01*
Y-517232D01*
X1186180Y-256633D02*
Y-269329D01*
X1188719Y-271868D01*
X1193798D01*
X1196337Y-269329D01*
Y-256633D01*
X1211572D02*
X1206493Y-259172D01*
X1201415Y-264251D01*
Y-269329D01*
X1203954Y-271868D01*
X1209033D01*
X1211572Y-269329D01*
Y-266790D01*
X1209033Y-264251D01*
X1201415D01*
X1008380Y-256633D02*
Y-269329D01*
X1010919Y-271868D01*
X1015997D01*
X1018537Y-269329D01*
Y-256633D01*
X1033772D02*
X1023615D01*
Y-264251D01*
X1028693Y-261711D01*
X1031233D01*
X1033772Y-264251D01*
Y-269329D01*
X1031233Y-271868D01*
X1026154D01*
X1023615Y-269329D01*
X668274Y-256633D02*
Y-269329D01*
X670813Y-271868D01*
X675891D01*
X678431Y-269329D01*
Y-256633D01*
X691127Y-271868D02*
Y-256633D01*
X683509Y-264251D01*
X693666D01*
X328168Y-256633D02*
Y-269329D01*
X330707Y-271868D01*
X335785D01*
X338325Y-269329D01*
Y-256633D01*
X343403Y-259172D02*
X345942Y-256633D01*
X351021D01*
X353560Y-259172D01*
Y-261711D01*
X351021Y-264251D01*
X348481D01*
X351021D01*
X353560Y-266790D01*
Y-269329D01*
X351021Y-271868D01*
X345942D01*
X343403Y-269329D01*
X612394Y-68165D02*
Y-80861D01*
X614933Y-83400D01*
X620011D01*
X622551Y-80861D01*
Y-68165D01*
X637786Y-83400D02*
X627629D01*
X637786Y-73243D01*
Y-70704D01*
X635247Y-68165D01*
X630168D01*
X627629Y-70704D01*
X866394Y-68165D02*
Y-80861D01*
X868933Y-83400D01*
X874012D01*
X876551Y-80861D01*
Y-68165D01*
X881629Y-83400D02*
X886707D01*
X884168D01*
Y-68165D01*
X881629Y-70704D01*
X895356Y-693418D02*
Y-678183D01*
X902974D01*
X905513Y-680722D01*
Y-685800D01*
X902974Y-688339D01*
X895356D01*
X900434D02*
X905513Y-693418D01*
X910591D02*
X915670D01*
X913130D01*
Y-678183D01*
X910591Y-680722D01*
X930905Y-693418D02*
Y-678183D01*
X923287Y-685800D01*
X933444D01*
X869956Y-541017D02*
Y-525783D01*
X877574D01*
X880113Y-528322D01*
Y-533400D01*
X877574Y-535939D01*
X869956D01*
X875034D02*
X880113Y-541017D01*
X885191D02*
X890270D01*
X887730D01*
Y-525783D01*
X885191Y-528322D01*
X897887D02*
X900426Y-525783D01*
X905505D01*
X908044Y-528322D01*
Y-530861D01*
X905505Y-533400D01*
X902965D01*
X905505D01*
X908044Y-535939D01*
Y-538478D01*
X905505Y-541017D01*
X900426D01*
X897887Y-538478D01*
X844556Y-693418D02*
Y-678183D01*
X852174D01*
X854713Y-680722D01*
Y-685800D01*
X852174Y-688339D01*
X844556D01*
X849634D02*
X854713Y-693418D01*
X859791D02*
X864870D01*
X862330D01*
Y-678183D01*
X859791Y-680722D01*
X882644Y-693418D02*
X872487D01*
X882644Y-683261D01*
Y-680722D01*
X880105Y-678183D01*
X875026D01*
X872487Y-680722D01*
X821695Y-541017D02*
Y-525783D01*
X829313D01*
X831852Y-528322D01*
Y-533400D01*
X829313Y-535939D01*
X821695D01*
X826774D02*
X831852Y-541017D01*
X836930D02*
X842009D01*
X839470D01*
Y-525783D01*
X836930Y-528322D01*
X849626Y-541017D02*
X854705D01*
X852166D01*
Y-525783D01*
X849626Y-528322D01*
X793756Y-693418D02*
Y-678183D01*
X801374D01*
X803913Y-680722D01*
Y-685800D01*
X801374Y-688339D01*
X793756D01*
X798835D02*
X803913Y-693418D01*
X808991D02*
X814070D01*
X811530D01*
Y-678183D01*
X808991Y-680722D01*
X821687D02*
X824226Y-678183D01*
X829305D01*
X831844Y-680722D01*
Y-690878D01*
X829305Y-693418D01*
X824226D01*
X821687Y-690878D01*
Y-680722D01*
X774704Y-541017D02*
Y-525783D01*
X782322D01*
X784861Y-528322D01*
Y-533400D01*
X782322Y-535939D01*
X774704D01*
X779782D02*
X784861Y-541017D01*
X789939Y-538478D02*
X792478Y-541017D01*
X797557D01*
X800096Y-538478D01*
Y-528322D01*
X797557Y-525783D01*
X792478D01*
X789939Y-528322D01*
Y-530861D01*
X792478Y-533400D01*
X800096D01*
X749304Y-693418D02*
Y-678183D01*
X756922D01*
X759461Y-680722D01*
Y-685800D01*
X756922Y-688339D01*
X749304D01*
X754382D02*
X759461Y-693418D01*
X764539Y-680722D02*
X767078Y-678183D01*
X772157D01*
X774696Y-680722D01*
Y-683261D01*
X772157Y-685800D01*
X774696Y-688339D01*
Y-690878D01*
X772157Y-693418D01*
X767078D01*
X764539Y-690878D01*
Y-688339D01*
X767078Y-685800D01*
X764539Y-683261D01*
Y-680722D01*
X767078Y-685800D02*
X772157D01*
X723904Y-541017D02*
Y-525783D01*
X731522D01*
X734061Y-528322D01*
Y-533400D01*
X731522Y-535939D01*
X723904D01*
X728982D02*
X734061Y-541017D01*
X739139Y-525783D02*
X749296D01*
Y-528322D01*
X739139Y-538478D01*
Y-541017D01*
X698504Y-693418D02*
Y-678183D01*
X706122D01*
X708661Y-680722D01*
Y-685800D01*
X706122Y-688339D01*
X698504D01*
X703583D02*
X708661Y-693418D01*
X723896Y-678183D02*
X718818Y-680722D01*
X713739Y-685800D01*
Y-690878D01*
X716278Y-693418D01*
X721357D01*
X723896Y-690878D01*
Y-688339D01*
X721357Y-685800D01*
X713739D01*
X673104Y-541017D02*
Y-525783D01*
X680722D01*
X683261Y-528322D01*
Y-533400D01*
X680722Y-535939D01*
X673104D01*
X678183D02*
X683261Y-541017D01*
X698496Y-525783D02*
X688339D01*
Y-533400D01*
X693418Y-530861D01*
X695957D01*
X698496Y-533400D01*
Y-538478D01*
X695957Y-541017D01*
X690878D01*
X688339Y-538478D01*
X647704Y-693418D02*
Y-678183D01*
X655322D01*
X657861Y-680722D01*
Y-685800D01*
X655322Y-688339D01*
X647704D01*
X652783D02*
X657861Y-693418D01*
X670557D02*
Y-678183D01*
X662939Y-685800D01*
X673096D01*
X622304Y-541017D02*
Y-525783D01*
X629922D01*
X632461Y-528322D01*
Y-533400D01*
X629922Y-535939D01*
X622304D01*
X627383D02*
X632461Y-541017D01*
X637539Y-528322D02*
X640078Y-525783D01*
X645157D01*
X647696Y-528322D01*
Y-530861D01*
X645157Y-533400D01*
X642617D01*
X645157D01*
X647696Y-535939D01*
Y-538478D01*
X645157Y-541017D01*
X640078D01*
X637539Y-538478D01*
X596904Y-693418D02*
Y-678183D01*
X604522D01*
X607061Y-680722D01*
Y-685800D01*
X604522Y-688339D01*
X596904D01*
X601982D02*
X607061Y-693418D01*
X622296D02*
X612139D01*
X622296Y-683261D01*
Y-680722D01*
X619757Y-678183D01*
X614678D01*
X612139Y-680722D01*
X574043Y-541017D02*
Y-525783D01*
X581661D01*
X584200Y-528322D01*
Y-533400D01*
X581661Y-535939D01*
X574043D01*
X579122D02*
X584200Y-541017D01*
X589278D02*
X594357D01*
X591818D01*
Y-525783D01*
X589278Y-528322D01*
D11*
X1063700Y-133350D02*
G03*
X1063700Y-146050I0J-6350D01*
G01*
X191300Y-577850D02*
G03*
X191300Y-565150I0J6350D01*
G01*
X368150Y-285400D02*
G03*
X380850Y-285400I6350J0D01*
G01*
X809700Y-133350D02*
G03*
X809700Y-146050I0J-6350D01*
G01*
X1225950Y-285400D02*
G03*
X1238650Y-285400I6350J0D01*
G01*
X1048150D02*
G03*
X1060850Y-285400I6350J0D01*
G01*
X708150D02*
G03*
X720850Y-285400I6350J0D01*
G01*
X1835150Y-593600D02*
Y-591400D01*
X1873250Y-593600D02*
Y-591400D01*
Y-616800D02*
Y-614600D01*
X1835150Y-616800D02*
Y-614600D01*
Y-591400D02*
X1873250D01*
X1835150Y-616800D02*
X1873250D01*
X866700Y-113200D02*
X1063700D01*
X866700Y-166200D02*
X1063700D01*
Y-133350D02*
Y-113200D01*
Y-166200D02*
Y-146050D01*
X866700Y-166200D02*
Y-113200D01*
X341750Y-184150D02*
Y-80050D01*
X85250Y-184150D02*
X341750D01*
X85250D02*
Y-80050D01*
X341750D01*
X374650Y-688000D02*
Y-685800D01*
X412750Y-688000D02*
Y-685800D01*
Y-711200D02*
Y-709000D01*
X374650Y-711200D02*
Y-709000D01*
Y-685800D02*
X412750D01*
X374650Y-711200D02*
X412750D01*
X488950D02*
Y-709000D01*
X450850Y-711200D02*
Y-709000D01*
Y-688000D02*
Y-685800D01*
X488950Y-688000D02*
Y-685800D01*
X450850Y-711200D02*
X488950D01*
X450850Y-685800D02*
X488950D01*
X191300Y-598000D02*
X545300D01*
X191300Y-545000D02*
X545300D01*
X191300Y-598000D02*
Y-577850D01*
Y-565150D02*
Y-545000D01*
X545300Y-598000D02*
Y-545000D01*
X1395100Y-191400D02*
Y-89400D01*
X1400100Y-191400D02*
Y-89400D01*
X1353100Y-191400D02*
Y-89400D01*
Y-191400D02*
X1400100D01*
X1353100Y-89400D02*
X1400100D01*
X1280400Y-185100D02*
Y-145100D01*
Y-185100D02*
X1335400D01*
Y-145100D01*
X1280400D02*
X1335400D01*
X1280800Y-134300D02*
Y-94300D01*
Y-134300D02*
X1335800D01*
Y-94300D01*
X1280800D02*
X1335800D01*
X65293Y-252360D02*
X121333D01*
Y-486040D02*
Y-252360D01*
X65293Y-486040D02*
X121333D01*
X65293D02*
Y-252360D01*
X1685250Y-146000D02*
Y-114000D01*
X1615250Y-146000D02*
Y-114000D01*
X348000Y-482400D02*
Y-285400D01*
X401000Y-482400D02*
Y-285400D01*
X348000D02*
X368150D01*
X380850D02*
X401000D01*
X348000Y-482400D02*
X401000D01*
X612700Y-166200D02*
Y-113200D01*
X809700Y-166200D02*
Y-146050D01*
Y-133350D02*
Y-113200D01*
X612700Y-166200D02*
X809700D01*
X612700Y-113200D02*
X809700D01*
X1205800Y-482400D02*
X1258800D01*
X1238650Y-285400D02*
X1258800D01*
X1205800D02*
X1225950D01*
X1258800Y-482400D02*
Y-285400D01*
X1205800Y-482400D02*
Y-285400D01*
X1028000Y-482400D02*
X1081000D01*
X1060850Y-285400D02*
X1081000D01*
X1028000D02*
X1048150D01*
X1081000Y-482400D02*
Y-285400D01*
X1028000Y-482400D02*
Y-285400D01*
X688000Y-482400D02*
X741000D01*
X720850Y-285400D02*
X741000D01*
X688000D02*
X708150D01*
X741000Y-482400D02*
Y-285400D01*
X688000Y-482400D02*
Y-285400D01*
D12*
X1068350Y-101600D02*
G03*
X1068350Y-101600I-1250J0D01*
G01*
X327250Y-75300D02*
G03*
X327250Y-75300I-1250J0D01*
G01*
X191450Y-609600D02*
G03*
X191450Y-609600I-1250J0D01*
G01*
X1374750Y-82900D02*
G03*
X1374750Y-82900I-1250J0D01*
G01*
X42125Y-267600D02*
G03*
X42125Y-267600I-1250J0D01*
G01*
X337650Y-282000D02*
G03*
X337650Y-282000I-1250J0D01*
G01*
X814350Y-101600D02*
G03*
X814350Y-101600I-1250J0D01*
G01*
X1195450Y-282000D02*
G03*
X1195450Y-282000I-1250J0D01*
G01*
X1017650D02*
G03*
X1017650Y-282000I-1250J0D01*
G01*
X677650D02*
G03*
X677650Y-282000I-1250J0D01*
G01*
D13*
X1056700Y-123200D02*
G03*
X1056700Y-123200I-3000J0D01*
G01*
X204300Y-588000D02*
G03*
X204300Y-588000I-3000J0D01*
G01*
X361000Y-295400D02*
G03*
X361000Y-295400I-3000J0D01*
G01*
X802700Y-123200D02*
G03*
X802700Y-123200I-3000J0D01*
G01*
X1218800Y-295400D02*
G03*
X1218800Y-295400I-3000J0D01*
G01*
X1041000D02*
G03*
X1041000Y-295400I-3000J0D01*
G01*
X701000D02*
G03*
X701000Y-295400I-3000J0D01*
G01*
D14*
X77562Y-265700D02*
G03*
X77562Y-265700I-2500J0D01*
G01*
D15*
X1740500Y-130000D02*
G03*
X1740500Y-130000I-30500J0D01*
G01*
X1670500D02*
G03*
X1670500Y-130000I-30500J0D01*
G01*
D16*
X431800Y-660400D02*
D03*
M02*
