G04*
G04 #@! TF.GenerationSoftware,Altium Limited,Altium Designer,22.10.1 (41)*
G04*
G04 Layer_Physical_Order=1*
G04 Layer_Color=255*
%FSLAX44Y44*%
%MOMM*%
G71*
G04*
G04 #@! TF.SameCoordinates,91F6756B-7A5A-4407-9539-22634D5E68D7*
G04*
G04*
G04 #@! TF.FilePolarity,Positive*
G04*
G01*
G75*
%ADD14C,0.5000*%
%ADD24R,1.3500X1.3500*%
%ADD25C,1.3500*%
%ADD30C,1.2000*%
%ADD31R,1.2000X1.2000*%
%ADD32R,1.3000X1.3000*%
%ADD33C,1.3000*%
%ADD34C,1.4500*%
%ADD35R,1.4500X1.4500*%
%ADD38R,1.2700X1.2700*%
%ADD39C,1.2700*%
%ADD40R,1.2700X1.2700*%
%ADD41C,4.0640*%
%ADD42R,1.5000X1.5000*%
%ADD43C,1.5000*%
%ADD44C,1.6000*%
%ADD45R,1.6000X1.6000*%
%ADD46R,1.5000X1.5000*%
%ADD47C,1.1000*%
D14*
X1317383Y-165100D02*
Y-117717D01*
X587248Y-255358D02*
X636758D01*
X508000D02*
X587248D01*
X987806Y-525360D02*
Y-450594D01*
X989330Y-449070D02*
X1016400Y-422000D01*
X987806Y-450594D02*
X989330Y-449070D01*
X1207262Y-307338D02*
X1213612Y-300988D01*
X1225296Y-284568D02*
Y-235292D01*
X1780000Y-137700D02*
Y-40000D01*
X1727200Y-190500D02*
X1780000Y-137700D01*
X1710400Y-359700D02*
X1752600Y-317500D01*
X1710400Y-556500D02*
Y-359700D01*
X40000Y-279375D02*
Y-40000D01*
Y-279375D02*
X53625Y-293000D01*
Y-343800D02*
X65786Y-331639D01*
Y-305161D01*
X53625Y-293000D02*
X65786Y-305161D01*
X25146Y-546354D02*
X38100Y-533400D01*
X25146Y-685146D02*
Y-546354D01*
Y-685146D02*
X40000Y-700000D01*
X1309350Y-281450D02*
X1321200Y-269600D01*
X1309350Y-302475D02*
Y-281450D01*
Y-302475D02*
X1314557Y-307682D01*
X1328928D01*
X1333246Y-312000D01*
Y-403948D02*
Y-312000D01*
X1328674Y-408520D02*
X1333246Y-403948D01*
X1307720Y-408520D02*
X1328674D01*
X1270400Y-371200D02*
X1307720Y-408520D01*
X384842Y-269600D02*
X463400D01*
X377600Y-276842D02*
X384842Y-269600D01*
X377600Y-404669D02*
Y-276842D01*
Y-404669D02*
X399514Y-426582D01*
X412600Y-447400D01*
X285600D02*
Y-400900D01*
X280418Y-395718D02*
X285600Y-400900D01*
X234950Y-395718D02*
X280418D01*
X220068Y-410600D02*
X234950Y-395718D01*
X199850Y-410600D02*
X220068D01*
X171450Y-439000D02*
X199850Y-410600D01*
X171450Y-603846D02*
Y-439000D01*
Y-603846D02*
X190246Y-622642D01*
X367958D01*
X381000Y-609600D01*
X765468Y-60032D02*
X951992D01*
X723900Y-101600D02*
X765468Y-60032D01*
X882904Y-247396D02*
X952500Y-177800D01*
X882904Y-262470D02*
Y-247396D01*
X821182Y-479386D02*
Y-447890D01*
X800100Y-500468D02*
X821182Y-479386D01*
X800100Y-583222D02*
Y-500468D01*
X774574Y-608748D02*
X800100Y-583222D01*
X634148Y-608748D02*
X774574D01*
X584200Y-558800D02*
X634148Y-608748D01*
X743380Y-183720D02*
X749300Y-177800D01*
X743380Y-249723D02*
Y-183720D01*
X714500Y-278603D02*
X743380Y-249723D01*
X714500Y-529680D02*
Y-278603D01*
X698500Y-545680D02*
X714500Y-529680D01*
X953174Y-202526D02*
X977900Y-177800D01*
X755826Y-249697D02*
Y-202526D01*
X731266Y-274257D02*
X755826Y-249697D01*
X731266Y-351116D02*
Y-274257D01*
X723138Y-359244D02*
X731266Y-351116D01*
X723138Y-581748D02*
Y-359244D01*
X660400Y-558800D02*
Y-514098D01*
X606388Y-460086D02*
X660400Y-514098D01*
X542675Y-460086D02*
X606388D01*
X537464Y-454875D02*
X542675Y-460086D01*
X537464Y-454875D02*
Y-421220D01*
X548640Y-410044D01*
Y-311238D01*
X766826Y-214210D02*
X774700Y-206336D01*
Y-177800D01*
X977646Y-558634D02*
X983742Y-564730D01*
X977646Y-558634D02*
Y-426039D01*
X902716Y-351109D02*
X977646Y-426039D01*
X902716Y-351109D02*
Y-242912D01*
X928370Y-217258D01*
X989242D01*
X1028700Y-177800D01*
X834302Y-543648D02*
Y-193724D01*
X863346Y-164680D01*
X990180D01*
X1003300Y-177800D01*
X842302Y-211798D02*
X876300Y-177800D01*
X842302Y-487285D02*
Y-211798D01*
Y-487285D02*
X851511Y-496494D01*
Y-580470D02*
Y-496494D01*
X787400Y-644581D02*
X851511Y-580470D01*
X787400Y-660400D02*
Y-644581D01*
X871728Y-233172D02*
X927100Y-177800D01*
X871728Y-274154D02*
Y-233172D01*
Y-274154D02*
X876046Y-278472D01*
Y-496150D02*
Y-278472D01*
Y-496150D02*
X928116Y-548220D01*
Y-563118D02*
Y-548220D01*
X838200Y-653034D02*
X928116Y-563118D01*
X838200Y-660400D02*
Y-653034D01*
X863600Y-592162D02*
Y-558800D01*
X800862Y-654900D02*
X863600Y-592162D01*
X800862Y-669378D02*
Y-654900D01*
X761160Y-709080D02*
X800862Y-669378D01*
X694690Y-709080D02*
X761160D01*
X673100Y-687490D02*
X694690Y-709080D01*
X673100Y-687490D02*
Y-632040D01*
X660400Y-619340D02*
X673100Y-632040D01*
X624332Y-619340D02*
X660400D01*
X565150Y-560158D02*
X624332Y-619340D01*
X565150Y-560158D02*
Y-507072D01*
X542310Y-502754D02*
X565150Y-507072D01*
X503936Y-464380D02*
X542310Y-502754D01*
X503936Y-464380D02*
Y-295998D01*
X530352Y-269582D01*
X826008Y-647192D02*
X914400Y-558800D01*
X826008Y-675220D02*
Y-647192D01*
X784148Y-717080D02*
X826008Y-675220D01*
X691376Y-717080D02*
X784148D01*
X648462Y-674166D02*
X691376Y-717080D01*
X648462Y-674166D02*
Y-638644D01*
X641350Y-631532D02*
X648462Y-638644D01*
X507238Y-631532D02*
X641350D01*
X469900Y-668870D02*
X507238Y-631532D01*
X469900Y-708240D02*
Y-668870D01*
X463550Y-714590D02*
X469900Y-708240D01*
X232664Y-714590D02*
X463550D01*
X160274Y-642200D02*
X232664Y-714590D01*
X160274Y-642200D02*
Y-532218D01*
X113000Y-484944D02*
X160274Y-532218D01*
X113000Y-484944D02*
Y-273000D01*
X113538Y-162140D01*
X138430Y-137248D01*
Y-89242D01*
X153923Y-73749D01*
X463551D01*
X591820Y-202018D01*
X623482D01*
X647700Y-177800D01*
X457200Y-533400D02*
X493776Y-496824D01*
Y-269582D01*
X508000Y-255358D01*
X636758D02*
X676400Y-295000D01*
X336400D02*
Y-229854D01*
X357886Y-208368D01*
X540258D01*
X587248Y-255358D01*
X989966Y-268566D02*
X1016400Y-295000D01*
X958850Y-268566D02*
X989966D01*
X676400Y-229960D02*
X680212Y-226148D01*
X676400Y-295000D02*
Y-229960D01*
X292188Y-571588D02*
X330200Y-609600D01*
X203200Y-571588D02*
X292188D01*
X189992Y-558380D02*
X203200Y-571588D01*
X189992Y-558380D02*
Y-485990D01*
X222758Y-453224D01*
Y-427824D01*
X243586Y-406996D01*
X211416Y-490816D02*
X254000Y-533400D01*
X739495Y-307295D02*
X752600Y-320400D01*
X739495Y-307295D02*
Y-285837D01*
X786892Y-238441D01*
Y-220052D01*
X506119Y-487244D02*
X529966Y-511091D01*
X540790D01*
X555438Y-525739D01*
Y-562163D02*
Y-525739D01*
X508000Y-609600D02*
X555438Y-562163D01*
X1228928Y-586650D02*
X1283462Y-532116D01*
Y-409662D01*
X1270400Y-396600D02*
X1283462Y-409662D01*
X1221232Y-394968D02*
X1270400Y-345800D01*
X1221232Y-439508D02*
Y-394968D01*
X516636Y-519091D02*
X537476D01*
X546400Y-528015D01*
Y-542586D02*
Y-528015D01*
X539750Y-549236D02*
X546400Y-542586D01*
X517564Y-549236D02*
X539750D01*
X457200Y-609600D02*
X517564Y-549236D01*
X381000Y-584200D02*
Y-533400D01*
X355600Y-609600D02*
X381000Y-584200D01*
X412600Y-295000D02*
X443550Y-325950D01*
Y-496250D02*
Y-325950D01*
X406400Y-533400D02*
X443550Y-496250D01*
X13970Y-278745D02*
X53625Y-318400D01*
X13970Y-278745D02*
Y-22694D01*
X22606Y-14058D01*
X52070D01*
X101000Y-62988D01*
Y-94000D02*
Y-62988D01*
X176000Y-126072D02*
Y-94000D01*
X163576Y-138496D02*
X176000Y-126072D01*
X163576Y-274576D02*
Y-138496D01*
Y-274576D02*
X184000Y-295000D01*
X336400Y-422000D02*
X385826Y-471426D01*
Y-472020D02*
Y-471426D01*
X234800Y-447400D02*
X281200Y-493800D01*
X410020D01*
X425600Y-478220D01*
Y-409600D01*
X412600Y-396600D02*
X425600Y-409600D01*
X388366Y-437730D02*
X396826Y-446190D01*
Y-477100D02*
Y-446190D01*
X388126Y-485800D02*
X396826Y-477100D01*
X298600Y-485800D02*
X388126D01*
X260200Y-447400D02*
X298600Y-485800D01*
X698500Y-257898D02*
X705688Y-250710D01*
X698500Y-349100D02*
Y-257898D01*
X676400Y-371200D02*
X698500Y-349100D01*
X574800Y-295000D02*
X622300Y-342500D01*
Y-383900D02*
Y-342500D01*
Y-383900D02*
X635000Y-396600D01*
X676400D01*
X581932Y-422000D02*
X676400D01*
X564642Y-404710D02*
X581932Y-422000D01*
X564642Y-404710D02*
Y-310242D01*
X549400Y-295000D02*
X564642Y-310242D01*
X642112Y-456288D02*
X676400Y-422000D01*
X803400Y-295000D02*
X815688Y-307288D01*
Y-379978D02*
Y-307288D01*
X811784Y-383882D02*
X815688Y-379978D01*
X1473454Y-650582D02*
Y-306854D01*
X1461600Y-295000D02*
X1473454Y-306854D01*
X635000Y-712558D02*
Y-660400D01*
Y-712558D02*
X647700Y-725258D01*
X813816D01*
X851662Y-687412D01*
Y-654900D01*
X858012Y-648550D01*
X870712D01*
X877062Y-654900D01*
Y-667600D02*
Y-654900D01*
Y-667600D02*
X900430Y-690968D01*
X1422400D01*
X1448054Y-665314D01*
Y-306854D01*
X1436200Y-295000D02*
X1448054Y-306854D01*
X1406781Y-610325D02*
X1413256Y-616800D01*
X1406781Y-610325D02*
Y-514563D01*
X1422654Y-498690D01*
Y-289648D01*
X1413002Y-279996D02*
X1422654Y-289648D01*
X1411732Y-279996D02*
X1413002D01*
X1610196Y-268996D02*
X1636200Y-295000D01*
X1405636Y-268996D02*
X1610196D01*
X1398781Y-275851D02*
X1405636Y-268996D01*
X1398781Y-651595D02*
Y-275851D01*
X1384300Y-666076D02*
X1398781Y-651595D01*
X1360000Y-501400D02*
Y-447400D01*
X1301750Y-559650D02*
X1360000Y-501400D01*
X1436200Y-537214D02*
Y-447400D01*
X1422908Y-550506D02*
X1436200Y-537214D01*
X1507998Y-499402D02*
X1560000Y-447400D01*
X1507998Y-693000D02*
Y-499402D01*
X1493012Y-707986D02*
X1507998Y-693000D01*
X893644Y-707986D02*
X1493012D01*
X863600Y-677942D02*
X893644Y-707986D01*
X863600Y-677942D02*
Y-660400D01*
X889000D02*
X911186Y-682586D01*
X1263571D01*
X1390781Y-555376D01*
Y-452781D01*
X1385400Y-447400D02*
X1390781Y-452781D01*
X914400Y-660400D02*
X921854Y-667854D01*
X1235964D01*
X1379728Y-524090D01*
X1143400Y-396600D02*
X1150150D01*
X1163250Y-409700D01*
Y-472471D02*
Y-409700D01*
X1141921Y-493800D02*
X1163250Y-472471D01*
X1070478Y-493800D02*
X1141921D01*
X1049814Y-473136D02*
X1070478Y-493800D01*
X1049814Y-473136D02*
Y-379214D01*
X1016400Y-345800D02*
X1049814Y-379214D01*
X1016400Y-396600D02*
X1029400Y-409600D01*
Y-446366D02*
Y-409600D01*
Y-446366D02*
X1041400Y-458366D01*
Y-490816D02*
Y-458366D01*
Y-490816D02*
X1054100Y-503516D01*
X1161796D01*
X1173200Y-492112D01*
Y-398588D01*
X1159256Y-384644D02*
X1173200Y-398588D01*
X1134872Y-384644D02*
X1159256D01*
X1131316Y-388200D02*
X1134872Y-384644D01*
X1131316Y-404816D02*
Y-388200D01*
Y-404816D02*
X1136650Y-410150D01*
X1151800D01*
X1155250Y-413600D01*
Y-435550D02*
Y-413600D01*
X1143400Y-447400D02*
X1155250Y-435550D01*
X1143400Y-320400D02*
X1158240Y-335240D01*
Y-356604D02*
Y-335240D01*
Y-356604D02*
X1181200Y-379564D01*
Y-512969D02*
Y-379564D01*
X1110438Y-583730D02*
X1181200Y-512969D01*
X968375Y-583730D02*
X1110438D01*
X953008Y-568363D02*
X968375Y-583730D01*
X953008Y-568363D02*
Y-485608D01*
X914800Y-447400D02*
X953008Y-485608D01*
X151000Y-245600D02*
Y-170200D01*
Y-245600D02*
X153000Y-247600D01*
Y-280650D02*
Y-247600D01*
X140650Y-293000D02*
X153000Y-280650D01*
X133000Y-293000D02*
X140650D01*
X176000Y-170200D02*
X188468Y-157732D01*
Y-88988D01*
X181229Y-81749D02*
X188468Y-88988D01*
X170306Y-81749D02*
X181229D01*
X163322Y-88734D02*
X170306Y-81749D01*
X163322Y-103212D02*
Y-88734D01*
X155448Y-111086D02*
X163322Y-103212D01*
X155448Y-141312D02*
Y-111086D01*
X138684Y-158076D02*
X155448Y-141312D01*
X138684Y-249296D02*
Y-158076D01*
Y-249296D02*
X145000Y-255612D01*
Y-274300D02*
Y-255612D01*
X139700Y-279600D02*
X145000Y-274300D01*
X128000Y-279600D02*
X139700D01*
X121000Y-286600D02*
X128000Y-279600D01*
X121000Y-306400D02*
Y-286600D01*
Y-306400D02*
X133000Y-318400D01*
X226000Y-201062D02*
Y-170200D01*
X221488Y-205574D02*
X226000Y-201062D01*
X221488Y-350912D02*
Y-205574D01*
X203200Y-369200D02*
X221488Y-350912D01*
X133000Y-369200D02*
X203200D01*
X121000Y-408000D02*
X133000Y-420000D01*
X121000Y-408000D02*
Y-362800D01*
X126842Y-356958D01*
X174498D01*
X197358Y-334098D01*
Y-213702D01*
X213360Y-197700D01*
Y-162775D01*
X218313Y-157822D01*
X263622D01*
X276000Y-170200D01*
X133000Y-470800D02*
X162052Y-441748D01*
Y-418348D01*
X177800Y-402600D01*
X208330D01*
X273558Y-337372D01*
Y-222642D01*
X326000Y-170200D01*
X96774Y-490474D02*
Y-445400D01*
Y-490474D02*
X139700Y-533400D01*
X38100Y-584200D02*
X85598Y-536702D01*
Y-420000D01*
X1194200Y-295000D02*
Y-122916D01*
X1151636Y-80352D02*
X1194200Y-122916D01*
X821348Y-80352D02*
X1151636D01*
X800100Y-101600D02*
X821348Y-80352D01*
X1194200Y-371200D02*
X1246124Y-319276D01*
Y-286600D01*
X1253744Y-278980D01*
X1279779D01*
X1283678Y-282879D01*
Y-359078D02*
Y-282879D01*
Y-359078D02*
X1321200Y-396600D01*
X1103884Y-279488D02*
Y-151384D01*
X1054100Y-101600D02*
X1103884Y-151384D01*
X1304544Y-486752D02*
Y-464056D01*
X1321200Y-447400D01*
X1524508Y-164680D02*
Y-23710D01*
Y-164680D02*
X1608836Y-249008D01*
X1651000D01*
X1673606Y-271614D01*
Y-314286D02*
Y-271614D01*
X1622806Y-365086D02*
X1673606Y-314286D01*
X1622806Y-478878D02*
Y-365086D01*
X1614678Y-487006D02*
X1622806Y-478878D01*
X45466Y-502500D02*
X65625Y-482341D01*
Y-381200D01*
X53625Y-369200D02*
X65625Y-381200D01*
X431800Y-635000D02*
Y-609600D01*
Y-635000D02*
X457200Y-660400D01*
X126000Y-260600D02*
X133000Y-267600D01*
X126000Y-260600D02*
Y-170200D01*
X1373500Y-115000D02*
X1481554Y-6946D01*
X1798828D01*
X1805940Y-14058D01*
Y-238760D02*
Y-14058D01*
X1752600Y-292100D02*
X1805940Y-238760D01*
X251000Y-280202D02*
Y-170200D01*
X248158Y-283044D02*
X251000Y-280202D01*
X248158Y-340450D02*
Y-283044D01*
X194008Y-394600D02*
X248158Y-340450D01*
X133000Y-394600D02*
X194008D01*
X101092Y-413492D02*
Y-215480D01*
X673100Y-177800D02*
Y-127088D01*
X684022Y-116166D01*
X699262Y-698080D02*
Y-654900D01*
X732156Y-622006D01*
X790068D01*
X812800Y-599274D01*
Y-558800D01*
X1627596Y-260996D02*
X1661600Y-295000D01*
X1392654Y-260996D02*
X1627596D01*
X1372870Y-280780D02*
X1392654Y-260996D01*
X1372870Y-509930D02*
Y-280780D01*
X1226883Y-655916D02*
X1372870Y-509930D01*
X979170Y-655916D02*
X1226883D01*
X1360000Y-404372D02*
Y-295000D01*
X1328928Y-435444D02*
X1360000Y-404372D01*
X1308100Y-435444D02*
X1328928D01*
X1291844Y-451700D02*
X1308100Y-435444D01*
X1291844Y-540092D02*
Y-451700D01*
X1287272Y-544664D02*
X1291844Y-540092D01*
X1287272Y-568490D02*
Y-544664D01*
X1218388Y-637374D02*
X1287272Y-568490D01*
X876300Y-637374D02*
X1218388D01*
X412600Y-371200D02*
X434400Y-393000D01*
Y-487144D02*
Y-393000D01*
X407614Y-513930D02*
X434400Y-487144D01*
X303530Y-513930D02*
X407614D01*
X800100Y-247500D02*
Y-177800D01*
X752600Y-295000D02*
X800100Y-247500D01*
X1209930Y-482470D02*
X1270400Y-422000D01*
X1209930Y-602068D02*
Y-482470D01*
X699350Y-570650D02*
X711200Y-558800D01*
X680798Y-570650D02*
X699350D01*
X673862Y-563714D02*
X680798Y-570650D01*
X673862Y-563714D02*
Y-538568D01*
X706500Y-505930D01*
Y-265763D01*
X723900Y-248363D01*
Y-177800D01*
X38100Y-533400D02*
X73625Y-497875D01*
Y-363800D01*
X53625Y-343800D02*
X73625Y-363800D01*
X676400Y-320400D02*
X689610Y-307190D01*
Y-236308D01*
X692404Y-233514D01*
Y-222338D01*
X673100Y-203034D02*
X692404Y-222338D01*
X663194Y-203034D02*
X673100D01*
X645922Y-220306D02*
X663194Y-203034D01*
X587248Y-220306D02*
X645922D01*
X565658Y-198716D02*
X587248Y-220306D01*
X341884Y-198716D02*
X565658D01*
X323342Y-217258D02*
X341884Y-198716D01*
X323342Y-307342D02*
Y-217258D01*
Y-307342D02*
X336400Y-320400D01*
X990854Y-253072D02*
X1000472D01*
X1029400Y-282000D01*
Y-307400D02*
Y-282000D01*
X1016400Y-320400D02*
X1029400Y-307400D01*
X698500Y-177800D02*
X707976Y-187276D01*
Y-235116D02*
Y-187276D01*
X778764Y-490678D02*
Y-460082D01*
X762000Y-507442D02*
X778764Y-490678D01*
X762000Y-558800D02*
Y-507442D01*
X803400Y-447400D02*
X823688Y-427112D01*
Y-275390D01*
X818642Y-270344D02*
X823688Y-275390D01*
X451550Y-410150D02*
X463400Y-422000D01*
X451550Y-410150D02*
Y-312000D01*
X455106Y-308444D01*
X467376D01*
X475250Y-300570D01*
Y-257750D01*
X382342D02*
X475250D01*
X369600Y-270492D02*
X382342Y-257750D01*
X369600Y-338000D02*
Y-270492D01*
X336400Y-371200D02*
X369600Y-338000D01*
X851916Y-227584D02*
X901700Y-177800D01*
X851916Y-464654D02*
Y-227584D01*
Y-464654D02*
X859790Y-472528D01*
Y-529590D02*
Y-472528D01*
Y-529590D02*
X889000Y-558800D01*
X463400Y-447400D02*
X475488Y-459488D01*
Y-492848D02*
Y-459488D01*
X1213612Y-300988D02*
Y-229450D01*
X1223772Y-219290D01*
X1298702D01*
X1301350Y-221938D01*
Y-325950D02*
Y-221938D01*
Y-325950D02*
X1321200Y-345800D01*
X1194200D02*
X1225296Y-314704D01*
Y-284568D01*
X1244600Y-265264D01*
X1284478D01*
X1293114Y-273900D01*
Y-343114D02*
Y-273900D01*
Y-343114D02*
X1321200Y-371200D01*
X1333500Y-63080D02*
X1347978Y-77558D01*
Y-400900D02*
Y-77558D01*
X1326878Y-422000D02*
X1347978Y-400900D01*
X1321200Y-422000D02*
X1326878D01*
X1321200Y-295000D02*
X1339850Y-276350D01*
Y-87210D01*
X1300988Y-48348D02*
X1339850Y-87210D01*
X700952Y-48348D02*
X1300988D01*
X647700Y-101600D02*
X700952Y-48348D01*
X987806Y-525360D02*
X994742Y-532296D01*
Y-572350D02*
Y-532296D01*
X991362Y-575730D02*
X994742Y-572350D01*
X975438Y-575730D02*
X991362D01*
X964438Y-564730D02*
X975438Y-575730D01*
X964438Y-564730D02*
Y-474560D01*
X953008Y-463130D02*
X964438Y-474560D01*
X953008Y-463130D02*
Y-418172D01*
X889400Y-354564D02*
X953008Y-418172D01*
X889400Y-354564D02*
Y-295000D01*
X902972Y-410172D02*
X940200Y-447400D01*
X902716Y-410172D02*
X902972D01*
X902716Y-459320D02*
Y-410172D01*
Y-459320D02*
X929640Y-486244D01*
X1105662Y-464146D02*
X1112266Y-470750D01*
X1105662Y-464146D02*
Y-435062D01*
X1092600Y-422000D02*
X1105662Y-435062D01*
X998982Y-516470D02*
X1029462Y-485990D01*
Y-460462D01*
X1016400Y-447400D02*
X1029462Y-460462D01*
X385748Y-395147D02*
X412600Y-422000D01*
X385748Y-395147D02*
Y-286219D01*
X390525Y-281442D01*
X449842D01*
X463400Y-295000D01*
Y-396600D02*
X483250Y-376750D01*
Y-243562D01*
X466852Y-227164D02*
X483250Y-243562D01*
X395403Y-227164D02*
X466852D01*
X361600Y-260967D02*
X395403Y-227164D01*
X361600Y-320600D02*
Y-260967D01*
X336400Y-345800D02*
X361600Y-320600D01*
X791464Y-408536D02*
X803400Y-396600D01*
X791464Y-489292D02*
Y-408536D01*
X774700Y-506056D02*
X791464Y-489292D01*
X774700Y-568186D02*
Y-506056D01*
X742138Y-600748D02*
X774700Y-568186D01*
X651460Y-600748D02*
X742138D01*
X623062Y-572350D02*
X651460Y-600748D01*
X623062Y-572350D02*
Y-549744D01*
X568072Y-494754D02*
X623062Y-549744D01*
X545624Y-494754D02*
X568072D01*
X512064Y-461194D02*
X545624Y-494754D01*
X512064Y-461194D02*
Y-340194D01*
X537464Y-314794D01*
Y-283658D01*
X537972Y-283150D01*
X613750D01*
X625600Y-295000D01*
X608584Y-166116D02*
X673100Y-101600D01*
X608584Y-190842D02*
Y-166116D01*
X524000Y-461817D02*
Y-447400D01*
Y-461817D02*
X533453Y-471270D01*
X590308D01*
X646938Y-527900D01*
Y-563714D02*
Y-527900D01*
Y-563714D02*
X675972Y-592748D01*
X734138D01*
X748538Y-578349D01*
Y-513042D01*
X731266Y-495770D02*
X748538Y-513042D01*
X731266Y-495770D02*
Y-367134D01*
X752600Y-345800D01*
X676400D02*
Y-336890D01*
X673100Y-333590D02*
X676400Y-336890D01*
X664190Y-333590D02*
X673100D01*
X625600Y-295000D02*
X664190Y-333590D01*
X634364Y-472800D02*
X676400D01*
X625600Y-464036D02*
X634364Y-472800D01*
X625600Y-464036D02*
Y-447400D01*
X901700Y-101600D02*
X914700Y-88600D01*
X1067308D01*
X1163574Y-184866D01*
Y-323838D02*
Y-184866D01*
Y-323838D02*
X1181200Y-341464D01*
Y-358200D02*
Y-341464D01*
Y-358200D02*
X1194200Y-371200D01*
X782911Y-340889D02*
X803400Y-320400D01*
X782911Y-428403D02*
Y-340889D01*
X765810Y-445503D02*
X782911Y-428403D01*
X765810Y-482180D02*
Y-445503D01*
X762000Y-485990D02*
X765810Y-482180D01*
X742950Y-485990D02*
X762000D01*
X739394Y-482434D02*
X742950Y-485990D01*
X739394Y-482434D02*
Y-409806D01*
X752600Y-396600D01*
X914800Y-329672D02*
Y-295000D01*
Y-329672D02*
X981728Y-396600D01*
X1016400D01*
X940200Y-328015D02*
Y-295000D01*
Y-328015D02*
X983384Y-371200D01*
X1016400D01*
X989330Y-492848D02*
Y-449070D01*
X1124646Y-440754D02*
X1143400Y-422000D01*
X1124646Y-484494D02*
Y-440754D01*
X1123340Y-485800D02*
X1124646Y-484494D01*
X1085125Y-485800D02*
X1123340D01*
X1071600Y-472275D02*
X1085125Y-485800D01*
X1071600Y-472275D02*
Y-301349D01*
X1012322Y-242072D02*
X1071600Y-301349D01*
X963344Y-242072D02*
X1012322D01*
X940200Y-265216D02*
X963344Y-242072D01*
X940200Y-295000D02*
Y-265216D01*
X752600Y-447400D02*
X774911Y-425089D01*
Y-298089D01*
X803400Y-269600D01*
X1246353Y-395247D02*
X1270400Y-371200D01*
X1246353Y-431868D02*
Y-395247D01*
X1205421Y-472800D02*
X1246353Y-431868D01*
X1194200Y-472800D02*
X1205421D01*
X1194200Y-320400D02*
X1207262Y-307338D01*
Y-99148D01*
X1179322Y-71208D02*
X1207262Y-99148D01*
X805092Y-71208D02*
X1179322D01*
X774700Y-101600D02*
X805092Y-71208D01*
X1054100Y-256500D02*
X1092600Y-295000D01*
X1054100Y-256500D02*
Y-177800D01*
X1143400Y-320400D02*
X1155446Y-308354D01*
Y-286600D01*
X1151128Y-282282D02*
X1155446Y-286600D01*
X1127307Y-282282D02*
X1151128D01*
X1105916Y-303673D02*
X1127307Y-282282D01*
X1105916Y-383284D02*
Y-303673D01*
X1092600Y-396600D02*
X1105916Y-383284D01*
X1320400Y-183423D02*
Y-165100D01*
X1319223Y-184600D02*
X1320400Y-183423D01*
X1319223Y-267623D02*
Y-184600D01*
Y-267623D02*
X1321200Y-269600D01*
X1317383Y-165100D02*
X1320400D01*
X1317383Y-117717D02*
X1320800Y-114300D01*
X803400Y-269600D02*
X825246Y-247754D01*
Y-152654D01*
X876300Y-101600D01*
X664480Y-371200D02*
X676400D01*
X600200Y-306920D02*
X664480Y-371200D01*
X600200Y-306920D02*
Y-295000D01*
X304800Y-345800D02*
X336400D01*
X285600Y-326600D02*
X304800Y-345800D01*
X285600Y-326600D02*
Y-295000D01*
X986700Y-345800D02*
X1016400D01*
X965600Y-324700D02*
X986700Y-345800D01*
X965600Y-324700D02*
Y-295000D01*
X1697300Y-144200D02*
Y-130000D01*
X1625600Y-215900D02*
X1697300Y-144200D01*
X800100Y-177800D02*
Y-152400D01*
X749300Y-101600D02*
X800100Y-152400D01*
X1003300Y-127000D02*
Y-101600D01*
Y-127000D02*
X1054100Y-177800D01*
X53625Y-217575D02*
X101000Y-170200D01*
X53625Y-267600D02*
Y-217575D01*
X1092600Y-422000D02*
X1118362Y-396238D01*
Y-320038D01*
X1143400Y-295000D01*
X1727200Y-292100D02*
Y-215900D01*
Y-292100D02*
X1752600Y-317500D01*
X53625Y-420000D02*
X56654Y-416971D01*
Y-397629D01*
X53625Y-394600D02*
X56654Y-397629D01*
X33625Y-450800D02*
X53625Y-470800D01*
X33625Y-450800D02*
Y-338400D01*
X53625Y-318400D01*
X1727200Y-215900D02*
Y-190500D01*
X1577400Y-683500D02*
Y-556500D01*
X1710400Y-683500D02*
Y-556500D01*
X381000Y-698500D02*
Y-609600D01*
X1610800Y-447400D02*
Y-295000D01*
X1410800Y-447400D02*
Y-295000D01*
X1526600Y-683500D02*
Y-556500D01*
X1659600Y-683500D02*
Y-556500D01*
X1627300Y-159424D02*
Y-130000D01*
X1625600Y-161124D02*
X1627300Y-159424D01*
X1625600Y-190500D02*
Y-161124D01*
X139700Y-584200D02*
Y-533400D01*
X457200Y-698500D02*
Y-660400D01*
X406400D02*
Y-609600D01*
Y-698500D02*
Y-660400D01*
D24*
X326000Y-94000D02*
D03*
D25*
X301000D02*
D03*
X276000D02*
D03*
X251000D02*
D03*
X226000D02*
D03*
X201000D02*
D03*
X176000D02*
D03*
X151000D02*
D03*
X126000D02*
D03*
X101000D02*
D03*
Y-170200D02*
D03*
X126000D02*
D03*
X151000D02*
D03*
X176000D02*
D03*
X201000D02*
D03*
X226000D02*
D03*
X251000D02*
D03*
X276000D02*
D03*
X301000D02*
D03*
X326000D02*
D03*
D30*
X1320400Y-165100D02*
D03*
X1320800Y-114300D02*
D03*
D31*
X1295400Y-165100D02*
D03*
X1295800Y-114300D02*
D03*
D32*
X381000Y-698500D02*
D03*
X482600D02*
D03*
X53625Y-267600D02*
D03*
D33*
X406400Y-698500D02*
D03*
X457200D02*
D03*
X53625Y-293000D02*
D03*
Y-318400D02*
D03*
Y-343800D02*
D03*
Y-369200D02*
D03*
Y-394600D02*
D03*
Y-420000D02*
D03*
Y-445400D02*
D03*
Y-470800D02*
D03*
X133000D02*
D03*
Y-445400D02*
D03*
Y-420000D02*
D03*
Y-394600D02*
D03*
Y-369200D02*
D03*
Y-343800D02*
D03*
Y-318400D02*
D03*
Y-293000D02*
D03*
Y-267600D02*
D03*
D34*
X1722700Y-130000D02*
D03*
X1652700D02*
D03*
D35*
X1697300D02*
D03*
X1627300D02*
D03*
D38*
X463400Y-269600D02*
D03*
X803400D02*
D03*
X1143400D02*
D03*
X1321200D02*
D03*
X1526600Y-556500D02*
D03*
X1659600D02*
D03*
X1752600Y-292100D02*
D03*
D39*
X463400Y-295000D02*
D03*
Y-320400D02*
D03*
Y-345800D02*
D03*
Y-371200D02*
D03*
Y-396600D02*
D03*
Y-422000D02*
D03*
Y-447400D02*
D03*
Y-472800D02*
D03*
X803400Y-295000D02*
D03*
Y-320400D02*
D03*
Y-345800D02*
D03*
Y-371200D02*
D03*
Y-396600D02*
D03*
Y-422000D02*
D03*
Y-447400D02*
D03*
Y-472800D02*
D03*
X1143400Y-295000D02*
D03*
Y-320400D02*
D03*
Y-345800D02*
D03*
Y-371200D02*
D03*
Y-396600D02*
D03*
Y-422000D02*
D03*
Y-447400D02*
D03*
Y-472800D02*
D03*
X1321200Y-295000D02*
D03*
Y-320400D02*
D03*
Y-345800D02*
D03*
Y-371200D02*
D03*
Y-396600D02*
D03*
Y-422000D02*
D03*
Y-447400D02*
D03*
Y-472800D02*
D03*
X1526600Y-683500D02*
D03*
X1577400Y-556500D02*
D03*
Y-683500D02*
D03*
X1659600D02*
D03*
X1710400Y-556500D02*
D03*
Y-683500D02*
D03*
X1752600Y-317500D02*
D03*
X406400Y-660400D02*
D03*
X457200D02*
D03*
X584200D02*
D03*
Y-558800D02*
D03*
X609600D02*
D03*
Y-660400D02*
D03*
X635000D02*
D03*
Y-558800D02*
D03*
X660400D02*
D03*
Y-660400D02*
D03*
X685800D02*
D03*
Y-558800D02*
D03*
X711200D02*
D03*
Y-660400D02*
D03*
X736600D02*
D03*
Y-558800D02*
D03*
X762000D02*
D03*
Y-660400D02*
D03*
X787400Y-558800D02*
D03*
Y-660400D02*
D03*
X812800Y-558800D02*
D03*
Y-660400D02*
D03*
X838200Y-558800D02*
D03*
Y-660400D02*
D03*
X863600Y-558800D02*
D03*
Y-660400D02*
D03*
X889000D02*
D03*
Y-558800D02*
D03*
X914400D02*
D03*
Y-660400D02*
D03*
X1727200Y-190500D02*
D03*
X1625600D02*
D03*
X1727200Y-215900D02*
D03*
X1625600D02*
D03*
X38100Y-533400D02*
D03*
X139700D02*
D03*
X38100Y-584200D02*
D03*
X139700D02*
D03*
X184000Y-447400D02*
D03*
X209400D02*
D03*
X234800D02*
D03*
X260200D02*
D03*
X285600D02*
D03*
X184000Y-295000D02*
D03*
X209400D02*
D03*
X260200D02*
D03*
X234800D02*
D03*
X524000Y-447400D02*
D03*
X549400D02*
D03*
X574800D02*
D03*
X600200D02*
D03*
X625600D02*
D03*
X524000Y-295000D02*
D03*
X549400D02*
D03*
X600200D02*
D03*
X574800D02*
D03*
X864000Y-447400D02*
D03*
X889400D02*
D03*
X914800D02*
D03*
X940200D02*
D03*
X965600D02*
D03*
X864000Y-295000D02*
D03*
X889400D02*
D03*
X940200D02*
D03*
X914800D02*
D03*
X1360000Y-447400D02*
D03*
X1385400D02*
D03*
X1410800D02*
D03*
X1436200D02*
D03*
X1461600D02*
D03*
X1360000Y-295000D02*
D03*
X1385400D02*
D03*
X1436200D02*
D03*
X1410800D02*
D03*
X1560000Y-447400D02*
D03*
X1585400D02*
D03*
X1610800D02*
D03*
X1636200D02*
D03*
X1661600D02*
D03*
X1560000Y-295000D02*
D03*
X1585400D02*
D03*
X1636200D02*
D03*
X1610800D02*
D03*
D40*
X285600D02*
D03*
X625600D02*
D03*
X965600D02*
D03*
X1461600D02*
D03*
X1661600D02*
D03*
D41*
X40000Y-40000D02*
D03*
X1780000D02*
D03*
Y-700000D02*
D03*
X40000D02*
D03*
D42*
X1054100Y-101600D02*
D03*
X203200Y-609600D02*
D03*
X800100Y-101600D02*
D03*
D43*
X1028700D02*
D03*
X1003300D02*
D03*
X977900D02*
D03*
X952500D02*
D03*
X927100D02*
D03*
X901700D02*
D03*
X876300D02*
D03*
X1054100Y-177800D02*
D03*
X1028700D02*
D03*
X1003300D02*
D03*
X977900D02*
D03*
X952500D02*
D03*
X927100D02*
D03*
X901700D02*
D03*
X876300D02*
D03*
X228600Y-609600D02*
D03*
X254000D02*
D03*
X279400D02*
D03*
X304800D02*
D03*
X330200D02*
D03*
X355600D02*
D03*
X381000D02*
D03*
X406400D02*
D03*
X431800D02*
D03*
X457200D02*
D03*
X482600D02*
D03*
X508000D02*
D03*
X533400D02*
D03*
X203200Y-533400D02*
D03*
X228600D02*
D03*
X254000D02*
D03*
X279400D02*
D03*
X304800D02*
D03*
X330200D02*
D03*
X355600D02*
D03*
X381000D02*
D03*
X406400D02*
D03*
X431800D02*
D03*
X457200D02*
D03*
X482600D02*
D03*
X508000D02*
D03*
X533400D02*
D03*
X336400Y-320400D02*
D03*
Y-345800D02*
D03*
Y-371200D02*
D03*
Y-396600D02*
D03*
Y-422000D02*
D03*
Y-447400D02*
D03*
Y-472800D02*
D03*
X412600Y-295000D02*
D03*
Y-320400D02*
D03*
Y-345800D02*
D03*
Y-371200D02*
D03*
Y-396600D02*
D03*
Y-422000D02*
D03*
Y-447400D02*
D03*
Y-472800D02*
D03*
X622300Y-177800D02*
D03*
X647700D02*
D03*
X673100D02*
D03*
X698500D02*
D03*
X723900D02*
D03*
X749300D02*
D03*
X774700D02*
D03*
X800100D02*
D03*
X622300Y-101600D02*
D03*
X647700D02*
D03*
X673100D02*
D03*
X698500D02*
D03*
X723900D02*
D03*
X749300D02*
D03*
X774700D02*
D03*
X1270400Y-472800D02*
D03*
Y-447400D02*
D03*
Y-422000D02*
D03*
Y-396600D02*
D03*
Y-371200D02*
D03*
Y-345800D02*
D03*
Y-320400D02*
D03*
Y-295000D02*
D03*
X1194200Y-472800D02*
D03*
Y-447400D02*
D03*
Y-422000D02*
D03*
Y-396600D02*
D03*
Y-371200D02*
D03*
Y-345800D02*
D03*
Y-320400D02*
D03*
X1092600Y-472800D02*
D03*
Y-447400D02*
D03*
Y-422000D02*
D03*
Y-396600D02*
D03*
Y-371200D02*
D03*
Y-345800D02*
D03*
Y-320400D02*
D03*
Y-295000D02*
D03*
X1016400Y-472800D02*
D03*
Y-447400D02*
D03*
Y-422000D02*
D03*
Y-396600D02*
D03*
Y-371200D02*
D03*
Y-345800D02*
D03*
Y-320400D02*
D03*
X752600Y-472800D02*
D03*
Y-447400D02*
D03*
Y-422000D02*
D03*
Y-396600D02*
D03*
Y-371200D02*
D03*
Y-345800D02*
D03*
Y-320400D02*
D03*
Y-295000D02*
D03*
X676400Y-472800D02*
D03*
Y-447400D02*
D03*
Y-422000D02*
D03*
Y-396600D02*
D03*
Y-371200D02*
D03*
Y-345800D02*
D03*
Y-320400D02*
D03*
D44*
X1373500Y-165800D02*
D03*
Y-140400D02*
D03*
D45*
Y-115000D02*
D03*
D46*
X336400Y-295000D02*
D03*
X1194200D02*
D03*
X1016400D02*
D03*
X676400D02*
D03*
D47*
X951992Y-60032D02*
D03*
X882904Y-262470D02*
D03*
X821182Y-447890D02*
D03*
X698500Y-545680D02*
D03*
X953174Y-202526D02*
D03*
X755826D02*
D03*
X723138Y-581748D02*
D03*
X548640Y-311238D02*
D03*
X766826Y-214210D02*
D03*
X983742Y-564730D02*
D03*
X834302Y-543648D02*
D03*
X530352Y-269582D02*
D03*
X958850Y-268566D02*
D03*
X680212Y-226148D02*
D03*
X243586Y-406996D02*
D03*
X211416Y-490816D02*
D03*
X786892Y-220052D02*
D03*
X506119Y-487244D02*
D03*
X1228928Y-586650D02*
D03*
X1221232Y-439508D02*
D03*
X516636Y-519091D02*
D03*
X385826Y-472020D02*
D03*
X388366Y-437730D02*
D03*
X705688Y-250710D02*
D03*
X642112Y-456288D02*
D03*
X811784Y-383882D02*
D03*
X1473454Y-650582D02*
D03*
X1413256Y-616800D02*
D03*
X1411732Y-279996D02*
D03*
X1384300Y-666076D02*
D03*
X1301750Y-559650D02*
D03*
X1422908Y-550506D02*
D03*
X1379728Y-524090D02*
D03*
X96774Y-445400D02*
D03*
X85598Y-420000D02*
D03*
X1103884Y-279488D02*
D03*
X1304544Y-486752D02*
D03*
X1524508Y-23710D02*
D03*
X1614678Y-487006D02*
D03*
X45466Y-502500D02*
D03*
X101092Y-215480D02*
D03*
Y-413492D02*
D03*
X684022Y-116166D02*
D03*
X699262Y-698080D02*
D03*
X979170Y-655916D02*
D03*
X876300Y-637374D02*
D03*
X303530Y-513930D02*
D03*
X1209930Y-602068D02*
D03*
X990854Y-253072D02*
D03*
X707976Y-235116D02*
D03*
X778764Y-460082D02*
D03*
X818642Y-270344D02*
D03*
X475488Y-492848D02*
D03*
X1333500Y-63080D02*
D03*
X929640Y-486244D02*
D03*
X1112266Y-470750D02*
D03*
X998982Y-516470D02*
D03*
X608584Y-190842D02*
D03*
X1225296Y-235292D02*
D03*
X989330Y-492848D02*
D03*
M02*
