G04*
G04 #@! TF.GenerationSoftware,Altium Limited,Altium Designer,22.10.1 (41)*
G04*
G04 Layer_Color=8388736*
%FSLAX44Y44*%
%MOMM*%
G71*
G04*
G04 #@! TF.SameCoordinates,5497D643-8705-4F57-B810-88EDFA825546*
G04*
G04*
G04 #@! TF.FilePolarity,Negative*
G04*
G01*
G75*
%ADD18R,1.4732X1.4732*%
%ADD19C,1.4732*%
%ADD20R,1.4732X1.4732*%
%ADD21C,4.2672*%
%ADD22R,1.7032X1.7032*%
%ADD23C,1.7032*%
%ADD24R,1.3500X1.3500*%
%ADD25C,1.3500*%
%ADD26R,1.5032X1.5032*%
%ADD27C,1.5032*%
%ADD28C,1.8032*%
%ADD29R,1.8032X1.8032*%
%ADD30C,1.2000*%
%ADD31R,1.2000X1.2000*%
%ADD32R,1.3000X1.3000*%
%ADD33C,1.3000*%
%ADD34C,1.4500*%
%ADD35R,1.4500X1.4500*%
%ADD36R,1.7032X1.7032*%
%ADD37C,1.3032*%
D18*
X463400Y-269600D02*
D03*
X803400D02*
D03*
X1143400D02*
D03*
X1321200D02*
D03*
X1526600Y-556500D02*
D03*
X1659600D02*
D03*
X1752600Y-292100D02*
D03*
D19*
X463400Y-295000D02*
D03*
Y-320400D02*
D03*
Y-345800D02*
D03*
Y-371200D02*
D03*
Y-396600D02*
D03*
Y-422000D02*
D03*
Y-447400D02*
D03*
Y-472800D02*
D03*
X803400Y-295000D02*
D03*
Y-320400D02*
D03*
Y-345800D02*
D03*
Y-371200D02*
D03*
Y-396600D02*
D03*
Y-422000D02*
D03*
Y-447400D02*
D03*
Y-472800D02*
D03*
X1143400Y-295000D02*
D03*
Y-320400D02*
D03*
Y-345800D02*
D03*
Y-371200D02*
D03*
Y-396600D02*
D03*
Y-422000D02*
D03*
Y-447400D02*
D03*
Y-472800D02*
D03*
X1321200Y-295000D02*
D03*
Y-320400D02*
D03*
Y-345800D02*
D03*
Y-371200D02*
D03*
Y-396600D02*
D03*
Y-422000D02*
D03*
Y-447400D02*
D03*
Y-472800D02*
D03*
X1526600Y-683500D02*
D03*
X1577400Y-556500D02*
D03*
Y-683500D02*
D03*
X1659600D02*
D03*
X1710400Y-556500D02*
D03*
Y-683500D02*
D03*
X1752600Y-317500D02*
D03*
X406400Y-660400D02*
D03*
X457200D02*
D03*
X584200D02*
D03*
Y-558800D02*
D03*
X609600D02*
D03*
Y-660400D02*
D03*
X635000D02*
D03*
Y-558800D02*
D03*
X660400D02*
D03*
Y-660400D02*
D03*
X685800D02*
D03*
Y-558800D02*
D03*
X711200D02*
D03*
Y-660400D02*
D03*
X736600D02*
D03*
Y-558800D02*
D03*
X762000D02*
D03*
Y-660400D02*
D03*
X787400Y-558800D02*
D03*
Y-660400D02*
D03*
X812800Y-558800D02*
D03*
Y-660400D02*
D03*
X838200Y-558800D02*
D03*
Y-660400D02*
D03*
X863600Y-558800D02*
D03*
Y-660400D02*
D03*
X889000D02*
D03*
Y-558800D02*
D03*
X914400D02*
D03*
Y-660400D02*
D03*
X1727200Y-190500D02*
D03*
X1625600D02*
D03*
X1727200Y-215900D02*
D03*
X1625600D02*
D03*
X38100Y-533400D02*
D03*
X139700D02*
D03*
X38100Y-584200D02*
D03*
X139700D02*
D03*
X184000Y-447400D02*
D03*
X209400D02*
D03*
X234800D02*
D03*
X260200D02*
D03*
X285600D02*
D03*
X184000Y-295000D02*
D03*
X209400D02*
D03*
X260200D02*
D03*
X234800D02*
D03*
X524000Y-447400D02*
D03*
X549400D02*
D03*
X574800D02*
D03*
X600200D02*
D03*
X625600D02*
D03*
X524000Y-295000D02*
D03*
X549400D02*
D03*
X600200D02*
D03*
X574800D02*
D03*
X864000Y-447400D02*
D03*
X889400D02*
D03*
X914800D02*
D03*
X940200D02*
D03*
X965600D02*
D03*
X864000Y-295000D02*
D03*
X889400D02*
D03*
X940200D02*
D03*
X914800D02*
D03*
X1360000Y-447400D02*
D03*
X1385400D02*
D03*
X1410800D02*
D03*
X1436200D02*
D03*
X1461600D02*
D03*
X1360000Y-295000D02*
D03*
X1385400D02*
D03*
X1436200D02*
D03*
X1410800D02*
D03*
X1560000Y-447400D02*
D03*
X1585400D02*
D03*
X1610800D02*
D03*
X1636200D02*
D03*
X1661600D02*
D03*
X1560000Y-295000D02*
D03*
X1585400D02*
D03*
X1636200D02*
D03*
X1610800D02*
D03*
D20*
X285600D02*
D03*
X625600D02*
D03*
X965600D02*
D03*
X1461600D02*
D03*
X1661600D02*
D03*
D21*
X40000Y-40000D02*
D03*
X1780000D02*
D03*
Y-700000D02*
D03*
X40000D02*
D03*
D22*
X1054100Y-101600D02*
D03*
X203200Y-609600D02*
D03*
X800100Y-101600D02*
D03*
D23*
X1028700D02*
D03*
X1003300D02*
D03*
X977900D02*
D03*
X952500D02*
D03*
X927100D02*
D03*
X901700D02*
D03*
X876300D02*
D03*
X1054100Y-177800D02*
D03*
X1028700D02*
D03*
X1003300D02*
D03*
X977900D02*
D03*
X952500D02*
D03*
X927100D02*
D03*
X901700D02*
D03*
X876300D02*
D03*
X228600Y-609600D02*
D03*
X254000D02*
D03*
X279400D02*
D03*
X304800D02*
D03*
X330200D02*
D03*
X355600D02*
D03*
X381000D02*
D03*
X406400D02*
D03*
X431800D02*
D03*
X457200D02*
D03*
X482600D02*
D03*
X508000D02*
D03*
X533400D02*
D03*
X203200Y-533400D02*
D03*
X228600D02*
D03*
X254000D02*
D03*
X279400D02*
D03*
X304800D02*
D03*
X330200D02*
D03*
X355600D02*
D03*
X381000D02*
D03*
X406400D02*
D03*
X431800D02*
D03*
X457200D02*
D03*
X482600D02*
D03*
X508000D02*
D03*
X533400D02*
D03*
X336400Y-320400D02*
D03*
Y-345800D02*
D03*
Y-371200D02*
D03*
Y-396600D02*
D03*
Y-422000D02*
D03*
Y-447400D02*
D03*
Y-472800D02*
D03*
X412600Y-295000D02*
D03*
Y-320400D02*
D03*
Y-345800D02*
D03*
Y-371200D02*
D03*
Y-396600D02*
D03*
Y-422000D02*
D03*
Y-447400D02*
D03*
Y-472800D02*
D03*
X622300Y-177800D02*
D03*
X647700D02*
D03*
X673100D02*
D03*
X698500D02*
D03*
X723900D02*
D03*
X749300D02*
D03*
X774700D02*
D03*
X800100D02*
D03*
X622300Y-101600D02*
D03*
X647700D02*
D03*
X673100D02*
D03*
X698500D02*
D03*
X723900D02*
D03*
X749300D02*
D03*
X774700D02*
D03*
X1270400Y-472800D02*
D03*
Y-447400D02*
D03*
Y-422000D02*
D03*
Y-396600D02*
D03*
Y-371200D02*
D03*
Y-345800D02*
D03*
Y-320400D02*
D03*
Y-295000D02*
D03*
X1194200Y-472800D02*
D03*
Y-447400D02*
D03*
Y-422000D02*
D03*
Y-396600D02*
D03*
Y-371200D02*
D03*
Y-345800D02*
D03*
Y-320400D02*
D03*
X1092600Y-472800D02*
D03*
Y-447400D02*
D03*
Y-422000D02*
D03*
Y-396600D02*
D03*
Y-371200D02*
D03*
Y-345800D02*
D03*
Y-320400D02*
D03*
Y-295000D02*
D03*
X1016400Y-472800D02*
D03*
Y-447400D02*
D03*
Y-422000D02*
D03*
Y-396600D02*
D03*
Y-371200D02*
D03*
Y-345800D02*
D03*
Y-320400D02*
D03*
X752600Y-472800D02*
D03*
Y-447400D02*
D03*
Y-422000D02*
D03*
Y-396600D02*
D03*
Y-371200D02*
D03*
Y-345800D02*
D03*
Y-320400D02*
D03*
Y-295000D02*
D03*
X676400Y-472800D02*
D03*
Y-447400D02*
D03*
Y-422000D02*
D03*
Y-396600D02*
D03*
Y-371200D02*
D03*
Y-345800D02*
D03*
Y-320400D02*
D03*
D24*
X326000Y-94000D02*
D03*
D25*
X301000D02*
D03*
X276000D02*
D03*
X251000D02*
D03*
X226000D02*
D03*
X201000D02*
D03*
X176000D02*
D03*
X151000D02*
D03*
X126000D02*
D03*
X101000D02*
D03*
Y-170200D02*
D03*
X126000D02*
D03*
X151000D02*
D03*
X176000D02*
D03*
X201000D02*
D03*
X226000D02*
D03*
X251000D02*
D03*
X276000D02*
D03*
X301000D02*
D03*
X326000D02*
D03*
D26*
X381000Y-698500D02*
D03*
X482600D02*
D03*
D27*
X406400D02*
D03*
X457200D02*
D03*
D28*
X1373500Y-165800D02*
D03*
Y-140400D02*
D03*
D29*
Y-115000D02*
D03*
D30*
X1320400Y-165100D02*
D03*
X1320800Y-114300D02*
D03*
D31*
X1295400Y-165100D02*
D03*
X1295800Y-114300D02*
D03*
D32*
X53625Y-267600D02*
D03*
D33*
Y-293000D02*
D03*
Y-318400D02*
D03*
Y-343800D02*
D03*
Y-369200D02*
D03*
Y-394600D02*
D03*
Y-420000D02*
D03*
Y-445400D02*
D03*
Y-470800D02*
D03*
X133000D02*
D03*
Y-445400D02*
D03*
Y-420000D02*
D03*
Y-394600D02*
D03*
Y-369200D02*
D03*
Y-343800D02*
D03*
Y-318400D02*
D03*
Y-293000D02*
D03*
Y-267600D02*
D03*
D34*
X1722700Y-130000D02*
D03*
X1652700D02*
D03*
D35*
X1697300D02*
D03*
X1627300D02*
D03*
D36*
X336400Y-295000D02*
D03*
X1194200D02*
D03*
X1016400D02*
D03*
X676400D02*
D03*
D37*
X951992Y-60032D02*
D03*
X882904Y-262470D02*
D03*
X821182Y-447890D02*
D03*
X698500Y-545680D02*
D03*
X953174Y-202526D02*
D03*
X755826D02*
D03*
X723138Y-581748D02*
D03*
X548640Y-311238D02*
D03*
X766826Y-214210D02*
D03*
X983742Y-564730D02*
D03*
X834302Y-543648D02*
D03*
X530352Y-269582D02*
D03*
X958850Y-268566D02*
D03*
X680212Y-226148D02*
D03*
X243586Y-406996D02*
D03*
X211416Y-490816D02*
D03*
X786892Y-220052D02*
D03*
X506119Y-487244D02*
D03*
X1228928Y-586650D02*
D03*
X1221232Y-439508D02*
D03*
X516636Y-519091D02*
D03*
X385826Y-472020D02*
D03*
X388366Y-437730D02*
D03*
X705688Y-250710D02*
D03*
X642112Y-456288D02*
D03*
X811784Y-383882D02*
D03*
X1473454Y-650582D02*
D03*
X1413256Y-616800D02*
D03*
X1411732Y-279996D02*
D03*
X1384300Y-666076D02*
D03*
X1301750Y-559650D02*
D03*
X1422908Y-550506D02*
D03*
X1379728Y-524090D02*
D03*
X96774Y-445400D02*
D03*
X85598Y-420000D02*
D03*
X1103884Y-279488D02*
D03*
X1304544Y-486752D02*
D03*
X1524508Y-23710D02*
D03*
X1614678Y-487006D02*
D03*
X45466Y-502500D02*
D03*
X101092Y-215480D02*
D03*
Y-413492D02*
D03*
X684022Y-116166D02*
D03*
X699262Y-698080D02*
D03*
X979170Y-655916D02*
D03*
X876300Y-637374D02*
D03*
X303530Y-513930D02*
D03*
X1209930Y-602068D02*
D03*
X990854Y-253072D02*
D03*
X707976Y-235116D02*
D03*
X778764Y-460082D02*
D03*
X818642Y-270344D02*
D03*
X475488Y-492848D02*
D03*
X1333500Y-63080D02*
D03*
X929640Y-486244D02*
D03*
X1112266Y-470750D02*
D03*
X998982Y-516470D02*
D03*
X608584Y-190842D02*
D03*
X1225296Y-235292D02*
D03*
X989330Y-492848D02*
D03*
M02*
