G04*
G04 #@! TF.GenerationSoftware,Altium Limited,Altium Designer,22.10.1 (41)*
G04*
G04 Layer_Color=16711935*
%FSLAX44Y44*%
%MOMM*%
G71*
G04*
G04 #@! TF.SameCoordinates,DB828D13-7A9A-4EAE-872F-3ECB7F532A06*
G04*
G04*
G04 #@! TF.FilePolarity,Negative*
G04*
G01*
G75*
%ADD17R,1.5032X1.5032*%
%ADD18C,1.5032*%
%ADD19C,1.4732*%
%ADD20R,1.4732X1.4732*%
%ADD21R,1.4732X1.4732*%
%ADD22C,4.2672*%
%ADD23C,1.4500*%
%ADD24R,1.4500X1.4500*%
%ADD25C,1.3500*%
%ADD26R,1.3500X1.3500*%
%ADD27C,1.7032*%
%ADD28R,1.7032X1.7032*%
%ADD29R,1.7032X1.7032*%
%ADD30C,1.3000*%
%ADD31R,1.3000X1.3000*%
%ADD32R,1.2000X1.2000*%
%ADD33C,1.2000*%
%ADD34R,1.8032X1.8032*%
%ADD35C,1.8032*%
D17*
X1566000Y-113800D02*
D03*
X1008000Y-262000D02*
D03*
X957200D02*
D03*
D18*
X1540600Y-113800D02*
D03*
X1033400Y-262000D02*
D03*
X931800D02*
D03*
D19*
X1261200Y-113800D02*
D03*
Y-215400D02*
D03*
X1312000Y-113800D02*
D03*
Y-215400D02*
D03*
X1337400Y-113800D02*
D03*
Y-215400D02*
D03*
X1388200Y-113800D02*
D03*
Y-215400D02*
D03*
X1362800Y-113800D02*
D03*
Y-215400D02*
D03*
X1286600D02*
D03*
Y-113800D02*
D03*
X1413600D02*
D03*
Y-215400D02*
D03*
X1464400Y-113800D02*
D03*
Y-215400D02*
D03*
X1489800Y-113800D02*
D03*
Y-215400D02*
D03*
X1439000D02*
D03*
Y-113800D02*
D03*
X1210400D02*
D03*
Y-215400D02*
D03*
X1185000D02*
D03*
Y-113800D02*
D03*
X1235800Y-215400D02*
D03*
Y-113800D02*
D03*
X1134200Y-215400D02*
D03*
Y-113800D02*
D03*
X1159600D02*
D03*
Y-215400D02*
D03*
X1871200Y-27800D02*
D03*
Y-2400D02*
D03*
Y23000D02*
D03*
Y48400D02*
D03*
Y73800D02*
D03*
Y99200D02*
D03*
Y124600D02*
D03*
Y150000D02*
D03*
X2076600Y-238500D02*
D03*
X2127400Y-111500D02*
D03*
Y-238500D02*
D03*
X2209600D02*
D03*
X2260400Y-111500D02*
D03*
Y-238500D02*
D03*
X2302600Y127500D02*
D03*
X1007200Y-215400D02*
D03*
X956400D02*
D03*
X2049400Y347600D02*
D03*
Y246000D02*
D03*
X2100200Y347600D02*
D03*
Y246000D02*
D03*
X576200Y-109600D02*
D03*
X677800D02*
D03*
X576200Y-160400D02*
D03*
X677800D02*
D03*
X830200Y207900D02*
D03*
X728600D02*
D03*
X1160400D02*
D03*
X1058800D02*
D03*
X1414400D02*
D03*
X1516000D02*
D03*
X784800Y150000D02*
D03*
X810200D02*
D03*
X759400D02*
D03*
X734000D02*
D03*
X835600Y-2400D02*
D03*
X810200D02*
D03*
X784800D02*
D03*
X759400D02*
D03*
X734000D02*
D03*
X1124800Y150000D02*
D03*
X1150200D02*
D03*
X1099400D02*
D03*
X1074000D02*
D03*
X1175600Y-2400D02*
D03*
X1150200D02*
D03*
X1124800D02*
D03*
X1099400D02*
D03*
X1074000D02*
D03*
X1464800Y150000D02*
D03*
X1490200D02*
D03*
X1439400D02*
D03*
X1414000D02*
D03*
X1515600Y-2400D02*
D03*
X1490200D02*
D03*
X1464800D02*
D03*
X1439400D02*
D03*
X1414000D02*
D03*
X1910000D02*
D03*
X1935400D02*
D03*
X1960800D02*
D03*
X1986200D02*
D03*
X2011600D02*
D03*
X1910000Y150000D02*
D03*
X1935400D02*
D03*
X1986200D02*
D03*
X1960800D02*
D03*
X2110000Y-2400D02*
D03*
X2135400D02*
D03*
X2160800D02*
D03*
X2186200D02*
D03*
X2211600D02*
D03*
X2110000Y150000D02*
D03*
X2135400D02*
D03*
X2186200D02*
D03*
X2160800D02*
D03*
D20*
X1871200Y175400D02*
D03*
X2076600Y-111500D02*
D03*
X2209600D02*
D03*
X2302600Y152900D02*
D03*
D21*
X835600Y150000D02*
D03*
X1175600D02*
D03*
X1515600D02*
D03*
X2011600D02*
D03*
X2211600D02*
D03*
D22*
X590000Y410000D02*
D03*
X2330000D02*
D03*
Y-260000D02*
D03*
X590000D02*
D03*
D23*
X2202700Y315000D02*
D03*
X2272700D02*
D03*
D24*
X2177300D02*
D03*
X2247300D02*
D03*
D25*
X876000Y274800D02*
D03*
X851000D02*
D03*
X826000D02*
D03*
X801000D02*
D03*
X776000D02*
D03*
X751000D02*
D03*
X726000D02*
D03*
X701000D02*
D03*
X676000D02*
D03*
X651000D02*
D03*
Y351000D02*
D03*
X676000D02*
D03*
X701000D02*
D03*
X726000D02*
D03*
X751000D02*
D03*
X776000D02*
D03*
X801000D02*
D03*
X826000D02*
D03*
X851000D02*
D03*
D26*
X876000D02*
D03*
D27*
X1426300Y267200D02*
D03*
X1451700D02*
D03*
X1477100D02*
D03*
X1502500D02*
D03*
X1527900D02*
D03*
X1553300D02*
D03*
X1578700D02*
D03*
X1604100D02*
D03*
X1426300Y343400D02*
D03*
X1451700D02*
D03*
X1477100D02*
D03*
X1502500D02*
D03*
X1527900D02*
D03*
X1553300D02*
D03*
X1578700D02*
D03*
X1324700D02*
D03*
X1299300D02*
D03*
X1273900D02*
D03*
X1248500D02*
D03*
X1223100D02*
D03*
X1197700D02*
D03*
X1172300D02*
D03*
X1350100Y267200D02*
D03*
X1324700D02*
D03*
X1299300D02*
D03*
X1273900D02*
D03*
X1248500D02*
D03*
X1223100D02*
D03*
X1197700D02*
D03*
X1172300D02*
D03*
X962600Y-27800D02*
D03*
Y-2400D02*
D03*
Y23000D02*
D03*
Y48400D02*
D03*
Y73800D02*
D03*
Y99200D02*
D03*
Y124600D02*
D03*
Y150000D02*
D03*
X886400Y-27800D02*
D03*
Y-2400D02*
D03*
Y23000D02*
D03*
Y48400D02*
D03*
Y73800D02*
D03*
Y99200D02*
D03*
Y124600D02*
D03*
X1226400D02*
D03*
Y99200D02*
D03*
Y73800D02*
D03*
Y48400D02*
D03*
Y23000D02*
D03*
Y-2400D02*
D03*
Y-27800D02*
D03*
X1302600Y150000D02*
D03*
Y124600D02*
D03*
Y99200D02*
D03*
Y73800D02*
D03*
Y48400D02*
D03*
Y23000D02*
D03*
Y-2400D02*
D03*
Y-27800D02*
D03*
X1566400Y124600D02*
D03*
Y99200D02*
D03*
Y73800D02*
D03*
Y48400D02*
D03*
Y23000D02*
D03*
Y-2400D02*
D03*
Y-27800D02*
D03*
X1642600Y150000D02*
D03*
Y124600D02*
D03*
Y99200D02*
D03*
Y73800D02*
D03*
Y48400D02*
D03*
Y23000D02*
D03*
Y-2400D02*
D03*
Y-27800D02*
D03*
X1744200Y124600D02*
D03*
Y99200D02*
D03*
Y73800D02*
D03*
Y48400D02*
D03*
Y23000D02*
D03*
Y-2400D02*
D03*
Y-27800D02*
D03*
X1820400Y150000D02*
D03*
Y124600D02*
D03*
Y99200D02*
D03*
Y73800D02*
D03*
Y48400D02*
D03*
Y23000D02*
D03*
Y-2400D02*
D03*
Y-27800D02*
D03*
X1083400Y-88400D02*
D03*
X1058000D02*
D03*
X1032600D02*
D03*
X1007200D02*
D03*
X981800D02*
D03*
X956400D02*
D03*
X931000D02*
D03*
X905600D02*
D03*
X880200D02*
D03*
X854800D02*
D03*
X829400D02*
D03*
X804000D02*
D03*
X778600D02*
D03*
X753200D02*
D03*
X1083400Y-164600D02*
D03*
X1058000D02*
D03*
X1032600D02*
D03*
X1007200D02*
D03*
X981800D02*
D03*
X956400D02*
D03*
X931000D02*
D03*
X905600D02*
D03*
X880200D02*
D03*
X854800D02*
D03*
X829400D02*
D03*
X804000D02*
D03*
X778600D02*
D03*
X1788922Y-188932D02*
D03*
X1165352Y51606D02*
D03*
X1190831Y-84044D02*
D03*
X1582674Y-81998D02*
D03*
X1242568Y301796D02*
D03*
X1057656Y-265894D02*
D03*
X1361680Y187990D02*
D03*
X1189990Y193846D02*
D03*
X1257046Y236264D02*
D03*
X1694448Y223925D02*
D03*
X1347216Y-148148D02*
D03*
X536702Y309849D02*
D03*
X1151636Y302558D02*
D03*
X2117598Y201212D02*
D03*
X2005330Y191052D02*
D03*
X2005838Y-199597D02*
D03*
X1536998Y-251826D02*
D03*
X1174242Y311263D02*
D03*
X1681988Y458006D02*
D03*
X1022350Y32556D02*
D03*
X1557901Y211118D02*
D03*
X1722120Y-75140D02*
D03*
X1576578Y-245066D02*
D03*
X1604518Y-19768D02*
D03*
X1017397Y128949D02*
D03*
X600807Y206644D02*
D03*
X765190Y-127210D02*
D03*
X692912D02*
D03*
X688086Y-231858D02*
D03*
X1073404Y313734D02*
D03*
X1124966Y167938D02*
D03*
X1766824Y12998D02*
D03*
X1770380Y-182582D02*
D03*
X807212Y-21800D02*
D03*
X1252474Y-69044D02*
D03*
X1256538Y-11640D02*
D03*
X1306576Y213404D02*
D03*
X1211326Y202990D02*
D03*
X2160016Y186734D02*
D03*
X2217928Y-326346D02*
D03*
X1245146D02*
D03*
X1291374Y-347174D02*
D03*
X2319020Y-139910D02*
D03*
X1978660Y-257004D02*
D03*
X1240667Y-271066D02*
D03*
X1896110Y-217126D02*
D03*
X2125980Y118662D02*
D03*
X2167636Y-175978D02*
D03*
X1679194Y37206D02*
D03*
X805688Y-216110D02*
D03*
X1019302Y341166D02*
D03*
X2202700Y473500D02*
D03*
X2338578Y13760D02*
D03*
X860082Y-119082D02*
D03*
X585807Y274800D02*
D03*
X834136Y304844D02*
D03*
X815340Y34334D02*
D03*
X732536Y-207728D02*
D03*
X2081276Y438956D02*
D03*
Y107486D02*
D03*
X1810766Y310178D02*
D03*
X1827022Y293414D02*
D03*
X1771570Y293200D02*
D03*
X1800606Y370630D02*
D03*
X1664434Y101500D02*
D03*
X1395222Y249980D02*
D03*
X1135634Y95548D02*
D03*
X1387856Y283762D02*
D03*
X1486154Y236772D02*
D03*
X1585468Y132632D02*
D03*
Y29254D02*
D03*
X1447100Y232961D02*
D03*
X1342644Y7664D02*
D03*
X1340358Y169208D02*
D03*
X1051017Y76217D02*
D03*
X1028700Y79300D02*
D03*
X1205230Y225088D02*
D03*
X1929384Y-20022D02*
D03*
X1944624Y-98000D02*
D03*
X2242058Y-120860D02*
D03*
X1516888Y-307804D02*
D03*
X667258Y258616D02*
D03*
X1846350Y-169120D02*
D03*
X1081024Y-122892D02*
D03*
X1309370Y-148038D02*
D03*
X1514602Y83610D02*
D03*
X1695450Y-125686D02*
D03*
X2006092Y-52788D02*
D03*
X1679448Y86404D02*
D03*
X1232804Y403904D02*
D03*
X1411300Y388410D02*
D03*
X1495044Y58972D02*
D03*
X1088147Y87947D02*
D03*
D28*
X1604100Y343400D02*
D03*
X1350100D02*
D03*
X753200Y-164600D02*
D03*
D29*
X886400Y150000D02*
D03*
X1226400D02*
D03*
X1566400D02*
D03*
X1744200D02*
D03*
D30*
X683000Y177400D02*
D03*
Y152000D02*
D03*
Y126600D02*
D03*
Y101200D02*
D03*
Y75800D02*
D03*
Y50400D02*
D03*
Y25000D02*
D03*
Y-400D02*
D03*
Y-25800D02*
D03*
X603625D02*
D03*
Y-400D02*
D03*
Y25000D02*
D03*
Y50400D02*
D03*
Y75800D02*
D03*
Y101200D02*
D03*
Y126600D02*
D03*
Y152000D02*
D03*
D31*
Y177400D02*
D03*
D32*
X1845800Y330700D02*
D03*
X1845400Y279900D02*
D03*
D33*
X1870800Y330700D02*
D03*
X1870400Y279900D02*
D03*
D34*
X1923500Y330000D02*
D03*
D35*
Y304600D02*
D03*
Y279200D02*
D03*
M02*
