G04*
G04 #@! TF.GenerationSoftware,Altium Limited,Altium Designer,22.10.1 (41)*
G04*
G04 Layer_Physical_Order=2*
G04 Layer_Color=16711680*
%FSLAX44Y44*%
%MOMM*%
G71*
G04*
G04 #@! TF.SameCoordinates,91F6756B-7A5A-4407-9539-22634D5E68D7*
G04*
G04*
G04 #@! TF.FilePolarity,Positive*
G04*
G01*
G75*
%ADD14C,0.5000*%
%ADD24R,1.3500X1.3500*%
%ADD25C,1.3500*%
%ADD30C,1.2000*%
%ADD31R,1.2000X1.2000*%
%ADD32R,1.3000X1.3000*%
%ADD33C,1.3000*%
%ADD34C,1.4500*%
%ADD35R,1.4500X1.4500*%
%ADD38R,1.2700X1.2700*%
%ADD39C,1.2700*%
%ADD40R,1.2700X1.2700*%
%ADD41C,4.0640*%
%ADD42R,1.5000X1.5000*%
%ADD43C,1.5000*%
%ADD44C,1.6000*%
%ADD45R,1.6000X1.6000*%
%ADD46R,1.5000X1.5000*%
%ADD47C,1.1000*%
D14*
X571010Y-501990D02*
X791773D01*
X734266Y-225210D02*
X937136D01*
X511028Y-282028D02*
X518825Y-289825D01*
X1194200Y-418172D02*
X1231900D01*
X1698310Y-671410D02*
X1710400Y-683500D01*
X1589490Y-671410D02*
X1698310D01*
X1577400Y-683500D02*
X1589490Y-671410D01*
X1726900Y-700000D02*
X1780000D01*
X1710400Y-683500D02*
X1726900Y-700000D01*
X1041800Y-447400D02*
X1092600D01*
X1016400Y-472800D02*
X1041800Y-447400D01*
X965600D02*
X991000D01*
X1016400Y-472800D01*
X1373500Y-140400D02*
X1568046D01*
X1588516Y-160870D01*
X1697570D01*
X1727200Y-190500D01*
X1345100Y-140400D02*
X1373500D01*
X1320400Y-165100D02*
X1345100Y-140400D01*
X38100Y-533400D02*
X53176Y-548476D01*
X340524D01*
X355600Y-533400D01*
X53625Y-293000D02*
X124287Y-222338D01*
X416138D01*
X463400Y-269600D01*
X311000Y-472800D02*
X336400D01*
X285600Y-447400D02*
X311000Y-472800D01*
X470574Y-710526D02*
X482600Y-698500D01*
X393026Y-710526D02*
X470574D01*
X381000Y-698500D02*
X393026Y-710526D01*
X977900Y-101600D02*
Y-85940D01*
X951992Y-60032D02*
X977900Y-85940D01*
X324444Y-435444D02*
X336400Y-447400D01*
X251714Y-435444D02*
X324444D01*
X248158Y-439000D02*
X251714Y-435444D01*
X248158Y-458050D02*
Y-439000D01*
Y-458050D02*
X253746Y-463638D01*
X275844D01*
X314006Y-501800D01*
X451000D01*
X482600Y-533400D01*
X882904Y-262470D02*
X901446Y-281012D01*
Y-367626D02*
Y-281012D01*
X821182Y-447890D02*
X901446Y-367626D01*
X622720Y-545680D02*
X698500D01*
X609600Y-558800D02*
X622720Y-545680D01*
X755826Y-202526D02*
X953174D01*
X657948Y-581748D02*
X723138D01*
X635000Y-558800D02*
X657948Y-581748D01*
X536702Y-299300D02*
X548640Y-311238D01*
X536702Y-299300D02*
Y-283122D01*
X616358Y-203466D01*
X734711D01*
X745455Y-214210D01*
X766826D01*
X685800Y-558800D02*
X692320D01*
X704170Y-570650D01*
X787902D01*
X795902Y-578650D01*
X969822D01*
X983742Y-564730D01*
X736600Y-558800D02*
X751752Y-543648D01*
X834302D01*
X530352Y-269582D02*
Y-240626D01*
X593178Y-177800D01*
X622300D01*
X923494Y-233210D02*
X958850Y-268566D01*
X728680Y-233210D02*
X923494D01*
X714936Y-219466D02*
X728680Y-233210D01*
X686894Y-219466D02*
X714936D01*
X680212Y-226148D02*
X686894Y-219466D01*
X243586Y-406996D02*
X246888Y-403694D01*
Y-290262D01*
X254000Y-283150D01*
X299150D01*
X336400Y-320400D01*
X207899Y-490816D02*
X211416D01*
X171958Y-454875D02*
X207899Y-490816D01*
X171958Y-454875D02*
Y-286600D01*
X191408Y-267150D01*
X359350D01*
X412600Y-320400D01*
X786892Y-220052D02*
X931952D01*
X937136Y-225210D01*
X937338D01*
X1037972Y-265772D02*
X1092600Y-320400D01*
X412600D02*
X426080Y-306920D01*
X523240D01*
X541020Y-324700D01*
X551180D01*
X562864Y-313016D01*
Y-284186D01*
X635584Y-211466D01*
X720522D01*
X734266Y-225210D01*
X937338D02*
X977900Y-265772D01*
X1037972D01*
X647172Y-418172D02*
X676400Y-447400D01*
X597662Y-418172D02*
X647172D01*
X587248Y-428586D02*
X597662Y-418172D01*
X587248Y-451954D02*
Y-428586D01*
X551958Y-487244D02*
X587248Y-451954D01*
X506119Y-487244D02*
X551958D01*
X533400Y-609600D02*
X550252Y-592748D01*
X734138D01*
X740236Y-586650D01*
X1228928D01*
X1221232Y-481086D02*
Y-439508D01*
X1196848Y-505470D02*
X1221232Y-481086D01*
X803646Y-505470D02*
X1196848D01*
X799126Y-509990D02*
X803646Y-505470D01*
X525737Y-509990D02*
X799126D01*
X516636Y-519091D02*
X525737Y-509990D01*
X736180Y-88480D02*
X749300Y-101600D01*
X711620Y-88480D02*
X736180D01*
X698500Y-101600D02*
X711620Y-88480D01*
X1362682Y-176618D02*
X1373500Y-165800D01*
X1306918Y-176618D02*
X1362682D01*
X1295400Y-165100D02*
X1306918Y-176618D01*
X1270400Y-447400D02*
X1282320Y-459320D01*
X1340150D01*
X1348080Y-467250D01*
X1390950D01*
X1410800Y-447400D01*
X1066800Y-165100D02*
X1295400D01*
X1054100Y-177800D02*
X1066800Y-165100D01*
X1610800Y-295000D02*
Y-277848D01*
X1498752Y-165800D02*
X1610800Y-277848D01*
X1373500Y-165800D02*
X1498752D01*
X371559Y-253958D02*
X412600Y-295000D01*
X118066Y-253958D02*
X371559D01*
X53625Y-318400D02*
X118066Y-253958D01*
X385826Y-472020D02*
X399606Y-485800D01*
X450400D01*
X463400Y-472800D01*
X341950Y-275150D02*
X412600Y-345800D01*
X208808Y-275150D02*
X341950D01*
X197358Y-286600D02*
X208808Y-275150D01*
X197358Y-434042D02*
Y-286600D01*
X184000Y-447400D02*
X197358Y-434042D01*
X438000Y-345800D02*
X463400D01*
X412600Y-371200D02*
X438000Y-345800D01*
X404096Y-422000D02*
X412600D01*
X388366Y-437730D02*
X404096Y-422000D01*
X803400D02*
X876046Y-349354D01*
Y-274154D01*
X851102Y-249210D02*
X876046Y-274154D01*
X707188Y-249210D02*
X851102D01*
X705688Y-250710D02*
X707188Y-249210D01*
X642112Y-477100D02*
Y-456288D01*
Y-477100D02*
X659002Y-493990D01*
X782210D01*
X803400Y-472800D01*
X549400Y-447400D02*
Y-369660D01*
X612140Y-306920D01*
Y-286600D01*
X625348Y-273392D01*
X726392D01*
X739600Y-286600D01*
Y-358200D02*
Y-286600D01*
Y-358200D02*
X752600Y-371200D01*
X790718Y-383882D02*
X811784D01*
X752600Y-422000D02*
X790718Y-383882D01*
X584200Y-672953D02*
Y-660400D01*
Y-672953D02*
X591497Y-680250D01*
X676043D01*
X680262Y-676032D01*
X714044D01*
X734262Y-696250D01*
X924850D01*
X932850Y-688250D01*
X1435786D01*
X1473454Y-650582D01*
X609600Y-660400D02*
X627292Y-642708D01*
X646176D01*
X674624Y-614260D01*
X1264920D01*
X1273810Y-605370D01*
X1632204D01*
X1671574Y-566000D01*
Y-516266D01*
X1623314Y-468006D02*
X1671574Y-516266D01*
X1623314Y-468006D02*
Y-358314D01*
X1560000Y-295000D02*
X1623314Y-358314D01*
X1585400Y-308359D02*
Y-295000D01*
Y-308359D02*
X1687574Y-410533D01*
Y-629756D02*
Y-410533D01*
X1657604Y-659726D02*
X1687574Y-629756D01*
X1486662Y-659726D02*
X1657604D01*
X1450138Y-696250D02*
X1486662Y-659726D01*
X941700Y-696250D02*
X1450138D01*
X933700Y-704250D02*
X941700Y-696250D01*
X730481Y-704250D02*
X933700D01*
X710262Y-684032D02*
X730481Y-704250D01*
X693166Y-684032D02*
X710262D01*
X688262Y-688936D02*
X693166Y-684032D01*
X580898Y-688936D02*
X688262D01*
X572262Y-680300D02*
X580898Y-688936D01*
X572262Y-680300D02*
Y-654900D01*
X582930Y-644232D01*
X590550D01*
X597662Y-651344D01*
Y-667600D02*
Y-651344D01*
Y-667600D02*
X602312Y-672250D01*
X648550D01*
X660400Y-660400D01*
X685800D02*
X721350Y-624850D01*
X885698D01*
X1403604Y-626452D01*
X1413256Y-616800D01*
X1400404Y-279996D02*
X1411732D01*
X1385400Y-295000D02*
X1400404Y-279996D01*
X1370126Y-680250D02*
X1384300Y-666076D01*
X924850Y-680250D02*
X1370126D01*
X916850Y-688250D02*
X924850Y-680250D01*
X739050Y-688250D02*
X916850D01*
X711200Y-660400D02*
X739050Y-688250D01*
X1294130Y-552030D02*
X1301750Y-559650D01*
X948436Y-552030D02*
X1294130D01*
X943356Y-546950D02*
X948436Y-552030D01*
X883412Y-546950D02*
X943356D01*
X877062Y-553300D02*
X883412Y-546950D01*
X877062Y-564222D02*
Y-553300D01*
X870634Y-570650D02*
X877062Y-564222D01*
X799250Y-570650D02*
X870634D01*
X787400Y-558800D02*
X799250Y-570650D01*
X812800Y-660400D02*
X824650Y-672250D01*
X896288D01*
X900938Y-667600D01*
Y-641692D01*
X903986Y-638644D01*
X1644396D01*
X1679574Y-603466D01*
Y-490774D01*
X1636200Y-447400D02*
X1679574Y-490774D01*
X1422197Y-551217D02*
X1422908Y-550506D01*
X1352781Y-551217D02*
X1422197D01*
X1345593Y-544030D02*
X1352781Y-551217D01*
X961390Y-544030D02*
X1345593D01*
X956310Y-538950D02*
X961390Y-544030D01*
X858050Y-538950D02*
X956310D01*
X838200Y-558800D02*
X858050Y-538950D01*
X1379728Y-524090D02*
X1401142Y-502676D01*
X1619250D01*
X1625678Y-496247D01*
Y-482434D01*
X1619250Y-476006D02*
X1625678Y-482434D01*
X1585400Y-447400D02*
X1619250Y-476006D01*
X1143400Y-371200D02*
X1155446Y-359154D01*
Y-337400D01*
X1151890Y-333844D02*
X1155446Y-337400D01*
X1104556Y-333844D02*
X1151890D01*
X1092600Y-345800D02*
X1104556Y-333844D01*
X1069866Y-371200D02*
X1092600D01*
X1029462Y-330796D02*
X1069866Y-371200D01*
X1029462Y-330796D02*
Y-282000D01*
X1003400D02*
X1029462D01*
X1003400Y-333400D02*
Y-282000D01*
X889400Y-447400D02*
X1003400Y-333400D01*
X1118000Y-345800D02*
X1143400D01*
X1092600Y-371200D02*
X1118000Y-345800D01*
X273324Y-501924D02*
X304800Y-533400D01*
X193480Y-501924D02*
X273324D01*
X149098Y-457542D02*
X193480Y-501924D01*
X47244Y-457542D02*
X149098D01*
X33625Y-443923D02*
X47244Y-457542D01*
X33625Y-443923D02*
Y-197857D01*
X74682Y-156800D01*
X1231144D01*
X1289050Y-98894D01*
X1621594D01*
X1652700Y-130000D01*
X260946Y-514946D02*
X279400Y-533400D01*
X76454Y-514946D02*
X260946D01*
X25625Y-464117D02*
X76454Y-514946D01*
X25625Y-464117D02*
Y-101463D01*
X50800Y-76288D01*
X559054D01*
X610060Y-127294D01*
X695100D01*
X1250442Y-122770D01*
X1285494Y-87718D01*
X1680418D01*
X1722700Y-130000D01*
X120250Y-331050D02*
X133000Y-343800D01*
X42387Y-331050D02*
X120250D01*
X41625Y-330288D02*
X42387Y-331050D01*
X41625Y-330288D02*
Y-255612D01*
X99283Y-197954D01*
X173246D01*
X201000Y-170200D01*
X53625Y-445400D02*
X96774D01*
X53625Y-420000D02*
X85598D01*
X1321200Y-320400D02*
X1336802Y-304798D01*
Y-291172D01*
X1327150Y-281520D02*
X1336802Y-291172D01*
X1298920Y-281520D02*
X1327150D01*
X1291400Y-274000D02*
X1298920Y-281520D01*
X1253110Y-274000D02*
X1291400D01*
X1232110Y-295000D02*
X1253110Y-274000D01*
X1194200Y-295000D02*
X1232110D01*
X1168146Y-370546D02*
X1194200Y-396600D01*
X1168146Y-370546D02*
Y-324700D01*
X1150366Y-306920D02*
X1168146Y-324700D01*
X1131316Y-306920D02*
X1150366D01*
X1103884Y-279488D02*
X1131316Y-306920D01*
X1321200Y-447400D02*
X1340757D01*
X1352607Y-459250D01*
X1365250D01*
X1371850Y-452650D01*
Y-435444D01*
X1524144Y-283150D01*
X1593850D01*
X1598950Y-288249D01*
Y-302495D02*
Y-288249D01*
Y-302495D02*
X1603375Y-306920D01*
X1718818D01*
X1739138Y-286600D01*
Y-120738D01*
X1669542Y-51142D02*
X1739138Y-120738D01*
X1079158Y-51142D02*
X1669542D01*
X1028700Y-101600D02*
X1079158Y-51142D01*
X1194200Y-422000D02*
Y-418172D01*
X1231900D02*
X1251204Y-437476D01*
Y-477100D02*
Y-437476D01*
Y-477100D02*
X1260856Y-486752D01*
X1304544D01*
X927100Y-101600D02*
Y-62318D01*
X972058Y-17360D01*
X1518158D01*
X1524508Y-23710D01*
X1335406Y-487006D02*
X1614678D01*
X1321200Y-472800D02*
X1335406Y-487006D01*
X1194200Y-447400D02*
X1214030Y-427570D01*
X1225550D01*
X1236696Y-438716D01*
Y-486848D02*
Y-438716D01*
Y-486848D02*
X1252348Y-502500D01*
X1314450D01*
X1321200Y-495750D01*
Y-472800D01*
X484798Y-556602D02*
X508000Y-533400D01*
X294132Y-556602D02*
X484798D01*
X293370Y-557364D02*
X294132Y-556602D01*
X43014Y-557364D02*
X293370D01*
X26250Y-540600D02*
X43014Y-557364D01*
X26250Y-540600D02*
Y-521716D01*
X45466Y-502500D01*
X1295800Y-114300D02*
X1307318Y-125818D01*
X1362682D01*
X1373500Y-115000D01*
X260200Y-340824D02*
Y-295000D01*
Y-340824D02*
X290576Y-371200D01*
X336400D01*
X234800Y-311556D02*
Y-295000D01*
X232410Y-313946D02*
X234800Y-311556D01*
X232410Y-413600D02*
Y-313946D01*
Y-413600D02*
X236806Y-417996D01*
X248236D01*
X269633Y-396600D01*
X336400D01*
X262586Y-422000D02*
X336400D01*
X258590Y-425996D02*
X262586Y-422000D01*
X228600Y-425996D02*
X258590D01*
X209400Y-406796D02*
X228600Y-425996D01*
X209400Y-406796D02*
Y-295000D01*
X260292Y-210908D02*
X301000Y-170200D01*
X105664Y-210908D02*
X260292D01*
X101092Y-215480D02*
X105664Y-210908D01*
X101092Y-413492D02*
X133000Y-445400D01*
X610616Y-116166D02*
X684022D01*
X561086Y-66636D02*
X610616Y-116166D01*
X38100Y-66636D02*
X561086D01*
X17625Y-87111D02*
X38100Y-66636D01*
X17625Y-604961D02*
Y-87111D01*
Y-604961D02*
X91948Y-679284D01*
X495300D01*
X514096Y-698080D01*
X699262D01*
X962836Y-672250D02*
X979170Y-655916D01*
X917700Y-672250D02*
X962836D01*
X909700Y-680250D02*
X917700Y-672250D01*
X821075Y-680250D02*
X909700D01*
X813075Y-672250D02*
X821075Y-680250D01*
X773850Y-672250D02*
X813075D01*
X762000Y-660400D02*
X773850Y-672250D01*
X279400Y-609600D02*
X324144Y-564856D01*
X521294D01*
X560160Y-525990D01*
X815126D01*
X818166Y-522950D01*
X983356D01*
X988436Y-528030D01*
X1361593D01*
X1368781Y-535217D01*
X1390781D01*
X1397968Y-528030D01*
X1498130D01*
X1526600Y-556500D01*
X304800Y-609600D02*
X337478Y-576922D01*
X523920D01*
X566852Y-533990D01*
X828138D01*
X831178Y-530950D01*
X964436D01*
X969516Y-536030D01*
X1353593D01*
X1360781Y-543217D01*
X1398781D01*
X1405968Y-536030D01*
X1472522D01*
X1505032Y-568540D01*
X1647560D01*
X1659600Y-556500D01*
X759626Y-637374D02*
X876300D01*
X736600Y-660400D02*
X759626Y-637374D01*
X274066Y-484466D02*
X303530Y-513930D01*
X246466Y-484466D02*
X274066D01*
X209400Y-447400D02*
X246466Y-484466D01*
X657098Y-602068D02*
X1209930D01*
X631952Y-627214D02*
X657098Y-602068D01*
X347814Y-627214D02*
X631952D01*
X330200Y-609600D02*
X347814Y-627214D01*
X1270400Y-422000D02*
X1283082Y-434682D01*
X1357122D01*
X1422732Y-369072D01*
Y-268136D01*
X1407668Y-253072D02*
X1422732Y-268136D01*
X990854Y-253072D02*
X1407668D01*
X707976Y-235116D02*
X714070Y-241210D01*
X909650D01*
X949706Y-281266D01*
X977646D01*
Y-307936D02*
Y-281266D01*
X825500Y-460082D02*
X977646Y-307936D01*
X778764Y-460082D02*
X825500D01*
X1289350Y-295000D02*
X1321200D01*
X1276350Y-282000D02*
X1289350Y-295000D01*
X1263650Y-282000D02*
X1276350D01*
X1257300Y-288350D02*
X1263650Y-282000D01*
X1257300Y-307300D02*
Y-288350D01*
Y-307300D02*
X1270400Y-320400D01*
X818642Y-270344D02*
Y-263994D01*
X811858Y-257210D02*
X818642Y-263994D01*
X743215Y-257210D02*
X811858D01*
X738083Y-262342D02*
X743215Y-257210D01*
X607458Y-262342D02*
X738083D01*
X574800Y-295000D02*
X607458Y-262342D01*
X474536Y-493800D02*
X475488Y-492848D01*
X383794Y-493800D02*
X474536D01*
X349758Y-459764D02*
X383794Y-493800D01*
X349758Y-459764D02*
Y-409958D01*
X336400Y-396600D02*
X349758Y-409958D01*
X1054100Y-101600D02*
X1239862D01*
X1278382Y-63080D01*
X1333500D01*
X929640Y-486244D02*
X973933D01*
X984680Y-475498D01*
X989584D01*
X1000330Y-486244D01*
X1106932D01*
X1112266Y-480910D01*
Y-470750D01*
X533400Y-533400D02*
X548810Y-517990D01*
X807126D01*
X810166Y-514950D01*
X997462D01*
X998982Y-516470D01*
X948600Y-464400D02*
X965600Y-447400D01*
X893064Y-464400D02*
X948600D01*
X863346Y-494118D02*
X893064Y-464400D01*
X799645Y-494118D02*
X863346D01*
X791773Y-501990D02*
X799645Y-494118D01*
X469235Y-459320D02*
X495119Y-485203D01*
X571010Y-501990D02*
X625600Y-447400D01*
X501650Y-501990D02*
X571010D01*
X495119Y-495459D02*
X501650Y-501990D01*
X495119Y-495459D02*
Y-485203D01*
X424520Y-459320D02*
X469235D01*
X412600Y-447400D02*
X424520Y-459320D01*
X518825Y-289825D02*
X524000Y-295000D01*
X518825Y-289825D02*
Y-231910D01*
X585935Y-164800D01*
X787100D01*
X800100Y-177800D01*
X608584Y-190842D02*
X1180846D01*
X1225296Y-235292D01*
X752600Y-422000D02*
X765810Y-435210D01*
Y-482180D02*
Y-435210D01*
X762000Y-485990D02*
X765810Y-482180D01*
X666750Y-485990D02*
X762000D01*
X660400Y-479640D02*
X666750Y-485990D01*
X660400Y-479640D02*
Y-446600D01*
X647031Y-433231D02*
X660400Y-446600D01*
X614369Y-433231D02*
X647031D01*
X600200Y-447400D02*
X614369Y-433231D01*
X40000Y-700000D02*
X360030D01*
X361530Y-698500D01*
X381000D01*
X574800Y-447400D02*
Y-369914D01*
X663194Y-281520D01*
X701374D01*
X731600Y-311746D01*
Y-375600D02*
Y-311746D01*
Y-375600D02*
X752600Y-396600D01*
X1062025Y-315225D02*
X1092600Y-345800D01*
X1062025Y-315225D02*
Y-303174D01*
X1032850Y-274000D02*
X1062025Y-303174D01*
X995400Y-274000D02*
X1032850D01*
X995400Y-316000D02*
Y-274000D01*
X864000Y-447400D02*
X995400Y-316000D01*
X752600Y-295000D02*
X765572Y-282028D01*
X851028D01*
X864000Y-295000D01*
X412600D02*
X425572Y-282028D01*
X511028D01*
X989330Y-492848D02*
X993952Y-497470D01*
X1118730D01*
X1143400Y-472800D01*
X952500Y-101600D02*
X965542Y-114642D01*
X990258D01*
X1003300Y-101600D01*
X622300D02*
X676060Y-47840D01*
X822540D01*
X876300Y-101600D01*
X1303000Y-269600D02*
X1321200D01*
X1299400Y-266000D02*
X1303000Y-269600D01*
X1232265Y-266000D02*
X1299400D01*
X1228665Y-269600D02*
X1232265Y-266000D01*
X1143400Y-269600D02*
X1228665D01*
X1270400Y-295000D02*
X1307720Y-332320D01*
X1373480D01*
X1410800Y-295000D01*
X752600Y-371200D02*
X778000D01*
X803400Y-345800D01*
X463400Y-320400D02*
X469900D01*
X483616Y-334116D01*
Y-374738D02*
Y-334116D01*
X475234Y-383120D02*
X483616Y-374738D01*
X426080Y-383120D02*
X475234D01*
X412600Y-396600D02*
X426080Y-383120D01*
X412600Y-345800D02*
X424556Y-333844D01*
X471932D01*
X475488Y-337400D01*
Y-359112D02*
Y-337400D01*
X463400Y-371200D02*
X475488Y-359112D01*
X701800Y-447400D02*
X752600D01*
X676400Y-472800D02*
X701800Y-447400D01*
X803400Y-371200D02*
X815340Y-359260D01*
Y-337400D01*
X811890Y-333950D02*
X815340Y-337400D01*
X764450Y-333950D02*
X811890D01*
X752600Y-345800D02*
X764450Y-333950D01*
X1180720Y-459320D02*
X1194200Y-472800D01*
X1104520Y-459320D02*
X1180720D01*
X1092600Y-447400D02*
X1104520Y-459320D01*
X381000Y-533400D02*
X382479Y-531921D01*
X404921D01*
X406400Y-533400D01*
X939458Y-114642D02*
X952500Y-101600D01*
X762342Y-114642D02*
X939458D01*
X749300Y-101600D02*
X762342Y-114642D01*
X1598844Y-435444D02*
X1610800Y-447400D01*
X1422756Y-435444D02*
X1598844D01*
X1410800Y-447400D02*
X1422756Y-435444D01*
X251000Y-94000D02*
X276000D01*
X301000D01*
X326000D01*
X226000D02*
X251000D01*
X201000D02*
X226000D01*
X176000D02*
X201000D01*
X101000D02*
X126000D01*
X151000D02*
X176000D01*
X126000D02*
X151000D01*
D24*
X326000D02*
D03*
D25*
X301000D02*
D03*
X276000D02*
D03*
X251000D02*
D03*
X226000D02*
D03*
X201000D02*
D03*
X176000D02*
D03*
X151000D02*
D03*
X126000D02*
D03*
X101000D02*
D03*
Y-170200D02*
D03*
X126000D02*
D03*
X151000D02*
D03*
X176000D02*
D03*
X201000D02*
D03*
X226000D02*
D03*
X251000D02*
D03*
X276000D02*
D03*
X301000D02*
D03*
X326000D02*
D03*
D30*
X1320400Y-165100D02*
D03*
X1320800Y-114300D02*
D03*
D31*
X1295400Y-165100D02*
D03*
X1295800Y-114300D02*
D03*
D32*
X381000Y-698500D02*
D03*
X482600D02*
D03*
X53625Y-267600D02*
D03*
D33*
X406400Y-698500D02*
D03*
X457200D02*
D03*
X53625Y-293000D02*
D03*
Y-318400D02*
D03*
Y-343800D02*
D03*
Y-369200D02*
D03*
Y-394600D02*
D03*
Y-420000D02*
D03*
Y-445400D02*
D03*
Y-470800D02*
D03*
X133000D02*
D03*
Y-445400D02*
D03*
Y-420000D02*
D03*
Y-394600D02*
D03*
Y-369200D02*
D03*
Y-343800D02*
D03*
Y-318400D02*
D03*
Y-293000D02*
D03*
Y-267600D02*
D03*
D34*
X1722700Y-130000D02*
D03*
X1652700D02*
D03*
D35*
X1697300D02*
D03*
X1627300D02*
D03*
D38*
X463400Y-269600D02*
D03*
X803400D02*
D03*
X1143400D02*
D03*
X1321200D02*
D03*
X1526600Y-556500D02*
D03*
X1659600D02*
D03*
X1752600Y-292100D02*
D03*
D39*
X463400Y-295000D02*
D03*
Y-320400D02*
D03*
Y-345800D02*
D03*
Y-371200D02*
D03*
Y-396600D02*
D03*
Y-422000D02*
D03*
Y-447400D02*
D03*
Y-472800D02*
D03*
X803400Y-295000D02*
D03*
Y-320400D02*
D03*
Y-345800D02*
D03*
Y-371200D02*
D03*
Y-396600D02*
D03*
Y-422000D02*
D03*
Y-447400D02*
D03*
Y-472800D02*
D03*
X1143400Y-295000D02*
D03*
Y-320400D02*
D03*
Y-345800D02*
D03*
Y-371200D02*
D03*
Y-396600D02*
D03*
Y-422000D02*
D03*
Y-447400D02*
D03*
Y-472800D02*
D03*
X1321200Y-295000D02*
D03*
Y-320400D02*
D03*
Y-345800D02*
D03*
Y-371200D02*
D03*
Y-396600D02*
D03*
Y-422000D02*
D03*
Y-447400D02*
D03*
Y-472800D02*
D03*
X1526600Y-683500D02*
D03*
X1577400Y-556500D02*
D03*
Y-683500D02*
D03*
X1659600D02*
D03*
X1710400Y-556500D02*
D03*
Y-683500D02*
D03*
X1752600Y-317500D02*
D03*
X406400Y-660400D02*
D03*
X457200D02*
D03*
X584200D02*
D03*
Y-558800D02*
D03*
X609600D02*
D03*
Y-660400D02*
D03*
X635000D02*
D03*
Y-558800D02*
D03*
X660400D02*
D03*
Y-660400D02*
D03*
X685800D02*
D03*
Y-558800D02*
D03*
X711200D02*
D03*
Y-660400D02*
D03*
X736600D02*
D03*
Y-558800D02*
D03*
X762000D02*
D03*
Y-660400D02*
D03*
X787400Y-558800D02*
D03*
Y-660400D02*
D03*
X812800Y-558800D02*
D03*
Y-660400D02*
D03*
X838200Y-558800D02*
D03*
Y-660400D02*
D03*
X863600Y-558800D02*
D03*
Y-660400D02*
D03*
X889000D02*
D03*
Y-558800D02*
D03*
X914400D02*
D03*
Y-660400D02*
D03*
X1727200Y-190500D02*
D03*
X1625600D02*
D03*
X1727200Y-215900D02*
D03*
X1625600D02*
D03*
X38100Y-533400D02*
D03*
X139700D02*
D03*
X38100Y-584200D02*
D03*
X139700D02*
D03*
X184000Y-447400D02*
D03*
X209400D02*
D03*
X234800D02*
D03*
X260200D02*
D03*
X285600D02*
D03*
X184000Y-295000D02*
D03*
X209400D02*
D03*
X260200D02*
D03*
X234800D02*
D03*
X524000Y-447400D02*
D03*
X549400D02*
D03*
X574800D02*
D03*
X600200D02*
D03*
X625600D02*
D03*
X524000Y-295000D02*
D03*
X549400D02*
D03*
X600200D02*
D03*
X574800D02*
D03*
X864000Y-447400D02*
D03*
X889400D02*
D03*
X914800D02*
D03*
X940200D02*
D03*
X965600D02*
D03*
X864000Y-295000D02*
D03*
X889400D02*
D03*
X940200D02*
D03*
X914800D02*
D03*
X1360000Y-447400D02*
D03*
X1385400D02*
D03*
X1410800D02*
D03*
X1436200D02*
D03*
X1461600D02*
D03*
X1360000Y-295000D02*
D03*
X1385400D02*
D03*
X1436200D02*
D03*
X1410800D02*
D03*
X1560000Y-447400D02*
D03*
X1585400D02*
D03*
X1610800D02*
D03*
X1636200D02*
D03*
X1661600D02*
D03*
X1560000Y-295000D02*
D03*
X1585400D02*
D03*
X1636200D02*
D03*
X1610800D02*
D03*
D40*
X285600D02*
D03*
X625600D02*
D03*
X965600D02*
D03*
X1461600D02*
D03*
X1661600D02*
D03*
D41*
X40000Y-40000D02*
D03*
X1780000D02*
D03*
Y-700000D02*
D03*
X40000D02*
D03*
D42*
X1054100Y-101600D02*
D03*
X203200Y-609600D02*
D03*
X800100Y-101600D02*
D03*
D43*
X1028700D02*
D03*
X1003300D02*
D03*
X977900D02*
D03*
X952500D02*
D03*
X927100D02*
D03*
X901700D02*
D03*
X876300D02*
D03*
X1054100Y-177800D02*
D03*
X1028700D02*
D03*
X1003300D02*
D03*
X977900D02*
D03*
X952500D02*
D03*
X927100D02*
D03*
X901700D02*
D03*
X876300D02*
D03*
X228600Y-609600D02*
D03*
X254000D02*
D03*
X279400D02*
D03*
X304800D02*
D03*
X330200D02*
D03*
X355600D02*
D03*
X381000D02*
D03*
X406400D02*
D03*
X431800D02*
D03*
X457200D02*
D03*
X482600D02*
D03*
X508000D02*
D03*
X533400D02*
D03*
X203200Y-533400D02*
D03*
X228600D02*
D03*
X254000D02*
D03*
X279400D02*
D03*
X304800D02*
D03*
X330200D02*
D03*
X355600D02*
D03*
X381000D02*
D03*
X406400D02*
D03*
X431800D02*
D03*
X457200D02*
D03*
X482600D02*
D03*
X508000D02*
D03*
X533400D02*
D03*
X336400Y-320400D02*
D03*
Y-345800D02*
D03*
Y-371200D02*
D03*
Y-396600D02*
D03*
Y-422000D02*
D03*
Y-447400D02*
D03*
Y-472800D02*
D03*
X412600Y-295000D02*
D03*
Y-320400D02*
D03*
Y-345800D02*
D03*
Y-371200D02*
D03*
Y-396600D02*
D03*
Y-422000D02*
D03*
Y-447400D02*
D03*
Y-472800D02*
D03*
X622300Y-177800D02*
D03*
X647700D02*
D03*
X673100D02*
D03*
X698500D02*
D03*
X723900D02*
D03*
X749300D02*
D03*
X774700D02*
D03*
X800100D02*
D03*
X622300Y-101600D02*
D03*
X647700D02*
D03*
X673100D02*
D03*
X698500D02*
D03*
X723900D02*
D03*
X749300D02*
D03*
X774700D02*
D03*
X1270400Y-472800D02*
D03*
Y-447400D02*
D03*
Y-422000D02*
D03*
Y-396600D02*
D03*
Y-371200D02*
D03*
Y-345800D02*
D03*
Y-320400D02*
D03*
Y-295000D02*
D03*
X1194200Y-472800D02*
D03*
Y-447400D02*
D03*
Y-422000D02*
D03*
Y-396600D02*
D03*
Y-371200D02*
D03*
Y-345800D02*
D03*
Y-320400D02*
D03*
X1092600Y-472800D02*
D03*
Y-447400D02*
D03*
Y-422000D02*
D03*
Y-396600D02*
D03*
Y-371200D02*
D03*
Y-345800D02*
D03*
Y-320400D02*
D03*
Y-295000D02*
D03*
X1016400Y-472800D02*
D03*
Y-447400D02*
D03*
Y-422000D02*
D03*
Y-396600D02*
D03*
Y-371200D02*
D03*
Y-345800D02*
D03*
Y-320400D02*
D03*
X752600Y-472800D02*
D03*
Y-447400D02*
D03*
Y-422000D02*
D03*
Y-396600D02*
D03*
Y-371200D02*
D03*
Y-345800D02*
D03*
Y-320400D02*
D03*
Y-295000D02*
D03*
X676400Y-472800D02*
D03*
Y-447400D02*
D03*
Y-422000D02*
D03*
Y-396600D02*
D03*
Y-371200D02*
D03*
Y-345800D02*
D03*
Y-320400D02*
D03*
D44*
X1373500Y-165800D02*
D03*
Y-140400D02*
D03*
D45*
Y-115000D02*
D03*
D46*
X336400Y-295000D02*
D03*
X1194200D02*
D03*
X1016400D02*
D03*
X676400D02*
D03*
D47*
X951992Y-60032D02*
D03*
X882904Y-262470D02*
D03*
X821182Y-447890D02*
D03*
X698500Y-545680D02*
D03*
X953174Y-202526D02*
D03*
X755826D02*
D03*
X723138Y-581748D02*
D03*
X548640Y-311238D02*
D03*
X766826Y-214210D02*
D03*
X983742Y-564730D02*
D03*
X834302Y-543648D02*
D03*
X530352Y-269582D02*
D03*
X958850Y-268566D02*
D03*
X680212Y-226148D02*
D03*
X243586Y-406996D02*
D03*
X211416Y-490816D02*
D03*
X786892Y-220052D02*
D03*
X506119Y-487244D02*
D03*
X1228928Y-586650D02*
D03*
X1221232Y-439508D02*
D03*
X516636Y-519091D02*
D03*
X385826Y-472020D02*
D03*
X388366Y-437730D02*
D03*
X705688Y-250710D02*
D03*
X642112Y-456288D02*
D03*
X811784Y-383882D02*
D03*
X1473454Y-650582D02*
D03*
X1413256Y-616800D02*
D03*
X1411732Y-279996D02*
D03*
X1384300Y-666076D02*
D03*
X1301750Y-559650D02*
D03*
X1422908Y-550506D02*
D03*
X1379728Y-524090D02*
D03*
X96774Y-445400D02*
D03*
X85598Y-420000D02*
D03*
X1103884Y-279488D02*
D03*
X1304544Y-486752D02*
D03*
X1524508Y-23710D02*
D03*
X1614678Y-487006D02*
D03*
X45466Y-502500D02*
D03*
X101092Y-215480D02*
D03*
Y-413492D02*
D03*
X684022Y-116166D02*
D03*
X699262Y-698080D02*
D03*
X979170Y-655916D02*
D03*
X876300Y-637374D02*
D03*
X303530Y-513930D02*
D03*
X1209930Y-602068D02*
D03*
X990854Y-253072D02*
D03*
X707976Y-235116D02*
D03*
X778764Y-460082D02*
D03*
X818642Y-270344D02*
D03*
X475488Y-492848D02*
D03*
X1333500Y-63080D02*
D03*
X929640Y-486244D02*
D03*
X1112266Y-470750D02*
D03*
X998982Y-516470D02*
D03*
X608584Y-190842D02*
D03*
X1225296Y-235292D02*
D03*
X989330Y-492848D02*
D03*
M02*
