G04*
G04 #@! TF.GenerationSoftware,Altium Limited,Altium Designer,22.10.1 (41)*
G04*
G04 Layer_Physical_Order=2*
G04 Layer_Color=16711680*
%FSLAX44Y44*%
%MOMM*%
G71*
G04*
G04 #@! TF.SameCoordinates,1B9686B6-E39C-41AD-B85E-D0C14699C224*
G04*
G04*
G04 #@! TF.FilePolarity,Positive*
G04*
G01*
G75*
%ADD24C,1.4500*%
%ADD25R,1.4500X1.4500*%
%ADD26C,1.3500*%
%ADD27R,1.3500X1.3500*%
%ADD31C,1.3000*%
%ADD32R,1.3000X1.3000*%
%ADD33R,1.2000X1.2000*%
%ADD34C,1.2000*%
%ADD37C,0.4000*%
%ADD38C,1.2700*%
%ADD39R,1.2700X1.2700*%
%ADD40R,1.2700X1.2700*%
%ADD41C,4.0640*%
%ADD42C,1.5000*%
%ADD43R,1.5000X1.5000*%
%ADD44R,1.5000X1.5000*%
%ADD45R,1.6000X1.6000*%
%ADD46C,1.6000*%
D24*
X2202700Y315000D02*
D03*
X2272700D02*
D03*
D25*
X2177300D02*
D03*
X2247300D02*
D03*
D26*
X876000Y274800D02*
D03*
X851000D02*
D03*
X826000D02*
D03*
X801000D02*
D03*
X776000D02*
D03*
X751000D02*
D03*
X726000D02*
D03*
X701000D02*
D03*
X676000D02*
D03*
X651000D02*
D03*
Y351000D02*
D03*
X676000D02*
D03*
X701000D02*
D03*
X726000D02*
D03*
X751000D02*
D03*
X776000D02*
D03*
X801000D02*
D03*
X826000D02*
D03*
X851000D02*
D03*
D27*
X876000D02*
D03*
D31*
X1540600Y-113800D02*
D03*
X1033400Y-262000D02*
D03*
X683000Y177400D02*
D03*
Y152000D02*
D03*
Y126600D02*
D03*
Y101200D02*
D03*
Y75800D02*
D03*
Y50400D02*
D03*
Y25000D02*
D03*
Y-400D02*
D03*
Y-25800D02*
D03*
X603625D02*
D03*
Y-400D02*
D03*
Y25000D02*
D03*
Y50400D02*
D03*
Y75800D02*
D03*
Y101200D02*
D03*
Y126600D02*
D03*
Y152000D02*
D03*
X931800Y-262000D02*
D03*
D32*
X1566000Y-113800D02*
D03*
X1008000Y-262000D02*
D03*
X603625Y177400D02*
D03*
X957200Y-262000D02*
D03*
D33*
X1845800Y330700D02*
D03*
X1845400Y279900D02*
D03*
D34*
X1870800Y330700D02*
D03*
X1870400Y279900D02*
D03*
D37*
X1489800Y-113800D02*
X1515110D01*
X1515110Y-113800D01*
X1540600D01*
X676000Y351000D02*
X701000D01*
X726000D01*
X651000D02*
X676000D01*
X726000D02*
X751000D01*
X776000D01*
X801000D01*
X962600Y150000D02*
X1074000D01*
X931000Y-88400D02*
X956400D01*
X851000Y351000D02*
X876000D01*
X826000D02*
X851000D01*
X801000D02*
X826000D01*
X1302600Y150000D02*
X1414000D01*
X957200Y-262000D02*
X1008000D01*
X2049400Y347600D02*
X2100200D01*
X1820400Y150000D02*
X1832750Y162350D01*
X1948450D01*
X1960800Y150000D01*
X2148450Y162350D02*
X2160800Y150000D01*
X1973150Y162350D02*
X2148450D01*
X1960800Y150000D02*
X1973150Y162350D01*
X603625Y126600D02*
X616261Y139236D01*
X723236D01*
X734000Y150000D01*
X962600Y124600D02*
X1173950D01*
X1204900Y155550D01*
Y171500D01*
X1247900D01*
X1294800Y124600D01*
X1302600D01*
X1210400Y-113800D02*
X1228232Y-95968D01*
X1274826D01*
X1262504Y-46946D02*
X1416304D01*
X1252150Y-57300D02*
X1262504Y-46946D01*
X1196900Y-57300D02*
X1252150D01*
X1188900Y-49300D02*
X1196900Y-57300D01*
X1131892Y-49300D02*
X1188900D01*
X1102106Y-19514D02*
X1131892Y-49300D01*
X1086866Y-19514D02*
X1102106D01*
X1111758Y249726D02*
X1188974D01*
X1197700Y258452D01*
Y267200D01*
X1150200Y-19221D02*
Y-2400D01*
Y-19221D02*
X1162050Y-31071D01*
X1186671D01*
X1204900Y-49300D01*
X1247900D01*
X1249529Y-47671D01*
Y-30071D01*
X1302600Y23000D01*
X1175600Y-2400D02*
X1201000D01*
X1226400Y-27800D01*
X1534764Y48400D02*
X1566400D01*
X1464800Y118364D02*
X1534764Y48400D01*
X1464800Y118364D02*
Y150000D01*
X1490200D02*
X1506614Y166414D01*
X1574800D01*
X1597914Y143300D01*
Y105314D02*
Y143300D01*
X1566400Y73800D02*
X1597914Y105314D01*
X1451700Y343400D02*
X1473214Y364914D01*
X1557656D01*
X1565148Y357422D01*
X1749552D01*
X1781302Y325672D01*
Y254298D02*
Y325672D01*
Y254298D02*
X1815846Y219754D01*
Y197402D02*
Y219754D01*
X1797050Y197402D02*
X1815846D01*
X1788414Y188766D02*
X1797050Y197402D01*
X1923500Y304600D02*
X2006400D01*
X2049400Y347600D01*
X1506108Y321608D02*
X1527900Y343400D01*
X1295692Y321608D02*
X1506108D01*
X1273900Y343400D02*
X1295692Y321608D01*
X1223100Y343400D02*
X1254544Y311956D01*
X1737868D01*
X1578700Y343400D02*
X1596428Y325672D01*
X1751368D01*
X1759204Y317836D01*
Y254552D02*
Y317836D01*
Y254552D02*
X1802130Y211626D01*
X1578242Y-41358D02*
X1642600Y23000D01*
X1529158Y-41358D02*
X1578242D01*
X1490200Y-2400D02*
X1529158Y-41358D01*
X1707134Y85466D02*
X1744200Y48400D01*
X1488836Y329736D02*
X1502500Y343400D01*
X1312964Y329736D02*
X1488836D01*
X1299300Y343400D02*
X1312964Y329736D01*
X1820400Y124600D02*
X1845800Y150000D01*
X1871200D01*
X1464800Y-2400D02*
X1505282Y-42882D01*
X1515110D01*
X1521586Y-49358D01*
X1581555D01*
X1602763Y-28150D01*
X1623083D01*
X1639085Y-44152D01*
X1646682D01*
X1656334Y-34500D01*
Y34666D01*
X1642600Y48400D02*
X1656334Y34666D01*
X576200Y-109600D02*
X746464Y-279864D01*
X939336D01*
X957200Y-262000D01*
X1014984Y101898D02*
X1028954Y115868D01*
X1198372D01*
X1212900Y130396D01*
Y163500D01*
X1239900D01*
Y103900D02*
Y163500D01*
Y103900D02*
X1270000Y73800D01*
X1302600D01*
X755734Y207900D02*
X760222Y212388D01*
X728600Y207900D02*
X755734D01*
X1401520Y343400D02*
X1444498Y386378D01*
X1350100Y343400D02*
X1401520D01*
X1388200Y-113800D02*
Y-97830D01*
X1396120Y-89910D01*
X1914660D01*
X1986200Y-18369D01*
Y-2400D01*
X1744200D02*
X1802208Y-60408D01*
X1838592D01*
X1871200Y-27800D01*
X1820400Y-2400D02*
X1832942Y-14942D01*
X1948258D01*
X1960800Y-2400D01*
X1007200Y-88400D02*
X1033818Y-115018D01*
X1103630D01*
X1566000Y-113800D02*
X1741201D01*
X1746342Y-108660D01*
X1942854D01*
X2024126Y-27388D01*
Y6902D01*
X1970024Y61004D02*
X2024126Y6902D01*
X1833196Y61004D02*
X1970024D01*
X1820400Y73800D02*
X1833196Y61004D01*
X1302600Y-2400D02*
X1339424Y34424D01*
X1478776D01*
X1515600Y-2400D01*
X1749436Y-183090D02*
X2148332D01*
X1736482Y-196044D02*
X1749436Y-183090D01*
X1668432Y-196044D02*
X1736482D01*
X1647792Y-216685D02*
X1668432Y-196044D01*
X1531404Y-216685D02*
X1647792D01*
X1512338Y-235750D02*
X1531404Y-216685D01*
X1418650Y-235750D02*
X1512338D01*
X1418650D02*
Y-227750D01*
X1401064D02*
X1418650D01*
X1401064D02*
Y-203050D01*
X1324350D02*
X1401064D01*
X1312000Y-215400D02*
X1324350Y-203050D01*
X861000Y-2400D02*
X886400Y-27800D01*
X835600Y-2400D02*
X861000D01*
X923290Y9090D02*
X962600Y48400D01*
X923290Y-23266D02*
Y9090D01*
X905256Y-41300D02*
X923290Y-23266D01*
X864362Y-41300D02*
X905256D01*
X847656Y-24594D02*
X864362Y-41300D01*
X806994Y-24594D02*
X847656D01*
X784800Y-2400D02*
X806994Y-24594D01*
X797518Y10282D02*
X810200Y-2400D01*
X779096Y10282D02*
X797518D01*
X772414Y3600D02*
X779096Y10282D01*
X772414Y-16212D02*
Y3600D01*
Y-16212D02*
X788924Y-32722D01*
X838200D01*
X854778Y-49300D01*
X909578D01*
X945642Y-13236D01*
Y6042D01*
X962600Y23000D01*
X835600Y150000D02*
X849602Y164002D01*
X899922D01*
Y112722D02*
Y164002D01*
X886400Y99200D02*
X899922Y112722D01*
X823214Y48400D02*
X886400D01*
X823080Y48266D02*
X823214Y48400D01*
X783298Y48266D02*
X823080D01*
X783298D02*
Y70208D01*
X784800Y71710D01*
Y150000D01*
X1179830Y195370D02*
X1388110D01*
X1426464Y157016D01*
Y60885D02*
Y157016D01*
X873858Y137458D02*
X886400Y150000D01*
X801116Y137458D02*
X873858D01*
X797814Y140760D02*
X801116Y137458D01*
X797814Y140760D02*
Y156000D01*
X791464Y162350D02*
X797814Y156000D01*
X753364Y162350D02*
X791464D01*
X747014Y156000D02*
X753364Y162350D01*
X747014Y-15450D02*
Y156000D01*
Y-15450D02*
X772922Y-41358D01*
X832970D01*
X848912Y-57300D01*
X965768D01*
X981710Y-41358D01*
X1795654Y-141650D02*
X1796542Y-140762D01*
X1602830Y-141650D02*
X1795654D01*
X1599146Y-145334D02*
X1602830Y-141650D01*
X1548925Y-145334D02*
X1599146D01*
X1527695Y-166563D02*
X1548925Y-145334D01*
X1294003Y-166563D02*
X1527695D01*
X1291410Y-169156D02*
X1294003Y-166563D01*
X1100566Y-169156D02*
X1291410D01*
X1096010Y-164600D02*
X1100566Y-169156D01*
X1083400Y-164600D02*
X1096010D01*
X1007200D02*
X1021590Y-178991D01*
X1488420D01*
X1490726Y-176685D01*
X1534066D01*
X1555601Y-155150D01*
X1625346D01*
X1693418Y137204D02*
X1719714Y163500D01*
X1756100D01*
X1820400Y99200D01*
X734000Y150000D02*
Y159447D01*
X744903Y170350D01*
X809991D01*
X836103Y196462D01*
X879557D01*
X905173Y222078D01*
X927100D01*
X938651Y210527D01*
X947712D01*
Y164888D02*
Y210527D01*
Y164888D02*
X962600Y150000D01*
X828684Y322116D02*
X876000Y274800D01*
X609600Y322116D02*
X828684D01*
X574802Y287318D02*
X609600Y322116D01*
X574802Y54400D02*
Y287318D01*
Y54400D02*
X591566Y37636D01*
X609600D01*
X616204Y31032D01*
Y-18569D02*
Y31032D01*
Y-18569D02*
X623435Y-25800D01*
X683000D01*
X832386Y293414D02*
X851000Y274800D01*
X596900Y293414D02*
X832386D01*
X582930Y279444D02*
X596900Y293414D01*
X582930Y102270D02*
Y279444D01*
Y102270D02*
X596900Y88300D01*
X609600D01*
X632204Y65696D01*
Y29518D02*
Y65696D01*
Y29518D02*
X662122Y-400D01*
X683000D01*
X563626Y-14999D02*
X603625Y25000D01*
X563626Y-147826D02*
Y-14999D01*
Y-147826D02*
X576200Y-160400D01*
X630344Y-109600D02*
X677800D01*
X591058Y-70314D02*
X630344Y-109600D01*
X591058Y-70314D02*
Y-12967D01*
X603625Y-400D01*
X1135126Y-139656D02*
X1262126D01*
X1121664Y-126194D02*
X1135126Y-139656D01*
X1121664Y-126194D02*
Y-110700D01*
X1112482Y-101518D02*
X1121664Y-110700D01*
X1098080Y-101518D02*
X1112482D01*
X1096010Y-103588D02*
X1098080Y-101518D01*
X1073188Y-103588D02*
X1096010D01*
X1058000Y-88400D02*
X1073188Y-103588D01*
X1469278Y-134322D02*
X1489800Y-113800D01*
X1311446Y-134322D02*
X1469278D01*
X1303274Y-126150D02*
X1311446Y-134322D01*
X1147064Y-126150D02*
X1303274D01*
X1147064D02*
Y-98724D01*
X1136434Y-88094D02*
X1147064Y-98724D01*
X1136434Y-88094D02*
Y-69768D01*
X1106970D02*
X1136434D01*
X1103376Y-73362D02*
X1106970Y-69768D01*
X752856Y-73362D02*
X1103376D01*
X692658Y-13164D02*
X752856Y-73362D01*
X629158Y-13164D02*
X692658D01*
X624204Y-8210D02*
X629158Y-13164D01*
X624204Y-8210D02*
Y55221D01*
X603625Y75800D02*
X624204Y55221D01*
X2229650Y225850D02*
X2302600Y152900D01*
X1873504Y225850D02*
X2229650D01*
X1833372Y265982D02*
X1873504Y225850D01*
X1833372Y265982D02*
Y289350D01*
X1839722Y295700D01*
X1883918D01*
Y318560D01*
X1907484D01*
X1923500Y330000D01*
X1845800Y330700D02*
X1857939Y318560D01*
X1395405Y416604D02*
X1412715Y433914D01*
X1450997D01*
X1468307Y416604D01*
X1901952D01*
X1999234Y319322D01*
X1707896Y12096D02*
X1744200Y48400D01*
X1940306Y188766D02*
X1947926Y181146D01*
X1788414Y188766D02*
X1940306D01*
X1871200Y73800D02*
X2119218D01*
X2173224Y127806D01*
Y177082D01*
X2142998Y207308D02*
X2173224Y177082D01*
X1850136Y207308D02*
X2142998D01*
X1806702Y250742D02*
X1850136Y207308D01*
X1324700Y343400D02*
X1363614Y382314D01*
X1418082D01*
X1197700Y343400D02*
X1254214Y399914D01*
X1845998D01*
X1870710Y375202D01*
X603625Y227425D02*
X651000Y274800D01*
X1870919Y-267750D02*
X2283382D01*
X1860413Y-257243D02*
X1870919Y-267750D01*
X1780452Y-257243D02*
X1860413D01*
X1740269Y-297426D02*
X1780452Y-257243D01*
X1533362Y-297426D02*
X1740269D01*
X1513772Y-277836D02*
X1533362Y-297426D01*
X1279950Y-277836D02*
X1513772D01*
X1271272Y-269158D02*
X1279950Y-277836D01*
X1244272Y-269158D02*
X1271272D01*
X1236068Y-277362D02*
X1244272Y-269158D01*
X1104741Y-277362D02*
X1236068D01*
X1072952Y-245574D02*
X1104741Y-277362D01*
X785622Y-245574D02*
X1072952D01*
X739648Y-199600D02*
X785622Y-245574D01*
X739648Y-199600D02*
Y-151086D01*
X766714D01*
X829400Y-88400D01*
X2178300Y246000D02*
X2247300Y315000D01*
X2100200Y246000D02*
X2178300D01*
X1207968Y443782D02*
X2073918D01*
X2202700Y315000D01*
X2118400D02*
X2177300D01*
X2049400Y246000D02*
X2118400Y315000D01*
X2193838Y-127262D02*
X2209600Y-111500D01*
X1783042Y-127262D02*
X2193838D01*
X1776654Y-133650D02*
X1783042Y-127262D01*
X1591146Y-133650D02*
X1776654D01*
X1587462Y-137334D02*
X1591146Y-133650D01*
X1508065Y-137334D02*
X1587462D01*
X1487249Y-158150D02*
X1508065Y-137334D01*
X1286416Y-158150D02*
X1487249D01*
X1283410Y-161156D02*
X1286416Y-158150D01*
X1125421Y-161156D02*
X1283410D01*
X1115351Y-151086D02*
X1125421Y-161156D01*
X868314Y-151086D02*
X1115351D01*
X854800Y-164600D02*
X868314Y-151086D01*
X829400Y-164600D02*
X851850Y-142150D01*
X1121369D01*
X1132375Y-153156D01*
X1275410D01*
X1278417Y-150150D01*
X1479150D01*
X1499966Y-129334D01*
X1583146D01*
X1586830Y-125650D01*
X1768654D01*
X1775042Y-119262D01*
X2068838D01*
X2076600Y-111500D01*
X1655956Y-65358D02*
X1660652Y-60662D01*
X1505158Y-65358D02*
X1655956D01*
X1500462Y-60662D02*
X1505158Y-65358D01*
X1453134Y-60662D02*
X1500462D01*
X1401572Y-9100D02*
X1453134Y-60662D01*
X1401572Y-9100D02*
Y7664D01*
X1409700Y15792D01*
X1421208D01*
X1439400Y-2400D01*
X1599403Y-57358D02*
X1611122Y-45639D01*
X1512641Y-57358D02*
X1599403D01*
X1507183Y-51900D02*
X1512641Y-57358D01*
X1463500Y-51900D02*
X1507183D01*
X1414000Y-2400D02*
X1463500Y-51900D01*
X1439400Y150000D02*
Y157635D01*
X1489665Y207900D01*
X1516000D01*
X2135400Y-2400D02*
X2221992Y-88992D01*
Y-145498D02*
Y-88992D01*
X2212340Y-155150D02*
X2221992Y-145498D01*
X1727454Y-155150D02*
X2212340D01*
X1712214Y-170390D02*
X1727454Y-155150D01*
X1647513Y-170390D02*
X1712214D01*
X1617218Y-200685D02*
X1647513Y-170390D01*
X1512420Y-200685D02*
X1617218D01*
X1510054Y-203050D02*
X1512420Y-200685D01*
X1476750Y-203050D02*
X1510054D01*
X1464400Y-215400D02*
X1476750Y-203050D01*
X1935400Y-2400D02*
X1947750Y9950D01*
X1966468D01*
X1973326Y3092D01*
Y-14688D02*
Y3092D01*
X1911604Y-76410D02*
X1973326Y-14688D01*
X1491742Y-76410D02*
X1911604D01*
X2110000Y-2400D02*
X2122350Y9950D01*
X2166874D01*
X2173224Y3600D01*
Y-21800D02*
Y3600D01*
Y-21800D02*
X2230120Y-78696D01*
Y-157690D02*
Y-78696D01*
X2224278Y-163532D02*
X2230120Y-157690D01*
X1747520Y-163532D02*
X2224278D01*
X1728470Y-182582D02*
X1747520Y-163532D01*
X1646635Y-182582D02*
X1728470D01*
X1620532Y-208685D02*
X1646635Y-182582D01*
X1523043Y-208685D02*
X1620532D01*
X1503978Y-227750D02*
X1523043Y-208685D01*
X1426718Y-227750D02*
X1503978D01*
X1426718D02*
Y-219972D01*
X1422146Y-215400D02*
X1426718Y-219972D01*
X1413600Y-215400D02*
X1422146D01*
X2186200Y-2400D02*
X2272792Y-88992D01*
Y-158706D02*
Y-88992D01*
X2218625Y-212873D02*
X2272792Y-158706D01*
X1767075Y-212873D02*
X2218625D01*
X1735520Y-244427D02*
X1767075Y-212873D01*
X1572937Y-244427D02*
X1735520D01*
X1560576Y-256788D02*
X1572937Y-244427D01*
X1910000Y-2400D02*
X1930350Y17950D01*
X1984376D01*
X1998726Y3600D01*
Y-20022D02*
Y3600D01*
X1918088Y-100660D02*
X1998726Y-20022D01*
X1401198Y-100660D02*
X1918088D01*
X1400556Y-101302D02*
X1401198Y-100660D01*
X1400556Y-121565D02*
Y-101302D01*
X1395971Y-126150D02*
X1400556Y-121565D01*
X1349750Y-126150D02*
X1395971D01*
X1337400Y-113800D02*
X1349750Y-126150D01*
X1434592Y420414D02*
X1447038Y407968D01*
X1877568D01*
X1909318Y376218D01*
X1261200Y-215400D02*
X1273550Y-227750D01*
X1387856D01*
X1395856Y-235750D01*
X1402650D01*
X1410650Y-243750D01*
X1520338D01*
X1539404Y-224685D01*
X1660771D01*
X1675695Y-209760D01*
X1739392D01*
X1751076Y-198076D01*
X2211324D01*
X2237740Y-171660D01*
X1235800Y-215400D02*
X1248150Y-203050D01*
X1261627D01*
X1269627Y-195050D01*
X1502054D01*
X1504420Y-192685D01*
X1613905D01*
X1649915Y-156674D01*
X1967500Y117900D02*
X2037842D01*
X1935400Y150000D02*
X1967500Y117900D01*
X1107440Y-219920D02*
X1115270Y-227750D01*
X1198050D01*
X1210400Y-215400D01*
X1967748Y-249220D02*
X1970278Y-251750D01*
X1772475Y-249220D02*
X1967748D01*
X1732269Y-289426D02*
X1772475Y-249220D01*
X1541362Y-289426D02*
X1732269D01*
X1521772Y-269836D02*
X1541362Y-289426D01*
X1285358Y-269836D02*
X1521772D01*
X1276680Y-261158D02*
X1285358Y-269836D01*
X1211998Y-261158D02*
X1276680D01*
X1209294Y-263862D02*
X1211998Y-261158D01*
X1159600Y-249772D02*
X1377064D01*
X1389128Y-261836D01*
X1529772D01*
X1549362Y-281426D01*
X1726097D01*
X1770839Y-236684D01*
X2036826D01*
X1799336Y-321012D02*
X1849374Y-270974D01*
X1296162Y-321012D02*
X1799336D01*
X1257808Y-282658D02*
X1296162Y-321012D01*
X1124800Y-2400D02*
X1137150Y9950D01*
X1156462D01*
X1163250Y3162D01*
Y-14750D02*
Y3162D01*
Y-14750D02*
X1171571Y-23071D01*
X1202579D01*
X1220808Y-41300D01*
X1233100D01*
X1239900Y-34500D01*
Y-14300D01*
X1302600Y48400D01*
X1081024Y85896D02*
X1163504D01*
X1226400Y23000D01*
X849630Y182924D02*
X859790Y172764D01*
X908050D01*
Y128350D02*
Y172764D01*
Y128350D02*
X962600Y73800D01*
X908050Y197910D02*
X916050Y189910D01*
Y145750D02*
Y189910D01*
Y145750D02*
X962600Y99200D01*
X759400Y54945D02*
Y150000D01*
Y54945D02*
X791345Y23000D01*
X886400D01*
X880654Y79546D02*
X886400Y73800D01*
X834644Y79546D02*
X880654D01*
X1273100Y179500D02*
X1302600Y150000D01*
X1103500Y179500D02*
X1273100D01*
X1074000Y150000D02*
X1103500Y179500D01*
X1642600Y150000D02*
X1664100Y171500D01*
X1798900D01*
X1820400Y150000D01*
X1845400Y279900D02*
X1857540Y267760D01*
X1912060D01*
X1923500Y279200D01*
X1502500Y343400D02*
X1516014Y356914D01*
X1539786D01*
X1553300Y343400D01*
X1248500D02*
X1262014Y356914D01*
X1285786D01*
X1299300Y343400D01*
X1083400Y-88400D02*
X1117802D01*
X1122934Y-83268D01*
X1146810Y-194991D02*
X1154751Y-187050D01*
X1494054D01*
X1496420Y-184685D01*
X1548059D01*
X1561338Y-171406D01*
X1302600Y124600D02*
X1384776Y42424D01*
X1435100D01*
X1452118Y59442D01*
Y154783D01*
X1473147Y175812D01*
X1591388D01*
X1642600Y124600D01*
X934212Y152988D02*
X962600Y124600D01*
X934212Y152988D02*
Y197027D01*
X859632Y124600D02*
X886400D01*
X796798Y61766D02*
X859632Y124600D01*
X1047502Y101898D02*
X1203698D01*
X1226400Y124600D01*
X880200Y-164600D02*
X951350Y-235750D01*
X1385064Y-243750D02*
X1394650D01*
X1402650Y-251750D01*
X1532480D01*
X1551545Y-232684D02*
X1724479D01*
X1728747Y-228416D01*
X1546134Y-238096D02*
X1548638Y-240601D01*
X1377065Y-235750D02*
X1385064Y-243750D01*
X951350Y-235750D02*
X1377065D01*
X1223100Y267200D02*
X1236614Y280714D01*
X1374102D01*
X1432814Y222002D01*
Y177844D02*
Y222002D01*
X1268730Y-61932D02*
X1312000Y-105202D01*
Y-113800D02*
Y-105202D01*
X1531658Y288842D02*
X1553300Y267200D01*
X1387602Y288842D02*
X1531658D01*
X1267094Y234994D02*
X1299300Y267200D01*
X954096Y234994D02*
X1267094D01*
X951012Y238078D02*
X954096Y234994D01*
X638338Y238078D02*
X951012D01*
X591058Y190798D02*
X638338Y238078D01*
X591058Y113700D02*
Y190798D01*
Y113700D02*
X609600D01*
X640204Y83096D01*
Y45866D02*
Y83096D01*
Y45866D02*
X673970Y12100D01*
X695500D01*
X772901Y-65300D01*
X1091806D01*
X1095338Y-61768D01*
X1144434D01*
X1159600Y-76934D01*
Y-113800D02*
Y-76934D01*
X1502500Y267200D02*
X1527594Y242106D01*
X1650238D01*
X830200Y207900D02*
X852378Y230078D01*
X935482D01*
X943012Y222548D01*
X1145752D01*
X1160400Y207900D01*
X962600Y-2400D02*
X982950Y17950D01*
X1162900D01*
X1175600Y5250D01*
Y-2400D02*
Y5250D01*
X603625Y152000D02*
X616261Y164636D01*
X710438D01*
X744679Y198877D01*
X821177D01*
X830200Y207900D01*
X1426300Y343400D02*
X1455814Y372914D01*
X1828586D01*
X1870800Y330700D01*
X1408858Y213442D02*
X1414400Y207900D01*
X1165942Y213442D02*
X1408858D01*
X1160400Y207900D02*
X1165942Y213442D01*
X1898800Y279900D02*
X1923500Y304600D01*
X1870400Y279900D02*
X1898800D01*
X2236104Y61004D02*
X2302600Y127500D01*
X1515600Y-2400D02*
X1541000Y-27800D01*
X1566400D01*
X1674368D02*
X1744200D01*
X2247916Y-226016D02*
X2260400Y-238500D01*
X2139884Y-226016D02*
X2247916D01*
X2127400Y-238500D02*
X2139884Y-226016D01*
X1857939Y318560D02*
X1883918D01*
X1532480Y-251750D02*
X1546134Y-238096D01*
X1551545Y-232684D01*
X1970024Y61004D02*
X2236104D01*
D38*
X1261200Y-113800D02*
D03*
Y-215400D02*
D03*
X1312000Y-113800D02*
D03*
Y-215400D02*
D03*
X1337400Y-113800D02*
D03*
Y-215400D02*
D03*
X1388200Y-113800D02*
D03*
Y-215400D02*
D03*
X1362800Y-113800D02*
D03*
Y-215400D02*
D03*
X1286600D02*
D03*
Y-113800D02*
D03*
X1413600D02*
D03*
Y-215400D02*
D03*
X1464400Y-113800D02*
D03*
Y-215400D02*
D03*
X1489800Y-113800D02*
D03*
Y-215400D02*
D03*
X1439000D02*
D03*
Y-113800D02*
D03*
X1210400D02*
D03*
Y-215400D02*
D03*
X1185000D02*
D03*
Y-113800D02*
D03*
X1235800Y-215400D02*
D03*
Y-113800D02*
D03*
X1134200Y-215400D02*
D03*
Y-113800D02*
D03*
X1159600D02*
D03*
Y-215400D02*
D03*
X1871200Y-27800D02*
D03*
Y-2400D02*
D03*
Y23000D02*
D03*
Y48400D02*
D03*
Y73800D02*
D03*
Y99200D02*
D03*
Y124600D02*
D03*
Y150000D02*
D03*
X2076600Y-238500D02*
D03*
X2127400Y-111500D02*
D03*
Y-238500D02*
D03*
X2209600D02*
D03*
X2260400Y-111500D02*
D03*
Y-238500D02*
D03*
X2302600Y127500D02*
D03*
X1007200Y-215400D02*
D03*
X956400D02*
D03*
X2049400Y347600D02*
D03*
Y246000D02*
D03*
X2100200Y347600D02*
D03*
Y246000D02*
D03*
X576200Y-109600D02*
D03*
X677800D02*
D03*
X576200Y-160400D02*
D03*
X677800D02*
D03*
X830200Y207900D02*
D03*
X728600D02*
D03*
X1160400D02*
D03*
X1058800D02*
D03*
X1414400D02*
D03*
X1516000D02*
D03*
X784800Y150000D02*
D03*
X810200D02*
D03*
X759400D02*
D03*
X734000D02*
D03*
X835600Y-2400D02*
D03*
X810200D02*
D03*
X784800D02*
D03*
X759400D02*
D03*
X734000D02*
D03*
X1124800Y150000D02*
D03*
X1150200D02*
D03*
X1099400D02*
D03*
X1074000D02*
D03*
X1175600Y-2400D02*
D03*
X1150200D02*
D03*
X1124800D02*
D03*
X1099400D02*
D03*
X1074000D02*
D03*
X1464800Y150000D02*
D03*
X1490200D02*
D03*
X1439400D02*
D03*
X1414000D02*
D03*
X1515600Y-2400D02*
D03*
X1490200D02*
D03*
X1464800D02*
D03*
X1439400D02*
D03*
X1414000D02*
D03*
X1910000D02*
D03*
X1935400D02*
D03*
X1960800D02*
D03*
X1986200D02*
D03*
X2011600D02*
D03*
X1910000Y150000D02*
D03*
X1935400D02*
D03*
X1986200D02*
D03*
X1960800D02*
D03*
X2110000Y-2400D02*
D03*
X2135400D02*
D03*
X2160800D02*
D03*
X2186200D02*
D03*
X2211600D02*
D03*
X2110000Y150000D02*
D03*
X2135400D02*
D03*
X2186200D02*
D03*
X2160800D02*
D03*
D39*
X1871200Y175400D02*
D03*
X2076600Y-111500D02*
D03*
X2209600D02*
D03*
X2302600Y152900D02*
D03*
D40*
X835600Y150000D02*
D03*
X1175600D02*
D03*
X1515600D02*
D03*
X2011600D02*
D03*
X2211600D02*
D03*
D41*
X590000Y410000D02*
D03*
X2330000D02*
D03*
Y-260000D02*
D03*
X590000D02*
D03*
D42*
X1426300Y267200D02*
D03*
X1451700D02*
D03*
X1477100D02*
D03*
X1502500D02*
D03*
X1527900D02*
D03*
X1553300D02*
D03*
X1578700D02*
D03*
X1604100D02*
D03*
X1426300Y343400D02*
D03*
X1451700D02*
D03*
X1477100D02*
D03*
X1502500D02*
D03*
X1527900D02*
D03*
X1553300D02*
D03*
X1578700D02*
D03*
X1324700D02*
D03*
X1299300D02*
D03*
X1273900D02*
D03*
X1248500D02*
D03*
X1223100D02*
D03*
X1197700D02*
D03*
X1172300D02*
D03*
X1350100Y267200D02*
D03*
X1324700D02*
D03*
X1299300D02*
D03*
X1273900D02*
D03*
X1248500D02*
D03*
X1223100D02*
D03*
X1197700D02*
D03*
X1172300D02*
D03*
X962600Y-27800D02*
D03*
Y-2400D02*
D03*
Y23000D02*
D03*
Y48400D02*
D03*
Y73800D02*
D03*
Y99200D02*
D03*
Y124600D02*
D03*
Y150000D02*
D03*
X886400Y-27800D02*
D03*
Y-2400D02*
D03*
Y23000D02*
D03*
Y48400D02*
D03*
Y73800D02*
D03*
Y99200D02*
D03*
Y124600D02*
D03*
X1226400D02*
D03*
Y99200D02*
D03*
Y73800D02*
D03*
Y48400D02*
D03*
Y23000D02*
D03*
Y-2400D02*
D03*
Y-27800D02*
D03*
X1302600Y150000D02*
D03*
Y124600D02*
D03*
Y99200D02*
D03*
Y73800D02*
D03*
Y48400D02*
D03*
Y23000D02*
D03*
Y-2400D02*
D03*
Y-27800D02*
D03*
X1566400Y124600D02*
D03*
Y99200D02*
D03*
Y73800D02*
D03*
Y48400D02*
D03*
Y23000D02*
D03*
Y-2400D02*
D03*
Y-27800D02*
D03*
X1642600Y150000D02*
D03*
Y124600D02*
D03*
Y99200D02*
D03*
Y73800D02*
D03*
Y48400D02*
D03*
Y23000D02*
D03*
Y-2400D02*
D03*
Y-27800D02*
D03*
X1744200Y124600D02*
D03*
Y99200D02*
D03*
Y73800D02*
D03*
Y48400D02*
D03*
Y23000D02*
D03*
Y-2400D02*
D03*
Y-27800D02*
D03*
X1820400Y150000D02*
D03*
Y124600D02*
D03*
Y99200D02*
D03*
Y73800D02*
D03*
Y48400D02*
D03*
Y23000D02*
D03*
Y-2400D02*
D03*
Y-27800D02*
D03*
X1083400Y-88400D02*
D03*
X1058000D02*
D03*
X1032600D02*
D03*
X1007200D02*
D03*
X981800D02*
D03*
X956400D02*
D03*
X931000D02*
D03*
X905600D02*
D03*
X880200D02*
D03*
X854800D02*
D03*
X829400D02*
D03*
X804000D02*
D03*
X778600D02*
D03*
X753200D02*
D03*
X1083400Y-164600D02*
D03*
X1058000D02*
D03*
X1032600D02*
D03*
X1007200D02*
D03*
X981800D02*
D03*
X956400D02*
D03*
X931000D02*
D03*
X905600D02*
D03*
X880200D02*
D03*
X854800D02*
D03*
X829400D02*
D03*
X804000D02*
D03*
X778600D02*
D03*
X1274826Y-95968D02*
D03*
X1416304Y-46946D02*
D03*
X1086866Y-19514D02*
D03*
X1111758Y249726D02*
D03*
X1737868Y311956D02*
D03*
X1802130Y211626D02*
D03*
X1707134Y85466D02*
D03*
X1014984Y101898D02*
D03*
X760222Y212388D02*
D03*
X1444498Y386378D02*
D03*
X1103630Y-115018D02*
D03*
X2148332Y-183090D02*
D03*
X1179830Y195370D02*
D03*
X1426464Y60885D02*
D03*
X981710Y-41358D02*
D03*
X1796542Y-140762D02*
D03*
X1625346Y-155150D02*
D03*
X1693418Y137204D02*
D03*
X1262126Y-139656D02*
D03*
X1395405Y416604D02*
D03*
X1999234Y319322D02*
D03*
X1707896Y12096D02*
D03*
X1947926Y181146D02*
D03*
X1788414Y188766D02*
D03*
X1806702Y250742D02*
D03*
X1418082Y382314D02*
D03*
X1870710Y375202D02*
D03*
X603625Y227425D02*
D03*
X2283382Y-267750D02*
D03*
X1207968Y443782D02*
D03*
X1660652Y-60662D02*
D03*
X1611122Y-45639D02*
D03*
X1491742Y-76410D02*
D03*
X1560576Y-256788D02*
D03*
X1434592Y420414D02*
D03*
X1909318Y376218D02*
D03*
X2237740Y-171660D02*
D03*
X1649915Y-156674D02*
D03*
X2037842Y117900D02*
D03*
X1107440Y-219920D02*
D03*
X1970278Y-251750D02*
D03*
X1209294Y-263862D02*
D03*
X1159600Y-249772D02*
D03*
X2036826Y-236684D02*
D03*
X1849374Y-270974D02*
D03*
X1257808Y-282658D02*
D03*
X1081024Y85896D02*
D03*
X849630Y182924D02*
D03*
X908050Y197910D02*
D03*
X834644Y79546D02*
D03*
X1122934Y-83268D02*
D03*
X1146810Y-194991D02*
D03*
X1561338Y-171406D02*
D03*
X934212Y197027D02*
D03*
X796798Y61766D02*
D03*
X1047502Y101898D02*
D03*
X1728747Y-228416D02*
D03*
X1548638Y-240601D02*
D03*
X1432814Y177844D02*
D03*
X1268730Y-61932D02*
D03*
X1387602Y288842D02*
D03*
X1650238Y242106D02*
D03*
X1674368Y-27800D02*
D03*
D43*
X1604100Y343400D02*
D03*
X1350100D02*
D03*
X753200Y-164600D02*
D03*
D44*
X886400Y150000D02*
D03*
X1226400D02*
D03*
X1566400D02*
D03*
X1744200D02*
D03*
D45*
X1923500Y330000D02*
D03*
D46*
Y304600D02*
D03*
Y279200D02*
D03*
M02*
