G04*
G04 #@! TF.GenerationSoftware,Altium Limited,Altium Designer,22.10.1 (41)*
G04*
G04 Layer_Physical_Order=1*
G04 Layer_Color=255*
%FSLAX44Y44*%
%MOMM*%
G71*
G04*
G04 #@! TF.SameCoordinates,1B9686B6-E39C-41AD-B85E-D0C14699C224*
G04*
G04*
G04 #@! TF.FilePolarity,Positive*
G04*
G01*
G75*
%ADD24C,1.4500*%
%ADD25R,1.4500X1.4500*%
%ADD26C,1.3500*%
%ADD27R,1.3500X1.3500*%
%ADD31C,1.3000*%
%ADD32R,1.3000X1.3000*%
%ADD33R,1.2000X1.2000*%
%ADD34C,1.2000*%
%ADD37C,0.4000*%
%ADD38C,1.2700*%
%ADD39R,1.2700X1.2700*%
%ADD40R,1.2700X1.2700*%
%ADD41C,4.0640*%
%ADD42C,1.5000*%
%ADD43R,1.5000X1.5000*%
%ADD44R,1.5000X1.5000*%
%ADD45R,1.6000X1.6000*%
%ADD46C,1.6000*%
D24*
X2202700Y315000D02*
D03*
X2272700D02*
D03*
D25*
X2177300D02*
D03*
X2247300D02*
D03*
D26*
X876000Y274800D02*
D03*
X851000D02*
D03*
X826000D02*
D03*
X801000D02*
D03*
X776000D02*
D03*
X751000D02*
D03*
X726000D02*
D03*
X701000D02*
D03*
X676000D02*
D03*
X651000D02*
D03*
Y351000D02*
D03*
X676000D02*
D03*
X701000D02*
D03*
X726000D02*
D03*
X751000D02*
D03*
X776000D02*
D03*
X801000D02*
D03*
X826000D02*
D03*
X851000D02*
D03*
D27*
X876000D02*
D03*
D31*
X1540600Y-113800D02*
D03*
X1033400Y-262000D02*
D03*
X683000Y177400D02*
D03*
Y152000D02*
D03*
Y126600D02*
D03*
Y101200D02*
D03*
Y75800D02*
D03*
Y50400D02*
D03*
Y25000D02*
D03*
Y-400D02*
D03*
Y-25800D02*
D03*
X603625D02*
D03*
Y-400D02*
D03*
Y25000D02*
D03*
Y50400D02*
D03*
Y75800D02*
D03*
Y101200D02*
D03*
Y126600D02*
D03*
Y152000D02*
D03*
X931800Y-262000D02*
D03*
D32*
X1566000Y-113800D02*
D03*
X1008000Y-262000D02*
D03*
X603625Y177400D02*
D03*
X957200Y-262000D02*
D03*
D33*
X1845800Y330700D02*
D03*
X1845400Y279900D02*
D03*
D34*
X1870800Y330700D02*
D03*
X1870400Y279900D02*
D03*
D37*
X956400Y-215400D02*
Y-164600D01*
X677800Y-160400D02*
Y-109600D01*
X2160800Y-2400D02*
Y150000D01*
X1870400Y279900D02*
Y305098D01*
X1870800Y305498D01*
Y330700D01*
X1871200Y175400D02*
Y227120D01*
X1870400Y227920D02*
X1871200Y227120D01*
X1870400Y227920D02*
Y279900D01*
X1566000Y-113800D02*
Y-71076D01*
X1566400Y-70676D01*
Y-27800D01*
X1806702Y11298D02*
X1820400Y-2400D01*
X1806702Y11298D02*
Y136302D01*
X1820400Y150000D01*
X676000Y184400D02*
X683000Y177400D01*
X676000Y184400D02*
Y274800D01*
X583125Y-5300D02*
X603625Y-25800D01*
X583125Y-5300D02*
Y106100D01*
X603625Y126600D01*
Y50400D02*
X605341Y48684D01*
Y26716D02*
Y48684D01*
X603625Y25000D02*
X605341Y26716D01*
X683000Y126600D02*
X736600D01*
X746506Y136506D01*
Y254294D01*
X726000Y274800D02*
X746506Y254294D01*
X1642600Y150000D02*
Y228700D01*
X1604100Y267200D02*
X1642600Y228700D01*
X1007200Y-235800D02*
Y-215400D01*
Y-235800D02*
X1033400Y-262000D01*
X1299300Y343400D02*
X1350100Y292600D01*
Y267200D02*
Y292600D01*
X1553300Y343400D02*
X1604100Y292600D01*
Y267200D02*
Y292600D01*
X948944Y-80944D02*
X956400Y-88400D01*
X948944Y-80944D02*
Y136344D01*
X962600Y150000D01*
X1175600Y-2400D02*
Y125178D01*
X1163066Y137712D02*
X1175600Y125178D01*
X1163066Y137712D02*
Y191434D01*
X1160400Y194100D02*
X1163066Y191434D01*
X1160400Y194100D02*
Y207900D01*
X1188809Y36209D02*
X1226400Y73800D01*
X1188809Y-7233D02*
Y36209D01*
X1181100Y-14942D02*
X1188809Y-7233D01*
X1163066Y-14942D02*
X1181100D01*
X1163066D02*
Y23920D01*
X1150200Y36786D02*
X1163066Y23920D01*
X1150200Y36786D02*
Y150000D01*
X1302600D02*
Y219700D01*
X1350100Y267200D01*
X1274826Y-95968D02*
X1290230Y-80564D01*
Y-40432D01*
X1281938Y-32140D02*
X1290230Y-40432D01*
X1281938Y-32140D02*
Y224438D01*
X1324700Y267200D01*
X1261200Y-113800D02*
Y-83762D01*
X1268730Y-76232D01*
X1282230D01*
Y-48432D01*
X1273900Y-40102D02*
X1282230Y-48432D01*
X1273900Y-40102D02*
Y267200D01*
X1452006Y-126194D02*
X1464400Y-113800D01*
X1425956Y-126194D02*
X1452006D01*
X1425956D02*
Y-81744D01*
X1416304Y-72092D02*
X1425956Y-81744D01*
X1416304Y-72092D02*
Y-46946D01*
X1086866Y-19514D02*
Y34842D01*
X1111758Y59734D01*
Y249726D01*
X1540256Y125344D02*
X1566400Y99200D01*
X1540256Y125344D02*
Y201244D01*
X1521250Y220250D02*
X1540256Y201244D01*
X1510750Y220250D02*
X1521250D01*
X1503650Y213150D02*
X1510750Y220250D01*
X1503650Y195550D02*
Y213150D01*
Y195550D02*
X1515600Y183600D01*
Y150000D02*
Y183600D01*
X1842195Y146395D02*
X1871200Y175400D01*
X1842195Y95596D02*
Y146395D01*
X1820400Y73800D02*
X1842195Y95596D01*
X1788414Y118014D02*
Y188766D01*
X1744200Y73800D02*
X1788414Y118014D01*
X1411732Y328832D02*
X1426300Y343400D01*
X1411732Y238804D02*
Y328832D01*
Y238804D02*
X1414400Y236136D01*
Y207900D02*
Y236136D01*
X1737868Y311956D02*
X1766062Y283762D01*
X1802130Y169462D02*
Y211626D01*
X1796542Y163874D02*
X1802130Y169462D01*
X1796542Y75342D02*
Y163874D01*
X1744200Y23000D02*
X1796542Y75342D01*
X1707134Y85466D02*
Y142711D01*
X1663954Y185891D02*
X1707134Y142711D01*
X1663954Y185891D02*
Y283546D01*
X1604100Y343400D02*
X1663954Y283546D01*
X1820400Y254900D02*
X1845400Y279900D01*
X1820400Y150000D02*
Y254900D01*
X1099400Y-2400D02*
X1100582Y-3582D01*
Y-28912D02*
Y-3582D01*
X1092200Y-37294D02*
X1100582Y-28912D01*
X1069987Y-37294D02*
X1092200D01*
X1014984Y17709D02*
X1069987Y-37294D01*
X1014984Y17709D02*
Y101898D01*
X759400Y150000D02*
Y211566D01*
X760222Y212388D01*
X1724152Y170048D02*
Y359200D01*
X1444498Y386378D02*
X1696974D01*
X1388200Y-215400D02*
X1477264Y-126336D01*
Y-97872D01*
X1470158Y-90766D02*
X1477264Y-97872D01*
X1470158Y-90766D02*
Y-54872D01*
X1477264Y-47766D01*
X1477100Y267200D02*
X1477264D01*
X1103630Y-115018D02*
X1109434Y-109214D01*
Y-69768D01*
X1217460D01*
X1240028Y-47200D01*
Y136372D01*
X1226400Y150000D02*
X1240028Y136372D01*
X1744200Y-153860D02*
Y-27800D01*
X1715247Y-182813D02*
X1744200Y-153860D01*
X1715247Y-237700D02*
Y-182813D01*
Y-237700D02*
X1721597Y-244050D01*
X1736674D01*
X1850134Y-130590D01*
Y44066D01*
X1820400Y73800D02*
X1850134Y44066D01*
X1426300Y259034D02*
Y267200D01*
Y259034D02*
X1426972Y258362D01*
Y198926D02*
Y258362D01*
X1360424Y132378D02*
X1426972Y198926D01*
X1360424Y-60916D02*
Y132378D01*
X1349756Y-71584D02*
X1360424Y-60916D01*
X1349756Y-203045D02*
Y-71584D01*
X1337400Y-215400D02*
X1349756Y-203045D01*
X1439000Y-113800D02*
X1451864Y-100936D01*
X1451700Y267200D02*
X1451864D01*
X2199250Y162350D02*
X2211600Y150000D01*
X2154682Y162350D02*
X2199250D01*
X2148332Y156000D02*
X2154682Y162350D01*
X2148332Y-183090D02*
Y156000D01*
X944670Y-274530D02*
X957200Y-262000D01*
X919226Y-274530D02*
X944670D01*
X919226D02*
Y-226270D01*
X931000Y-214496D01*
Y-164600D01*
X956400Y-237400D02*
Y-215400D01*
X931800Y-262000D02*
X956400Y-237400D01*
X835600Y-2400D02*
Y53487D01*
X848144Y66031D01*
Y162709D01*
X833419Y177433D02*
X848144Y162709D01*
X833419Y177433D02*
Y185165D01*
X830200Y188384D02*
X833419Y185165D01*
X830200Y188384D02*
Y207900D01*
X886400Y-2400D02*
X920242Y31442D01*
Y130854D01*
X952888Y163500D01*
X968600D01*
X991616Y140484D01*
Y2330D02*
Y140484D01*
Y2330D02*
X1032600Y-38654D01*
Y-88400D02*
Y-38654D01*
X1223302Y-101302D02*
X1235800Y-113800D01*
X1172464Y-101302D02*
X1223302D01*
X1172464Y-146006D02*
Y-101302D01*
Y-146006D02*
X1197864Y-171406D01*
Y-227794D02*
Y-171406D01*
Y-227794D02*
X1230158Y-260088D01*
X1470624D01*
X1515962Y-305426D01*
X1587500D01*
X1600362Y-292564D01*
Y-193088D01*
X1596390Y-189116D02*
X1600362Y-193088D01*
X1596390Y-189116D02*
Y249510D01*
X1578700Y267200D02*
X1596390Y249510D01*
X1172300Y267200D02*
X1179830Y259670D01*
Y195370D02*
Y259670D01*
X1426464Y-15450D02*
Y60885D01*
X1402588Y-39326D02*
X1426464Y-15450D01*
X1402588Y-102788D02*
Y-39326D01*
Y-102788D02*
X1413600Y-113800D01*
X981710Y-41358D02*
X1007200Y-66848D01*
Y-88400D02*
Y-66848D01*
X1820400Y48400D02*
X1842134Y26666D01*
Y-95170D02*
Y26666D01*
X1796542Y-140762D02*
X1842134Y-95170D01*
X1625346Y-155150D02*
X1695868Y-84628D01*
Y3952D01*
X1693418Y6402D02*
X1695868Y3952D01*
X1693418Y6402D02*
Y137204D01*
X1469450Y-235750D02*
X1489800Y-215400D01*
X1343024Y-235750D02*
X1469450D01*
X1335024Y-227750D02*
X1343024Y-235750D01*
X1276560Y-227750D02*
X1335024D01*
X1274064Y-225254D02*
X1276560Y-227750D01*
X1274064Y-225254D02*
Y-151594D01*
X1262126Y-139656D02*
X1274064Y-151594D01*
X981800Y-190000D02*
X1007200Y-215400D01*
X981800Y-190000D02*
Y-164600D01*
X1463586Y356914D02*
X1477100Y343400D01*
X1419352Y356914D02*
X1463586D01*
X1395405Y380861D02*
X1419352Y356914D01*
X1395405Y380861D02*
Y416604D01*
X1999234Y79292D02*
Y319322D01*
X1955800Y35858D02*
X1999234Y79292D01*
X1865630Y35858D02*
X1955800D01*
X1858772Y29000D02*
X1865630Y35858D01*
X1858772Y-15372D02*
Y29000D01*
Y-15372D02*
X1871200Y-27800D01*
Y-2400D02*
X1883664Y-14864D01*
Y-113060D02*
Y-14864D01*
X1737547Y-259177D02*
X1883664Y-113060D01*
X1714500Y-259177D02*
X1737547D01*
X1707247Y-251924D02*
X1714500Y-259177D01*
X1707247Y-251924D02*
Y-163763D01*
X1722374Y-148636D01*
Y1174D01*
X1744200Y23000D01*
X1707896Y-123328D02*
Y12096D01*
X1699247Y-131977D02*
X1707896Y-123328D01*
X1699247Y-258274D02*
Y-131977D01*
Y-258274D02*
X1708150Y-267177D01*
X1758247D01*
X1893316Y-132108D01*
Y884D01*
X1871200Y23000D02*
X1893316Y884D01*
X1858850Y60750D02*
X1871200Y48400D01*
X1858850Y60750D02*
Y105200D01*
X1865200Y111550D01*
X1921764D01*
X1947926Y137712D01*
Y181146D01*
X1766062Y210102D02*
X1806702Y250742D01*
X1744200Y99200D02*
X1766062Y121062D01*
X1871200Y99200D02*
X1959452D01*
X1973326Y113074D01*
Y399078D01*
X1965452Y406952D02*
X1973326Y399078D01*
X1442720Y406952D02*
X1965452D01*
X1418082Y382314D02*
X1442720Y406952D01*
X1418082Y382314D02*
X1427734Y372662D01*
X1639570D01*
X1693418Y318814D01*
Y175382D02*
Y318814D01*
Y175382D02*
X1744200Y124600D01*
X1724152Y170048D02*
X1744200Y150000D01*
X1721993Y361359D02*
X1724152Y170048D01*
X1721993Y361359D02*
X1752600Y391966D01*
X1884426D01*
X1891792Y384600D01*
Y145192D02*
Y384600D01*
X1871200Y124600D02*
X1891792Y145192D01*
X1870710Y375202D02*
X1883664Y362248D01*
Y162464D02*
Y362248D01*
X1871200Y150000D02*
X1883664Y162464D01*
X826000Y274800D02*
X844724Y256076D01*
X896620D01*
X905256Y264712D01*
Y378250D01*
X897890Y385616D02*
X905256Y378250D01*
X624586Y385616D02*
X897890D01*
X563626Y324656D02*
X624586Y385616D01*
X563626Y-114510D02*
Y324656D01*
Y-114510D02*
X584200Y-135084D01*
X609600D01*
X635000Y-109684D01*
Y-23000D01*
X683000Y25000D01*
X656336Y77064D02*
X683000Y50400D01*
X656336Y77064D02*
Y114598D01*
X621792Y149142D02*
X656336Y114598D01*
X621792Y149142D02*
Y362006D01*
X632956Y373170D01*
X897128D01*
Y322116D02*
Y373170D01*
X865886Y290874D02*
X897128Y322116D01*
X817074Y290874D02*
X865886D01*
X801000Y274800D02*
X817074Y290874D01*
X776000Y274800D02*
X797306Y253494D01*
Y139998D02*
Y253494D01*
X781556Y124248D02*
X797306Y139998D01*
X754336Y124248D02*
X781556D01*
X705888Y75800D02*
X754336Y124248D01*
X683000Y75800D02*
X705888D01*
X751000Y274800D02*
X778758Y302558D01*
X858266D01*
X889000Y333292D01*
Y363772D01*
X640842D02*
X889000D01*
X629920Y352850D02*
X640842Y363772D01*
X629920Y154280D02*
Y352850D01*
Y154280D02*
X683000Y101200D01*
Y152000D02*
X701000Y170000D01*
Y274800D01*
X603625Y177400D02*
Y227425D01*
X2272700Y315000D02*
X2314956Y272744D01*
Y-236176D02*
Y272744D01*
X2283382Y-267750D02*
X2314956Y-236176D01*
X854800Y-88400D02*
X872144Y-71056D01*
Y163620D01*
X876208Y167684D01*
X921766D01*
X937608Y183526D01*
X947712D01*
X1207968Y443782D01*
X1642600Y73800D02*
X1660652Y55748D01*
Y-60662D02*
Y55748D01*
X1621100Y77700D02*
X1642600Y99200D01*
X1621100Y-35661D02*
Y77700D01*
X1611122Y-45639D02*
X1621100Y-35661D01*
X1528064Y61336D02*
X1566400Y23000D01*
X1528064Y61336D02*
Y195836D01*
X1516000Y207900D02*
X1528064Y195836D01*
X1491742Y-76410D02*
X1528064Y-112732D01*
Y-170606D02*
Y-112732D01*
Y-170606D02*
X1576362Y-218904D01*
Y-267164D02*
Y-218904D01*
X1562100Y-281426D02*
X1576362Y-267164D01*
X1543004Y-281426D02*
X1562100D01*
X1523931Y-262354D02*
X1543004Y-281426D01*
X1523931Y-262354D02*
Y-224677D01*
X1502156Y-202902D02*
X1523931Y-224677D01*
X1451498Y-202902D02*
X1502156D01*
X1439000Y-215400D02*
X1451498Y-202902D01*
X1534922Y-252686D02*
X1560576Y-256788D01*
X1534922Y-252686D02*
Y-219540D01*
X1510156Y-194774D02*
X1534922Y-219540D01*
X1435100Y-194774D02*
X1510156D01*
X1425956Y-203918D02*
X1435100Y-194774D01*
X1425956Y-227750D02*
Y-203918D01*
X1375150Y-227750D02*
X1425956D01*
X1362800Y-215400D02*
X1375150Y-227750D01*
X1286600Y-215400D02*
X1324864Y-177136D01*
Y-70060D01*
X1348740Y-46184D01*
Y156254D01*
X1401318Y208832D01*
Y303828D01*
X1381760Y323386D02*
X1401318Y303828D01*
X1381760Y323386D02*
Y422700D01*
X1389380Y430320D01*
X1424686D01*
X1434592Y420414D01*
X1909318Y258028D02*
Y376218D01*
Y258028D02*
X1910000Y257346D01*
Y150000D02*
Y257346D01*
X2237740Y-171660D02*
Y98460D01*
X2186200Y150000D02*
X2237740Y98460D01*
X1649915Y-233295D02*
Y-156674D01*
Y-233295D02*
X1701095Y-284474D01*
X1858193D01*
X1862803Y-279864D01*
X1972818D01*
X2015490Y-237192D01*
Y-38816D01*
X2037842Y-16464D01*
Y117900D01*
X2122932Y137532D02*
X2135400Y150000D01*
X2122932Y-66504D02*
Y137532D01*
X2101850Y-87586D02*
X2122932Y-66504D01*
X2101850Y-153372D02*
Y-87586D01*
X2057146Y-198076D02*
X2101850Y-153372D01*
X2057146Y-250400D02*
Y-198076D01*
X1986120Y-321426D02*
X2057146Y-250400D01*
X1175926Y-321426D02*
X1986120D01*
X1107440Y-252940D02*
X1175926Y-321426D01*
X1107440Y-252940D02*
Y-219920D01*
X1985518Y164382D02*
X1986200Y150000D01*
X1985518Y164382D02*
Y333038D01*
X2006600D01*
X2024126Y315512D01*
Y-14180D02*
Y315512D01*
X1970278Y-68028D02*
X2024126Y-14180D01*
X1970278Y-251750D02*
Y-68028D01*
X1185000Y-239568D02*
X1209294Y-263862D01*
X1185000Y-239568D02*
Y-215400D01*
X1159600Y-249772D02*
Y-215400D01*
X2036826Y-236684D02*
Y-37039D01*
X2110000Y36135D01*
Y150000D01*
X2011600Y75148D02*
Y150000D01*
X1973326Y36874D02*
X2011600Y75148D01*
X1973326Y-14688D02*
Y36874D01*
X1931924Y-56090D02*
X1973326Y-14688D01*
X1931924Y-188424D02*
Y-56090D01*
X1849374Y-270974D02*
X1931924Y-188424D01*
X1191006Y-282658D02*
X1257808D01*
X1174242Y-265894D02*
X1191006Y-282658D01*
X1151382Y-265894D02*
X1174242D01*
X1134200Y-248712D02*
X1151382Y-265894D01*
X1134200Y-248712D02*
Y-215400D01*
X1302600Y99200D02*
X1307338Y109138D01*
X1329329Y131129D01*
Y187750D01*
X1363726Y222147D01*
Y358438D01*
X1151890D02*
X1363726D01*
X1046226Y252774D02*
X1151890Y358438D01*
X1046226Y158032D02*
Y252774D01*
Y158032D02*
X1061212Y143046D01*
Y58718D02*
Y143046D01*
Y58718D02*
X1074000Y45930D01*
Y-2400D02*
Y45930D01*
X1099400Y150000D02*
Y167300D01*
X1058800Y207900D02*
X1099400Y167300D01*
X1081024Y131624D02*
X1099400Y150000D01*
X1081024Y85896D02*
Y131624D01*
X1124800Y150000D02*
X1137666Y137134D01*
Y-9100D02*
Y137134D01*
Y-9100D02*
X1151636Y-23070D01*
X1186434D01*
X1210056Y552D01*
Y32056D01*
X1226400Y48400D01*
X1175600Y150000D02*
X1226400Y99200D01*
X759400Y-2400D02*
Y46466D01*
X795020Y82086D01*
X807159D01*
X823214Y66031D01*
Y-9100D02*
Y66031D01*
Y-9100D02*
X830834Y-16720D01*
X841502D01*
X849122Y-9100D01*
Y25024D01*
X856144Y32046D01*
Y176410D01*
X849630Y182924D02*
X856144Y176410D01*
X734000Y-2400D02*
Y45877D01*
X822706Y134583D01*
Y183940D01*
X817626Y189020D02*
X822706Y183940D01*
X817626Y189020D02*
Y219500D01*
X823976Y225850D01*
X880110D01*
X908050Y197910D01*
X824104Y90086D02*
X834644Y79546D01*
X791706Y90086D02*
X824104D01*
X746760Y45140D02*
X791706Y90086D01*
X746760Y-14942D02*
Y45140D01*
X721614Y-14942D02*
X746760D01*
X721614D02*
Y50590D01*
X810200Y139176D01*
Y150000D01*
X706048Y351000D02*
X726000D01*
X638048Y171748D02*
Y283000D01*
Y171748D02*
X670306Y139490D01*
X723490D01*
X734000Y150000D01*
X905600Y-164600D02*
X931000Y-139200D01*
Y-88400D01*
X1122934Y-83268D02*
X1146810Y-107144D01*
Y-194991D02*
Y-107144D01*
X1553210Y-163278D02*
X1561338Y-171406D01*
X1553210Y-163278D02*
Y-101302D01*
X1552702Y-100794D02*
X1553210Y-101302D01*
X1552702Y-100794D02*
Y-16098D01*
X1566400Y-2400D01*
X1058000Y-164600D02*
Y-133648D01*
X1101434Y-90214D01*
Y-61098D01*
X1167701D01*
X1226400Y-2400D01*
X921595Y184410D02*
X934212Y197027D01*
X873564Y184410D02*
X921595D01*
X864144Y174989D02*
X873564Y184410D01*
X864144Y-28256D02*
Y174989D01*
X804000Y-88400D02*
X864144Y-28256D01*
X772160Y37128D02*
X796798Y61766D01*
X772160Y-36532D02*
Y37128D01*
X739648Y-69044D02*
X772160Y-36532D01*
X739648Y-114002D02*
Y-69044D01*
Y-114002D02*
X755650Y-130004D01*
X845604D01*
X880200Y-164600D01*
X886400Y124600D02*
X925058Y159199D01*
X937360Y171500D01*
X977900D01*
X1047502Y101898D01*
X1728747Y-228416D02*
X1768602Y-188562D01*
Y-106890D01*
X1834134Y-41358D01*
Y9266D01*
X1820400Y23000D02*
X1834134Y9266D01*
X1552702Y138298D02*
X1566400Y124600D01*
X1552702Y138298D02*
Y212134D01*
X1536446Y228390D02*
X1552702Y212134D01*
X1504442Y228390D02*
X1536446D01*
X1495552Y219500D02*
X1504442Y228390D01*
X1495552Y180130D02*
Y219500D01*
Y180130D02*
X1503172Y172510D01*
Y-45600D02*
Y172510D01*
X1478242Y-70530D02*
X1503172Y-45600D01*
X1478242Y-82252D02*
Y-70530D01*
Y-82252D02*
X1503172Y-107182D01*
Y-174919D02*
Y-107182D01*
Y-174919D02*
X1548638Y-220385D01*
Y-240601D02*
Y-220385D01*
X1566400Y150000D02*
X1580134Y136266D01*
Y-125362D02*
Y136266D01*
X1575146Y-130350D02*
X1580134Y-125362D01*
X1575146Y-201396D02*
Y-130350D01*
Y-201396D02*
X1584362Y-210612D01*
Y-275800D02*
Y-210612D01*
X1570736Y-289426D02*
X1584362Y-275800D01*
X1535907Y-289426D02*
X1570736D01*
X1515931Y-269450D02*
X1535907Y-289426D01*
X1515931Y-269450D02*
Y-252088D01*
X1507593Y-243750D02*
X1515931Y-252088D01*
X1264366Y-243750D02*
X1507593D01*
X1248410Y-227794D02*
X1264366Y-243750D01*
X1248410Y-227794D02*
Y-89872D01*
X1240028Y-81490D02*
X1248410Y-89872D01*
X1426972Y172002D02*
X1432814Y177844D01*
X1426972Y88182D02*
Y172002D01*
X1392174Y53384D02*
X1426972Y88182D01*
X1392174Y-84426D02*
Y53384D01*
X1362800Y-113800D02*
X1392174Y-84426D01*
X1248500Y-41702D02*
Y267200D01*
Y-41702D02*
X1268730Y-61932D01*
X1387602Y223019D02*
Y288842D01*
X1339032Y174449D02*
X1387602Y223019D01*
X1339032Y125904D02*
Y174449D01*
X1316228Y103100D02*
X1339032Y125904D01*
X1316228Y-84172D02*
Y103100D01*
X1286600Y-113800D02*
X1316228Y-84172D01*
X1185000Y-113800D02*
X1223264Y-152064D01*
Y-225000D02*
Y-152064D01*
Y-225000D02*
X1250014Y-251750D01*
X1478286D01*
X1523962Y-297426D01*
X1574800D01*
X1592362Y-279864D01*
Y-201088D01*
X1588262Y-196988D02*
X1592362Y-201088D01*
X1588262Y-196988D02*
Y206838D01*
X1527900Y267200D02*
X1588262Y206838D01*
X1650238Y242106D02*
X1654556Y237788D01*
Y158286D02*
Y237788D01*
Y158286D02*
X1678686Y134156D01*
Y7448D02*
Y134156D01*
Y7448D02*
X1687868Y-1734D01*
Y-66720D02*
Y-1734D01*
X1608582Y-146006D02*
X1687868Y-66720D01*
X1608582Y-305044D02*
Y-146006D01*
X1600200Y-313426D02*
X1608582Y-305044D01*
X1183674Y-313426D02*
X1600200D01*
X1121664Y-251416D02*
X1183674Y-313426D01*
X1121664Y-251416D02*
Y-126336D01*
X1134200Y-113800D01*
X886400Y-69201D02*
X905600Y-88400D01*
X886400Y-69201D02*
Y-27800D01*
X1157732Y328832D02*
X1172300Y343400D01*
X1157732Y238678D02*
Y328832D01*
Y238678D02*
X1160400Y236010D01*
Y207900D02*
Y236010D01*
X603625Y152000D02*
X616204Y139421D01*
Y113779D02*
Y139421D01*
X603625Y101200D02*
X616204Y113779D01*
X576200Y-109600D02*
X616204Y-69596D01*
Y88621D01*
X603625Y101200D02*
X616204Y88621D01*
X1629100Y-15900D02*
X1642600Y-2400D01*
X1629100Y-59900D02*
Y-15900D01*
Y-59900D02*
X1643578Y-74378D01*
X1666240D01*
X1674368Y-66250D01*
Y-27800D01*
X2302600Y-196300D02*
Y127500D01*
X2260400Y-238500D02*
X2302600Y-196300D01*
X1766062Y121062D02*
Y210102D01*
Y283762D01*
X1696974Y386378D02*
X1721993Y361359D01*
X1724152Y359200D01*
X638048Y283000D02*
X706048Y351000D01*
X1240028Y-81490D02*
Y-47200D01*
X1451864Y-100936D02*
Y267200D01*
X1477264Y-47766D02*
Y267200D01*
D38*
X1261200Y-113800D02*
D03*
Y-215400D02*
D03*
X1312000Y-113800D02*
D03*
Y-215400D02*
D03*
X1337400Y-113800D02*
D03*
Y-215400D02*
D03*
X1388200Y-113800D02*
D03*
Y-215400D02*
D03*
X1362800Y-113800D02*
D03*
Y-215400D02*
D03*
X1286600D02*
D03*
Y-113800D02*
D03*
X1413600D02*
D03*
Y-215400D02*
D03*
X1464400Y-113800D02*
D03*
Y-215400D02*
D03*
X1489800Y-113800D02*
D03*
Y-215400D02*
D03*
X1439000D02*
D03*
Y-113800D02*
D03*
X1210400D02*
D03*
Y-215400D02*
D03*
X1185000D02*
D03*
Y-113800D02*
D03*
X1235800Y-215400D02*
D03*
Y-113800D02*
D03*
X1134200Y-215400D02*
D03*
Y-113800D02*
D03*
X1159600D02*
D03*
Y-215400D02*
D03*
X1871200Y-27800D02*
D03*
Y-2400D02*
D03*
Y23000D02*
D03*
Y48400D02*
D03*
Y73800D02*
D03*
Y99200D02*
D03*
Y124600D02*
D03*
Y150000D02*
D03*
X2076600Y-238500D02*
D03*
X2127400Y-111500D02*
D03*
Y-238500D02*
D03*
X2209600D02*
D03*
X2260400Y-111500D02*
D03*
Y-238500D02*
D03*
X2302600Y127500D02*
D03*
X1007200Y-215400D02*
D03*
X956400D02*
D03*
X2049400Y347600D02*
D03*
Y246000D02*
D03*
X2100200Y347600D02*
D03*
Y246000D02*
D03*
X576200Y-109600D02*
D03*
X677800D02*
D03*
X576200Y-160400D02*
D03*
X677800D02*
D03*
X830200Y207900D02*
D03*
X728600D02*
D03*
X1160400D02*
D03*
X1058800D02*
D03*
X1414400D02*
D03*
X1516000D02*
D03*
X784800Y150000D02*
D03*
X810200D02*
D03*
X759400D02*
D03*
X734000D02*
D03*
X835600Y-2400D02*
D03*
X810200D02*
D03*
X784800D02*
D03*
X759400D02*
D03*
X734000D02*
D03*
X1124800Y150000D02*
D03*
X1150200D02*
D03*
X1099400D02*
D03*
X1074000D02*
D03*
X1175600Y-2400D02*
D03*
X1150200D02*
D03*
X1124800D02*
D03*
X1099400D02*
D03*
X1074000D02*
D03*
X1464800Y150000D02*
D03*
X1490200D02*
D03*
X1439400D02*
D03*
X1414000D02*
D03*
X1515600Y-2400D02*
D03*
X1490200D02*
D03*
X1464800D02*
D03*
X1439400D02*
D03*
X1414000D02*
D03*
X1910000D02*
D03*
X1935400D02*
D03*
X1960800D02*
D03*
X1986200D02*
D03*
X2011600D02*
D03*
X1910000Y150000D02*
D03*
X1935400D02*
D03*
X1986200D02*
D03*
X1960800D02*
D03*
X2110000Y-2400D02*
D03*
X2135400D02*
D03*
X2160800D02*
D03*
X2186200D02*
D03*
X2211600D02*
D03*
X2110000Y150000D02*
D03*
X2135400D02*
D03*
X2186200D02*
D03*
X2160800D02*
D03*
D39*
X1871200Y175400D02*
D03*
X2076600Y-111500D02*
D03*
X2209600D02*
D03*
X2302600Y152900D02*
D03*
D40*
X835600Y150000D02*
D03*
X1175600D02*
D03*
X1515600D02*
D03*
X2011600D02*
D03*
X2211600D02*
D03*
D41*
X590000Y410000D02*
D03*
X2330000D02*
D03*
Y-260000D02*
D03*
X590000D02*
D03*
D42*
X1426300Y267200D02*
D03*
X1451700D02*
D03*
X1477100D02*
D03*
X1502500D02*
D03*
X1527900D02*
D03*
X1553300D02*
D03*
X1578700D02*
D03*
X1604100D02*
D03*
X1426300Y343400D02*
D03*
X1451700D02*
D03*
X1477100D02*
D03*
X1502500D02*
D03*
X1527900D02*
D03*
X1553300D02*
D03*
X1578700D02*
D03*
X1324700D02*
D03*
X1299300D02*
D03*
X1273900D02*
D03*
X1248500D02*
D03*
X1223100D02*
D03*
X1197700D02*
D03*
X1172300D02*
D03*
X1350100Y267200D02*
D03*
X1324700D02*
D03*
X1299300D02*
D03*
X1273900D02*
D03*
X1248500D02*
D03*
X1223100D02*
D03*
X1197700D02*
D03*
X1172300D02*
D03*
X962600Y-27800D02*
D03*
Y-2400D02*
D03*
Y23000D02*
D03*
Y48400D02*
D03*
Y73800D02*
D03*
Y99200D02*
D03*
Y124600D02*
D03*
Y150000D02*
D03*
X886400Y-27800D02*
D03*
Y-2400D02*
D03*
Y23000D02*
D03*
Y48400D02*
D03*
Y73800D02*
D03*
Y99200D02*
D03*
Y124600D02*
D03*
X1226400D02*
D03*
Y99200D02*
D03*
Y73800D02*
D03*
Y48400D02*
D03*
Y23000D02*
D03*
Y-2400D02*
D03*
Y-27800D02*
D03*
X1302600Y150000D02*
D03*
Y124600D02*
D03*
Y99200D02*
D03*
Y73800D02*
D03*
Y48400D02*
D03*
Y23000D02*
D03*
Y-2400D02*
D03*
Y-27800D02*
D03*
X1566400Y124600D02*
D03*
Y99200D02*
D03*
Y73800D02*
D03*
Y48400D02*
D03*
Y23000D02*
D03*
Y-2400D02*
D03*
Y-27800D02*
D03*
X1642600Y150000D02*
D03*
Y124600D02*
D03*
Y99200D02*
D03*
Y73800D02*
D03*
Y48400D02*
D03*
Y23000D02*
D03*
Y-2400D02*
D03*
Y-27800D02*
D03*
X1744200Y124600D02*
D03*
Y99200D02*
D03*
Y73800D02*
D03*
Y48400D02*
D03*
Y23000D02*
D03*
Y-2400D02*
D03*
Y-27800D02*
D03*
X1820400Y150000D02*
D03*
Y124600D02*
D03*
Y99200D02*
D03*
Y73800D02*
D03*
Y48400D02*
D03*
Y23000D02*
D03*
Y-2400D02*
D03*
Y-27800D02*
D03*
X1083400Y-88400D02*
D03*
X1058000D02*
D03*
X1032600D02*
D03*
X1007200D02*
D03*
X981800D02*
D03*
X956400D02*
D03*
X931000D02*
D03*
X905600D02*
D03*
X880200D02*
D03*
X854800D02*
D03*
X829400D02*
D03*
X804000D02*
D03*
X778600D02*
D03*
X753200D02*
D03*
X1083400Y-164600D02*
D03*
X1058000D02*
D03*
X1032600D02*
D03*
X1007200D02*
D03*
X981800D02*
D03*
X956400D02*
D03*
X931000D02*
D03*
X905600D02*
D03*
X880200D02*
D03*
X854800D02*
D03*
X829400D02*
D03*
X804000D02*
D03*
X778600D02*
D03*
X1274826Y-95968D02*
D03*
X1416304Y-46946D02*
D03*
X1086866Y-19514D02*
D03*
X1111758Y249726D02*
D03*
X1737868Y311956D02*
D03*
X1802130Y211626D02*
D03*
X1707134Y85466D02*
D03*
X1014984Y101898D02*
D03*
X760222Y212388D02*
D03*
X1444498Y386378D02*
D03*
X1103630Y-115018D02*
D03*
X2148332Y-183090D02*
D03*
X1179830Y195370D02*
D03*
X1426464Y60885D02*
D03*
X981710Y-41358D02*
D03*
X1796542Y-140762D02*
D03*
X1625346Y-155150D02*
D03*
X1693418Y137204D02*
D03*
X1262126Y-139656D02*
D03*
X1395405Y416604D02*
D03*
X1999234Y319322D02*
D03*
X1707896Y12096D02*
D03*
X1947926Y181146D02*
D03*
X1788414Y188766D02*
D03*
X1806702Y250742D02*
D03*
X1418082Y382314D02*
D03*
X1870710Y375202D02*
D03*
X603625Y227425D02*
D03*
X2283382Y-267750D02*
D03*
X1207968Y443782D02*
D03*
X1660652Y-60662D02*
D03*
X1611122Y-45639D02*
D03*
X1491742Y-76410D02*
D03*
X1560576Y-256788D02*
D03*
X1434592Y420414D02*
D03*
X1909318Y376218D02*
D03*
X2237740Y-171660D02*
D03*
X1649915Y-156674D02*
D03*
X2037842Y117900D02*
D03*
X1107440Y-219920D02*
D03*
X1970278Y-251750D02*
D03*
X1209294Y-263862D02*
D03*
X1159600Y-249772D02*
D03*
X2036826Y-236684D02*
D03*
X1849374Y-270974D02*
D03*
X1257808Y-282658D02*
D03*
X1081024Y85896D02*
D03*
X849630Y182924D02*
D03*
X908050Y197910D02*
D03*
X834644Y79546D02*
D03*
X1122934Y-83268D02*
D03*
X1146810Y-194991D02*
D03*
X1561338Y-171406D02*
D03*
X934212Y197027D02*
D03*
X796798Y61766D02*
D03*
X1047502Y101898D02*
D03*
X1728747Y-228416D02*
D03*
X1548638Y-240601D02*
D03*
X1432814Y177844D02*
D03*
X1268730Y-61932D02*
D03*
X1387602Y288842D02*
D03*
X1650238Y242106D02*
D03*
X1674368Y-27800D02*
D03*
D43*
X1604100Y343400D02*
D03*
X1350100D02*
D03*
X753200Y-164600D02*
D03*
D44*
X886400Y150000D02*
D03*
X1226400D02*
D03*
X1566400D02*
D03*
X1744200D02*
D03*
D45*
X1923500Y330000D02*
D03*
D46*
Y304600D02*
D03*
Y279200D02*
D03*
M02*
