G04*
G04 #@! TF.GenerationSoftware,Altium Limited,Altium Designer,22.10.1 (41)*
G04*
G04 Layer_Physical_Order=2*
G04 Layer_Color=16711680*
%FSLAX44Y44*%
%MOMM*%
G71*
G04*
G04 #@! TF.SameCoordinates,DB828D13-7A9A-4EAE-872F-3ECB7F532A06*
G04*
G04*
G04 #@! TF.FilePolarity,Positive*
G04*
G01*
G75*
%ADD23C,1.4500*%
%ADD24R,1.4500X1.4500*%
%ADD25C,1.3500*%
%ADD26R,1.3500X1.3500*%
%ADD30C,1.3000*%
%ADD31R,1.3000X1.3000*%
%ADD32R,1.2000X1.2000*%
%ADD33C,1.2000*%
%ADD36C,0.7000*%
%ADD37C,1.2700*%
%ADD38R,1.2700X1.2700*%
%ADD39R,1.2700X1.2700*%
%ADD40C,4.0640*%
%ADD41C,1.5000*%
%ADD42R,1.5000X1.5000*%
%ADD43R,1.5000X1.5000*%
%ADD44R,1.6000X1.6000*%
%ADD45C,1.6000*%
D23*
X2202700Y315000D02*
D03*
X2272700D02*
D03*
D24*
X2177300D02*
D03*
X2247300D02*
D03*
D25*
X876000Y274800D02*
D03*
X851000D02*
D03*
X826000D02*
D03*
X801000D02*
D03*
X776000D02*
D03*
X751000D02*
D03*
X726000D02*
D03*
X701000D02*
D03*
X676000D02*
D03*
X651000D02*
D03*
Y351000D02*
D03*
X676000D02*
D03*
X701000D02*
D03*
X726000D02*
D03*
X751000D02*
D03*
X776000D02*
D03*
X801000D02*
D03*
X826000D02*
D03*
X851000D02*
D03*
D26*
X876000D02*
D03*
D30*
X1540600Y-113800D02*
D03*
X1033400Y-262000D02*
D03*
X683000Y177400D02*
D03*
Y152000D02*
D03*
Y126600D02*
D03*
Y101200D02*
D03*
Y75800D02*
D03*
Y50400D02*
D03*
Y25000D02*
D03*
Y-400D02*
D03*
Y-25800D02*
D03*
X603625D02*
D03*
Y-400D02*
D03*
Y25000D02*
D03*
Y50400D02*
D03*
Y75800D02*
D03*
Y101200D02*
D03*
Y126600D02*
D03*
Y152000D02*
D03*
X931800Y-262000D02*
D03*
D31*
X1566000Y-113800D02*
D03*
X1008000Y-262000D02*
D03*
X603625Y177400D02*
D03*
X957200Y-262000D02*
D03*
D32*
X1845800Y330700D02*
D03*
X1845400Y279900D02*
D03*
D33*
X1870800Y330700D02*
D03*
X1870400Y279900D02*
D03*
D36*
X2141408Y-224492D02*
X2182876Y-183024D01*
X960218Y223818D02*
X1217289D01*
X960218D02*
X961488Y225088D01*
X1127760Y165144D02*
X1211326D01*
X876082Y84118D02*
X886400D01*
X1827784Y262680D02*
Y293414D01*
X2027270Y92246D02*
X2187194D01*
X1878154D02*
X2027270D01*
X1827784Y293414D02*
Y321100D01*
X1631330Y370630D02*
X1651650Y390950D01*
X2127400Y-238500D02*
X2141408Y-224492D01*
X2246392D01*
X2260400Y-238500D01*
X1668000Y-27800D02*
X1744200D01*
X1642600Y-2400D02*
X1668000Y-27800D01*
X1515600Y-2400D02*
X1541000Y-27800D01*
X1566400D01*
X1923500Y304600D02*
X2006400D01*
X2049400Y347600D01*
X1895100Y304600D02*
X1923500D01*
X1870400Y279900D02*
X1895100Y304600D01*
X1788922Y-188932D02*
X1855470D01*
X1879600Y-164802D01*
X2142744D01*
X2146808Y-160738D01*
X2175764D01*
X2182876Y-167850D01*
Y-183024D02*
Y-167850D01*
X1154938Y62020D02*
X1165352Y51606D01*
X1091438Y62020D02*
X1154938D01*
X1061974Y91484D02*
X1091438Y62020D01*
X1046480Y91484D02*
X1061974D01*
X1034796Y103168D02*
X1046480Y91484D01*
X1026668Y103168D02*
X1034796D01*
X992378Y68878D02*
X1026668Y103168D01*
X992378Y27378D02*
Y68878D01*
X962600Y-2400D02*
X992378Y27378D01*
X814203Y191903D02*
X830200Y207900D01*
X707654Y191903D02*
X814203D01*
X695805Y203752D02*
X707654Y191903D01*
X655377Y203752D02*
X695805D01*
X603625Y152000D02*
X655377Y203752D01*
X886400Y-27800D02*
X901400Y-12800D01*
Y119124D01*
X976122Y193846D01*
X1091438D01*
X1105492Y207900D01*
X1160400D01*
X874988Y-179788D02*
X957200Y-262000D01*
X646388Y-179788D02*
X874988D01*
X576200Y-109600D02*
X646388Y-179788D01*
X1190831Y-84044D02*
X1580628D01*
X1582674Y-81998D01*
X1201420Y301796D02*
X1242568D01*
X1182878Y283254D02*
X1201420Y301796D01*
X1132586Y283254D02*
X1182878D01*
X1093082Y243750D02*
X1132586Y283254D01*
X794349Y243750D02*
X1093082D01*
X787215Y236616D02*
X794349Y243750D01*
X693259Y236616D02*
X787215D01*
X689258Y232616D02*
X693259Y236616D01*
X570645Y232616D02*
X689258D01*
X550926Y212896D02*
X570645Y232616D01*
X550926Y-161500D02*
Y212896D01*
Y-161500D02*
X581406Y-191980D01*
X806861D01*
X890935Y-276054D01*
X1047496D01*
X1057656Y-265894D01*
X1195846Y187990D02*
X1361680D01*
X1189990Y193846D02*
X1195846Y187990D01*
X1308096Y250596D02*
X1324700Y267200D01*
X1271378Y250596D02*
X1308096D01*
X1257046Y236264D02*
X1271378Y250596D01*
X1578700Y267200D02*
X1621975Y223925D01*
X1694448D01*
X1329486Y-130417D02*
X1347216Y-148148D01*
X1252418Y-130417D02*
X1329486D01*
X1235800Y-113800D02*
X1252418Y-130417D01*
X536702Y309849D02*
X550253Y323400D01*
X846709D01*
X873226Y296884D01*
X1145962D01*
X1151636Y302558D01*
X1426300Y267200D02*
X1441300Y282200D01*
X1618996D01*
X1628102Y273094D01*
X1801281D01*
X1840891Y233484D01*
X1951482D01*
X1976134Y208832D01*
X2109978D01*
X2117598Y201212D01*
X1477100Y267200D02*
X1510223Y234076D01*
X1565303D01*
X1596136Y203244D01*
X1942084D01*
X1954276Y191052D01*
X2005330D01*
X1945369Y-260066D02*
X2005838Y-199597D01*
X1545238Y-260066D02*
X1945369D01*
X1536998Y-251826D02*
X1545238Y-260066D01*
X1157224Y328281D02*
X1174242Y311263D01*
X1157224Y328281D02*
Y393841D01*
X1221389Y458006D01*
X1681988D01*
X1007200Y-88400D02*
X1022350Y-73250D01*
Y32556D01*
X886400Y150000D02*
X960218Y223818D01*
X1217289D02*
X1231046Y210061D01*
X1276866D01*
X1295400Y228595D01*
X1369221D01*
X1373837Y223979D01*
X1429128D01*
X1435163Y217945D01*
X1488891D01*
X1494022Y223076D01*
X1545943D01*
X1557901Y211118D01*
X1722260Y-75140D02*
X1752232Y-45168D01*
X1722120Y-75140D02*
X1722260D01*
X1559814Y-228302D02*
X1576578Y-245066D01*
X1526540Y-228302D02*
X1559814D01*
X1513332Y-241510D02*
X1526540Y-228302D01*
X957110Y-241510D02*
X1513332D01*
X880200Y-164600D02*
X957110Y-241510D01*
X1604518Y-19768D02*
X1629918Y-45168D01*
X1752232D01*
X1820400Y23000D01*
X1017397Y128949D02*
X1031799D01*
X1049978Y110770D01*
X1212570D01*
X1226400Y124600D01*
X878078D02*
X886400D01*
X860552Y142126D02*
X878078Y124600D01*
X860552Y142126D02*
Y216248D01*
X844050Y232750D02*
X860552Y216248D01*
X805350Y232750D02*
X844050D01*
X794386Y221786D02*
X805350Y232750D01*
X704429Y221786D02*
X794386D01*
X704259Y221615D02*
X704429Y221786D01*
X615779Y221615D02*
X704259D01*
X600807Y206644D02*
X615779Y221615D01*
X692912Y-127210D02*
X765190D01*
X541704Y-231858D02*
X688086D01*
X528574Y-218728D02*
X541704Y-231858D01*
X528574Y-218728D02*
Y294849D01*
X521702Y301721D02*
X528574Y294849D01*
X521702Y301721D02*
Y321100D01*
X537196Y336594D01*
X983234D01*
X1006094Y313734D01*
X1073404D01*
X1124966Y167938D02*
X1127760Y165144D01*
X1262056D02*
X1302600Y124600D01*
X1211326Y165144D02*
X1262056D01*
X1200404Y154222D02*
X1211326Y165144D01*
X1181704Y124600D02*
X1200404Y154222D01*
X1064178Y124600D02*
X1181704D01*
X1032397Y156381D02*
X1064178Y124600D01*
X994381Y156381D02*
X1032397D01*
X962600Y124600D02*
X994381Y156381D01*
X1766824Y45624D02*
X1820400Y99200D01*
X1766824Y12998D02*
Y45624D01*
X1762413Y-190550D02*
X1770380Y-182582D01*
X1419898Y-190550D02*
X1762413D01*
X1414150Y-196298D02*
X1419898Y-190550D01*
X1038898Y-196298D02*
X1414150D01*
X1007200Y-164600D02*
X1038898Y-196298D01*
X1910536Y266236D02*
X1923500Y279200D01*
X1859064Y266236D02*
X1910536D01*
X1845400Y279900D02*
X1859064Y266236D01*
X1820400Y-2400D02*
X1860795Y-42796D01*
X1939526D01*
X1960800Y-21521D01*
Y-2400D01*
X1805256Y165144D02*
X1820400Y150000D01*
X1657744Y165144D02*
X1805256D01*
X1642600Y150000D02*
X1657744Y165144D01*
X1921526Y189274D02*
X1960800Y150000D01*
X1859674Y189274D02*
X1921526D01*
X1820400Y150000D02*
X1859674Y189274D01*
X691424Y192576D02*
X734000Y150000D01*
X676245Y192576D02*
X691424D01*
X610270Y126600D02*
X676245Y192576D01*
X603625Y126600D02*
X610270D01*
X863600Y23000D02*
X886400D01*
X759400Y127200D02*
X863600Y23000D01*
X759400Y127200D02*
Y150000D01*
X728600Y207900D02*
X802500D01*
X816350Y221750D01*
X837220D01*
X844296Y214674D01*
Y194100D02*
Y214674D01*
X829310Y179114D02*
X844296Y194100D01*
X788514Y179114D02*
X829310D01*
X759400Y150000D02*
X788514Y179114D01*
X807212Y-21800D02*
X828212Y-42800D01*
X901446D01*
X913130Y-31116D01*
Y49730D01*
X962600Y99200D01*
X941070Y1470D02*
X962600Y23000D01*
X941070Y-41866D02*
Y1470D01*
X914400Y-68536D02*
X941070Y-41866D01*
X743712Y-68536D02*
X914400D01*
X708914Y-33738D02*
X743712Y-68536D01*
X708914Y-33738D02*
Y8172D01*
X723900Y23158D01*
X784642D01*
X810200Y-2400D01*
X1241538Y38138D02*
X1302600Y99200D01*
X1241538Y-34500D02*
Y38138D01*
X1233238Y-42800D02*
X1241538Y-34500D01*
X1114400Y-42800D02*
X1233238D01*
X1074000Y-2400D02*
X1114400Y-42800D01*
X1302600Y73800D02*
X1317752Y58648D01*
Y-42882D02*
Y58648D01*
X1306830Y-53804D02*
X1317752Y-42882D01*
X1095248Y-53804D02*
X1306830D01*
X1060150Y-18706D02*
X1095248Y-53804D01*
X1060150Y-18706D02*
Y4800D01*
X1066800Y11450D01*
X1085550D01*
X1099400Y-2400D01*
X1099949Y22450D02*
X1124800Y-2400D01*
X1060450Y22450D02*
X1099949D01*
X1049149Y11150D02*
X1060450Y22450D01*
X1049149Y-25231D02*
Y11150D01*
Y-25231D02*
X1092962Y-69044D01*
X1252474D01*
X1256538Y-11640D02*
Y2338D01*
X1302600Y48400D01*
X1292233Y199061D02*
X1306576Y213404D01*
X1215255Y199061D02*
X1292233D01*
X1211326Y202990D02*
X1215255Y199061D01*
X2011600Y150000D02*
X2036396Y174796D01*
X2148078D01*
X2160016Y186734D01*
X1245146Y-326346D02*
X2217928D01*
X1291374Y-347174D02*
X2338324D01*
X2384298Y-301200D01*
Y-205188D01*
X2319020Y-139910D02*
X2384298Y-205188D01*
X1964597Y-271066D02*
X1978660Y-257004D01*
X1240667Y-271066D02*
X1964597D01*
X1235800Y-215400D02*
X1250226Y-229826D01*
X1500124D01*
X1512824Y-217126D01*
X1896110D01*
X1910000Y150000D02*
X1935242Y124758D01*
X2119884D01*
X2125980Y118662D01*
X1986200Y-17816D02*
Y-2400D01*
X1913744Y-90272D02*
X1986200Y-17816D01*
X1613262Y-90272D02*
X1913744D01*
X1575734Y-127800D02*
X1613262Y-90272D01*
X1402200Y-127800D02*
X1575734D01*
X1388200Y-113800D02*
X1402200Y-127800D01*
X1996440Y-175978D02*
X2167636D01*
X1980781Y-191637D02*
X1996440Y-175978D01*
X1879660Y-191637D02*
X1980781D01*
X1867349Y-203949D02*
X1879660Y-191637D01*
X1773817Y-203949D02*
X1867349D01*
X1771417Y-201550D02*
X1773817Y-203949D01*
X1427450Y-201550D02*
X1771417D01*
X1413600Y-215400D02*
X1427450Y-201550D01*
X1642600Y73800D02*
X1679194Y37206D01*
X805688Y-216110D02*
X882142Y-292564D01*
X2229104D01*
X2274316Y-247352D01*
Y-204680D01*
X2226818Y-157182D02*
X2274316Y-204680D01*
X2226818Y-157182D02*
Y-98000D01*
X2096283Y-91817D02*
X2226818Y-98000D01*
X2076600Y-111500D02*
X2096283Y-91817D01*
X2049400Y246000D02*
X2118400Y315000D01*
X2177300D01*
X1019302Y341166D02*
Y362502D01*
X1130300Y473500D01*
X2202700D01*
X2100200Y246000D02*
X2178300D01*
X2247300Y315000D01*
X2257298Y-67520D02*
X2338578Y13760D01*
X2056892Y-67520D02*
X2257298D01*
X1983232Y-141180D02*
X2056892Y-67520D01*
X1607566Y-141180D02*
X1983232D01*
X1592326Y-156420D02*
X1607566Y-141180D01*
X1372870Y-156420D02*
X1592326D01*
X1366142Y-163148D02*
X1372870Y-156420D01*
X1136012Y-163148D02*
X1366142D01*
X1110756Y-137892D02*
X1136012Y-163148D01*
X878892Y-137892D02*
X1110756D01*
X860082Y-119082D02*
X878892Y-137892D01*
X585807Y274800D02*
X651000D01*
X701000D02*
X731044Y304844D01*
X834136D01*
X786892Y62782D02*
X815340Y34334D01*
X772218Y62782D02*
X786892D01*
X683000Y152000D02*
X772218Y62782D01*
X857022Y255822D02*
X876000Y274800D01*
X736170Y255822D02*
X857022D01*
X727964Y247616D02*
X736170Y255822D01*
X686244Y247616D02*
X727964D01*
X682244Y243616D02*
X686244Y247616D01*
X548118Y243616D02*
X682244D01*
X539750Y235248D02*
X548118Y243616D01*
X539750Y-174200D02*
Y235248D01*
Y-174200D02*
X573278Y-207728D01*
X732536D01*
X1197700Y343400D02*
X1293256Y438956D01*
X2081276D01*
X2078024Y110738D02*
X2081276Y107486D01*
X1910462Y110738D02*
X2078024D01*
X1871200Y150000D02*
X1910462Y110738D01*
X1683571Y310178D02*
X1810766D01*
X1678610Y305217D02*
X1683571Y310178D01*
X1418739Y305217D02*
X1678610D01*
X1413982Y309974D02*
X1418739Y305217D01*
X1383526Y309974D02*
X1413982D01*
X1350100Y343400D02*
X1383526Y309974D01*
X1324700Y343400D02*
Y353194D01*
X1329944Y358438D01*
X1379474D01*
X1409700Y328212D01*
X1420578D01*
X1432573Y316217D01*
X1662119D01*
X1673352Y327450D01*
X1821434D01*
X1827784Y321100D01*
Y262680D02*
X1845818Y244646D01*
X1985010Y230676D02*
X2184400D01*
X2225548Y189528D01*
X2187194Y92246D02*
X2225548Y130600D01*
X1871200Y99200D02*
X1878154Y92246D01*
X1827022Y293414D02*
X1827784D01*
X1845818Y244646D02*
X1971040D01*
X1985010Y230676D01*
X2225548Y130600D02*
Y189528D01*
X1871200Y99200D02*
X2027270Y92246D01*
X1408755Y293200D02*
X1771570D01*
X1402982Y298974D02*
X1408755Y293200D01*
X1267526Y298974D02*
X1402982D01*
X1223100Y343400D02*
X1267526Y298974D01*
X1871200Y23000D02*
X1928000Y79800D01*
X2291080D01*
X2316480Y105200D01*
Y344721D01*
X2270251Y390950D02*
X2316480Y344721D01*
X1651650Y390950D02*
X2270251D01*
X1604100Y343400D02*
X1631330Y370630D01*
X1800606D01*
X1871200Y-2400D02*
X1926730Y53130D01*
X2300986D01*
X2327656Y79800D01*
Y355390D01*
X2278888Y404158D02*
X2327656Y355390D01*
X1609090Y404158D02*
X2278888D01*
X1578700Y373768D02*
X1609090Y404158D01*
X1578700Y343400D02*
Y373768D01*
X1664434Y77366D02*
Y101500D01*
Y77366D02*
X1744200Y-2400D01*
X2302600Y152900D02*
Y329651D01*
X2291500Y340750D02*
X2302600Y329651D01*
X2276510Y340750D02*
X2291500D01*
X2249424Y367836D02*
X2276510Y340750D01*
X1961336Y367836D02*
X2249424D01*
X1923500Y330000D02*
X1961336Y367836D01*
X1845800Y330700D02*
X1859463Y317036D01*
X1910536D01*
X1923500Y330000D01*
X1363002Y282200D02*
X1395222Y249980D01*
X1238100Y282200D02*
X1363002D01*
X1223100Y267200D02*
X1238100Y282200D01*
X1215636Y88436D02*
X1226400Y99200D01*
X1142746Y88436D02*
X1215636D01*
X1135634Y95548D02*
X1142746Y88436D01*
X1387856Y283762D02*
X1420114Y251504D01*
X1471422D01*
X1486154Y236772D01*
X1585468Y29254D02*
Y132632D01*
X1445081Y234980D02*
X1447100Y232961D01*
X1380222Y234980D02*
X1445081D01*
X1375606Y239596D02*
X1380222Y234980D01*
X1282700Y239596D02*
X1375606D01*
X1264166Y221062D02*
X1282700Y239596D01*
X1243838Y221062D02*
X1264166D01*
X1197700Y267200D02*
X1243838Y221062D01*
X1475778Y-99778D02*
X1489800Y-113800D01*
X1120394Y-99778D02*
X1475778D01*
X1116598Y-103574D02*
X1120394Y-99778D01*
X691642Y-103574D02*
X1116598D01*
X643382Y-55314D02*
X691642Y-103574D01*
X643382Y-55314D02*
Y36043D01*
X603625Y75800D02*
X643382Y36043D01*
X1175600Y-2400D02*
X1201000D01*
X1226400Y-27800D01*
X1342644Y7664D02*
X1375156Y-24848D01*
X1493152D01*
X1515600Y-2400D01*
X1302600Y150000D02*
X1312307Y140293D01*
X1404293D01*
X1414000Y150000D01*
X1340358Y169208D02*
X1375708D01*
X1414400Y207900D01*
X1214429Y36430D02*
X1226400Y48400D01*
X1149291Y36430D02*
X1214429D01*
X1137320Y48400D02*
X1149291Y36430D01*
X1078834Y48400D02*
X1137320D01*
X1051017Y76217D02*
X1078834Y48400D01*
X1143343Y23000D02*
X1226400D01*
X1132893Y33451D02*
X1143343Y23000D01*
X1062390Y33451D02*
X1132893D01*
X1028700Y67141D02*
X1062390Y33451D01*
X1028700Y67141D02*
Y79300D01*
X962600Y150000D02*
X992950Y180349D01*
X1043650D01*
X1074000Y150000D01*
X1275610Y176989D02*
X1302600Y150000D01*
X1140037Y176989D02*
X1275610D01*
X1134089Y182938D02*
X1140037Y176989D01*
X1106938Y182938D02*
X1134089D01*
X1074000Y150000D02*
X1106938Y182938D01*
X961488Y225088D02*
X1205230D01*
X1871200Y-27800D02*
X1878978Y-20022D01*
X1929384D01*
X1941352Y-101272D02*
X1944624Y-98000D01*
X1621638Y-101272D02*
X1941352D01*
X1584109Y-138800D02*
X1621638Y-101272D01*
X1362401Y-138800D02*
X1584109D01*
X1337400Y-113800D02*
X1362401Y-138800D01*
X2242058Y-120860D02*
X2289556Y-168358D01*
Y-278848D02*
Y-168358D01*
X2260600Y-307804D02*
X2289556Y-278848D01*
X1516888Y-307804D02*
X2260600D01*
X709816Y258616D02*
X726000Y274800D01*
X667258Y258616D02*
X709816D01*
X617728Y-49528D02*
X677800Y-109600D01*
X617728Y-49528D02*
Y-14503D01*
X603625Y-400D02*
X617728Y-14503D01*
X2171751Y-111500D02*
X2209600D01*
X2130734Y-152518D02*
X2171751Y-111500D01*
X1750046Y-152518D02*
X2130734D01*
X1734014Y-168549D02*
X1750046Y-152518D01*
X1397748Y-168549D02*
X1734014D01*
X1392149Y-174148D02*
X1397748Y-168549D01*
X1115478Y-174148D02*
X1392149D01*
X1090392Y-149063D02*
X1115478Y-174148D01*
X870338Y-149063D02*
X1090392D01*
X854800Y-164600D02*
X870338Y-149063D01*
X876300Y48400D02*
X886400D01*
X784800Y139900D02*
X876300Y48400D01*
X784800Y139900D02*
Y150000D01*
X1840748Y-163518D02*
X1846350Y-169120D01*
X1765046Y-163518D02*
X1840748D01*
X1749014Y-179549D02*
X1765046Y-163518D01*
X1408748Y-179549D02*
X1749014D01*
X1403149Y-185148D02*
X1408748Y-179549D01*
X1103948Y-185148D02*
X1403149D01*
X1083400Y-164600D02*
X1103948Y-185148D01*
X929894Y15694D02*
X962600Y48400D01*
X929894Y-31706D02*
Y15694D01*
X907796Y-53804D02*
X929894Y-31706D01*
X798460Y-53804D02*
X907796D01*
X784800Y-40144D02*
X798460Y-53804D01*
X784800Y-40144D02*
Y-2400D01*
X1081024Y-122892D02*
X1121664D01*
X1146810Y-148038D01*
X1309370D01*
X1581404Y160396D02*
X1642600Y99200D01*
X1581404Y160396D02*
Y165000D01*
X1551400D02*
X1581404D01*
X1551400Y124504D02*
Y165000D01*
X1527320Y100425D02*
X1551400Y124504D01*
X1499413Y100425D02*
X1527320D01*
X1414000Y15012D02*
X1499413Y100425D01*
X1414000Y-2400D02*
Y15012D01*
X1514602Y83610D02*
X1524412Y73800D01*
X1566400D01*
X861000Y-2400D02*
X886400Y-27800D01*
X835600Y-2400D02*
X861000D01*
X2100252Y-37548D02*
X2135400Y-2400D01*
X1989328Y-37548D02*
X2100252D01*
X1964690Y-62186D02*
X1989328Y-37548D01*
X1964690Y-115272D02*
Y-62186D01*
X1954276Y-125686D02*
X1964690Y-115272D01*
X1695450Y-125686D02*
X1954276D01*
X2287450Y142650D02*
X2302600Y127500D01*
X2287450Y142650D02*
Y321950D01*
X2279650Y329750D02*
X2287450Y321950D01*
X2118050Y329750D02*
X2279650D01*
X2100200Y347600D02*
X2118050Y329750D01*
X2146641Y135842D02*
X2160800Y150000D01*
X1974959Y135842D02*
X2146641D01*
X1960800Y150000D02*
X1974959Y135842D01*
X2006092Y-52788D02*
X2135812D01*
X2186200Y-2400D01*
X1426300Y343400D02*
X1442482Y327217D01*
X1656609D01*
X1674021Y344630D01*
X1856870D01*
X1870800Y330700D01*
X1475164Y370735D02*
X1502500Y343400D01*
X1326635Y370735D02*
X1475164D01*
X1299300Y343400D02*
X1326635Y370735D01*
X562102Y-146302D02*
X576200Y-160400D01*
X562102Y-146302D02*
Y-16523D01*
X603625Y25000D01*
X1692052Y73800D02*
X1744200D01*
X1679448Y86404D02*
X1692052Y73800D01*
X1172300Y343400D02*
X1232804Y403904D01*
X886400Y73800D02*
Y84118D01*
X810200Y150000D02*
X876082Y84118D01*
X835600Y150000D02*
X886400Y99200D01*
X1318910Y388410D02*
X1411300D01*
X1273900Y343400D02*
X1318910Y388410D01*
X1489800Y-113800D02*
X1495088Y-108511D01*
X1535311D01*
X1540600Y-113800D01*
X1566400Y-27800D02*
X1591800Y-2400D01*
X1642600D01*
X1302600Y124600D02*
X1524000D01*
X1540399Y140999D01*
Y176000D01*
X1591199D01*
X1642600Y124600D01*
X1555828Y58972D02*
X1566400Y48400D01*
X1495044Y58972D02*
X1555828D01*
X1102293Y73800D02*
X1226400D01*
X1088147Y87947D02*
X1102293Y73800D01*
X1439400Y150000D02*
X1497300Y207900D01*
X1516000D01*
X1845800Y150000D02*
X1871200D01*
X1820400Y124600D02*
X1845800Y150000D01*
X1284112Y328212D02*
X1299300Y343400D01*
X1263688Y328212D02*
X1284112D01*
X1248500Y343400D02*
X1263688Y328212D01*
X1502500Y343400D02*
Y410000D01*
X1516978Y424478D01*
X1538822D01*
X1553300Y410000D01*
Y343400D02*
Y410000D01*
X2049400Y347600D02*
X2100200D01*
X957200Y-262000D02*
X1008000D01*
X801000Y351000D02*
X826000D01*
X851000D01*
X876000D01*
X931000Y-88400D02*
X956400D01*
X776000Y351000D02*
X801000D01*
X751000D02*
X776000D01*
X726000D02*
X751000D01*
X651000D02*
X676000D01*
X701000D02*
X726000D01*
X676000D02*
X701000D01*
D37*
X1261200Y-113800D02*
D03*
Y-215400D02*
D03*
X1312000Y-113800D02*
D03*
Y-215400D02*
D03*
X1337400Y-113800D02*
D03*
Y-215400D02*
D03*
X1388200Y-113800D02*
D03*
Y-215400D02*
D03*
X1362800Y-113800D02*
D03*
Y-215400D02*
D03*
X1286600D02*
D03*
Y-113800D02*
D03*
X1413600D02*
D03*
Y-215400D02*
D03*
X1464400Y-113800D02*
D03*
Y-215400D02*
D03*
X1489800Y-113800D02*
D03*
Y-215400D02*
D03*
X1439000D02*
D03*
Y-113800D02*
D03*
X1210400D02*
D03*
Y-215400D02*
D03*
X1185000D02*
D03*
Y-113800D02*
D03*
X1235800Y-215400D02*
D03*
Y-113800D02*
D03*
X1134200Y-215400D02*
D03*
Y-113800D02*
D03*
X1159600D02*
D03*
Y-215400D02*
D03*
X1871200Y-27800D02*
D03*
Y-2400D02*
D03*
Y23000D02*
D03*
Y48400D02*
D03*
Y73800D02*
D03*
Y99200D02*
D03*
Y124600D02*
D03*
Y150000D02*
D03*
X2076600Y-238500D02*
D03*
X2127400Y-111500D02*
D03*
Y-238500D02*
D03*
X2209600D02*
D03*
X2260400Y-111500D02*
D03*
Y-238500D02*
D03*
X2302600Y127500D02*
D03*
X1007200Y-215400D02*
D03*
X956400D02*
D03*
X2049400Y347600D02*
D03*
Y246000D02*
D03*
X2100200Y347600D02*
D03*
Y246000D02*
D03*
X576200Y-109600D02*
D03*
X677800D02*
D03*
X576200Y-160400D02*
D03*
X677800D02*
D03*
X830200Y207900D02*
D03*
X728600D02*
D03*
X1160400D02*
D03*
X1058800D02*
D03*
X1414400D02*
D03*
X1516000D02*
D03*
X784800Y150000D02*
D03*
X810200D02*
D03*
X759400D02*
D03*
X734000D02*
D03*
X835600Y-2400D02*
D03*
X810200D02*
D03*
X784800D02*
D03*
X759400D02*
D03*
X734000D02*
D03*
X1124800Y150000D02*
D03*
X1150200D02*
D03*
X1099400D02*
D03*
X1074000D02*
D03*
X1175600Y-2400D02*
D03*
X1150200D02*
D03*
X1124800D02*
D03*
X1099400D02*
D03*
X1074000D02*
D03*
X1464800Y150000D02*
D03*
X1490200D02*
D03*
X1439400D02*
D03*
X1414000D02*
D03*
X1515600Y-2400D02*
D03*
X1490200D02*
D03*
X1464800D02*
D03*
X1439400D02*
D03*
X1414000D02*
D03*
X1910000D02*
D03*
X1935400D02*
D03*
X1960800D02*
D03*
X1986200D02*
D03*
X2011600D02*
D03*
X1910000Y150000D02*
D03*
X1935400D02*
D03*
X1986200D02*
D03*
X1960800D02*
D03*
X2110000Y-2400D02*
D03*
X2135400D02*
D03*
X2160800D02*
D03*
X2186200D02*
D03*
X2211600D02*
D03*
X2110000Y150000D02*
D03*
X2135400D02*
D03*
X2186200D02*
D03*
X2160800D02*
D03*
D38*
X1871200Y175400D02*
D03*
X2076600Y-111500D02*
D03*
X2209600D02*
D03*
X2302600Y152900D02*
D03*
D39*
X835600Y150000D02*
D03*
X1175600D02*
D03*
X1515600D02*
D03*
X2011600D02*
D03*
X2211600D02*
D03*
D40*
X590000Y410000D02*
D03*
X2330000D02*
D03*
Y-260000D02*
D03*
X590000D02*
D03*
D41*
X1426300Y267200D02*
D03*
X1451700D02*
D03*
X1477100D02*
D03*
X1502500D02*
D03*
X1527900D02*
D03*
X1553300D02*
D03*
X1578700D02*
D03*
X1604100D02*
D03*
X1426300Y343400D02*
D03*
X1451700D02*
D03*
X1477100D02*
D03*
X1502500D02*
D03*
X1527900D02*
D03*
X1553300D02*
D03*
X1578700D02*
D03*
X1324700D02*
D03*
X1299300D02*
D03*
X1273900D02*
D03*
X1248500D02*
D03*
X1223100D02*
D03*
X1197700D02*
D03*
X1172300D02*
D03*
X1350100Y267200D02*
D03*
X1324700D02*
D03*
X1299300D02*
D03*
X1273900D02*
D03*
X1248500D02*
D03*
X1223100D02*
D03*
X1197700D02*
D03*
X1172300D02*
D03*
X962600Y-27800D02*
D03*
Y-2400D02*
D03*
Y23000D02*
D03*
Y48400D02*
D03*
Y73800D02*
D03*
Y99200D02*
D03*
Y124600D02*
D03*
Y150000D02*
D03*
X886400Y-27800D02*
D03*
Y-2400D02*
D03*
Y23000D02*
D03*
Y48400D02*
D03*
Y73800D02*
D03*
Y99200D02*
D03*
Y124600D02*
D03*
X1226400D02*
D03*
Y99200D02*
D03*
Y73800D02*
D03*
Y48400D02*
D03*
Y23000D02*
D03*
Y-2400D02*
D03*
Y-27800D02*
D03*
X1302600Y150000D02*
D03*
Y124600D02*
D03*
Y99200D02*
D03*
Y73800D02*
D03*
Y48400D02*
D03*
Y23000D02*
D03*
Y-2400D02*
D03*
Y-27800D02*
D03*
X1566400Y124600D02*
D03*
Y99200D02*
D03*
Y73800D02*
D03*
Y48400D02*
D03*
Y23000D02*
D03*
Y-2400D02*
D03*
Y-27800D02*
D03*
X1642600Y150000D02*
D03*
Y124600D02*
D03*
Y99200D02*
D03*
Y73800D02*
D03*
Y48400D02*
D03*
Y23000D02*
D03*
Y-2400D02*
D03*
Y-27800D02*
D03*
X1744200Y124600D02*
D03*
Y99200D02*
D03*
Y73800D02*
D03*
Y48400D02*
D03*
Y23000D02*
D03*
Y-2400D02*
D03*
Y-27800D02*
D03*
X1820400Y150000D02*
D03*
Y124600D02*
D03*
Y99200D02*
D03*
Y73800D02*
D03*
Y48400D02*
D03*
Y23000D02*
D03*
Y-2400D02*
D03*
Y-27800D02*
D03*
X1083400Y-88400D02*
D03*
X1058000D02*
D03*
X1032600D02*
D03*
X1007200D02*
D03*
X981800D02*
D03*
X956400D02*
D03*
X931000D02*
D03*
X905600D02*
D03*
X880200D02*
D03*
X854800D02*
D03*
X829400D02*
D03*
X804000D02*
D03*
X778600D02*
D03*
X753200D02*
D03*
X1083400Y-164600D02*
D03*
X1058000D02*
D03*
X1032600D02*
D03*
X1007200D02*
D03*
X981800D02*
D03*
X956400D02*
D03*
X931000D02*
D03*
X905600D02*
D03*
X880200D02*
D03*
X854800D02*
D03*
X829400D02*
D03*
X804000D02*
D03*
X778600D02*
D03*
X1788922Y-188932D02*
D03*
X1165352Y51606D02*
D03*
X1190831Y-84044D02*
D03*
X1582674Y-81998D02*
D03*
X1242568Y301796D02*
D03*
X1057656Y-265894D02*
D03*
X1361680Y187990D02*
D03*
X1189990Y193846D02*
D03*
X1257046Y236264D02*
D03*
X1694448Y223925D02*
D03*
X1347216Y-148148D02*
D03*
X536702Y309849D02*
D03*
X1151636Y302558D02*
D03*
X2117598Y201212D02*
D03*
X2005330Y191052D02*
D03*
X2005838Y-199597D02*
D03*
X1536998Y-251826D02*
D03*
X1174242Y311263D02*
D03*
X1681988Y458006D02*
D03*
X1022350Y32556D02*
D03*
X1557901Y211118D02*
D03*
X1722120Y-75140D02*
D03*
X1576578Y-245066D02*
D03*
X1604518Y-19768D02*
D03*
X1017397Y128949D02*
D03*
X600807Y206644D02*
D03*
X765190Y-127210D02*
D03*
X692912D02*
D03*
X688086Y-231858D02*
D03*
X1073404Y313734D02*
D03*
X1124966Y167938D02*
D03*
X1766824Y12998D02*
D03*
X1770380Y-182582D02*
D03*
X807212Y-21800D02*
D03*
X1252474Y-69044D02*
D03*
X1256538Y-11640D02*
D03*
X1306576Y213404D02*
D03*
X1211326Y202990D02*
D03*
X2160016Y186734D02*
D03*
X2217928Y-326346D02*
D03*
X1245146D02*
D03*
X1291374Y-347174D02*
D03*
X2319020Y-139910D02*
D03*
X1978660Y-257004D02*
D03*
X1240667Y-271066D02*
D03*
X1896110Y-217126D02*
D03*
X2125980Y118662D02*
D03*
X2167636Y-175978D02*
D03*
X1679194Y37206D02*
D03*
X805688Y-216110D02*
D03*
X1019302Y341166D02*
D03*
X2202700Y473500D02*
D03*
X2338578Y13760D02*
D03*
X860082Y-119082D02*
D03*
X585807Y274800D02*
D03*
X834136Y304844D02*
D03*
X815340Y34334D02*
D03*
X732536Y-207728D02*
D03*
X2081276Y438956D02*
D03*
Y107486D02*
D03*
X1810766Y310178D02*
D03*
X1827022Y293414D02*
D03*
X1771570Y293200D02*
D03*
X1800606Y370630D02*
D03*
X1664434Y101500D02*
D03*
X1395222Y249980D02*
D03*
X1135634Y95548D02*
D03*
X1387856Y283762D02*
D03*
X1486154Y236772D02*
D03*
X1585468Y132632D02*
D03*
Y29254D02*
D03*
X1447100Y232961D02*
D03*
X1342644Y7664D02*
D03*
X1340358Y169208D02*
D03*
X1051017Y76217D02*
D03*
X1028700Y79300D02*
D03*
X1205230Y225088D02*
D03*
X1929384Y-20022D02*
D03*
X1944624Y-98000D02*
D03*
X2242058Y-120860D02*
D03*
X1516888Y-307804D02*
D03*
X667258Y258616D02*
D03*
X1846350Y-169120D02*
D03*
X1081024Y-122892D02*
D03*
X1309370Y-148038D02*
D03*
X1514602Y83610D02*
D03*
X1695450Y-125686D02*
D03*
X2006092Y-52788D02*
D03*
X1679448Y86404D02*
D03*
X1232804Y403904D02*
D03*
X1411300Y388410D02*
D03*
X1495044Y58972D02*
D03*
X1088147Y87947D02*
D03*
D42*
X1604100Y343400D02*
D03*
X1350100D02*
D03*
X753200Y-164600D02*
D03*
D43*
X886400Y150000D02*
D03*
X1226400D02*
D03*
X1566400D02*
D03*
X1744200D02*
D03*
D44*
X1923500Y330000D02*
D03*
D45*
Y304600D02*
D03*
Y279200D02*
D03*
M02*
