G04*
G04 #@! TF.GenerationSoftware,Altium Limited,Altium Designer,22.10.1 (41)*
G04*
G04 Layer_Color=8388736*
%FSLAX44Y44*%
%MOMM*%
G71*
G04*
G04 #@! TF.SameCoordinates,66B8FDAA-6FD5-4FC8-9D46-DBF7901E3F2B*
G04*
G04*
G04 #@! TF.FilePolarity,Negative*
G04*
G01*
G75*
%ADD18R,1.5032X1.5032*%
%ADD19C,1.5032*%
%ADD20C,1.4732*%
%ADD21R,1.4732X1.4732*%
%ADD22R,1.4732X1.4732*%
%ADD23C,4.2672*%
%ADD24C,1.4500*%
%ADD25R,1.4500X1.4500*%
%ADD26C,1.3500*%
%ADD27R,1.3500X1.3500*%
%ADD28C,1.7032*%
%ADD29R,1.7032X1.7032*%
%ADD30R,1.7032X1.7032*%
%ADD31C,1.3000*%
%ADD32R,1.3000X1.3000*%
%ADD33R,1.2000X1.2000*%
%ADD34C,1.2000*%
%ADD35R,1.8032X1.8032*%
%ADD36C,1.8032*%
%ADD37C,1.4032*%
D18*
X1566000Y-113800D02*
D03*
X1008000Y-262000D02*
D03*
X957200D02*
D03*
D19*
X1540600Y-113800D02*
D03*
X1033400Y-262000D02*
D03*
X931800D02*
D03*
D20*
X1261200Y-113800D02*
D03*
Y-215400D02*
D03*
X1312000Y-113800D02*
D03*
Y-215400D02*
D03*
X1337400Y-113800D02*
D03*
Y-215400D02*
D03*
X1388200Y-113800D02*
D03*
Y-215400D02*
D03*
X1362800Y-113800D02*
D03*
Y-215400D02*
D03*
X1286600D02*
D03*
Y-113800D02*
D03*
X1413600D02*
D03*
Y-215400D02*
D03*
X1464400Y-113800D02*
D03*
Y-215400D02*
D03*
X1489800Y-113800D02*
D03*
Y-215400D02*
D03*
X1439000D02*
D03*
Y-113800D02*
D03*
X1210400D02*
D03*
Y-215400D02*
D03*
X1185000D02*
D03*
Y-113800D02*
D03*
X1235800Y-215400D02*
D03*
Y-113800D02*
D03*
X1134200Y-215400D02*
D03*
Y-113800D02*
D03*
X1159600D02*
D03*
Y-215400D02*
D03*
X1871200Y-27800D02*
D03*
Y-2400D02*
D03*
Y23000D02*
D03*
Y48400D02*
D03*
Y73800D02*
D03*
Y99200D02*
D03*
Y124600D02*
D03*
Y150000D02*
D03*
X2076600Y-238500D02*
D03*
X2127400Y-111500D02*
D03*
Y-238500D02*
D03*
X2209600D02*
D03*
X2260400Y-111500D02*
D03*
Y-238500D02*
D03*
X2302600Y127500D02*
D03*
X1007200Y-215400D02*
D03*
X956400D02*
D03*
X2049400Y347600D02*
D03*
Y246000D02*
D03*
X2100200Y347600D02*
D03*
Y246000D02*
D03*
X576200Y-109600D02*
D03*
X677800D02*
D03*
X576200Y-160400D02*
D03*
X677800D02*
D03*
X830200Y207900D02*
D03*
X728600D02*
D03*
X1160400D02*
D03*
X1058800D02*
D03*
X1414400D02*
D03*
X1516000D02*
D03*
X784800Y150000D02*
D03*
X810200D02*
D03*
X759400D02*
D03*
X734000D02*
D03*
X835600Y-2400D02*
D03*
X810200D02*
D03*
X784800D02*
D03*
X759400D02*
D03*
X734000D02*
D03*
X1124800Y150000D02*
D03*
X1150200D02*
D03*
X1099400D02*
D03*
X1074000D02*
D03*
X1175600Y-2400D02*
D03*
X1150200D02*
D03*
X1124800D02*
D03*
X1099400D02*
D03*
X1074000D02*
D03*
X1464800Y150000D02*
D03*
X1490200D02*
D03*
X1439400D02*
D03*
X1414000D02*
D03*
X1515600Y-2400D02*
D03*
X1490200D02*
D03*
X1464800D02*
D03*
X1439400D02*
D03*
X1414000D02*
D03*
X1910000D02*
D03*
X1935400D02*
D03*
X1960800D02*
D03*
X1986200D02*
D03*
X2011600D02*
D03*
X1910000Y150000D02*
D03*
X1935400D02*
D03*
X1986200D02*
D03*
X1960800D02*
D03*
X2110000Y-2400D02*
D03*
X2135400D02*
D03*
X2160800D02*
D03*
X2186200D02*
D03*
X2211600D02*
D03*
X2110000Y150000D02*
D03*
X2135400D02*
D03*
X2186200D02*
D03*
X2160800D02*
D03*
D21*
X1871200Y175400D02*
D03*
X2076600Y-111500D02*
D03*
X2209600D02*
D03*
X2302600Y152900D02*
D03*
D22*
X835600Y150000D02*
D03*
X1175600D02*
D03*
X1515600D02*
D03*
X2011600D02*
D03*
X2211600D02*
D03*
D23*
X590000Y410000D02*
D03*
X2330000D02*
D03*
Y-260000D02*
D03*
X590000D02*
D03*
D24*
X2202700Y315000D02*
D03*
X2272700D02*
D03*
D25*
X2177300D02*
D03*
X2247300D02*
D03*
D26*
X876000Y274800D02*
D03*
X851000D02*
D03*
X826000D02*
D03*
X801000D02*
D03*
X776000D02*
D03*
X751000D02*
D03*
X726000D02*
D03*
X701000D02*
D03*
X676000D02*
D03*
X651000D02*
D03*
Y351000D02*
D03*
X676000D02*
D03*
X701000D02*
D03*
X726000D02*
D03*
X751000D02*
D03*
X776000D02*
D03*
X801000D02*
D03*
X826000D02*
D03*
X851000D02*
D03*
D27*
X876000D02*
D03*
D28*
X1426300Y267200D02*
D03*
X1451700D02*
D03*
X1477100D02*
D03*
X1502500D02*
D03*
X1527900D02*
D03*
X1553300D02*
D03*
X1578700D02*
D03*
X1604100D02*
D03*
X1426300Y343400D02*
D03*
X1451700D02*
D03*
X1477100D02*
D03*
X1502500D02*
D03*
X1527900D02*
D03*
X1553300D02*
D03*
X1578700D02*
D03*
X1324700D02*
D03*
X1299300D02*
D03*
X1273900D02*
D03*
X1248500D02*
D03*
X1223100D02*
D03*
X1197700D02*
D03*
X1172300D02*
D03*
X1350100Y267200D02*
D03*
X1324700D02*
D03*
X1299300D02*
D03*
X1273900D02*
D03*
X1248500D02*
D03*
X1223100D02*
D03*
X1197700D02*
D03*
X1172300D02*
D03*
X962600Y-27800D02*
D03*
Y-2400D02*
D03*
Y23000D02*
D03*
Y48400D02*
D03*
Y73800D02*
D03*
Y99200D02*
D03*
Y124600D02*
D03*
Y150000D02*
D03*
X886400Y-27800D02*
D03*
Y-2400D02*
D03*
Y23000D02*
D03*
Y48400D02*
D03*
Y73800D02*
D03*
Y99200D02*
D03*
Y124600D02*
D03*
X1226400D02*
D03*
Y99200D02*
D03*
Y73800D02*
D03*
Y48400D02*
D03*
Y23000D02*
D03*
Y-2400D02*
D03*
Y-27800D02*
D03*
X1302600Y150000D02*
D03*
Y124600D02*
D03*
Y99200D02*
D03*
Y73800D02*
D03*
Y48400D02*
D03*
Y23000D02*
D03*
Y-2400D02*
D03*
Y-27800D02*
D03*
X1566400Y124600D02*
D03*
Y99200D02*
D03*
Y73800D02*
D03*
Y48400D02*
D03*
Y23000D02*
D03*
Y-2400D02*
D03*
Y-27800D02*
D03*
X1642600Y150000D02*
D03*
Y124600D02*
D03*
Y99200D02*
D03*
Y73800D02*
D03*
Y48400D02*
D03*
Y23000D02*
D03*
Y-2400D02*
D03*
Y-27800D02*
D03*
X1744200Y124600D02*
D03*
Y99200D02*
D03*
Y73800D02*
D03*
Y48400D02*
D03*
Y23000D02*
D03*
Y-2400D02*
D03*
Y-27800D02*
D03*
X1820400Y150000D02*
D03*
Y124600D02*
D03*
Y99200D02*
D03*
Y73800D02*
D03*
Y48400D02*
D03*
Y23000D02*
D03*
Y-2400D02*
D03*
Y-27800D02*
D03*
X1083400Y-88400D02*
D03*
X1058000D02*
D03*
X1032600D02*
D03*
X1007200D02*
D03*
X981800D02*
D03*
X956400D02*
D03*
X931000D02*
D03*
X905600D02*
D03*
X880200D02*
D03*
X854800D02*
D03*
X829400D02*
D03*
X804000D02*
D03*
X778600D02*
D03*
X753200D02*
D03*
X1083400Y-164600D02*
D03*
X1058000D02*
D03*
X1032600D02*
D03*
X1007200D02*
D03*
X981800D02*
D03*
X956400D02*
D03*
X931000D02*
D03*
X905600D02*
D03*
X880200D02*
D03*
X854800D02*
D03*
X829400D02*
D03*
X804000D02*
D03*
X778600D02*
D03*
D29*
X1604100Y343400D02*
D03*
X1350100D02*
D03*
X753200Y-164600D02*
D03*
D30*
X886400Y150000D02*
D03*
X1226400D02*
D03*
X1566400D02*
D03*
X1744200D02*
D03*
D31*
X683000Y177400D02*
D03*
Y152000D02*
D03*
Y126600D02*
D03*
Y101200D02*
D03*
Y75800D02*
D03*
Y50400D02*
D03*
Y25000D02*
D03*
Y-400D02*
D03*
Y-25800D02*
D03*
X603625D02*
D03*
Y-400D02*
D03*
Y25000D02*
D03*
Y50400D02*
D03*
Y75800D02*
D03*
Y101200D02*
D03*
Y126600D02*
D03*
Y152000D02*
D03*
D32*
Y177400D02*
D03*
D33*
X1845800Y330700D02*
D03*
X1845400Y279900D02*
D03*
D34*
X1870800Y330700D02*
D03*
X1870400Y279900D02*
D03*
D35*
X1923500Y330000D02*
D03*
D36*
Y304600D02*
D03*
Y279200D02*
D03*
D37*
X1032600Y-53550D02*
D03*
X1052830Y187550D02*
D03*
X1116838Y-88348D02*
D03*
X1527950Y190684D02*
D03*
X1513213Y-63837D02*
D03*
X1345266Y243712D02*
D03*
X1367282Y241344D02*
D03*
X1345851Y225755D02*
D03*
X1416304Y181908D02*
D03*
X1185164Y-164040D02*
D03*
X1555242Y-151340D02*
D03*
X1227328Y-78442D02*
D03*
X1595882Y-232874D02*
D03*
X1795272Y-218552D02*
D03*
X1123696Y-165056D02*
D03*
X2002790Y-234398D02*
D03*
X1096190Y-254718D02*
D03*
X1019302Y83610D02*
D03*
X852170Y143808D02*
D03*
X1352610Y137458D02*
D03*
X1055878Y-212554D02*
D03*
X2170176Y-148800D02*
D03*
X1910000Y195370D02*
D03*
X1590040Y198164D02*
D03*
X1537970Y-179050D02*
D03*
X2185416Y-173946D02*
D03*
X2034286Y-149308D02*
D03*
X1978660Y-186646D02*
D03*
X1464826Y103133D02*
D03*
X1608074Y-44914D02*
D03*
X1659783Y-33337D02*
D03*
X1464800Y77532D02*
D03*
X771906Y243630D02*
D03*
X1609598Y376980D02*
D03*
X1742694Y243884D02*
D03*
X1663954Y103246D02*
D03*
X2023618Y346754D02*
D03*
X786130Y-147022D02*
D03*
X952500Y-67266D02*
D03*
X984100Y-70822D02*
D03*
X1326896Y381298D02*
D03*
X1754378D02*
D03*
X1935734Y119170D02*
D03*
X1237742Y-247606D02*
D03*
X1007618Y-185884D02*
D03*
X1387094Y300780D02*
D03*
X1374902Y286810D02*
D03*
X1440434Y239312D02*
D03*
X1324610Y-972D02*
D03*
X1289050Y208070D02*
D03*
X1512710Y-43390D02*
D03*
X924306Y73606D02*
D03*
X1491234Y115360D02*
D03*
X1679956Y112644D02*
D03*
X978154Y110280D02*
D03*
M02*
