G04*
G04 #@! TF.GenerationSoftware,Altium Limited,Altium Designer,22.10.1 (41)*
G04*
G04 Layer_Physical_Order=2*
G04 Layer_Color=16711680*
%FSLAX44Y44*%
%MOMM*%
G71*
G04*
G04 #@! TF.SameCoordinates,F08F2889-53CF-420F-BFEE-BD02D6E72818*
G04*
G04*
G04 #@! TF.FilePolarity,Positive*
G04*
G01*
G75*
%ADD13C,0.6000*%
%ADD25R,1.3500X1.3500*%
%ADD26C,1.3500*%
%ADD29C,1.2000*%
%ADD30R,1.2000X1.2000*%
%ADD31R,1.3000X1.3000*%
%ADD32C,1.3000*%
%ADD33C,1.4500*%
%ADD34R,1.4500X1.4500*%
%ADD37C,1.2700*%
%ADD38R,1.2700X1.2700*%
%ADD39R,1.2700X1.2700*%
%ADD40C,4.0640*%
%ADD41R,1.5000X1.5000*%
%ADD42C,1.5000*%
%ADD43C,1.6000*%
%ADD44R,1.6000X1.6000*%
%ADD45R,1.5000X1.5000*%
%ADD46C,1.1000*%
D13*
X1249194Y-400794D02*
Y-317198D01*
X1251458Y-403058D02*
X1270400Y-422000D01*
X1249194Y-400794D02*
X1251458Y-403058D01*
X429260Y-261454D02*
Y-245198D01*
Y-303740D02*
Y-261454D01*
Y-312000D02*
Y-303740D01*
X396941Y-214972D02*
Y-188410D01*
Y-229135D02*
Y-214972D01*
X399034D01*
X313690D02*
X396941D01*
X1114087Y-136062D02*
X1143087D01*
X1085755D02*
X1114087D01*
X446601Y-283875D02*
X460563Y-297837D01*
X1159002Y-433158D02*
Y-361402D01*
Y-488150D02*
Y-433158D01*
X1468628Y-429856D02*
X1485141D01*
X1338744D02*
X1468628D01*
X622300Y-101600D02*
X638898Y-118198D01*
X859702D01*
X876300Y-101600D01*
X463400Y-269600D02*
Y-239610D01*
Y-162498D01*
X461772Y-160870D02*
X463400Y-162498D01*
X625600Y-447400D02*
X656082Y-416918D01*
Y-336638D01*
X1016400Y-472800D02*
X1033272Y-455928D01*
Y-334860D01*
X1124204Y-261200D02*
Y-239610D01*
Y-261200D02*
X1143400Y-269600D01*
X965600Y-470854D02*
Y-447400D01*
Y-470854D02*
X967254Y-472508D01*
Y-491446D02*
Y-472508D01*
Y-491446D02*
X977863Y-502055D01*
X1037945D01*
X1092600Y-447400D01*
X1270400Y-371200D02*
X1287018Y-354582D01*
Y-283806D01*
X1285240Y-282028D02*
X1287018Y-283806D01*
X1709635Y-172936D02*
X1727200Y-190500D01*
X1406035Y-172936D02*
X1709635D01*
X1373500Y-140400D02*
X1406035Y-172936D01*
X1345100Y-140400D02*
X1373500D01*
X1320400Y-165100D02*
X1345100Y-140400D01*
X709168Y-357974D02*
Y-312281D01*
X742950Y-278499D01*
X794500D01*
X803400Y-269600D01*
X370672Y-405472D02*
X412600Y-447400D01*
X370586Y-405472D02*
X370672D01*
X381000Y-40000D02*
X425030Y-84030D01*
X40000Y-40000D02*
X381000D01*
X752348Y-81876D02*
X783336Y-50888D01*
X923632Y-148932D02*
X952500Y-177800D01*
X593936Y-148932D02*
X923632D01*
X591120Y-151748D02*
X593936Y-148932D01*
X503536Y-151748D02*
X591120D01*
X489205Y-137418D02*
X503536Y-151748D01*
X78184Y-137418D02*
X489205D01*
X22750Y-192852D02*
X78184Y-137418D01*
X22750Y-543792D02*
Y-192852D01*
Y-543792D02*
X80518Y-601560D01*
X712217Y-212433D02*
X724916Y-225132D01*
X657350Y-212433D02*
X712217D01*
X639400Y-230384D02*
X657350Y-212433D01*
X639400Y-272350D02*
Y-230384D01*
Y-272350D02*
X640950Y-273900D01*
Y-309352D02*
Y-273900D01*
X608838Y-341464D02*
X640950Y-309352D01*
X513058Y-341464D02*
X608838D01*
X504422Y-350100D02*
X513058Y-341464D01*
X504422Y-449702D02*
Y-350100D01*
Y-449702D02*
X543758Y-489038D01*
X569468D01*
X933792Y-133692D02*
X977900Y-177800D01*
X723900Y-133692D02*
X933792D01*
X375890Y-87188D02*
X395456D01*
X358530Y-69828D02*
X375890Y-87188D01*
X24240Y-69828D02*
X358530D01*
X10668Y-83400D02*
X24240Y-69828D01*
X10668Y-726274D02*
Y-83400D01*
Y-726274D02*
X13716Y-729322D01*
X559562D01*
X568706Y-720178D01*
X695794Y-543394D02*
X711200Y-558800D01*
X589026Y-543394D02*
X695794D01*
X562356Y-516724D02*
X589026Y-543394D01*
X524256Y-516724D02*
X562356D01*
X480060Y-472528D02*
X524256Y-516724D01*
X480060Y-472528D02*
Y-204258D01*
X514812Y-169506D01*
X698500Y-177800D02*
X715154Y-161146D01*
X828824D01*
X844550Y-176872D01*
X871982Y-240118D02*
X884682D01*
X834136Y-277964D02*
X871982Y-240118D01*
X834136Y-449922D02*
Y-277964D01*
X1128587Y-150563D02*
X1166665Y-188640D01*
X1251037D01*
X1271896Y-209500D01*
X1386454D01*
X1396479Y-199475D01*
X1449782D01*
X1497707Y-247400D01*
X1672298D01*
X1725250Y-300351D01*
Y-464990D02*
Y-300351D01*
Y-464990D02*
X1809496Y-549236D01*
Y-724750D02*
Y-549236D01*
X1804924Y-729322D02*
X1809496Y-724750D01*
X1701800Y-729322D02*
X1804924D01*
X1674950Y-702472D02*
X1701800Y-729322D01*
X1674950Y-702472D02*
Y-668150D01*
X1644250D02*
X1674950D01*
X1601549Y-710850D02*
X1644250Y-668150D01*
X1390144Y-710850D02*
X1601549D01*
X1369909Y-690615D02*
X1390144Y-710850D01*
X1167760Y-690615D02*
X1369909D01*
X1159787Y-698588D02*
X1167760Y-690615D01*
X656424Y-161124D02*
X673100Y-177800D01*
X602488Y-161124D02*
X656424D01*
X597916Y-165696D02*
X602488Y-161124D01*
X515896Y-123808D02*
X529336Y-137248D01*
X25908Y-123808D02*
X515896D01*
X38354Y-627722D02*
X86614Y-675982D01*
X504444D01*
X535178Y-657948D02*
X555026Y-638101D01*
X733500D01*
X831636Y-513462D02*
X833374Y-515200D01*
X604052Y-513462D02*
X831636D01*
X594360Y-503770D02*
X604052Y-513462D01*
X536702Y-503770D02*
X594360D01*
X492422Y-459490D02*
X536702Y-503770D01*
X492422Y-459490D02*
Y-246719D01*
X546244Y-192896D01*
X607204D01*
X622300Y-177800D01*
X1111504Y-96862D02*
X1169416D01*
X1201928Y-77050D02*
X1467866D01*
X1530096Y-139280D01*
Y-439254D02*
X1592834Y-501992D01*
Y-566508D02*
Y-501992D01*
X1575192Y-584150D02*
X1592834Y-566508D01*
X1477193Y-584150D02*
X1575192D01*
X1468650Y-592692D02*
X1477193Y-584150D01*
X1407249Y-592692D02*
X1468650D01*
X1382941Y-568385D02*
X1407249Y-592692D01*
X1312659Y-568385D02*
X1382941D01*
X1279483Y-601561D02*
X1312659Y-568385D01*
X1224241Y-601561D02*
X1279483D01*
X1219241Y-606561D02*
X1224241Y-601561D01*
X1114981Y-606561D02*
X1219241D01*
X1113272Y-604852D02*
X1114981Y-606561D01*
X1029914Y-550043D02*
X1044188Y-535768D01*
X999580Y-550043D02*
X1029914D01*
X994325Y-544788D02*
X999580Y-550043D01*
X942152Y-544788D02*
X994325D01*
X938788Y-541424D02*
X942152Y-544788D01*
X889000Y-541424D02*
X938788D01*
X567436Y-110531D02*
X630892Y-47075D01*
X1614438Y-608150D02*
X1625092Y-597496D01*
X1501193Y-608150D02*
X1614438D01*
X1486447Y-622896D02*
X1501193Y-608150D01*
X1346392Y-622896D02*
X1486447D01*
X1333692Y-635596D02*
X1346392Y-622896D01*
X1310686Y-635596D02*
X1333692D01*
X1014417Y-562043D02*
X1023874Y-571500D01*
X982325Y-562043D02*
X1014417D01*
X979082Y-558800D02*
X982325Y-562043D01*
X914400Y-558800D02*
X979082D01*
X1153563Y-238248D02*
X1157565Y-242250D01*
X1171364D01*
Y-269914D02*
Y-242250D01*
Y-269914D02*
X1206681Y-274684D01*
X1249194Y-317198D01*
X1073477Y-301277D02*
X1092600Y-320400D01*
X1073477Y-301277D02*
Y-248580D01*
X1067396Y-242500D02*
X1073477Y-248580D01*
X1067396Y-242500D02*
Y-227346D01*
X1034426Y-194376D02*
X1067396Y-227346D01*
X776246Y-194376D02*
X1034426D01*
X761238Y-209384D02*
X776246Y-194376D01*
X957484Y-528758D02*
X961514Y-532788D01*
X1006156D01*
X1008888Y-535520D01*
X951773Y-586609D02*
X954278Y-589114D01*
X789975Y-586609D02*
X951773D01*
X777748Y-574382D02*
X789975Y-586609D01*
X574382Y-574382D02*
X777748D01*
X533400Y-533400D02*
X574382Y-574382D01*
X1237764Y-577408D02*
X1247648Y-567524D01*
X1156045Y-577408D02*
X1237764D01*
X1155892Y-577561D02*
X1156045Y-577408D01*
X1086848Y-577561D02*
X1155892D01*
X1054408Y-610000D02*
X1086848Y-577561D01*
X980778Y-610000D02*
X1054408D01*
X975164Y-615614D02*
X980778Y-610000D01*
X842860Y-615614D02*
X975164D01*
X838200Y-610954D02*
X842860Y-615614D01*
X769227Y-610954D02*
X838200D01*
X767874Y-609600D02*
X769227Y-610954D01*
X533400Y-609600D02*
X767874D01*
X1092600Y-295000D02*
Y-249507D01*
X1079396Y-236303D02*
X1092600Y-249507D01*
X1079396Y-236303D02*
Y-203097D01*
X1054100Y-177800D02*
X1079396Y-203097D01*
X1143087Y-136062D02*
X1183665Y-176640D01*
X1103684Y-146465D02*
X1114087Y-136062D01*
X1003300Y-101600D02*
X1020763Y-119063D01*
X1068756D01*
X1085755Y-136062D01*
X1183665Y-176640D02*
X1283860D01*
X1295400Y-165100D01*
X55186Y-94000D02*
X101000D01*
X367792Y-480910D02*
Y-449668D01*
Y-480910D02*
X394462Y-507580D01*
X408432D01*
X447040Y-438360D02*
X463400Y-422000D01*
X460563Y-297837D02*
X463400Y-295000D01*
X446601Y-283875D02*
Y-236904D01*
X413747Y-204050D02*
X446601Y-236904D01*
X305054Y-402546D02*
Y-337654D01*
X260200Y-447400D02*
X305054Y-402546D01*
X381508Y-390908D02*
X412600Y-422000D01*
X381508Y-390908D02*
Y-363816D01*
X625600Y-295000D02*
Y-202131D01*
X627298Y-200434D01*
X729190D01*
X752641Y-223884D01*
X847322D01*
X847598Y-223608D01*
X524000Y-447400D02*
X659130Y-312270D01*
Y-278218D01*
X666750Y-270598D01*
X707390D01*
X725825Y-397974D02*
X752600Y-371200D01*
X725825Y-406039D02*
Y-397974D01*
X722398Y-409466D02*
X725825Y-406039D01*
X722398Y-470245D02*
Y-409466D01*
X703329Y-489314D02*
X722398Y-470245D01*
X618940Y-489314D02*
X703329D01*
X606552Y-476927D02*
X618940Y-489314D01*
X735838Y-413362D02*
X752600Y-396600D01*
X735838Y-474171D02*
Y-413362D01*
X708547Y-501462D02*
X735838Y-474171D01*
X609397Y-501462D02*
X708547D01*
X574800Y-466865D02*
X609397Y-501462D01*
X574800Y-466865D02*
Y-447400D01*
X752600Y-422000D02*
X788050Y-457450D01*
Y-488150D02*
Y-457450D01*
Y-488150D02*
X849756D01*
X858774Y-479132D01*
X921004Y-519927D02*
Y-515962D01*
X914400Y-526531D02*
X921004Y-519927D01*
X851298Y-526531D02*
X914400D01*
X847248Y-530581D02*
X851298Y-526531D01*
X670681Y-530581D02*
X847248D01*
X668762Y-528662D02*
X670681Y-530581D01*
X1461600Y-295000D02*
X1514094Y-347494D01*
X1156251Y-669225D02*
X1216523D01*
X1145286Y-680189D02*
X1156251Y-669225D01*
X1145286Y-710334D02*
Y-680189D01*
X1140523Y-715098D02*
X1145286Y-710334D01*
X625602Y-715098D02*
X1140523D01*
X584200Y-673696D02*
X625602Y-715098D01*
X1560000Y-295000D02*
X1688950Y-423950D01*
Y-485586D02*
Y-423950D01*
X1683050Y-491486D02*
X1688950Y-485586D01*
X1683050Y-579683D02*
Y-491486D01*
X1642582Y-620150D02*
X1683050Y-579683D01*
X1513193Y-620150D02*
X1642582D01*
X1497133Y-636209D02*
X1513193Y-620150D01*
X1355939Y-636209D02*
X1497133D01*
X1342052Y-650096D02*
X1355939Y-636209D01*
X1269214Y-650096D02*
X1342052D01*
X1249678Y-630561D02*
X1269214Y-650096D01*
X1156466Y-630561D02*
X1249678D01*
X1155548Y-631479D02*
X1156466Y-630561D01*
X1130660Y-631479D02*
X1155548D01*
X1071233Y-690906D02*
X1130660Y-631479D01*
X797362Y-690906D02*
X1071233D01*
X782206Y-675750D02*
X797362Y-690906D01*
X624950Y-675750D02*
X782206D01*
X609600Y-660400D02*
X624950Y-675750D01*
X1360000Y-295000D02*
X1395578Y-259422D01*
X1666240D01*
X1679956Y-273138D01*
Y-357559D02*
Y-273138D01*
X1670050Y-367464D02*
X1679956Y-357559D01*
X1670050Y-383279D02*
Y-367464D01*
Y-383279D02*
X1700950Y-414180D01*
Y-497586D02*
Y-414180D01*
X1695050Y-503486D02*
X1700950Y-497586D01*
X1695050Y-602970D02*
Y-503486D01*
X1665870Y-632150D02*
X1695050Y-602970D01*
X1525193Y-632150D02*
X1665870D01*
X1507946Y-649396D02*
X1525193Y-632150D01*
X1367892Y-649396D02*
X1507946D01*
X1355192Y-662096D02*
X1367892Y-649396D01*
X1257214Y-662096D02*
X1355192D01*
X1237678Y-642561D02*
X1257214Y-662096D01*
X1168466Y-642561D02*
X1237678D01*
X1167548Y-643479D02*
X1168466Y-642561D01*
X1136224Y-643479D02*
X1167548D01*
X1076796Y-702906D02*
X1136224Y-643479D01*
X740664Y-702906D02*
X1076796D01*
X736600Y-698842D02*
X740664Y-702906D01*
X1686814Y-371944D02*
X1712976Y-398106D01*
Y-489800D02*
Y-398106D01*
Y-489800D02*
X1725930Y-502754D01*
Y-616800D02*
Y-502754D01*
X1698580Y-644150D02*
X1725930Y-616800D01*
X1559134Y-644150D02*
X1698580D01*
X1541888Y-661396D02*
X1559134Y-644150D01*
X1378752Y-661396D02*
X1541888D01*
X1366052Y-674096D02*
X1378752Y-661396D01*
X1250588Y-674096D02*
X1366052D01*
X1231138Y-654646D02*
X1250588Y-674096D01*
X1202761Y-654646D02*
X1231138D01*
X1201928Y-655479D02*
X1202761Y-654646D01*
X1144392Y-655479D02*
X1201928D01*
X1112266Y-687605D02*
X1144392Y-655479D01*
X1112266Y-700366D02*
Y-687605D01*
X787400Y-558800D02*
X803209Y-574609D01*
X997982D01*
X1009374Y-586001D01*
X1031074D01*
X1063514Y-553561D01*
X1134450D01*
X1214222Y-549399D01*
X1309156Y-512384D02*
X1360000Y-461539D01*
Y-447400D01*
X812800Y-660400D02*
X828382Y-675982D01*
X1036989D01*
X1093492Y-619479D01*
X1137630D01*
X1138548Y-618561D01*
X1249165D01*
X1253190Y-614536D01*
X1330752D01*
X1340596Y-604692D01*
X1480650D01*
X1489193Y-596150D01*
X1604086D01*
X1636200Y-564036D01*
Y-447400D01*
X1316251Y-587336D02*
X1372870D01*
X1141730Y-516724D02*
X1174242D01*
X823722Y-642454D02*
X870919D01*
X1421130Y-678014D02*
X1490210D01*
X1511046Y-698850D01*
X1536692D01*
X1551940Y-683602D01*
X1611376Y-541150D02*
Y-498776D01*
X1560000Y-447400D02*
X1611376Y-498776D01*
X1059772Y-312972D02*
X1092600Y-345800D01*
X1059772Y-312972D02*
Y-279115D01*
X1024738Y-244080D02*
X1059772Y-279115D01*
X978318Y-333082D02*
X992970D01*
X864000Y-447400D02*
X978318Y-333082D01*
X952754Y-502279D02*
Y-485354D01*
Y-502279D02*
X971263Y-520788D01*
X1080008D01*
X1097788Y-538568D01*
X1159002Y-433158D02*
X1159510D01*
X1143400Y-345800D02*
X1159002Y-361402D01*
X1615810Y-727290D02*
X1659600Y-683500D01*
X610362Y-727290D02*
X1615810D01*
X555520Y-672448D02*
X610362Y-727290D01*
X527050Y-672448D02*
X555520D01*
X499596Y-644994D02*
X527050Y-672448D01*
X340194Y-644994D02*
X499596D01*
X304800Y-609600D02*
X340194Y-644994D01*
X266534Y-495134D02*
X304800Y-533400D01*
X222250Y-495134D02*
X266534D01*
X155362Y-473798D02*
Y-267167D01*
X185205Y-237324D01*
X260840D01*
X350012Y-107044D02*
X534140D01*
X617474Y-23710D01*
X1221994Y-14566D02*
X1561084D01*
X1652700Y-106182D01*
Y-130000D02*
Y-106182D01*
X53625Y-217575D02*
X101000Y-170200D01*
X53625Y-267600D02*
Y-217575D01*
X146683Y-230849D02*
X168402D01*
X117348Y-260184D02*
X146683Y-230849D01*
X117348Y-320128D02*
Y-260184D01*
Y-320128D02*
X120142Y-322922D01*
X105348Y-366948D02*
X133000Y-394600D01*
X105348Y-366948D02*
Y-255213D01*
X145335Y-215226D01*
X205974D01*
X93348Y-380348D02*
X133000Y-420000D01*
X93348Y-380348D02*
Y-246291D01*
X139079Y-200560D01*
X214276D01*
X229958Y-216242D01*
X814832Y-208876D02*
X1027430D01*
X1028700Y-210146D01*
X1126283Y-34679D02*
X1143254Y-51650D01*
X820834Y-34679D02*
X1126283D01*
X774700Y-80812D02*
X820834Y-34679D01*
X774700Y-101600D02*
Y-80812D01*
X1325118Y-520788D02*
X1415796D01*
X1223518Y-94068D02*
X1265428D01*
X1175258Y-43014D02*
X1307846D01*
X1154923Y-22679D02*
X1175258Y-43014D01*
X752021Y-22679D02*
X1154923D01*
X673100Y-101600D02*
X752021Y-22679D01*
X901700Y-101600D02*
X930200Y-73100D01*
X1094619D01*
X1103880Y-82362D01*
X1181100D01*
X1229667Y-130928D01*
X1259536D01*
X1321200Y-447400D02*
X1338744Y-429856D01*
X1468628D02*
X1477010Y-438238D01*
Y-480348D02*
Y-438238D01*
X1417036Y-540322D02*
X1477010Y-480348D01*
X1313641Y-540322D02*
X1417036D01*
X1299950Y-526630D02*
X1313641Y-540322D01*
X1239012Y-526630D02*
X1299950D01*
X1238886Y-466686D02*
X1239012D01*
X1194200Y-422000D02*
X1238886Y-466686D01*
X1356360Y-99148D02*
X1357630Y-97878D01*
X1280668Y-99148D02*
X1356360D01*
X1280668Y-134200D02*
Y-99148D01*
X1266952Y-147916D02*
X1280668Y-134200D01*
X1226388Y-147916D02*
X1266952D01*
X1190534Y-112062D02*
X1226388Y-147916D01*
X1104900Y-112062D02*
X1190534D01*
X1077937Y-85100D02*
X1104900Y-112062D01*
X1037590Y-85100D02*
X1077937D01*
X1028700Y-101600D02*
X1037590Y-85100D01*
X1061445Y-133671D02*
X1117092Y-189318D01*
X959171Y-133671D02*
X1061445D01*
X927100Y-101600D02*
X959171Y-133671D01*
X1292699Y-501300D02*
X1321200Y-472800D01*
X1248100Y-501300D02*
X1292699D01*
X1194200Y-447400D02*
X1248100Y-501300D01*
X112776Y-613752D02*
X169672D01*
X202328Y-581096D01*
X460304D01*
X508000Y-533400D01*
X1385400Y-295000D02*
X1395222Y-304822D01*
Y-316572D02*
Y-304822D01*
Y-316572D02*
X1470406Y-391756D01*
X1629918D01*
X1676950Y-438788D01*
Y-475534D02*
Y-438788D01*
X1650746Y-501738D02*
X1676950Y-475534D01*
X1460246Y-329526D02*
X1501394Y-370674D01*
X1570482D01*
X1344422Y-712558D02*
X1350010Y-706970D01*
X1173734Y-712558D02*
X1344422D01*
X789194Y-309206D02*
X803400Y-295000D01*
X772668Y-309206D02*
X789194D01*
X772668Y-349592D02*
Y-309206D01*
Y-349592D02*
X775716Y-352640D01*
Y-398884D02*
Y-352640D01*
X803400Y-422000D02*
X818896Y-406504D01*
Y-253326D01*
X817204Y-251634D02*
X818896Y-253326D01*
X690712Y-251634D02*
X817204D01*
X678012Y-238934D02*
X690712Y-251634D01*
X600200Y-295000D02*
Y-233878D01*
X1275588Y-572604D02*
Y-555586D01*
X1258632Y-589561D02*
X1275588Y-572604D01*
X1098866Y-589561D02*
X1258632D01*
X1066292Y-622134D02*
X1098866Y-589561D01*
X1004062Y-622134D02*
X1066292D01*
X998474Y-627722D02*
X1004062Y-622134D01*
X767334Y-627722D02*
X998474D01*
X762000Y-622388D02*
X767334Y-627722D01*
X549050Y-622388D02*
X762000D01*
X545338Y-626101D02*
X549050Y-622388D01*
X473700Y-626101D02*
X545338D01*
X457200Y-609600D02*
X473700Y-626101D01*
X330200Y-609600D02*
X349084Y-628484D01*
X446532D01*
X540766Y-631532D02*
X549910Y-622388D01*
X617982D01*
X618998Y-623404D01*
X833374D01*
X837692Y-627722D01*
X908812D01*
X924306Y-643216D01*
X994918D01*
X1016000Y-622134D01*
X1066292D01*
X1098866Y-589561D01*
X1167892D01*
X1168045Y-589408D01*
X1202222D01*
X1204722Y-591908D01*
X1251458Y-403058D02*
Y-394804D01*
X693166Y-437222D02*
X695706Y-434682D01*
Y-387184D01*
X707544Y-375346D01*
X717550D01*
X723900Y-368996D01*
Y-319839D01*
X730250Y-313489D01*
X733806D01*
X885698Y-380326D02*
X955674Y-310350D01*
X980950D01*
Y-279488D01*
X969265Y-267803D02*
X980950Y-279488D01*
X985774Y-233006D02*
X1047772Y-295004D01*
Y-351772D02*
Y-295004D01*
Y-351772D02*
X1092600Y-396600D01*
X1109704Y-316042D02*
X1125474Y-331812D01*
X1109704Y-316042D02*
Y-231714D01*
X1094508Y-216518D02*
X1109704Y-231714D01*
X1054100Y-101600D02*
X1073556D01*
X1096019Y-124062D02*
X1160802D01*
X1198880Y-162140D01*
X1148886Y-219290D02*
X1208786D01*
X1138726Y-229450D02*
X1148886Y-219290D01*
X1138726Y-254250D02*
Y-229450D01*
Y-254250D02*
X1159256D01*
Y-284060D02*
Y-254250D01*
Y-284060D02*
X1174750Y-299554D01*
Y-377150D02*
Y-299554D01*
Y-377150D02*
X1194200Y-396600D01*
X466002Y-549998D02*
X482600Y-533400D01*
X194564Y-549998D02*
X466002D01*
X185166Y-540600D02*
X194564Y-549998D01*
X185166Y-540600D02*
Y-527900D01*
X207010Y-506056D01*
Y-488530D01*
X217170Y-478370D01*
X299466D01*
X313436Y-464400D01*
Y-457034D01*
X323070Y-447400D01*
X336400D01*
X317114Y-492086D02*
X336400Y-472800D01*
X305308Y-492086D02*
X317114D01*
X463400Y-484316D02*
Y-472800D01*
Y-484316D02*
X495808Y-516724D01*
X161908Y-566508D02*
X370078D01*
X155050Y-559650D02*
X161908Y-566508D01*
X155050Y-559650D02*
Y-518050D01*
X176276Y-496824D01*
Y-465670D01*
X168402Y-457796D02*
X176276Y-465670D01*
X168402Y-457796D02*
Y-395820D01*
X209400Y-354822D01*
Y-295000D01*
X168650Y-324700D02*
X177546Y-333596D01*
X168650Y-324700D02*
Y-280202D01*
X189938Y-258914D01*
X269748D01*
X313690Y-214972D01*
X399034D02*
X429260Y-245198D01*
X412600Y-320400D02*
X429260Y-303740D01*
X170301Y-551135D02*
Y-524985D01*
X189291Y-505995D01*
Y-486392D01*
X212123Y-463560D01*
X292100D01*
X301322Y-454339D01*
Y-445098D01*
X319786Y-426633D01*
Y-337014D01*
X336400Y-320400D01*
X1234694Y-360260D02*
X1236871Y-362437D01*
Y-413871D02*
Y-362437D01*
Y-413871D02*
X1270400Y-447400D01*
X184000Y-295000D02*
X200501Y-278499D01*
X298425D01*
X310425Y-266500D01*
X384100D01*
X412600Y-295000D01*
X209400Y-447400D02*
Y-396986D01*
X319786Y-286600D01*
Y-278499D01*
X352325D01*
X360426Y-286600D01*
Y-319026D02*
Y-286600D01*
Y-319026D02*
X412600Y-371200D01*
X1302866Y-302066D02*
X1321200Y-320400D01*
X1302866Y-302066D02*
Y-257994D01*
X1295400Y-250528D02*
X1302866Y-257994D01*
X1194200Y-250528D02*
X1295400D01*
X1073556Y-101600D02*
X1096019Y-124062D01*
X1208786Y-219290D02*
X1228024Y-238528D01*
X1328862D01*
X1344422Y-254088D01*
Y-398778D02*
Y-254088D01*
X1321200Y-422000D02*
X1344422Y-398778D01*
X647700Y-101600D02*
X738798Y-10502D01*
X1181100D01*
X1201420Y-30822D01*
X1292098D01*
X1294638Y-28282D01*
X1492900D01*
X1610868Y-146250D01*
X1760982D01*
X1768094Y-153362D01*
Y-331050D02*
Y-153362D01*
X1760220Y-338924D02*
X1768094Y-331050D01*
X1745124Y-338924D02*
X1760220D01*
X1737250Y-331050D02*
X1745124Y-338924D01*
X1737250Y-331050D02*
Y-259422D01*
X1709310Y-231482D02*
X1737250Y-259422D01*
X1500124Y-231482D02*
X1709310D01*
X1455420Y-186778D02*
X1500124Y-231482D01*
X1378966Y-186778D02*
X1455420D01*
X1372616Y-193128D02*
X1378966Y-186778D01*
X1288288Y-193128D02*
X1372616D01*
X1276801Y-265264D02*
X1288288D01*
X1253899Y-288165D02*
X1276801Y-265264D01*
X1253899Y-303899D02*
Y-288165D01*
Y-303899D02*
X1270400Y-320400D01*
X882396Y-497928D02*
Y-478116D01*
X867156Y-462876D02*
X882396Y-478116D01*
X857250Y-462876D02*
X867156D01*
X848636Y-454262D02*
X857250Y-462876D01*
X848636Y-454262D02*
Y-286578D01*
X855726Y-279488D01*
X889000D01*
X927100Y-241388D01*
X1447546Y-572096D02*
X1536700D01*
X1543812Y-564984D01*
Y-485596D01*
X1515364Y-457148D02*
X1543812Y-485596D01*
X1515364Y-457148D02*
Y-432650D01*
X1523492Y-424522D01*
X1562522D01*
X1585400Y-447400D01*
X1510954Y-540854D02*
X1526600Y-556500D01*
X1447314Y-540854D02*
X1510954D01*
X1435847Y-552322D02*
X1447314Y-540854D01*
X1293321Y-552322D02*
X1435847D01*
X1281854Y-540854D02*
X1293321Y-552322D01*
X1248619Y-540854D02*
X1281854D01*
X1224066Y-565408D02*
X1248619Y-540854D01*
X1146603Y-565408D02*
X1224066D01*
X1146450Y-565561D02*
X1146603Y-565408D01*
X1076214Y-565561D02*
X1146450D01*
X1043774Y-598000D02*
X1076214Y-565561D01*
X974621Y-598000D02*
X1043774D01*
X969007Y-603614D02*
X974621Y-598000D01*
X929503Y-603614D02*
X969007D01*
X924498Y-598609D02*
X929503Y-603614D01*
X777440Y-598609D02*
X924498D01*
X771926Y-593096D02*
X777440Y-598609D01*
X295904Y-593096D02*
X771926D01*
X279400Y-609600D02*
X295904Y-593096D01*
X1028700Y-177800D02*
X1045376Y-161124D01*
X1061655D01*
X1104349Y-203818D01*
X1246554D01*
X1267173Y-224438D01*
X1405060D01*
X1410716Y-218782D01*
X1166618Y-61810D02*
X1372870D01*
X1158066Y-70362D02*
X1166618Y-61810D01*
X1119967Y-70362D02*
X1158066D01*
X1097181Y-47576D02*
X1119967Y-70362D01*
X900211Y-47576D02*
X1097181D01*
X881656Y-66131D02*
X900211Y-47576D01*
X850389Y-66131D02*
X881656D01*
X829564Y-86956D02*
X850389Y-66131D01*
X777240Y-251040D02*
X833120D01*
X761780Y-266500D02*
X777240Y-251040D01*
X732317Y-266500D02*
X761780D01*
X709327Y-289489D02*
X732317Y-266500D01*
X694269Y-289489D02*
X709327D01*
X692912Y-290846D02*
X694269Y-289489D01*
X692912Y-437222D02*
Y-290846D01*
X1295800Y-114300D02*
X1321288Y-139788D01*
X1346075Y-115000D01*
X1373500D01*
X53625Y-343800D02*
X69342Y-359517D01*
Y-502158D02*
Y-359517D01*
X38100Y-533400D02*
X69342Y-502158D01*
X518922Y-403186D02*
Y-356196D01*
X537718Y-277710D02*
X575818Y-239610D01*
X90170Y-483870D02*
X139700Y-533400D01*
X90170Y-483870D02*
Y-481945D01*
X1002302Y-295000D02*
X1016400D01*
X992950Y-285648D02*
X1002302Y-295000D01*
X992950Y-285648D02*
Y-267650D01*
X950432Y-225132D02*
X992950Y-267650D01*
X869950Y-225132D02*
X950432D01*
X856742Y-238340D02*
X869950Y-225132D01*
X840486Y-238340D02*
X856742D01*
X838454Y-236308D02*
X840486Y-238340D01*
X739388Y-236308D02*
X838454D01*
X736062Y-239634D02*
X739388Y-236308D01*
X710387Y-239634D02*
X736062D01*
X695187Y-224433D02*
X710387Y-239634D01*
X663512Y-224433D02*
X695187D01*
X663512Y-240816D02*
Y-224433D01*
X654812Y-249516D02*
X663512Y-240816D01*
X1092600Y-371200D02*
X1122934Y-401534D01*
Y-480784D02*
Y-401534D01*
Y-480784D02*
X1130300Y-488150D01*
X1159002D01*
X412600Y-320400D02*
X420860D01*
X429260Y-312000D01*
X396941Y-229135D02*
X429260Y-261454D01*
X1726900Y-700000D02*
X1780000D01*
X1710400Y-683500D02*
X1726900Y-700000D01*
X336400Y-396600D02*
X396100Y-456299D01*
Y-489300D02*
Y-456299D01*
Y-489300D02*
X421500D01*
X463400Y-447400D01*
X1092600Y-345800D02*
X1109010Y-362210D01*
X1134410D01*
X1143400Y-371200D01*
X38100Y-333925D02*
X53625Y-318400D01*
X38100Y-455275D02*
Y-333925D01*
Y-455275D02*
X53625Y-470800D01*
X781050Y-320400D02*
X803400D01*
X772668Y-328782D02*
X781050Y-320400D01*
X772668Y-376532D02*
Y-328782D01*
X752600Y-396600D02*
X772668Y-376532D01*
X787908Y-355708D02*
X803400Y-371200D01*
X787908Y-355708D02*
Y-337908D01*
X787400Y-337400D02*
X787908Y-337908D01*
X1194200Y-345800D02*
X1216660Y-368260D01*
Y-416394D02*
Y-368260D01*
Y-416394D02*
X1253744Y-453478D01*
Y-489300D02*
Y-453478D01*
Y-489300D02*
X1286900D01*
Y-405499D01*
X1321200Y-371200D01*
X330551Y-698500D02*
X381000D01*
X329052Y-700000D02*
X330551Y-698500D01*
X40000Y-700000D02*
X329052D01*
X940200Y-447400D02*
X955712Y-431888D01*
X978408D01*
X986994Y-440474D01*
Y-477100D02*
Y-440474D01*
Y-477100D02*
X999949Y-490055D01*
X1024545D01*
X1092600Y-422000D01*
X307666Y-188534D02*
X326000Y-170200D01*
X134134Y-188534D02*
X307666D01*
X81348Y-241320D02*
X134134Y-188534D01*
X81348Y-419148D02*
Y-241320D01*
Y-419148D02*
X133000Y-470800D01*
X625600Y-447400D02*
X651000D01*
X676400Y-472800D01*
X1752600Y-292100D02*
Y-160108D01*
X1750742Y-158250D02*
X1752600Y-160108D01*
X1475185Y-158250D02*
X1750742D01*
X1473216Y-156282D02*
X1475185Y-158250D01*
X1414781Y-156282D02*
X1473216D01*
X1373500Y-115000D02*
X1414781Y-156282D01*
X1092600Y-447400D02*
X1109218Y-464018D01*
Y-493514D02*
Y-464018D01*
Y-493514D02*
X1117600Y-501896D01*
X1165104D01*
X1194200Y-472800D01*
X710184Y-395820D02*
X710946Y-395058D01*
X710184Y-445350D02*
Y-395820D01*
X703786Y-451748D02*
X710184Y-445350D01*
X697451Y-451748D02*
X703786D01*
X676400Y-472800D02*
X697451Y-451748D01*
X752600Y-447400D02*
X769112Y-463912D01*
Y-489800D02*
Y-463912D01*
Y-489800D02*
X779526Y-500214D01*
X844804D01*
X857250Y-512660D01*
X896874D01*
X908304Y-501230D01*
X937006D01*
X1577400Y-683500D02*
X1604750Y-656150D01*
X1683050D01*
X1710400Y-683500D01*
X1592240Y-276440D02*
X1610800Y-295000D01*
X1429360Y-276440D02*
X1592240D01*
X1410800Y-295000D02*
X1429360Y-276440D01*
X952500Y-101600D02*
X970071Y-119171D01*
X985729D01*
X1003300Y-101600D01*
X433578Y-350222D02*
X463400Y-320400D01*
X433578Y-375622D02*
Y-350222D01*
X412600Y-396600D02*
X433578Y-375622D01*
X445770Y-388708D02*
Y-363430D01*
X463400Y-345800D01*
X1359148Y-180152D02*
X1373500Y-165800D01*
X1310452Y-180152D02*
X1359148D01*
X1295400Y-165100D02*
X1310452Y-180152D01*
X336400Y-514200D02*
X355600Y-533400D01*
X336400Y-514200D02*
Y-472800D01*
X732624Y-84924D02*
X749300Y-101600D01*
X715176Y-84924D02*
X732624D01*
X698500Y-101600D02*
X715176Y-84924D01*
X251000Y-94000D02*
X276000D01*
X301000D01*
X326000D01*
X381000Y-533400D02*
X406400D01*
X226000Y-94000D02*
X251000D01*
X201000D02*
X226000D01*
X176000D02*
X201000D01*
X101000D02*
X126000D01*
X151000D02*
X176000D01*
X126000D02*
X151000D01*
D25*
X326000D02*
D03*
D26*
X301000D02*
D03*
X276000D02*
D03*
X251000D02*
D03*
X226000D02*
D03*
X201000D02*
D03*
X176000D02*
D03*
X151000D02*
D03*
X126000D02*
D03*
X101000D02*
D03*
Y-170200D02*
D03*
X126000D02*
D03*
X151000D02*
D03*
X176000D02*
D03*
X201000D02*
D03*
X226000D02*
D03*
X251000D02*
D03*
X276000D02*
D03*
X301000D02*
D03*
X326000D02*
D03*
D29*
X1320400Y-165100D02*
D03*
X1320800Y-114300D02*
D03*
D30*
X1295400Y-165100D02*
D03*
X1295800Y-114300D02*
D03*
D31*
X1841500Y-604100D02*
D03*
X381000Y-698500D02*
D03*
X482600D02*
D03*
X53625Y-267600D02*
D03*
D32*
X1866900Y-604100D02*
D03*
X406400Y-698500D02*
D03*
X457200D02*
D03*
X53625Y-293000D02*
D03*
Y-318400D02*
D03*
Y-343800D02*
D03*
Y-369200D02*
D03*
Y-394600D02*
D03*
Y-420000D02*
D03*
Y-445400D02*
D03*
Y-470800D02*
D03*
X133000D02*
D03*
Y-445400D02*
D03*
Y-420000D02*
D03*
Y-394600D02*
D03*
Y-369200D02*
D03*
Y-343800D02*
D03*
Y-318400D02*
D03*
Y-293000D02*
D03*
Y-267600D02*
D03*
D33*
X1722700Y-130000D02*
D03*
X1652700D02*
D03*
D34*
X1697300D02*
D03*
X1627300D02*
D03*
D37*
X1905000Y-604100D02*
D03*
Y-705700D02*
D03*
X463400Y-295000D02*
D03*
Y-320400D02*
D03*
Y-345800D02*
D03*
Y-371200D02*
D03*
Y-396600D02*
D03*
Y-422000D02*
D03*
Y-447400D02*
D03*
Y-472800D02*
D03*
X803400Y-295000D02*
D03*
Y-320400D02*
D03*
Y-345800D02*
D03*
Y-371200D02*
D03*
Y-396600D02*
D03*
Y-422000D02*
D03*
Y-447400D02*
D03*
Y-472800D02*
D03*
X1143400Y-295000D02*
D03*
Y-320400D02*
D03*
Y-345800D02*
D03*
Y-371200D02*
D03*
Y-396600D02*
D03*
Y-422000D02*
D03*
Y-447400D02*
D03*
Y-472800D02*
D03*
X1321200Y-295000D02*
D03*
Y-320400D02*
D03*
Y-345800D02*
D03*
Y-371200D02*
D03*
Y-396600D02*
D03*
Y-422000D02*
D03*
Y-447400D02*
D03*
Y-472800D02*
D03*
X1526600Y-683500D02*
D03*
X1577400Y-556500D02*
D03*
Y-683500D02*
D03*
X1659600D02*
D03*
X1710400Y-556500D02*
D03*
Y-683500D02*
D03*
X1752600Y-317500D02*
D03*
X406400Y-660400D02*
D03*
X457200D02*
D03*
X584200D02*
D03*
Y-558800D02*
D03*
X609600D02*
D03*
Y-660400D02*
D03*
X635000D02*
D03*
Y-558800D02*
D03*
X660400D02*
D03*
Y-660400D02*
D03*
X685800D02*
D03*
Y-558800D02*
D03*
X711200D02*
D03*
Y-660400D02*
D03*
X736600D02*
D03*
Y-558800D02*
D03*
X762000D02*
D03*
Y-660400D02*
D03*
X787400Y-558800D02*
D03*
Y-660400D02*
D03*
X812800Y-558800D02*
D03*
Y-660400D02*
D03*
X838200Y-558800D02*
D03*
Y-660400D02*
D03*
X863600Y-558800D02*
D03*
Y-660400D02*
D03*
X889000D02*
D03*
Y-558800D02*
D03*
X914400D02*
D03*
Y-660400D02*
D03*
X1727200Y-190500D02*
D03*
X1625600D02*
D03*
X1727200Y-215900D02*
D03*
X1625600D02*
D03*
X38100Y-533400D02*
D03*
X139700D02*
D03*
X38100Y-584200D02*
D03*
X139700D02*
D03*
X184000Y-447400D02*
D03*
X209400D02*
D03*
X234800D02*
D03*
X260200D02*
D03*
X285600D02*
D03*
X184000Y-295000D02*
D03*
X209400D02*
D03*
X260200D02*
D03*
X234800D02*
D03*
X524000Y-447400D02*
D03*
X549400D02*
D03*
X574800D02*
D03*
X600200D02*
D03*
X625600D02*
D03*
X524000Y-295000D02*
D03*
X549400D02*
D03*
X600200D02*
D03*
X574800D02*
D03*
X864000Y-447400D02*
D03*
X889400D02*
D03*
X914800D02*
D03*
X940200D02*
D03*
X965600D02*
D03*
X864000Y-295000D02*
D03*
X889400D02*
D03*
X940200D02*
D03*
X914800D02*
D03*
X1360000Y-447400D02*
D03*
X1385400D02*
D03*
X1410800D02*
D03*
X1436200D02*
D03*
X1461600D02*
D03*
X1360000Y-295000D02*
D03*
X1385400D02*
D03*
X1436200D02*
D03*
X1410800D02*
D03*
X1560000Y-447400D02*
D03*
X1585400D02*
D03*
X1610800D02*
D03*
X1636200D02*
D03*
X1661600D02*
D03*
X1560000Y-295000D02*
D03*
X1585400D02*
D03*
X1636200D02*
D03*
X1610800D02*
D03*
D38*
X463400Y-269600D02*
D03*
X803400D02*
D03*
X1143400D02*
D03*
X1321200D02*
D03*
X1526600Y-556500D02*
D03*
X1659600D02*
D03*
X1752600Y-292100D02*
D03*
D39*
X285600Y-295000D02*
D03*
X625600D02*
D03*
X965600D02*
D03*
X1461600D02*
D03*
X1661600D02*
D03*
D40*
X40000Y-40000D02*
D03*
X1780000D02*
D03*
Y-700000D02*
D03*
X40000D02*
D03*
D41*
X1054100Y-101600D02*
D03*
X203200Y-609600D02*
D03*
X800100Y-101600D02*
D03*
D42*
X1028700D02*
D03*
X1003300D02*
D03*
X977900D02*
D03*
X952500D02*
D03*
X927100D02*
D03*
X901700D02*
D03*
X876300D02*
D03*
X1054100Y-177800D02*
D03*
X1028700D02*
D03*
X1003300D02*
D03*
X977900D02*
D03*
X952500D02*
D03*
X927100D02*
D03*
X901700D02*
D03*
X876300D02*
D03*
X228600Y-609600D02*
D03*
X254000D02*
D03*
X279400D02*
D03*
X304800D02*
D03*
X330200D02*
D03*
X355600D02*
D03*
X381000D02*
D03*
X406400D02*
D03*
X431800D02*
D03*
X457200D02*
D03*
X482600D02*
D03*
X508000D02*
D03*
X533400D02*
D03*
X203200Y-533400D02*
D03*
X228600D02*
D03*
X254000D02*
D03*
X279400D02*
D03*
X304800D02*
D03*
X330200D02*
D03*
X355600D02*
D03*
X381000D02*
D03*
X406400D02*
D03*
X431800D02*
D03*
X457200D02*
D03*
X482600D02*
D03*
X508000D02*
D03*
X533400D02*
D03*
X336400Y-320400D02*
D03*
Y-345800D02*
D03*
Y-371200D02*
D03*
Y-396600D02*
D03*
Y-422000D02*
D03*
Y-447400D02*
D03*
Y-472800D02*
D03*
X412600Y-295000D02*
D03*
Y-320400D02*
D03*
Y-345800D02*
D03*
Y-371200D02*
D03*
Y-396600D02*
D03*
Y-422000D02*
D03*
Y-447400D02*
D03*
Y-472800D02*
D03*
X622300Y-177800D02*
D03*
X647700D02*
D03*
X673100D02*
D03*
X698500D02*
D03*
X723900D02*
D03*
X749300D02*
D03*
X774700D02*
D03*
X800100D02*
D03*
X622300Y-101600D02*
D03*
X647700D02*
D03*
X673100D02*
D03*
X698500D02*
D03*
X723900D02*
D03*
X749300D02*
D03*
X774700D02*
D03*
X1270400Y-472800D02*
D03*
Y-447400D02*
D03*
Y-422000D02*
D03*
Y-396600D02*
D03*
Y-371200D02*
D03*
Y-345800D02*
D03*
Y-320400D02*
D03*
Y-295000D02*
D03*
X1194200Y-472800D02*
D03*
Y-447400D02*
D03*
Y-422000D02*
D03*
Y-396600D02*
D03*
Y-371200D02*
D03*
Y-345800D02*
D03*
Y-320400D02*
D03*
X1092600Y-472800D02*
D03*
Y-447400D02*
D03*
Y-422000D02*
D03*
Y-396600D02*
D03*
Y-371200D02*
D03*
Y-345800D02*
D03*
Y-320400D02*
D03*
Y-295000D02*
D03*
X1016400Y-472800D02*
D03*
Y-447400D02*
D03*
Y-422000D02*
D03*
Y-396600D02*
D03*
Y-371200D02*
D03*
Y-345800D02*
D03*
Y-320400D02*
D03*
X752600Y-472800D02*
D03*
Y-447400D02*
D03*
Y-422000D02*
D03*
Y-396600D02*
D03*
Y-371200D02*
D03*
Y-345800D02*
D03*
Y-320400D02*
D03*
Y-295000D02*
D03*
X676400Y-472800D02*
D03*
Y-447400D02*
D03*
Y-422000D02*
D03*
Y-396600D02*
D03*
Y-371200D02*
D03*
Y-345800D02*
D03*
Y-320400D02*
D03*
D43*
X1373500Y-165800D02*
D03*
Y-140400D02*
D03*
D44*
Y-115000D02*
D03*
D45*
X336400Y-295000D02*
D03*
X1194200D02*
D03*
X1016400D02*
D03*
X676400D02*
D03*
D46*
X461772Y-160870D02*
D03*
X656082Y-336638D02*
D03*
X463400Y-239610D02*
D03*
X1033272Y-334860D02*
D03*
X1124204Y-239610D02*
D03*
X1285240Y-282028D02*
D03*
X709168Y-357974D02*
D03*
X370586Y-405472D02*
D03*
X425030Y-84030D02*
D03*
X783336Y-50888D02*
D03*
X752348Y-81876D02*
D03*
X80518Y-601560D02*
D03*
X724916Y-225132D02*
D03*
X569468Y-489038D02*
D03*
X723900Y-133692D02*
D03*
X395456Y-87188D02*
D03*
X568706Y-720178D02*
D03*
X514812Y-169506D02*
D03*
X844550Y-176872D02*
D03*
X884682Y-240118D02*
D03*
X834136Y-449922D02*
D03*
X1128587Y-150563D02*
D03*
X1159787Y-698588D02*
D03*
X597916Y-165696D02*
D03*
X529336Y-137248D02*
D03*
X25908Y-123808D02*
D03*
X38354Y-627722D02*
D03*
X504444Y-675982D02*
D03*
X535178Y-657948D02*
D03*
X733500Y-638101D02*
D03*
X833374Y-515200D02*
D03*
X1111504Y-96862D02*
D03*
X1169416D02*
D03*
X1201928Y-77050D02*
D03*
X1530096Y-139280D02*
D03*
Y-439254D02*
D03*
X1113272Y-604852D02*
D03*
X1044188Y-535768D02*
D03*
X889000Y-541424D02*
D03*
X567436Y-110531D02*
D03*
X630892Y-47075D02*
D03*
X1625092Y-597496D02*
D03*
X1310686Y-635596D02*
D03*
X1023874Y-571500D02*
D03*
X1153563Y-238248D02*
D03*
X761238Y-209384D02*
D03*
X957484Y-528758D02*
D03*
X1008888Y-535520D02*
D03*
X954278Y-589114D02*
D03*
X1247648Y-567524D02*
D03*
X1103684Y-146465D02*
D03*
X55186Y-94000D02*
D03*
X367792Y-449668D02*
D03*
X408432Y-507580D02*
D03*
X447040Y-438360D02*
D03*
X413747Y-204050D02*
D03*
X305054Y-337654D02*
D03*
X381508Y-363816D02*
D03*
X847598Y-223608D02*
D03*
X707390Y-270598D02*
D03*
X606552Y-476927D02*
D03*
X858774Y-479132D02*
D03*
X921004Y-515962D02*
D03*
X668762Y-528662D02*
D03*
X1514094Y-347494D02*
D03*
X1216523Y-669225D02*
D03*
X584200Y-673696D02*
D03*
X736600Y-698842D02*
D03*
X1686814Y-371944D02*
D03*
X1112266Y-700366D02*
D03*
X1214222Y-549399D02*
D03*
X1309156Y-512384D02*
D03*
X1372870Y-587336D02*
D03*
X1316251D02*
D03*
X1174242Y-516724D02*
D03*
X1141730D02*
D03*
X870919Y-642454D02*
D03*
X823722D02*
D03*
X1421130Y-678014D02*
D03*
X1551940Y-683602D02*
D03*
X1611376Y-541150D02*
D03*
X1024738Y-244080D02*
D03*
X992970Y-333082D02*
D03*
X952754Y-485354D02*
D03*
X1097788Y-538568D02*
D03*
X1159510Y-433158D02*
D03*
X222250Y-495134D02*
D03*
X155362Y-473798D02*
D03*
X260840Y-237324D02*
D03*
X350012Y-107044D02*
D03*
X617474Y-23710D02*
D03*
X1221994Y-14566D02*
D03*
X168402Y-230849D02*
D03*
X120142Y-322922D02*
D03*
X205974Y-215226D02*
D03*
X229958Y-216242D02*
D03*
X814832Y-208876D02*
D03*
X1028700Y-210146D02*
D03*
X1143254Y-51650D02*
D03*
X1325118Y-520788D02*
D03*
X1415796D02*
D03*
X1265428Y-94068D02*
D03*
X1223518D02*
D03*
X1307846Y-43014D02*
D03*
X1259536Y-130928D02*
D03*
X1239012Y-526630D02*
D03*
Y-466686D02*
D03*
X1485141Y-429856D02*
D03*
X1357630Y-97878D02*
D03*
X1117092Y-189318D02*
D03*
X112776Y-613752D02*
D03*
X1650746Y-501738D02*
D03*
X1460246Y-329526D02*
D03*
X1570482Y-370674D02*
D03*
X1350010Y-706970D02*
D03*
X1173734Y-712558D02*
D03*
X775716Y-398884D02*
D03*
X678012Y-238934D02*
D03*
X600200Y-233878D02*
D03*
X1275588Y-555586D02*
D03*
X446532Y-628484D02*
D03*
X540766Y-631532D02*
D03*
X1204722Y-591908D02*
D03*
X1251458Y-394804D02*
D03*
X693166Y-437222D02*
D03*
X733806Y-313489D02*
D03*
X885698Y-380326D02*
D03*
X969265Y-267803D02*
D03*
X985774Y-233006D02*
D03*
X1125474Y-331812D02*
D03*
X1094508Y-216518D02*
D03*
X305308Y-492086D02*
D03*
X495808Y-516724D02*
D03*
X370078Y-566508D02*
D03*
X177546Y-333596D02*
D03*
X170301Y-551135D02*
D03*
X1234694Y-360260D02*
D03*
X1194200Y-250528D02*
D03*
X1198880Y-162140D02*
D03*
X1208786Y-219290D02*
D03*
X1288288Y-193128D02*
D03*
Y-265264D02*
D03*
X882396Y-497928D02*
D03*
X927100Y-241388D02*
D03*
X1447546Y-572096D02*
D03*
X1410716Y-218782D02*
D03*
X1372870Y-61810D02*
D03*
X829564Y-86956D02*
D03*
X833120Y-251040D02*
D03*
X692912Y-437222D02*
D03*
X518922Y-403186D02*
D03*
Y-356196D02*
D03*
X537718Y-277710D02*
D03*
X575818Y-239610D02*
D03*
X90170Y-481945D02*
D03*
X654812Y-249516D02*
D03*
X396941Y-188410D02*
D03*
X787400Y-337400D02*
D03*
X710946Y-395058D02*
D03*
X937006Y-501230D02*
D03*
X445770Y-388708D02*
D03*
M02*
