G04*
G04 #@! TF.GenerationSoftware,Altium Limited,Altium Designer,22.10.1 (41)*
G04*
G04 Layer_Physical_Order=1*
G04 Layer_Color=255*
%FSLAX44Y44*%
%MOMM*%
G71*
G04*
G04 #@! TF.SameCoordinates,66B8FDAA-6FD5-4FC8-9D46-DBF7901E3F2B*
G04*
G04*
G04 #@! TF.FilePolarity,Positive*
G04*
G01*
G75*
%ADD24C,1.4500*%
%ADD25R,1.4500X1.4500*%
%ADD26C,1.3500*%
%ADD27R,1.3500X1.3500*%
%ADD31C,1.3000*%
%ADD32R,1.3000X1.3000*%
%ADD33R,1.2000X1.2000*%
%ADD34C,1.2000*%
%ADD38C,0.4000*%
%ADD39C,1.2700*%
%ADD40R,1.2700X1.2700*%
%ADD41R,1.2700X1.2700*%
%ADD42C,4.0640*%
%ADD43C,1.5000*%
%ADD44R,1.5000X1.5000*%
%ADD45R,1.5000X1.5000*%
%ADD46R,1.6000X1.6000*%
%ADD47C,1.6000*%
D24*
X2202700Y315000D02*
D03*
X2272700D02*
D03*
D25*
X2177300D02*
D03*
X2247300D02*
D03*
D26*
X876000Y274800D02*
D03*
X851000D02*
D03*
X826000D02*
D03*
X801000D02*
D03*
X776000D02*
D03*
X751000D02*
D03*
X726000D02*
D03*
X701000D02*
D03*
X676000D02*
D03*
X651000D02*
D03*
Y351000D02*
D03*
X676000D02*
D03*
X701000D02*
D03*
X726000D02*
D03*
X751000D02*
D03*
X776000D02*
D03*
X801000D02*
D03*
X826000D02*
D03*
X851000D02*
D03*
D27*
X876000D02*
D03*
D31*
X1540600Y-113800D02*
D03*
X1033400Y-262000D02*
D03*
X683000Y177400D02*
D03*
Y152000D02*
D03*
Y126600D02*
D03*
Y101200D02*
D03*
Y75800D02*
D03*
Y50400D02*
D03*
Y25000D02*
D03*
Y-400D02*
D03*
Y-25800D02*
D03*
X603625D02*
D03*
Y-400D02*
D03*
Y25000D02*
D03*
Y50400D02*
D03*
Y75800D02*
D03*
Y101200D02*
D03*
Y126600D02*
D03*
Y152000D02*
D03*
X931800Y-262000D02*
D03*
D32*
X1566000Y-113800D02*
D03*
X1008000Y-262000D02*
D03*
X603625Y177400D02*
D03*
X957200Y-262000D02*
D03*
D33*
X1845800Y330700D02*
D03*
X1845400Y279900D02*
D03*
D34*
X1870800Y330700D02*
D03*
X1870400Y279900D02*
D03*
X1032600Y-53550D02*
D03*
X1052830Y187550D02*
D03*
X1116838Y-88348D02*
D03*
X1527950Y190684D02*
D03*
X1513213Y-63837D02*
D03*
X1345266Y243712D02*
D03*
X1367282Y241344D02*
D03*
X1345851Y225755D02*
D03*
X1416304Y181908D02*
D03*
X1185164Y-164040D02*
D03*
X1555242Y-151340D02*
D03*
X1227328Y-78442D02*
D03*
X1595882Y-232874D02*
D03*
X1795272Y-218552D02*
D03*
X1123696Y-165056D02*
D03*
X2002790Y-234398D02*
D03*
X1096190Y-254718D02*
D03*
X1019302Y83610D02*
D03*
X852170Y143808D02*
D03*
X1352610Y137458D02*
D03*
X1055878Y-212554D02*
D03*
X2170176Y-148800D02*
D03*
X1910000Y195370D02*
D03*
X1590040Y198164D02*
D03*
X1537970Y-179050D02*
D03*
X2185416Y-173946D02*
D03*
X2034286Y-149308D02*
D03*
X1978660Y-186646D02*
D03*
X1464826Y103133D02*
D03*
X1608074Y-44914D02*
D03*
X1659783Y-33337D02*
D03*
X1464800Y77532D02*
D03*
X771906Y243630D02*
D03*
X1609598Y376980D02*
D03*
X1742694Y243884D02*
D03*
X1663954Y103246D02*
D03*
X2023618Y346754D02*
D03*
X786130Y-147022D02*
D03*
X952500Y-67266D02*
D03*
X984100Y-70822D02*
D03*
X1326896Y381298D02*
D03*
X1754378D02*
D03*
X1935734Y119170D02*
D03*
X1237742Y-247606D02*
D03*
X1007618Y-185884D02*
D03*
X1387094Y300780D02*
D03*
X1374902Y286810D02*
D03*
X1440434Y239312D02*
D03*
X1324610Y-972D02*
D03*
X1289050Y208070D02*
D03*
X1512710Y-43390D02*
D03*
X924306Y73606D02*
D03*
X1491234Y115360D02*
D03*
X1679956Y112644D02*
D03*
X978154Y110280D02*
D03*
D38*
X1160400Y208070D02*
X1163066D01*
Y122573D02*
Y208070D01*
X1239967Y-47261D02*
Y136433D01*
Y-65803D02*
Y-47261D01*
X638048Y283000D02*
X706048Y351000D01*
X547370Y70345D02*
X583125Y106100D01*
X1320800Y-9862D02*
Y81000D01*
X1744200Y242378D02*
Y264186D01*
X1730502Y333800D02*
Y357422D01*
Y138298D02*
Y333800D01*
X1273041Y393341D02*
X1741783D01*
X1679956Y85896D02*
Y112644D01*
X2279904Y104804D02*
X2302600Y127500D01*
X2279904Y-218996D02*
Y104804D01*
X2260400Y-238500D02*
X2279904Y-218996D01*
X603625Y145719D02*
Y152000D01*
Y145719D02*
X616204Y133140D01*
Y113779D02*
Y133140D01*
X603625Y101200D02*
X616204Y113779D01*
X1414400Y207900D02*
Y236136D01*
X1411732Y238804D02*
X1414400Y236136D01*
X1411732Y238804D02*
Y328832D01*
X1426300Y343400D01*
X1150800Y217500D02*
X1160400Y207900D01*
X1150800Y217500D02*
Y321900D01*
X1172300Y343400D01*
X1032600Y-88400D02*
Y-53550D01*
X1052830Y128822D02*
Y187550D01*
Y128822D02*
X1086358Y95294D01*
Y-27388D02*
Y95294D01*
Y-27388D02*
X1116838Y-57868D01*
Y-88348D02*
Y-57868D01*
X1527950Y88068D02*
Y190684D01*
X1502664Y62782D02*
X1527950Y88068D01*
X1502664Y-16720D02*
Y62782D01*
X1496576Y-22808D02*
X1502664Y-16720D01*
X1496576Y-47200D02*
Y-22808D01*
Y-47200D02*
X1513213Y-63837D01*
X1328801Y227247D02*
X1345266Y243712D01*
X1328801Y16808D02*
Y227247D01*
Y16808D02*
X1336610Y8999D01*
Y-13990D02*
Y8999D01*
X1264920Y-85680D02*
X1336610Y-13990D01*
X1264920Y-97746D02*
Y-85680D01*
X1261200Y-113800D02*
X1264920Y-97746D01*
X1367282Y-68790D02*
Y241344D01*
X1349756Y-86316D02*
X1367282Y-68790D01*
X1349756Y-128988D02*
Y-86316D01*
X1341882Y-136862D02*
X1349756Y-128988D01*
X1297940Y-136862D02*
X1341882D01*
X1286600Y-125522D02*
X1297940Y-136862D01*
X1286600Y-125522D02*
Y-113800D01*
X1336802Y216706D02*
X1345851Y225755D01*
X1336802Y24808D02*
Y216706D01*
Y24808D02*
X1344610Y17000D01*
Y-20972D02*
Y17000D01*
X1312000Y-53582D02*
X1344610Y-20972D01*
X1312000Y-113800D02*
Y-53582D01*
X1416304Y170654D02*
Y181908D01*
X1401650Y156000D02*
X1416304Y170654D01*
X1401650Y-10448D02*
Y156000D01*
Y-10448D02*
X1413600Y-22398D01*
Y-113800D02*
Y-22398D01*
X1435874Y251374D02*
X1451700Y267200D01*
X1428372Y244900D02*
X1435874Y251374D01*
X1428372Y195370D02*
Y244900D01*
X1408684Y195370D02*
X1428372D01*
X1401064Y187750D02*
X1408684Y195370D01*
X1401064Y177764D02*
Y187750D01*
X1393650Y170350D02*
X1401064Y177764D01*
X1393650Y-18627D02*
Y170350D01*
Y-18627D02*
X1401064Y-26041D01*
Y-126194D02*
Y-26041D01*
Y-126194D02*
X1426606D01*
X1439000Y-113800D01*
X1226400Y150000D02*
X1239967Y136433D01*
X1224788Y-62440D02*
X1239967Y-47261D01*
X1186180Y-62440D02*
X1224788D01*
X1147064Y-101556D02*
X1186180Y-62440D01*
X1147064Y-125940D02*
Y-101556D01*
Y-125940D02*
X1185164Y-164040D01*
X1555242Y-151340D02*
X1580074Y-126508D01*
Y136326D01*
X1566400Y150000D02*
X1580074Y136326D01*
X1227328Y-78442D02*
X1239967Y-65803D01*
X1588074Y-225066D02*
X1595882Y-232874D01*
X1588074Y-225066D02*
Y156696D01*
X1581150Y163620D02*
X1588074Y156696D01*
X1552702Y163620D02*
X1581150D01*
X1552702Y138298D02*
Y163620D01*
Y138298D02*
X1566400Y124600D01*
X1820400Y23000D02*
X1834134Y9266D01*
Y-41358D02*
Y9266D01*
X1795272Y-80220D02*
X1834134Y-41358D01*
X1795272Y-218552D02*
Y-80220D01*
X1113026Y-154386D02*
X1123696Y-165056D01*
X1113026Y-154386D02*
Y-116160D01*
X1177668Y-51518D01*
X1195578D01*
X1212596Y-34500D01*
Y-16204D01*
X1226400Y-2400D01*
X1820400Y48400D02*
X1832750Y60750D01*
X2097024D01*
X2147824Y9950D01*
Y-9100D02*
Y9950D01*
X2002790Y-154134D02*
X2147824Y-9100D01*
X2002790Y-234398D02*
Y-154134D01*
X1083400Y-241928D02*
X1096190Y-254718D01*
X1083400Y-241928D02*
Y-164600D01*
X1604100Y188500D02*
Y267200D01*
Y188500D02*
X1642600Y150000D01*
X931000Y-139200D02*
Y-88400D01*
X905600Y-164600D02*
X931000Y-139200D01*
X723490Y139490D02*
X734000Y150000D01*
X663448Y139490D02*
X723490D01*
X638048Y164890D02*
X663448Y139490D01*
X638048Y164890D02*
Y283000D01*
X706048Y351000D02*
X726000D01*
X759400Y-2400D02*
X822706Y60906D01*
Y162350D01*
X817626Y167430D02*
X822706Y162350D01*
X817626Y167430D02*
Y213150D01*
X825500Y221024D01*
X986028D01*
X1019302Y187750D01*
Y83610D02*
Y187750D01*
X835152Y126790D02*
X852170Y143808D01*
X835152Y22552D02*
Y126790D01*
X810200Y-2400D02*
X835152Y22552D01*
X1196377Y18377D02*
X1226400Y48400D01*
X1196377Y-16551D02*
Y18377D01*
X1182237Y-30690D02*
X1196377Y-16551D01*
X1155700Y-30690D02*
X1182237D01*
X1137666Y-12656D02*
X1155700Y-30690D01*
X1137666Y-12656D02*
Y137134D01*
X1124800Y150000D02*
X1137666Y137134D01*
X1204377Y977D02*
X1226400Y23000D01*
X1204377Y-19935D02*
Y977D01*
X1185622Y-38690D02*
X1204377Y-19935D01*
X1143000Y-38690D02*
X1185622D01*
X1112266Y-7956D02*
X1143000Y-38690D01*
X1112266Y-7956D02*
Y137134D01*
X1099400Y150000D02*
X1112266Y137134D01*
X1099400Y150000D02*
Y167300D01*
X1058800Y207900D02*
X1099400Y167300D01*
X1159600Y-215400D02*
Y-197986D01*
X1166368Y-191218D01*
X1221232D01*
X1273556Y-138894D01*
Y-101302D01*
X1298956D01*
Y-126194D02*
Y-101302D01*
Y-126194D02*
X1324356D01*
Y-93682D01*
X1352610Y-65428D01*
Y137458D01*
X1986200D02*
Y150000D01*
Y137458D02*
X2147824D01*
Y156000D01*
X2154174Y162350D01*
X2167128D01*
X2173478Y156000D01*
Y123996D02*
Y156000D01*
Y123996D02*
X2198624Y98850D01*
Y-78570D02*
Y98850D01*
X2162176Y-115018D02*
X2198624Y-78570D01*
X2162176Y-127082D02*
Y-115018D01*
X2011172Y-278086D02*
X2162176Y-127082D01*
X1079484Y-278086D02*
X2011172D01*
X1061206Y-259809D02*
X1079484Y-278086D01*
X1061206Y-259809D02*
Y-217882D01*
X1055878Y-212554D02*
X1061206Y-217882D01*
X2186200Y150000D02*
X2224024Y112176D01*
Y-65488D02*
Y112176D01*
X2170176Y-119336D02*
X2224024Y-65488D01*
X2170176Y-148800D02*
Y-119336D01*
X1910000Y150000D02*
Y195370D01*
X1590040Y198164D02*
X1596074Y192130D01*
Y-56852D02*
Y192130D01*
Y-56852D02*
X1607882Y-68660D01*
Y-244874D02*
Y-68660D01*
X1583882Y-244874D02*
X1607882D01*
X1537970Y-198962D02*
X1583882Y-244874D01*
X1537970Y-198962D02*
Y-179050D01*
X2185416Y-173946D02*
X2232152Y-127210D01*
Y129448D01*
X2211600Y150000D02*
X2232152Y129448D01*
X2089024Y-99576D02*
X2186200Y-2400D01*
X2089024Y-123400D02*
Y-99576D01*
X2063116Y-149308D02*
X2089024Y-123400D01*
X2034286Y-149308D02*
X2063116D01*
X1978660Y-133740D02*
X2110000Y-2400D01*
X1978660Y-186646D02*
Y-133740D01*
X1464400Y-215400D02*
X1509874Y-260874D01*
X1859941D01*
X1897634Y-223181D01*
Y3600D01*
X1903984Y9950D01*
X2123050D01*
X2135400Y-2400D01*
X1464800Y103159D02*
Y150000D01*
Y103159D02*
X1464826Y103133D01*
X1516000Y207900D02*
X1536900D01*
X1544350Y200450D01*
Y182966D02*
Y200450D01*
X1535950Y174566D02*
X1544350Y182966D01*
X1535950Y53450D02*
Y174566D01*
Y53450D02*
X1566400Y23000D01*
X1608074Y64674D02*
X1642600Y99200D01*
X1608074Y-44914D02*
Y64674D01*
X1659783Y-33337D02*
Y56617D01*
X1642600Y73800D02*
X1659783Y56617D01*
X1464800Y-2400D02*
Y77532D01*
X676000Y184400D02*
Y274800D01*
Y184400D02*
X683000Y177400D01*
X701000Y170000D02*
Y274800D01*
X683000Y152000D02*
X701000Y170000D01*
X683000Y126600D02*
X736600D01*
X746506Y136506D01*
Y254294D01*
X726000Y274800D02*
X746506Y254294D01*
X776000Y274800D02*
X797814Y252986D01*
Y110280D02*
Y252986D01*
X763334Y75800D02*
X797814Y110280D01*
X683000Y75800D02*
X763334D01*
X801000Y274800D02*
X859238Y333038D01*
X882650D01*
X889000Y339388D01*
Y363772D01*
X634238D02*
X889000D01*
X626737Y356271D02*
X634238Y363772D01*
X626737Y159351D02*
Y356271D01*
Y159351D02*
X662500Y123589D01*
Y53303D02*
Y123589D01*
Y53303D02*
X680097D01*
X683000Y50400D01*
X771906Y130600D02*
Y243630D01*
X755396Y114090D02*
X771906Y130600D01*
X670499Y114090D02*
X755396D01*
X670499Y63036D02*
Y114090D01*
Y63036D02*
X695706D01*
Y-13094D02*
Y63036D01*
X683000Y-25800D02*
X695706Y-13094D01*
X555498Y-139698D02*
X576200Y-160400D01*
X555498Y-139698D02*
Y-92402D01*
X616125Y-31775D01*
Y12500D01*
X603625Y25000D02*
X616125Y12500D01*
X1350100Y343400D02*
X1383680Y376980D01*
X1609598D01*
X1742694Y243884D02*
X1744200Y242378D01*
Y150000D02*
Y242378D01*
Y264186D02*
X1824610Y344596D01*
X1887599D01*
X1891792Y145192D01*
X1871200Y124600D02*
X1891792Y145192D01*
X1871200Y73800D02*
X1918304D01*
X1973326Y128822D01*
Y358692D01*
X1938677Y393341D02*
X1973326Y358692D01*
X1741783Y393341D02*
X1938677D01*
X1720342Y371900D02*
X1741783Y393341D01*
X1720342Y123058D02*
Y371900D01*
Y123058D02*
X1744200Y99200D01*
X1451700Y343400D02*
X1473200Y364900D01*
X1642252D01*
X1707229Y299923D01*
Y110770D02*
Y299923D01*
Y110770D02*
X1744200Y73800D01*
X1604100Y343400D02*
X1679956Y267544D01*
Y85896D02*
X1701038Y64814D01*
Y-180317D02*
Y64814D01*
Y-180317D02*
X1767272Y-246551D01*
X1823272D01*
X1883664Y-186159D01*
Y10536D01*
X1871200Y23000D02*
X1883664Y10536D01*
X1578700Y343400D02*
X1663954Y258146D01*
Y103246D02*
Y258146D01*
X2023618Y346754D02*
X2068830Y301542D01*
X2153958D01*
X2302600Y152900D01*
X981800Y-190000D02*
Y-164600D01*
Y-190000D02*
X1007200Y-215400D01*
X956400Y-237400D02*
Y-215400D01*
X931800Y-262000D02*
X956400Y-237400D01*
X739648Y-147022D02*
X786130D01*
X709676Y-176994D02*
X739648Y-147022D01*
X611632Y-176994D02*
X709676D01*
X563626Y-128988D02*
X611632Y-176994D01*
X563626Y-128988D02*
Y-98624D01*
X624125Y-38125D01*
Y55300D01*
X603625Y75800D02*
X624125Y55300D01*
X879236Y-190964D02*
X905600Y-164600D01*
X589280Y-190964D02*
X879236D01*
X547370Y-149054D02*
X589280Y-190964D01*
X547370Y-149054D02*
Y70345D01*
X1105026Y-186226D02*
X1134200Y-215400D01*
X1105026Y-186226D02*
Y-123144D01*
X1096900Y-115018D02*
X1105026Y-123144D01*
X1096900Y-115018D02*
Y-74886D01*
X1040638Y-18624D02*
X1096900Y-74886D01*
X1040638Y-18624D02*
Y258870D01*
X1184148Y402380D01*
X1988089D01*
X2011600Y378868D01*
Y150000D02*
Y378868D01*
X952500Y-67266D02*
X976100Y-43666D01*
Y34900D01*
X962600Y48400D02*
X976100Y34900D01*
X962600Y99200D02*
X984100Y77700D01*
Y-70822D02*
Y77700D01*
X576200Y-109600D02*
X632125Y-53675D01*
Y72700D01*
X603625Y101200D02*
X632125Y72700D01*
X640334Y42266D02*
X683000Y-400D01*
X640334Y42266D02*
Y81958D01*
X624204Y98088D02*
X640334Y81958D01*
X624204Y98088D02*
Y140126D01*
X616204Y148126D02*
X624204Y140126D01*
X616204Y148126D02*
Y359200D01*
X631698Y374694D01*
X897128D01*
Y315258D02*
Y374694D01*
X868680Y286810D02*
X897128Y315258D01*
X863010Y286810D02*
X868680D01*
X851000Y274800D02*
X863010Y286810D01*
X1477100Y343400D02*
X1490600Y356900D01*
X1617600D01*
X1696466Y278034D01*
Y89452D02*
Y278034D01*
Y89452D02*
X1721612Y64306D01*
Y-129750D02*
Y64306D01*
Y-129750D02*
X1775272Y-183410D01*
Y-238551D02*
Y-183410D01*
Y-238551D02*
X1815272D01*
X1871200Y-182623D01*
Y-27800D01*
X1223100Y343400D02*
X1273041Y393341D01*
X1324700Y343400D02*
Y379102D01*
X1326896Y381298D01*
X1730502Y357422D02*
X1754378Y381298D01*
X1730502Y138298D02*
X1744200Y124600D01*
X1935400Y119504D02*
Y150000D01*
Y119504D02*
X1935734Y119170D01*
X1237742Y-247606D02*
Y-217342D01*
X1235800Y-215400D02*
X1237742Y-217342D01*
X1007618Y-185884D02*
X1048258Y-226524D01*
Y-259798D02*
Y-226524D01*
Y-259798D02*
X1077468Y-289008D01*
X2267458D01*
X2299970Y-256496D01*
Y11982D01*
X2314956Y26968D01*
Y140506D01*
X2273046D02*
X2314956D01*
X2233930Y179622D02*
X2273046Y140506D01*
X2146300Y179622D02*
X2233930D01*
X2135400Y168722D02*
X2146300Y179622D01*
X2135400Y150000D02*
Y168722D01*
X842302Y-126702D02*
X880200Y-164600D01*
X768350Y-126702D02*
X842302D01*
X739648Y-98000D02*
X768350Y-126702D01*
X739648Y-98000D02*
Y-78950D01*
X745998Y-72600D01*
X787654D01*
X860552Y298D01*
Y98752D01*
X886400Y124600D01*
X1387094Y300780D02*
X1389888Y297986D01*
Y182588D02*
Y297986D01*
X1385650Y178350D02*
X1389888Y182588D01*
X1385650Y-91650D02*
Y178350D01*
X1375850Y-101450D02*
X1385650Y-91650D01*
X1375850Y-124484D02*
Y-101450D01*
X1299464Y-200870D02*
X1375850Y-124484D01*
X1299464Y-227794D02*
Y-200870D01*
Y-227794D02*
X1308100Y-236430D01*
X1365250D01*
X1375156Y-226524D01*
Y-194205D01*
X1383780Y-185580D01*
X1396284D01*
X1447714Y-134150D01*
X1460737D01*
Y-117463D01*
X1464400Y-113800D01*
X1362800D02*
Y-98500D01*
X1375417Y-85883D01*
Y229033D01*
X1381662Y235278D01*
Y280050D01*
X1374902Y286810D02*
X1381662Y280050D01*
X1337400Y-215400D02*
Y-198330D01*
X1401408Y-134322D01*
X1434338D01*
X1442510Y-126150D01*
X1451864D01*
Y-96984D01*
X1426972Y-72092D02*
X1451864Y-96984D01*
X1426972Y-72092D02*
Y162350D01*
X1440434Y175812D01*
Y239312D01*
X1159600Y-113800D02*
X1179950Y-93450D01*
X1234418D01*
X1248156Y-79712D01*
Y216056D01*
X1299300Y267200D01*
X1477772Y242472D02*
X1502500Y267200D01*
X1477772Y-66764D02*
Y242472D01*
Y-66764D02*
X1502150Y-91142D01*
Y-151086D02*
Y-91142D01*
X1458186Y-195050D02*
X1502150Y-151086D01*
X1422517Y-195050D02*
X1458186D01*
X1414665Y-202902D02*
X1422517Y-195050D01*
X1401064Y-202902D02*
X1414665D01*
X1401064Y-225000D02*
Y-202902D01*
X1366314Y-259750D02*
X1401064Y-225000D01*
X1181814Y-259750D02*
X1366314D01*
X1147064Y-225000D02*
X1181814Y-259750D01*
X1147064Y-225000D02*
Y-164424D01*
X1134200Y-151560D02*
X1147064Y-164424D01*
X1134200Y-151560D02*
Y-113800D01*
X1324610Y-7169D02*
Y-972D01*
X1321917Y-9862D02*
X1324610Y-7169D01*
X1320800Y-9862D02*
X1321917D01*
X1302600Y99200D02*
X1320800Y81000D01*
X1210400Y-126194D02*
Y-113800D01*
Y-126194D02*
X1248156D01*
Y-102318D01*
X1256284Y-94190D01*
Y198784D01*
X1324700Y267200D01*
X1302600Y150000D02*
Y219700D01*
X1350100Y267200D01*
X1289050Y11150D02*
Y208070D01*
Y11150D02*
X1302600Y-2400D01*
X1477450Y-203050D02*
X1489800Y-215400D01*
X1425956Y-203050D02*
X1477450D01*
X1425956Y-246590D02*
Y-203050D01*
X1404796Y-267750D02*
X1425956Y-246590D01*
X1139776Y-267750D02*
X1404796D01*
X1097026Y-225000D02*
X1139776Y-267750D01*
X1097026Y-225000D02*
Y-127426D01*
X1058000Y-88400D02*
X1097026Y-127426D01*
X1543950Y121650D02*
X1566400Y99200D01*
X1543950Y121650D02*
Y166566D01*
X1552350Y174966D01*
Y206800D01*
X1538900Y220250D02*
X1552350Y206800D01*
X1510750Y220250D02*
X1538900D01*
X1503250Y212750D02*
X1510750Y220250D01*
X1503250Y162350D02*
Y212750D01*
Y162350D02*
X1515600Y150000D01*
X1525410Y-43390D02*
X1566400Y-2400D01*
X1512710Y-43390D02*
X1525410D01*
X911606Y60906D02*
X924306Y73606D01*
X911606Y-21800D02*
Y60906D01*
X865632Y-67774D02*
X911606Y-21800D01*
X824626Y-67774D02*
X865632D01*
X804000Y-88400D02*
X824626Y-67774D01*
X835600Y-2400D02*
X849122Y11122D01*
Y114602D01*
X864170Y129650D01*
Y173930D01*
X830200Y207900D02*
X864170Y173930D01*
X948944Y136344D02*
X962600Y150000D01*
X948944Y-34745D02*
Y136344D01*
X940500Y-43189D02*
X948944Y-34745D01*
X940500Y-72500D02*
Y-43189D01*
Y-72500D02*
X956400Y-88400D01*
X886400Y-27800D02*
X899922Y-14278D01*
Y77514D01*
X908050Y85642D01*
X936498D01*
Y52368D02*
Y85642D01*
X930402Y46272D02*
X936498Y52368D01*
X930402Y-63598D02*
Y46272D01*
X905600Y-88400D02*
X930402Y-63598D01*
X919226Y-176374D02*
X931000Y-164600D01*
X919226Y-274530D02*
Y-176374D01*
Y-274530D02*
X944670D01*
X957200Y-262000D01*
X1629100Y9500D02*
X1642600Y23000D01*
X1629100Y-239656D02*
Y9500D01*
X1615882Y-252874D02*
X1629100Y-239656D01*
X1579933Y-252874D02*
X1615882D01*
X1510150Y-183091D02*
X1579933Y-252874D01*
X1510150Y-183091D02*
Y-79903D01*
X1486408Y-56161D02*
X1510150Y-79903D01*
X1486408Y-56161D02*
Y-19514D01*
X1490200Y-15722D01*
Y-2400D01*
X1730502Y60102D02*
X1744200Y73800D01*
X1730502Y-124162D02*
Y60102D01*
Y-124162D02*
X1783272Y-176932D01*
Y-230551D02*
Y-176932D01*
Y-230551D02*
X1807272D01*
Y-188721D01*
X1858772Y-137221D01*
Y35972D01*
X1871200Y48400D01*
X1477100Y259214D02*
Y267200D01*
X1452372Y234486D02*
X1477100Y259214D01*
X1452372Y-74886D02*
Y234486D01*
Y-74886D02*
X1476756Y-99270D01*
Y-136100D02*
Y-99270D01*
X1426461Y-186395D02*
X1476756Y-136100D01*
X1418315Y-186395D02*
X1426461D01*
X1409995Y-194715D02*
X1418315Y-186395D01*
X1392915Y-194715D02*
X1409995D01*
X1392915Y-210685D02*
Y-194715D01*
X1388200Y-215400D02*
X1392915Y-210685D01*
X1858772Y162972D02*
X1871200Y175400D01*
X1858772Y112172D02*
Y162972D01*
X1820400Y73800D02*
X1858772Y112172D01*
X1935400Y-239558D02*
Y-2400D01*
X1905000Y-269958D02*
X1935400Y-239558D01*
X1493558Y-269958D02*
X1905000D01*
X1439000Y-215400D02*
X1493558Y-269958D01*
X1730502Y333800D02*
X1760982Y364280D01*
X1879600D01*
X1906270Y337610D01*
Y273856D02*
Y337610D01*
Y273856D02*
X1922526Y257600D01*
Y130600D02*
Y257600D01*
X1891126Y99200D02*
X1922526Y130600D01*
X1871200Y99200D02*
X1891126D01*
X886400Y150000D02*
X909164Y172764D01*
X986028D01*
X1007200Y151592D01*
Y-88400D02*
Y151592D01*
X1226400Y99200D02*
Y109010D01*
X1216590D02*
X1226400D01*
X1175600Y150000D02*
X1216590Y109010D01*
X1490200Y116394D02*
Y150000D01*
Y116394D02*
X1491234Y115360D01*
X1679956Y112644D02*
Y267544D01*
X1604100Y267200D02*
Y292600D01*
X1553300Y343400D02*
X1604100Y292600D01*
X1150200Y24694D02*
Y150000D01*
Y24694D02*
X1163250Y11644D01*
Y-9100D02*
Y11644D01*
Y-9100D02*
X1174664Y-20514D01*
X1181100D01*
X1187958Y-13656D01*
Y35358D01*
X1226400Y73800D01*
X886400Y124600D02*
X926436Y164636D01*
X969518D01*
X978154Y156000D01*
Y110280D02*
Y156000D01*
X1845400Y175000D02*
Y279900D01*
X1820400Y150000D02*
X1845400Y175000D01*
X1857902Y292398D02*
X1870400Y279900D01*
X1803400Y292398D02*
X1857902D01*
X1774698Y263696D02*
X1803400Y292398D01*
X1774698Y2698D02*
Y263696D01*
X1744200Y-27800D02*
X1774698Y2698D01*
X1160400Y207900D02*
Y208070D01*
X1163066Y122573D02*
X1175600Y110039D01*
Y-2400D02*
Y110039D01*
X1350100Y267200D02*
Y292600D01*
X1299300Y343400D02*
X1350100Y292600D01*
X1007200Y-235800D02*
X1033400Y-262000D01*
X1007200Y-235800D02*
Y-215400D01*
X603625Y25000D02*
X605341Y26716D01*
Y48684D01*
X603625Y50400D02*
X605341Y48684D01*
X583125Y-5300D02*
X603625Y-25800D01*
X583125Y-5300D02*
Y106100D01*
X603625Y126600D01*
X1806702Y136302D02*
X1820400Y150000D01*
X1806702Y11298D02*
Y136302D01*
Y11298D02*
X1820400Y-2400D01*
X1566400Y-70676D02*
Y-27800D01*
X1566000Y-71076D02*
X1566400Y-70676D01*
X1566000Y-113800D02*
Y-71076D01*
X1870400Y227920D02*
Y279900D01*
Y227920D02*
X1871200Y227120D01*
Y175400D02*
Y227120D01*
X1870800Y305498D02*
Y330700D01*
X1870400Y305098D02*
X1870800Y305498D01*
X1870400Y279900D02*
Y305098D01*
X2160800Y-2400D02*
Y150000D01*
X677800Y-160400D02*
Y-109600D01*
X956400Y-215400D02*
Y-164600D01*
D39*
X1261200Y-113800D02*
D03*
Y-215400D02*
D03*
X1312000Y-113800D02*
D03*
Y-215400D02*
D03*
X1337400Y-113800D02*
D03*
Y-215400D02*
D03*
X1388200Y-113800D02*
D03*
Y-215400D02*
D03*
X1362800Y-113800D02*
D03*
Y-215400D02*
D03*
X1286600D02*
D03*
Y-113800D02*
D03*
X1413600D02*
D03*
Y-215400D02*
D03*
X1464400Y-113800D02*
D03*
Y-215400D02*
D03*
X1489800Y-113800D02*
D03*
Y-215400D02*
D03*
X1439000D02*
D03*
Y-113800D02*
D03*
X1210400D02*
D03*
Y-215400D02*
D03*
X1185000D02*
D03*
Y-113800D02*
D03*
X1235800Y-215400D02*
D03*
Y-113800D02*
D03*
X1134200Y-215400D02*
D03*
Y-113800D02*
D03*
X1159600D02*
D03*
Y-215400D02*
D03*
X1871200Y-27800D02*
D03*
Y-2400D02*
D03*
Y23000D02*
D03*
Y48400D02*
D03*
Y73800D02*
D03*
Y99200D02*
D03*
Y124600D02*
D03*
Y150000D02*
D03*
X2076600Y-238500D02*
D03*
X2127400Y-111500D02*
D03*
Y-238500D02*
D03*
X2209600D02*
D03*
X2260400Y-111500D02*
D03*
Y-238500D02*
D03*
X2302600Y127500D02*
D03*
X1007200Y-215400D02*
D03*
X956400D02*
D03*
X2049400Y347600D02*
D03*
Y246000D02*
D03*
X2100200Y347600D02*
D03*
Y246000D02*
D03*
X576200Y-109600D02*
D03*
X677800D02*
D03*
X576200Y-160400D02*
D03*
X677800D02*
D03*
X830200Y207900D02*
D03*
X728600D02*
D03*
X1160400D02*
D03*
X1058800D02*
D03*
X1414400D02*
D03*
X1516000D02*
D03*
X784800Y150000D02*
D03*
X810200D02*
D03*
X759400D02*
D03*
X734000D02*
D03*
X835600Y-2400D02*
D03*
X810200D02*
D03*
X784800D02*
D03*
X759400D02*
D03*
X734000D02*
D03*
X1124800Y150000D02*
D03*
X1150200D02*
D03*
X1099400D02*
D03*
X1074000D02*
D03*
X1175600Y-2400D02*
D03*
X1150200D02*
D03*
X1124800D02*
D03*
X1099400D02*
D03*
X1074000D02*
D03*
X1464800Y150000D02*
D03*
X1490200D02*
D03*
X1439400D02*
D03*
X1414000D02*
D03*
X1515600Y-2400D02*
D03*
X1490200D02*
D03*
X1464800D02*
D03*
X1439400D02*
D03*
X1414000D02*
D03*
X1910000D02*
D03*
X1935400D02*
D03*
X1960800D02*
D03*
X1986200D02*
D03*
X2011600D02*
D03*
X1910000Y150000D02*
D03*
X1935400D02*
D03*
X1986200D02*
D03*
X1960800D02*
D03*
X2110000Y-2400D02*
D03*
X2135400D02*
D03*
X2160800D02*
D03*
X2186200D02*
D03*
X2211600D02*
D03*
X2110000Y150000D02*
D03*
X2135400D02*
D03*
X2186200D02*
D03*
X2160800D02*
D03*
D40*
X1871200Y175400D02*
D03*
X2076600Y-111500D02*
D03*
X2209600D02*
D03*
X2302600Y152900D02*
D03*
D41*
X835600Y150000D02*
D03*
X1175600D02*
D03*
X1515600D02*
D03*
X2011600D02*
D03*
X2211600D02*
D03*
D42*
X590000Y410000D02*
D03*
X2330000D02*
D03*
Y-260000D02*
D03*
X590000D02*
D03*
D43*
X1426300Y267200D02*
D03*
X1451700D02*
D03*
X1477100D02*
D03*
X1502500D02*
D03*
X1527900D02*
D03*
X1553300D02*
D03*
X1578700D02*
D03*
X1604100D02*
D03*
X1426300Y343400D02*
D03*
X1451700D02*
D03*
X1477100D02*
D03*
X1502500D02*
D03*
X1527900D02*
D03*
X1553300D02*
D03*
X1578700D02*
D03*
X1324700D02*
D03*
X1299300D02*
D03*
X1273900D02*
D03*
X1248500D02*
D03*
X1223100D02*
D03*
X1197700D02*
D03*
X1172300D02*
D03*
X1350100Y267200D02*
D03*
X1324700D02*
D03*
X1299300D02*
D03*
X1273900D02*
D03*
X1248500D02*
D03*
X1223100D02*
D03*
X1197700D02*
D03*
X1172300D02*
D03*
X962600Y-27800D02*
D03*
Y-2400D02*
D03*
Y23000D02*
D03*
Y48400D02*
D03*
Y73800D02*
D03*
Y99200D02*
D03*
Y124600D02*
D03*
Y150000D02*
D03*
X886400Y-27800D02*
D03*
Y-2400D02*
D03*
Y23000D02*
D03*
Y48400D02*
D03*
Y73800D02*
D03*
Y99200D02*
D03*
Y124600D02*
D03*
X1226400D02*
D03*
Y99200D02*
D03*
Y73800D02*
D03*
Y48400D02*
D03*
Y23000D02*
D03*
Y-2400D02*
D03*
Y-27800D02*
D03*
X1302600Y150000D02*
D03*
Y124600D02*
D03*
Y99200D02*
D03*
Y73800D02*
D03*
Y48400D02*
D03*
Y23000D02*
D03*
Y-2400D02*
D03*
Y-27800D02*
D03*
X1566400Y124600D02*
D03*
Y99200D02*
D03*
Y73800D02*
D03*
Y48400D02*
D03*
Y23000D02*
D03*
Y-2400D02*
D03*
Y-27800D02*
D03*
X1642600Y150000D02*
D03*
Y124600D02*
D03*
Y99200D02*
D03*
Y73800D02*
D03*
Y48400D02*
D03*
Y23000D02*
D03*
Y-2400D02*
D03*
Y-27800D02*
D03*
X1744200Y124600D02*
D03*
Y99200D02*
D03*
Y73800D02*
D03*
Y48400D02*
D03*
Y23000D02*
D03*
Y-2400D02*
D03*
Y-27800D02*
D03*
X1820400Y150000D02*
D03*
Y124600D02*
D03*
Y99200D02*
D03*
Y73800D02*
D03*
Y48400D02*
D03*
Y23000D02*
D03*
Y-2400D02*
D03*
Y-27800D02*
D03*
X1083400Y-88400D02*
D03*
X1058000D02*
D03*
X1032600D02*
D03*
X1007200D02*
D03*
X981800D02*
D03*
X956400D02*
D03*
X931000D02*
D03*
X905600D02*
D03*
X880200D02*
D03*
X854800D02*
D03*
X829400D02*
D03*
X804000D02*
D03*
X778600D02*
D03*
X753200D02*
D03*
X1083400Y-164600D02*
D03*
X1058000D02*
D03*
X1032600D02*
D03*
X1007200D02*
D03*
X981800D02*
D03*
X956400D02*
D03*
X931000D02*
D03*
X905600D02*
D03*
X880200D02*
D03*
X854800D02*
D03*
X829400D02*
D03*
X804000D02*
D03*
X778600D02*
D03*
D44*
X1604100Y343400D02*
D03*
X1350100D02*
D03*
X753200Y-164600D02*
D03*
D45*
X886400Y150000D02*
D03*
X1226400D02*
D03*
X1566400D02*
D03*
X1744200D02*
D03*
D46*
X1923500Y330000D02*
D03*
D47*
Y304600D02*
D03*
Y279200D02*
D03*
M02*
