G04*
G04 #@! TF.GenerationSoftware,Altium Limited,Altium Designer,22.10.1 (41)*
G04*
G04 Layer_Color=65535*
%FSLAX44Y44*%
%MOMM*%
G71*
G04*
G04 #@! TF.SameCoordinates,1B9686B6-E39C-41AD-B85E-D0C14699C224*
G04*
G04*
G04 #@! TF.FilePolarity,Positive*
G04*
G01*
G75*
%ADD10C,0.2540*%
%ADD11C,0.1500*%
%ADD12C,0.2500*%
%ADD13C,0.6000*%
%ADD14C,0.2000*%
%ADD15C,0.5000*%
%ADD16C,0.2540*%
%ADD17R,1.0160X1.5240*%
D10*
X926800Y-215400D02*
G03*
X946800Y-235400I20000J0D01*
G01*
Y-195400D02*
G03*
X926800Y-215400I0J-20000D01*
G01*
X1016800Y-235400D02*
G03*
X1036800Y-215400I0J20000D01*
G01*
Y-215400D02*
G03*
X1016800Y-195400I-20000J0D01*
G01*
X615400Y410000D02*
G03*
X615400Y410000I-25400J0D01*
G01*
X2355400D02*
G03*
X2355400Y410000I-25400J0D01*
G01*
Y-260000D02*
G03*
X2355400Y-260000I-25400J0D01*
G01*
X615400D02*
G03*
X615400Y-260000I-25400J0D01*
G01*
X1660000D02*
X1920000D01*
X1660000Y-130000D02*
X1920000D01*
Y-260000D02*
Y-130000D01*
X1660000Y-260000D02*
Y-130000D01*
X1261200Y-131580D02*
Y-126500D01*
Y-202700D02*
Y-197620D01*
X1253580D02*
X1268820D01*
X1253580Y-131580D02*
X1268820D01*
X1253580Y-197620D02*
Y-131580D01*
X1268820Y-197620D02*
Y-131580D01*
X1312000D02*
Y-126500D01*
Y-202700D02*
Y-197620D01*
X1304380D02*
X1319620D01*
X1304380Y-131580D02*
X1319620D01*
X1304380Y-197620D02*
Y-131580D01*
X1319620Y-197620D02*
Y-131580D01*
X1337400Y-131580D02*
Y-126500D01*
Y-202700D02*
Y-197620D01*
X1329780D02*
X1345020D01*
X1329780Y-131580D02*
X1345020D01*
X1329780Y-197620D02*
Y-131580D01*
X1345020Y-197620D02*
Y-131580D01*
X1388200Y-131580D02*
Y-126500D01*
Y-202700D02*
Y-197620D01*
X1380580D02*
X1395820D01*
X1380580Y-131580D02*
X1395820D01*
X1380580Y-197620D02*
Y-131580D01*
X1395820Y-197620D02*
Y-131580D01*
X1362800D02*
Y-126500D01*
Y-202700D02*
Y-197620D01*
X1355180D02*
X1370420D01*
X1355180Y-131580D02*
X1370420D01*
X1355180Y-197620D02*
Y-131580D01*
X1370420Y-197620D02*
Y-131580D01*
X1286600Y-202700D02*
Y-197620D01*
Y-131580D02*
Y-126500D01*
X1278980Y-131580D02*
X1294220D01*
X1278980Y-197620D02*
X1294220D01*
Y-131580D01*
X1278980Y-197620D02*
Y-131580D01*
X1413600D02*
Y-126500D01*
Y-202700D02*
Y-197620D01*
X1405980D02*
X1421220D01*
X1405980Y-131580D02*
X1421220D01*
X1405980Y-197620D02*
Y-131580D01*
X1421220Y-197620D02*
Y-131580D01*
X1464400D02*
Y-126500D01*
Y-202700D02*
Y-197620D01*
X1456780D02*
X1472020D01*
X1456780Y-131580D02*
X1472020D01*
X1456780Y-197620D02*
Y-131580D01*
X1472020Y-197620D02*
Y-131580D01*
X1489800D02*
Y-126500D01*
Y-202700D02*
Y-197620D01*
X1482180D02*
X1497420D01*
X1482180Y-131580D02*
X1497420D01*
X1482180Y-197620D02*
Y-131580D01*
X1497420Y-197620D02*
Y-131580D01*
X1439000Y-202700D02*
Y-197620D01*
Y-131580D02*
Y-126500D01*
X1431380Y-131580D02*
X1446620D01*
X1431380Y-197620D02*
X1446620D01*
Y-131580D01*
X1431380Y-197620D02*
Y-131580D01*
X1210400D02*
Y-126500D01*
Y-202700D02*
Y-197620D01*
X1202780D02*
X1218020D01*
X1202780Y-131580D02*
X1218020D01*
X1202780Y-197620D02*
Y-131580D01*
X1218020Y-197620D02*
Y-131580D01*
X1185000Y-202700D02*
Y-197620D01*
Y-131580D02*
Y-126500D01*
X1177380Y-131580D02*
X1192620D01*
X1177380Y-197620D02*
X1192620D01*
Y-131580D01*
X1177380Y-197620D02*
Y-131580D01*
X1235800Y-202700D02*
Y-197620D01*
Y-131580D02*
Y-126500D01*
X1228180Y-131580D02*
X1243420D01*
X1228180Y-197620D02*
X1243420D01*
Y-131580D01*
X1228180Y-197620D02*
Y-131580D01*
X1134200Y-202700D02*
Y-197620D01*
Y-131580D02*
Y-126500D01*
X1126580Y-131580D02*
X1141820D01*
X1126580Y-197620D02*
X1141820D01*
Y-131580D01*
X1126580Y-197620D02*
Y-131580D01*
X1159600D02*
Y-126500D01*
Y-202700D02*
Y-197620D01*
X1151980D02*
X1167220D01*
X1151980Y-131580D02*
X1167220D01*
X1151980Y-197620D02*
Y-131580D01*
X1167220Y-197620D02*
Y-131580D01*
X1855960Y-40500D02*
Y180480D01*
X1863580Y188100D01*
X1886440D01*
X1855960Y-40500D02*
X1886440D01*
Y188100D01*
X2127400Y-213100D02*
Y-136900D01*
X2076600Y-213100D02*
Y-136900D01*
X2051200Y-86100D02*
X2152800D01*
Y-263900D02*
Y-86100D01*
X2051200Y-263900D02*
Y-86100D01*
Y-263900D02*
X2152800D01*
X2076600Y-175000D02*
X2089300D01*
X2114700D02*
X2127400D01*
X2086760Y-167380D02*
X2117240D01*
X2102000D02*
Y-157220D01*
X2260400Y-213100D02*
Y-136900D01*
X2209600Y-213100D02*
Y-136900D01*
X2184200Y-86100D02*
X2285800D01*
Y-263900D02*
Y-86100D01*
X2184200Y-263900D02*
Y-86100D01*
Y-263900D02*
X2285800D01*
X2209600Y-175000D02*
X2222300D01*
X2247700D02*
X2260400D01*
X2219760Y-167380D02*
X2250240D01*
X2235000D02*
Y-157220D01*
X2317840Y114800D02*
Y165600D01*
X2287360Y114800D02*
X2317840D01*
X2287360D02*
Y157980D01*
X2294980Y165600D01*
X2317840D01*
X989420Y-220480D02*
Y-210320D01*
X974180Y-220480D02*
Y-210320D01*
X989420Y-215400D02*
X994500D01*
X969100D02*
X974180D01*
X946800Y-195400D02*
X1016800D01*
X946800Y-235400D02*
X1016800D01*
X2049400Y329820D02*
Y334900D01*
Y258700D02*
Y263780D01*
X2041780D02*
X2057020D01*
X2041780Y329820D02*
X2057020D01*
X2041780Y263780D02*
Y329820D01*
X2057020Y263780D02*
Y329820D01*
X2100200D02*
Y334900D01*
Y258700D02*
Y263780D01*
X2092580D02*
X2107820D01*
X2092580Y329820D02*
X2107820D01*
X2092580Y263780D02*
Y329820D01*
X2107820Y263780D02*
Y329820D01*
X588900Y-109600D02*
X593980D01*
X660020D02*
X665100D01*
X660020Y-117220D02*
Y-101980D01*
X593980Y-117220D02*
Y-101980D01*
Y-117220D02*
X660020D01*
X593980Y-101980D02*
X660020D01*
X588900Y-160400D02*
X593980D01*
X660020D02*
X665100D01*
X660020Y-168020D02*
Y-152780D01*
X593980Y-168020D02*
Y-152780D01*
Y-168020D02*
X660020D01*
X593980Y-152780D02*
X660020D01*
X812420Y207900D02*
X817500D01*
X741300D02*
X746380D01*
Y200280D02*
Y215520D01*
X812420Y200280D02*
Y215520D01*
X746380D02*
X812420D01*
X746380Y200280D02*
X812420D01*
X1142620Y207900D02*
X1147700D01*
X1071500D02*
X1076580D01*
Y200280D02*
Y215520D01*
X1142620Y200280D02*
Y215520D01*
X1076580D02*
X1142620D01*
X1076580Y200280D02*
X1142620D01*
X1427100Y207900D02*
X1432180D01*
X1498220D02*
X1503300D01*
X1498220Y200280D02*
Y215520D01*
X1432180Y200280D02*
Y215520D01*
Y200280D02*
X1498220D01*
X1432180Y215520D02*
X1498220D01*
X721300Y137300D02*
X848300D01*
Y-15100D02*
Y162700D01*
X721300D02*
X848300D01*
X721300Y-15100D02*
Y162700D01*
Y-15100D02*
X848300D01*
X721300Y10300D02*
X848300D01*
X1061300Y137300D02*
X1188300D01*
Y-15100D02*
Y162700D01*
X1061300D02*
X1188300D01*
X1061300Y-15100D02*
Y162700D01*
Y-15100D02*
X1188300D01*
X1061300Y10300D02*
X1188300D01*
X1401300Y137300D02*
X1528300D01*
Y-15100D02*
Y162700D01*
X1401300D02*
X1528300D01*
X1401300Y-15100D02*
Y162700D01*
Y-15100D02*
X1528300D01*
X1401300Y10300D02*
X1528300D01*
X1897300D02*
X2024300D01*
X1897300Y-15100D02*
X2024300D01*
X1897300Y162700D02*
X2024300D01*
Y-15100D02*
Y162700D01*
X1897300Y137300D02*
X2024300D01*
X1897300Y-15100D02*
Y162700D01*
X2097300Y10300D02*
X2224300D01*
X2097300Y-15100D02*
X2224300D01*
X2097300Y162700D02*
X2224300D01*
Y-15100D02*
Y162700D01*
X2097300Y137300D02*
X2224300D01*
X2097300Y-15100D02*
Y162700D01*
X1692697Y-151630D02*
X1690157Y-149091D01*
X1685079D01*
X1682540Y-151630D01*
Y-161787D01*
X1685079Y-164326D01*
X1690157D01*
X1692697Y-161787D01*
X1700314Y-154169D02*
X1705393D01*
X1707932Y-156708D01*
Y-164326D01*
X1700314D01*
X1697775Y-161787D01*
X1700314Y-159247D01*
X1707932D01*
X1713010Y-164326D02*
X1718089D01*
X1715549D01*
Y-149091D01*
X1713010D01*
X1735863Y-154169D02*
X1728245D01*
X1725706Y-156708D01*
Y-161787D01*
X1728245Y-164326D01*
X1735863D01*
X1740941Y-149091D02*
Y-164326D01*
X1746019Y-159247D01*
X1751098Y-164326D01*
Y-149091D01*
X1756176Y-164326D02*
X1761254D01*
X1758715D01*
Y-154169D01*
X1756176D01*
X1768872D02*
X1779029D01*
X1768872Y-164326D01*
X1779029D01*
X1786646Y-154169D02*
X1791725D01*
X1794264Y-156708D01*
Y-164326D01*
X1786646D01*
X1784107Y-161787D01*
X1786646Y-159247D01*
X1794264D01*
X1799342Y-154169D02*
Y-164326D01*
Y-159247D01*
X1801881Y-156708D01*
X1804420Y-154169D01*
X1806960D01*
X1824734Y-149091D02*
Y-164326D01*
X1817117D01*
X1814577Y-161787D01*
Y-156708D01*
X1817117Y-154169D01*
X1824734D01*
X1845047D02*
X1850126Y-164326D01*
X1855204Y-154169D01*
X1860282Y-164326D02*
X1865361D01*
X1862822D01*
Y-149091D01*
X1860282Y-151630D01*
X1872978Y-164326D02*
Y-161787D01*
X1875518D01*
Y-164326D01*
X1872978D01*
X1885674Y-151630D02*
X1888213Y-149091D01*
X1893292D01*
X1895831Y-151630D01*
Y-161787D01*
X1893292Y-164326D01*
X1888213D01*
X1885674Y-161787D01*
Y-151630D01*
X1692697Y-173469D02*
X1682540D01*
Y-188704D01*
X1692697D01*
X1682540Y-181086D02*
X1687618D01*
X1697775Y-188704D02*
X1707932Y-178547D01*
X1713010Y-188704D02*
X1718089D01*
X1715549D01*
Y-173469D01*
X1713010Y-176008D01*
X1725706Y-173469D02*
X1735863D01*
Y-176008D01*
X1725706Y-186165D01*
Y-188704D01*
X1740941D02*
X1751098Y-178547D01*
X1756176Y-188704D02*
X1761254D01*
X1758715D01*
Y-173469D01*
X1756176Y-176008D01*
X1776490Y-188704D02*
Y-173469D01*
X1768872Y-181086D01*
X1779029D01*
X1794264Y-173469D02*
X1789185Y-176008D01*
X1784107Y-181086D01*
Y-186165D01*
X1786646Y-188704D01*
X1791725D01*
X1794264Y-186165D01*
Y-183626D01*
X1791725Y-181086D01*
X1784107D01*
X1692697Y-197847D02*
X1682540D01*
Y-213082D01*
X1692697D01*
X1682540Y-205464D02*
X1687618D01*
X1697775Y-213082D02*
X1707932Y-202925D01*
X1713010Y-213082D02*
X1718089D01*
X1715549D01*
Y-197847D01*
X1713010Y-200386D01*
X1725706Y-197847D02*
X1735863D01*
Y-200386D01*
X1725706Y-210543D01*
Y-213082D01*
X1740941D02*
X1751098Y-202925D01*
X1766333Y-213082D02*
X1756176D01*
X1766333Y-202925D01*
Y-200386D01*
X1763794Y-197847D01*
X1758715D01*
X1756176Y-200386D01*
X1771411D02*
X1773950Y-197847D01*
X1779029D01*
X1781568Y-200386D01*
Y-202925D01*
X1779029Y-205464D01*
X1776490D01*
X1779029D01*
X1781568Y-208004D01*
Y-210543D01*
X1779029Y-213082D01*
X1773950D01*
X1771411Y-210543D01*
X1794264Y-213082D02*
Y-197847D01*
X1786646Y-205464D01*
X1796803D01*
X1692697Y-222225D02*
X1682540D01*
Y-237460D01*
X1692697D01*
X1682540Y-229842D02*
X1687618D01*
X1697775Y-237460D02*
X1707932Y-227303D01*
X1713010Y-237460D02*
X1718089D01*
X1715549D01*
Y-222225D01*
X1713010Y-224764D01*
X1725706Y-222225D02*
X1735863D01*
Y-224764D01*
X1725706Y-234921D01*
Y-237460D01*
X1740941D02*
X1751098Y-227303D01*
X1756176Y-224764D02*
X1758715Y-222225D01*
X1763794D01*
X1766333Y-224764D01*
Y-227303D01*
X1763794Y-229842D01*
X1761254D01*
X1763794D01*
X1766333Y-232382D01*
Y-234921D01*
X1763794Y-237460D01*
X1758715D01*
X1756176Y-234921D01*
X1771411Y-222225D02*
X1781568D01*
Y-224764D01*
X1771411Y-234921D01*
Y-237460D01*
X1786646D02*
X1791725D01*
X1789185D01*
Y-222225D01*
X1786646Y-224764D01*
X1545423Y-79602D02*
X1542883Y-77063D01*
X1537805D01*
X1535266Y-79602D01*
Y-89759D01*
X1537805Y-92298D01*
X1542883D01*
X1545423Y-89759D01*
X1560658Y-77063D02*
X1550501D01*
Y-84681D01*
X1555579Y-82141D01*
X1558119D01*
X1560658Y-84681D01*
Y-89759D01*
X1558119Y-92298D01*
X1553040D01*
X1550501Y-89759D01*
X1248504Y-248417D02*
Y-233183D01*
X1256122D01*
X1258661Y-235722D01*
Y-240800D01*
X1256122Y-243339D01*
X1248504D01*
X1253583D02*
X1258661Y-248417D01*
X1273896Y-233183D02*
X1268818Y-235722D01*
X1263739Y-240800D01*
Y-245878D01*
X1266278Y-248417D01*
X1271357D01*
X1273896Y-245878D01*
Y-243339D01*
X1271357Y-240800D01*
X1263739D01*
X1299304Y-248417D02*
Y-233183D01*
X1306922D01*
X1309461Y-235722D01*
Y-240800D01*
X1306922Y-243339D01*
X1299304D01*
X1304382D02*
X1309461Y-248417D01*
X1314539Y-235722D02*
X1317078Y-233183D01*
X1322157D01*
X1324696Y-235722D01*
Y-238261D01*
X1322157Y-240800D01*
X1324696Y-243339D01*
Y-245878D01*
X1322157Y-248417D01*
X1317078D01*
X1314539Y-245878D01*
Y-243339D01*
X1317078Y-240800D01*
X1314539Y-238261D01*
Y-235722D01*
X1317078Y-240800D02*
X1322157D01*
X1324704Y-96018D02*
Y-80782D01*
X1332322D01*
X1334861Y-83322D01*
Y-88400D01*
X1332322Y-90939D01*
X1324704D01*
X1329783D02*
X1334861Y-96018D01*
X1339939Y-93478D02*
X1342478Y-96018D01*
X1347557D01*
X1350096Y-93478D01*
Y-83322D01*
X1347557Y-80782D01*
X1342478D01*
X1339939Y-83322D01*
Y-85861D01*
X1342478Y-88400D01*
X1350096D01*
X1371695Y-96018D02*
Y-80782D01*
X1379313D01*
X1381852Y-83322D01*
Y-88400D01*
X1379313Y-90939D01*
X1371695D01*
X1376774D02*
X1381852Y-96018D01*
X1386930D02*
X1392009D01*
X1389470D01*
Y-80782D01*
X1386930Y-83322D01*
X1399626Y-96018D02*
X1404705D01*
X1402166D01*
Y-80782D01*
X1399626Y-83322D01*
X1343756Y-248417D02*
Y-233183D01*
X1351374D01*
X1353913Y-235722D01*
Y-240800D01*
X1351374Y-243339D01*
X1343756D01*
X1348835D02*
X1353913Y-248417D01*
X1358991D02*
X1364070D01*
X1361530D01*
Y-233183D01*
X1358991Y-235722D01*
X1371687D02*
X1374226Y-233183D01*
X1379305D01*
X1381844Y-235722D01*
Y-245878D01*
X1379305Y-248417D01*
X1374226D01*
X1371687Y-245878D01*
Y-235722D01*
X1273904Y-96018D02*
Y-80782D01*
X1281522D01*
X1284061Y-83322D01*
Y-88400D01*
X1281522Y-90939D01*
X1273904D01*
X1278982D02*
X1284061Y-96018D01*
X1289139Y-80782D02*
X1299296D01*
Y-83322D01*
X1289139Y-93478D01*
Y-96018D01*
X1394556Y-248417D02*
Y-233183D01*
X1402174D01*
X1404713Y-235722D01*
Y-240800D01*
X1402174Y-243339D01*
X1394556D01*
X1399635D02*
X1404713Y-248417D01*
X1409791D02*
X1414870D01*
X1412330D01*
Y-233183D01*
X1409791Y-235722D01*
X1432644Y-248417D02*
X1422487D01*
X1432644Y-238261D01*
Y-235722D01*
X1430105Y-233183D01*
X1425026D01*
X1422487Y-235722D01*
X1445356Y-248417D02*
Y-233183D01*
X1452974D01*
X1455513Y-235722D01*
Y-240800D01*
X1452974Y-243339D01*
X1445356D01*
X1450435D02*
X1455513Y-248417D01*
X1460591D02*
X1465670D01*
X1463130D01*
Y-233183D01*
X1460591Y-235722D01*
X1480905Y-248417D02*
Y-233183D01*
X1473287Y-240800D01*
X1483444D01*
X1483450Y-98902D02*
Y-83667D01*
X1491068D01*
X1493607Y-86206D01*
Y-91285D01*
X1491068Y-93824D01*
X1483450D01*
X1488528D02*
X1493607Y-98902D01*
X1498685D02*
X1503763D01*
X1501224D01*
Y-83667D01*
X1498685Y-86206D01*
X1511381Y-96363D02*
X1513920Y-98902D01*
X1518999D01*
X1521538Y-96363D01*
Y-86206D01*
X1518999Y-83667D01*
X1513920D01*
X1511381Y-86206D01*
Y-88745D01*
X1513920Y-91285D01*
X1521538D01*
X1419956Y-96018D02*
Y-80782D01*
X1427574D01*
X1430113Y-83322D01*
Y-88400D01*
X1427574Y-90939D01*
X1419956D01*
X1425034D02*
X1430113Y-96018D01*
X1435191D02*
X1440270D01*
X1437730D01*
Y-80782D01*
X1435191Y-83322D01*
X1447887D02*
X1450426Y-80782D01*
X1455505D01*
X1458044Y-83322D01*
Y-85861D01*
X1455505Y-88400D01*
X1452966D01*
X1455505D01*
X1458044Y-90939D01*
Y-93478D01*
X1455505Y-96018D01*
X1450426D01*
X1447887Y-93478D01*
X1197704Y-248417D02*
Y-233183D01*
X1205322D01*
X1207861Y-235722D01*
Y-240800D01*
X1205322Y-243339D01*
X1197704D01*
X1202783D02*
X1207861Y-248417D01*
X1220557D02*
Y-233183D01*
X1212939Y-240800D01*
X1223096D01*
X1172304Y-96018D02*
Y-80782D01*
X1179922D01*
X1182461Y-83322D01*
Y-88400D01*
X1179922Y-90939D01*
X1172304D01*
X1177383D02*
X1182461Y-96018D01*
X1187539Y-83322D02*
X1190078Y-80782D01*
X1195157D01*
X1197696Y-83322D01*
Y-85861D01*
X1195157Y-88400D01*
X1192617D01*
X1195157D01*
X1197696Y-90939D01*
Y-93478D01*
X1195157Y-96018D01*
X1190078D01*
X1187539Y-93478D01*
X1223104Y-96018D02*
Y-80782D01*
X1230722D01*
X1233261Y-83322D01*
Y-88400D01*
X1230722Y-90939D01*
X1223104D01*
X1228183D02*
X1233261Y-96018D01*
X1248496Y-80782D02*
X1238339D01*
Y-88400D01*
X1243418Y-85861D01*
X1245957D01*
X1248496Y-88400D01*
Y-93478D01*
X1245957Y-96018D01*
X1240878D01*
X1238339Y-93478D01*
X1124043Y-96018D02*
Y-80782D01*
X1131661D01*
X1134200Y-83322D01*
Y-88400D01*
X1131661Y-90939D01*
X1124043D01*
X1129122D02*
X1134200Y-96018D01*
X1139278D02*
X1144357D01*
X1141818D01*
Y-80782D01*
X1139278Y-83322D01*
X1146904Y-248417D02*
Y-233183D01*
X1154522D01*
X1157061Y-235722D01*
Y-240800D01*
X1154522Y-243339D01*
X1146904D01*
X1151982D02*
X1157061Y-248417D01*
X1172296D02*
X1162139D01*
X1172296Y-238261D01*
Y-235722D01*
X1169757Y-233183D01*
X1164678D01*
X1162139Y-235722D01*
X637304Y387617D02*
Y372383D01*
X644922D01*
X647461Y374922D01*
Y385078D01*
X644922Y387617D01*
X637304D01*
X652539Y385078D02*
X655078Y387617D01*
X660157D01*
X662696Y385078D01*
Y382539D01*
X660157Y380000D01*
X657617D01*
X660157D01*
X662696Y377461D01*
Y374922D01*
X660157Y372383D01*
X655078D01*
X652539Y374922D01*
X751791Y81418D02*
Y66182D01*
X759408D01*
X761947Y68722D01*
Y71261D01*
X759408Y73800D01*
X751791D01*
X759408D01*
X761947Y76339D01*
Y78878D01*
X759408Y81418D01*
X751791D01*
X767026Y66182D02*
X772104D01*
X769565D01*
Y81418D01*
X767026D01*
X782261Y66182D02*
X787339D01*
X789878Y68722D01*
Y73800D01*
X787339Y76339D01*
X782261D01*
X779722Y73800D01*
Y68722D01*
X782261Y66182D01*
X805113Y76339D02*
X797496D01*
X794957Y73800D01*
Y68722D01*
X797496Y66182D01*
X805113D01*
X810192D02*
Y81418D01*
Y71261D02*
X817809Y76339D01*
X810192Y71261D02*
X817809Y66182D01*
X1091791Y81418D02*
Y66182D01*
X1099408D01*
X1101947Y68722D01*
Y71261D01*
X1099408Y73800D01*
X1091791D01*
X1099408D01*
X1101947Y76339D01*
Y78878D01*
X1099408Y81418D01*
X1091791D01*
X1107026Y66182D02*
X1112104D01*
X1109565D01*
Y81418D01*
X1107026D01*
X1122261Y66182D02*
X1127339D01*
X1129878Y68722D01*
Y73800D01*
X1127339Y76339D01*
X1122261D01*
X1119722Y73800D01*
Y68722D01*
X1122261Y66182D01*
X1145113Y76339D02*
X1137496D01*
X1134957Y73800D01*
Y68722D01*
X1137496Y66182D01*
X1145113D01*
X1150192D02*
Y81418D01*
Y71261D02*
X1157809Y76339D01*
X1150192Y71261D02*
X1157809Y66182D01*
X1431791Y81418D02*
Y66182D01*
X1439408D01*
X1441947Y68722D01*
Y71261D01*
X1439408Y73800D01*
X1431791D01*
X1439408D01*
X1441947Y76339D01*
Y78878D01*
X1439408Y81418D01*
X1431791D01*
X1447026Y66182D02*
X1452104D01*
X1449565D01*
Y81418D01*
X1447026D01*
X1462261Y66182D02*
X1467339D01*
X1469878Y68722D01*
Y73800D01*
X1467339Y76339D01*
X1462261D01*
X1459722Y73800D01*
Y68722D01*
X1462261Y66182D01*
X1485113Y76339D02*
X1477496D01*
X1474957Y73800D01*
Y68722D01*
X1477496Y66182D01*
X1485113D01*
X1490192D02*
Y81418D01*
Y71261D02*
X1497809Y76339D01*
X1490192Y71261D02*
X1497809Y66182D01*
X1927791Y78878D02*
X1925251Y81418D01*
X1920173D01*
X1917634Y78878D01*
Y68722D01*
X1920173Y66182D01*
X1925251D01*
X1927791Y68722D01*
X1932869Y66182D02*
Y76339D01*
X1937947Y81418D01*
X1943026Y76339D01*
Y66182D01*
Y73800D01*
X1932869D01*
X1963339Y81418D02*
X1973496D01*
Y78878D01*
X1963339Y68722D01*
Y66182D01*
X1988731Y78878D02*
X1986192Y81418D01*
X1981113D01*
X1978574Y78878D01*
Y76339D01*
X1981113Y73800D01*
X1986192D01*
X1988731Y71261D01*
Y68722D01*
X1986192Y66182D01*
X1981113D01*
X1978574Y68722D01*
X1993809Y81418D02*
Y66182D01*
X2001427D01*
X2003966Y68722D01*
Y78878D01*
X2001427Y81418D01*
X1993809D01*
X2127791Y78878D02*
X2125251Y81418D01*
X2120173D01*
X2117634Y78878D01*
Y68722D01*
X2120173Y66182D01*
X2125251D01*
X2127791Y68722D01*
X2132869Y66182D02*
Y76339D01*
X2137947Y81418D01*
X2143026Y76339D01*
Y66182D01*
Y73800D01*
X2132869D01*
X2163339Y81418D02*
X2173496D01*
Y78878D01*
X2163339Y68722D01*
Y66182D01*
X2188731Y78878D02*
X2186192Y81418D01*
X2181113D01*
X2178574Y78878D01*
Y76339D01*
X2181113Y73800D01*
X2186192D01*
X2188731Y71261D01*
Y68722D01*
X2186192Y66182D01*
X2181113D01*
X2178574Y68722D01*
X2193809Y81418D02*
Y66182D01*
X2201427D01*
X2203966Y68722D01*
Y78878D01*
X2201427Y81418D01*
X2193809D01*
X1409574Y224454D02*
Y239689D01*
X1417191D01*
X1419731Y237150D01*
Y232071D01*
X1417191Y229532D01*
X1409574D01*
X1414652D02*
X1419731Y224454D01*
X1434966D02*
X1424809D01*
X1434966Y234611D01*
Y237150D01*
X1432427Y239689D01*
X1427348D01*
X1424809Y237150D01*
X1450201Y224454D02*
X1440044D01*
X1450201Y234611D01*
Y237150D01*
X1447662Y239689D01*
X1442583D01*
X1440044Y237150D01*
X1053974Y224454D02*
Y239689D01*
X1061591D01*
X1064131Y237150D01*
Y232071D01*
X1061591Y229532D01*
X1053974D01*
X1059052D02*
X1064131Y224454D01*
X1079366D02*
X1069209D01*
X1079366Y234611D01*
Y237150D01*
X1076827Y239689D01*
X1071748D01*
X1069209Y237150D01*
X1084444Y224454D02*
X1089522D01*
X1086983D01*
Y239689D01*
X1084444Y237150D01*
X723774Y224454D02*
Y239689D01*
X731392D01*
X733931Y237150D01*
Y232071D01*
X731392Y229532D01*
X723774D01*
X728852D02*
X733931Y224454D01*
X749166D02*
X739009D01*
X749166Y234611D01*
Y237150D01*
X746627Y239689D01*
X741548D01*
X739009Y237150D01*
X754244D02*
X756783Y239689D01*
X761862D01*
X764401Y237150D01*
Y226993D01*
X761862Y224454D01*
X756783D01*
X754244Y226993D01*
Y237150D01*
X895443Y-207782D02*
X905600Y-223017D01*
Y-207782D02*
X895443Y-223017D01*
X910678D02*
X915757D01*
X913217D01*
Y-207782D01*
X910678Y-210321D01*
X1068961Y-256922D02*
X1066422Y-254382D01*
X1061343D01*
X1058804Y-256922D01*
Y-267078D01*
X1061343Y-269618D01*
X1066422D01*
X1068961Y-267078D01*
X1081657Y-269618D02*
Y-254382D01*
X1074039Y-262000D01*
X1084196D01*
X891161Y-256922D02*
X888622Y-254382D01*
X883543D01*
X881004Y-256922D01*
Y-267078D01*
X883543Y-269618D01*
X888622D01*
X891161Y-267078D01*
X896239Y-256922D02*
X898778Y-254382D01*
X903857D01*
X906396Y-256922D01*
Y-259461D01*
X903857Y-262000D01*
X901318D01*
X903857D01*
X906396Y-264539D01*
Y-267078D01*
X903857Y-269618D01*
X898778D01*
X896239Y-267078D01*
X632069Y-267617D02*
Y-252383D01*
X639687D01*
X642226Y-254922D01*
Y-260000D01*
X639687Y-262539D01*
X632069D01*
X647304Y-252383D02*
X657461D01*
X652383D01*
Y-267617D01*
X662539Y-252383D02*
Y-267617D01*
Y-260000D01*
X672696D01*
Y-252383D01*
Y-267617D01*
X685392D02*
Y-252383D01*
X677774Y-260000D01*
X687931D01*
X2302069Y-227617D02*
Y-212383D01*
X2309687D01*
X2312226Y-214922D01*
Y-220000D01*
X2309687Y-222539D01*
X2302069D01*
X2317304Y-212383D02*
X2327461D01*
X2322383D01*
Y-227617D01*
X2332539Y-212383D02*
Y-227617D01*
Y-220000D01*
X2342696D01*
Y-212383D01*
Y-227617D01*
X2347774Y-214922D02*
X2350313Y-212383D01*
X2355392D01*
X2357931Y-214922D01*
Y-217461D01*
X2355392Y-220000D01*
X2352853D01*
X2355392D01*
X2357931Y-222539D01*
Y-225078D01*
X2355392Y-227617D01*
X2350313D01*
X2347774Y-225078D01*
X2232069Y402383D02*
Y417617D01*
X2239687D01*
X2242226Y415078D01*
Y410000D01*
X2239687Y407461D01*
X2232069D01*
X2247304Y417617D02*
X2257461D01*
X2252383D01*
Y402383D01*
X2262539Y417617D02*
Y402383D01*
Y410000D01*
X2272696D01*
Y417617D01*
Y402383D01*
X2287931D02*
X2277774D01*
X2287931Y412539D01*
Y415078D01*
X2285392Y417617D01*
X2280313D01*
X2277774Y415078D01*
X626208Y404282D02*
Y419518D01*
X633826D01*
X636365Y416978D01*
Y411900D01*
X633826Y409361D01*
X626208D01*
X641443Y419518D02*
X651600D01*
X646522D01*
Y404282D01*
X656678Y419518D02*
Y404282D01*
Y411900D01*
X666835D01*
Y419518D01*
Y404282D01*
X671913D02*
X676992D01*
X674453D01*
Y419518D01*
X671913Y416978D01*
X1961604Y312218D02*
Y299522D01*
X1964143Y296982D01*
X1969222D01*
X1971761Y299522D01*
Y312218D01*
X1976839Y299522D02*
X1979378Y296982D01*
X1984457D01*
X1986996Y299522D01*
Y309678D01*
X1984457Y312218D01*
X1979378D01*
X1976839Y309678D01*
Y307139D01*
X1979378Y304600D01*
X1986996D01*
X2298787Y189637D02*
X2293708D01*
X2296248D01*
Y176941D01*
X2293708Y174402D01*
X2291169D01*
X2288630Y176941D01*
X2303865Y174402D02*
X2308943D01*
X2306404D01*
Y189637D01*
X2303865Y187098D01*
X1804761Y284978D02*
X1802222Y287518D01*
X1797143D01*
X1794604Y284978D01*
Y274822D01*
X1797143Y272283D01*
X1802222D01*
X1804761Y274822D01*
X1819996Y272283D02*
X1809839D01*
X1819996Y282439D01*
Y284978D01*
X1817457Y287518D01*
X1812378D01*
X1809839Y284978D01*
X1807300Y335779D02*
X1804761Y338318D01*
X1799683D01*
X1797143Y335779D01*
Y325622D01*
X1799683Y323083D01*
X1804761D01*
X1807300Y325622D01*
X1812378Y323083D02*
X1817457D01*
X1814918D01*
Y338318D01*
X1812378Y335779D01*
X1857338Y197008D02*
Y212243D01*
X1864955D01*
X1867495Y209704D01*
Y204625D01*
X1864955Y202086D01*
X1857338D01*
X1862416D02*
X1867495Y197008D01*
X1872573D02*
Y212243D01*
X1880191D01*
X1882730Y209704D01*
Y204625D01*
X1880191Y202086D01*
X1872573D01*
X1895426Y197008D02*
Y212243D01*
X1887808Y204625D01*
X1897965D01*
X590894Y220117D02*
Y207421D01*
X593433Y204882D01*
X598512D01*
X601051Y207421D01*
Y220117D01*
X606129Y217578D02*
X608668Y220117D01*
X613747D01*
X616286Y217578D01*
Y215039D01*
X613747Y212500D01*
X616286Y209960D01*
Y207421D01*
X613747Y204882D01*
X608668D01*
X606129Y207421D01*
Y209960D01*
X608668Y212500D01*
X606129Y215039D01*
Y217578D01*
X608668Y212500D02*
X613747D01*
X571374Y-143846D02*
Y-128611D01*
X578992D01*
X581531Y-131150D01*
Y-136229D01*
X578992Y-138768D01*
X571374D01*
X576452D02*
X581531Y-143846D01*
X586609D02*
X591687D01*
X589148D01*
Y-128611D01*
X586609Y-131150D01*
X599305D02*
X601844Y-128611D01*
X606922D01*
X609462Y-131150D01*
Y-133689D01*
X606922Y-136229D01*
X609462Y-138768D01*
Y-141307D01*
X606922Y-143846D01*
X601844D01*
X599305Y-141307D01*
Y-138768D01*
X601844Y-136229D01*
X599305Y-133689D01*
Y-131150D01*
X601844Y-136229D02*
X606922D01*
X571374Y-93046D02*
Y-77811D01*
X578992D01*
X581531Y-80350D01*
Y-85428D01*
X578992Y-87968D01*
X571374D01*
X576452D02*
X581531Y-93046D01*
X586609D02*
X591687D01*
X589148D01*
Y-77811D01*
X586609Y-80350D01*
X599305Y-77811D02*
X609462D01*
Y-80350D01*
X599305Y-90507D01*
Y-93046D01*
X2107818Y366656D02*
X2092583D01*
Y374274D01*
X2095122Y376813D01*
X2100200D01*
X2102739Y374274D01*
Y366656D01*
Y371735D02*
X2107818Y376813D01*
Y381891D02*
Y386970D01*
Y384430D01*
X2092583D01*
X2095122Y381891D01*
X2092583Y404744D02*
X2095122Y399665D01*
X2100200Y394587D01*
X2105278D01*
X2107818Y397126D01*
Y402205D01*
X2105278Y404744D01*
X2102739D01*
X2100200Y402205D01*
Y394587D01*
X2057018Y366656D02*
X2041782D01*
Y374274D01*
X2044322Y376813D01*
X2049400D01*
X2051939Y374274D01*
Y366656D01*
Y371735D02*
X2057018Y376813D01*
Y381891D02*
Y386970D01*
Y384430D01*
X2041782D01*
X2044322Y381891D01*
X2041782Y404744D02*
Y394587D01*
X2049400D01*
X2046861Y399665D01*
Y402205D01*
X2049400Y404744D01*
X2054478D01*
X2057018Y402205D01*
Y397126D01*
X2054478Y394587D01*
X2229956Y370231D02*
Y354996D01*
X2237574D01*
X2240113Y357535D01*
Y367692D01*
X2237574Y370231D01*
X2229956D01*
X2255348Y354996D02*
X2245191D01*
X2255348Y365153D01*
Y367692D01*
X2252809Y370231D01*
X2247730D01*
X2245191Y367692D01*
X2160106Y370231D02*
Y354996D01*
X2167724D01*
X2170263Y357535D01*
Y367692D01*
X2167724Y370231D01*
X2160106D01*
X2175341Y354996D02*
X2180419D01*
X2177880D01*
Y370231D01*
X2175341Y367692D01*
X2195663Y-64616D02*
X2193123Y-62077D01*
X2188045D01*
X2185506Y-64616D01*
Y-67155D01*
X2188045Y-69694D01*
X2193123D01*
X2195663Y-72234D01*
Y-74773D01*
X2193123Y-77312D01*
X2188045D01*
X2185506Y-74773D01*
X2200741Y-62077D02*
Y-77312D01*
X2205819Y-72234D01*
X2210898Y-77312D01*
Y-62077D01*
X2226133Y-77312D02*
X2215976D01*
X2226133Y-67155D01*
Y-64616D01*
X2223594Y-62077D01*
X2218515D01*
X2215976Y-64616D01*
X2062567D02*
X2060027Y-62077D01*
X2054949D01*
X2052410Y-64616D01*
Y-67155D01*
X2054949Y-69694D01*
X2060027D01*
X2062567Y-72234D01*
Y-74773D01*
X2060027Y-77312D01*
X2054949D01*
X2052410Y-74773D01*
X2067645Y-62077D02*
Y-77312D01*
X2072723Y-72234D01*
X2077802Y-77312D01*
Y-62077D01*
X2082880Y-77312D02*
X2087959D01*
X2085419D01*
Y-62077D01*
X2082880Y-64616D01*
X1402678Y186843D02*
Y171608D01*
X1410296D01*
X1412835Y174147D01*
Y176686D01*
X1410296Y179226D01*
X1402678D01*
X1410296D01*
X1412835Y181765D01*
Y184304D01*
X1410296Y186843D01*
X1402678D01*
X1417913D02*
Y171608D01*
X1428070D01*
X1433148Y186843D02*
Y171608D01*
Y176686D01*
X1443305Y186843D01*
X1435687Y179226D01*
X1443305Y171608D01*
X1448383Y184304D02*
X1450922Y186843D01*
X1456001D01*
X1458540Y184304D01*
Y181765D01*
X1456001Y179226D01*
X1453462D01*
X1456001D01*
X1458540Y176686D01*
Y174147D01*
X1456001Y171608D01*
X1450922D01*
X1448383Y174147D01*
X2108795Y184304D02*
X2106255Y186843D01*
X2101177D01*
X2098638Y184304D01*
Y181765D01*
X2101177Y179226D01*
X2106255D01*
X2108795Y176686D01*
Y174147D01*
X2106255Y171608D01*
X2101177D01*
X2098638Y174147D01*
X2113873Y186843D02*
Y171608D01*
X2121491D01*
X2124030Y174147D01*
Y184304D01*
X2121491Y186843D01*
X2113873D01*
X2139265Y171608D02*
X2129108D01*
X2139265Y181765D01*
Y184304D01*
X2136726Y186843D01*
X2131647D01*
X2129108Y184304D01*
X1908643D02*
X1906104Y186843D01*
X1901025D01*
X1898486Y184304D01*
Y181765D01*
X1901025Y179226D01*
X1906104D01*
X1908643Y176686D01*
Y174147D01*
X1906104Y171608D01*
X1901025D01*
X1898486Y174147D01*
X1913721Y186843D02*
Y171608D01*
X1921339D01*
X1923878Y174147D01*
Y184304D01*
X1921339Y186843D01*
X1913721D01*
X1928956Y171608D02*
X1934034D01*
X1931495D01*
Y186843D01*
X1928956Y184304D01*
X1062572Y186843D02*
Y171608D01*
X1070190D01*
X1072729Y174147D01*
Y176686D01*
X1070190Y179226D01*
X1062572D01*
X1070190D01*
X1072729Y181765D01*
Y184304D01*
X1070190Y186843D01*
X1062572D01*
X1077807D02*
Y171608D01*
X1087964D01*
X1093042Y186843D02*
Y171608D01*
Y176686D01*
X1103199Y186843D01*
X1095581Y179226D01*
X1103199Y171608D01*
X1118434D02*
X1108277D01*
X1118434Y181765D01*
Y184304D01*
X1115895Y186843D01*
X1110816D01*
X1108277Y184304D01*
X722466Y186843D02*
Y171608D01*
X730083D01*
X732623Y174147D01*
Y176686D01*
X730083Y179226D01*
X722466D01*
X730083D01*
X732623Y181765D01*
Y184304D01*
X730083Y186843D01*
X722466D01*
X737701D02*
Y171608D01*
X747858D01*
X752936Y186843D02*
Y171608D01*
Y176686D01*
X763093Y186843D01*
X755475Y179226D01*
X763093Y171608D01*
X768171D02*
X773250D01*
X770710D01*
Y186843D01*
X768171Y184304D01*
X740246Y-56997D02*
Y-69693D01*
X742785Y-72232D01*
X747863D01*
X750403Y-69693D01*
Y-56997D01*
X755481D02*
X765638D01*
Y-59536D01*
X755481Y-69693D01*
Y-72232D01*
X1736180Y188367D02*
Y175671D01*
X1738719Y173132D01*
X1743797D01*
X1746337Y175671D01*
Y188367D01*
X1761572D02*
X1756493Y185828D01*
X1751415Y180749D01*
Y175671D01*
X1753954Y173132D01*
X1759033D01*
X1761572Y175671D01*
Y178210D01*
X1759033Y180749D01*
X1751415D01*
X1558380Y188367D02*
Y175671D01*
X1560919Y173132D01*
X1565997D01*
X1568537Y175671D01*
Y188367D01*
X1583772D02*
X1573615D01*
Y180749D01*
X1578693Y183289D01*
X1581233D01*
X1583772Y180749D01*
Y175671D01*
X1581233Y173132D01*
X1576154D01*
X1573615Y175671D01*
X1218274Y188367D02*
Y175671D01*
X1220813Y173132D01*
X1225891D01*
X1228431Y175671D01*
Y188367D01*
X1241127Y173132D02*
Y188367D01*
X1233509Y180749D01*
X1243666D01*
X878168Y188367D02*
Y175671D01*
X880707Y173132D01*
X885786D01*
X888325Y175671D01*
Y188367D01*
X893403Y185828D02*
X895942Y188367D01*
X901021D01*
X903560Y185828D01*
Y183289D01*
X901021Y180749D01*
X898481D01*
X901021D01*
X903560Y178210D01*
Y175671D01*
X901021Y173132D01*
X895942D01*
X893403Y175671D01*
X1162394Y376835D02*
Y364139D01*
X1164933Y361600D01*
X1170012D01*
X1172551Y364139D01*
Y376835D01*
X1187786Y361600D02*
X1177629D01*
X1187786Y371757D01*
Y374296D01*
X1185247Y376835D01*
X1180168D01*
X1177629Y374296D01*
X1416394Y376835D02*
Y364139D01*
X1418933Y361600D01*
X1424012D01*
X1426551Y364139D01*
Y376835D01*
X1431629Y361600D02*
X1436707D01*
X1434168D01*
Y376835D01*
X1431629Y374296D01*
D11*
X2220500Y315000D02*
G03*
X2220500Y315000I-30500J0D01*
G01*
X2290500D02*
G03*
X2290500Y315000I-30500J0D01*
G01*
D12*
X877250Y369700D02*
G03*
X877250Y369700I-1250J0D01*
G01*
X1618350Y343400D02*
G03*
X1618350Y343400I-1250J0D01*
G01*
X1364350Y343400D02*
G03*
X1364350Y343400I-1250J0D01*
G01*
X887650Y163000D02*
G03*
X887650Y163000I-1250J0D01*
G01*
X1227650D02*
G03*
X1227650Y163000I-1250J0D01*
G01*
X1567650D02*
G03*
X1567650Y163000I-1250J0D01*
G01*
X1745450D02*
G03*
X1745450Y163000I-1250J0D01*
G01*
X741450Y-164600D02*
G03*
X741450Y-164600I-1250J0D01*
G01*
X592125Y177400D02*
G03*
X592125Y177400I-1250J0D01*
G01*
X1924750Y362100D02*
G03*
X1924750Y362100I-1250J0D01*
G01*
D13*
X1606700Y321800D02*
G03*
X1606700Y321800I-3000J0D01*
G01*
X1352700Y321800D02*
G03*
X1352700Y321800I-3000J0D01*
G01*
X911000Y149600D02*
G03*
X911000Y149600I-3000J0D01*
G01*
X1251000D02*
G03*
X1251000Y149600I-3000J0D01*
G01*
X1591000D02*
G03*
X1591000Y149600I-3000J0D01*
G01*
X1768800D02*
G03*
X1768800Y149600I-3000J0D01*
G01*
X754300Y-143000D02*
G03*
X754300Y-143000I-3000J0D01*
G01*
D14*
X1613700Y311650D02*
G03*
X1613700Y298950I0J-6350D01*
G01*
X1359700Y311650D02*
G03*
X1359700Y298950I0J-6350D01*
G01*
X918150Y159600D02*
G03*
X930850Y159600I6350J0D01*
G01*
X1258150D02*
G03*
X1270850Y159600I6350J0D01*
G01*
X1598150D02*
G03*
X1610850Y159600I6350J0D01*
G01*
X1775950D02*
G03*
X1788650Y159600I6350J0D01*
G01*
X741300Y-132850D02*
G03*
X741300Y-120150I0J6350D01*
G01*
X1572350Y-126500D02*
Y-124300D01*
X1534250Y-126500D02*
Y-124300D01*
Y-103300D02*
Y-101100D01*
X1572350Y-103300D02*
Y-101100D01*
X1534250Y-126500D02*
X1572350D01*
X1534250Y-101100D02*
X1572350D01*
X2165250Y299000D02*
Y331000D01*
X2235250Y299000D02*
Y331000D01*
X635250Y364950D02*
X891750D01*
X635250Y260850D02*
Y364950D01*
Y260850D02*
X891750D01*
Y364950D01*
X1001650Y-274700D02*
X1039750D01*
X1001650Y-249300D02*
X1039750D01*
X1001650Y-274700D02*
Y-272500D01*
X1039750Y-274700D02*
Y-272500D01*
Y-251500D02*
Y-249300D01*
X1001650Y-251500D02*
Y-249300D01*
X1416700Y278800D02*
Y331800D01*
X1613700Y278800D02*
Y298950D01*
Y311650D02*
Y331800D01*
X1416700Y278800D02*
X1613700D01*
X1416700Y331800D02*
X1613700D01*
X1162700D02*
X1359700D01*
X1162700Y278800D02*
X1359700D01*
Y311650D02*
Y331800D01*
Y278800D02*
Y298950D01*
X1162700Y278800D02*
Y331800D01*
X898000Y-37400D02*
X951000D01*
X930850Y159600D02*
X951000D01*
X898000D02*
X918150D01*
X951000Y-37400D02*
Y159600D01*
X898000Y-37400D02*
Y159600D01*
X1238000Y-37400D02*
Y159600D01*
X1291000Y-37400D02*
Y159600D01*
X1238000D02*
X1258150D01*
X1270850D02*
X1291000D01*
X1238000Y-37400D02*
X1291000D01*
X1578000D02*
Y159600D01*
X1630999Y-37400D02*
Y159600D01*
X1578000D02*
X1598150D01*
X1610850D02*
X1630999D01*
X1578000Y-37400D02*
X1630999D01*
X1755800D02*
Y159600D01*
X1808799Y-37400D02*
Y159600D01*
X1755800D02*
X1775950D01*
X1788650D02*
X1808799D01*
X1755800Y-37400D02*
X1808799D01*
X1095300Y-153000D02*
Y-100000D01*
X741300Y-120150D02*
Y-100000D01*
Y-153000D02*
Y-132850D01*
Y-100000D02*
X1095300D01*
X741300Y-153000D02*
X1095300D01*
X615293Y-41040D02*
Y192640D01*
Y-41040D02*
X671333D01*
Y192640D01*
X615293D02*
X671333D01*
X1830800Y350700D02*
X1885800D01*
Y310700D02*
Y350700D01*
X1830800Y310700D02*
X1885800D01*
X1830800D02*
Y350700D01*
X1830400Y299900D02*
X1885400D01*
Y259900D02*
Y299900D01*
X1830400Y259900D02*
X1885400D01*
X1830400D02*
Y299900D01*
X1903100Y355600D02*
X1950100D01*
X1903100Y253600D02*
X1950100D01*
X1903100D02*
Y355600D01*
X1950100Y253600D02*
Y355600D01*
X1945100Y253600D02*
Y355600D01*
X925450Y-249300D02*
X963550D01*
X925450Y-274700D02*
X963550D01*
Y-251500D02*
Y-249300D01*
X925450Y-251500D02*
Y-249300D01*
Y-274700D02*
Y-272500D01*
X963550Y-274700D02*
Y-272500D01*
D15*
X627562Y179300D02*
G03*
X627562Y179300I-2500J0D01*
G01*
D16*
X926800Y-215400D02*
D03*
X1036800D02*
D03*
D17*
X981800D02*
D03*
M02*
