M48
;Layer_Color=9474304
;FILE_FORMAT=4:4
METRIC,LZ
;TYPE=PLATED
T1F00S00C0.6350
%
T01
X017Y001238
X017254
X017508
Y002762
X017254
X017
Y004238
X017254
X017508
X019492
X019746
X02
X020254
X020508
Y002762
X020254
X02
X019746
X019492
Y001238
X019746
X02
X020254
X020508
X016746
X016492
Y002762
X016746
Y004238
X016492
X014508
X014254
X014
X013746
X013492
Y002762
X013746
X014
X014254
X014508
Y001238
X014254
X014
X013746
X013492
X011508
X011254
X011
X010746
X010492
Y002762
X010746
X011
X011254
X011508
Y004238
X011254
X011
X010746
X010492
X008508
X008254
X008
X007746
X007492
Y002762
X007746
X008
X008254
X008508
Y001238
X008254
X008
X007746
X007492
X005508
X005254
Y002762
X005508
Y004238
X005254
X005
X004746
X004492
Y002762
X004746
X005
Y001238
X004746
X004492
X002508
X002254
X002
X001746
X001492
Y002762
X001746
X002
X002254
X002508
Y004238
X002254
X002
X001746
X001492
Y005762
X001746
X002
X002254
X002508
Y007238
X002254
X002
X001746
X001492
X004492
X004746
X005
Y005762
X004746
X004492
X005254
X005508
Y007238
X005254
X007492
X007746
X008
X008254
X008508
Y005762
X008254
X008
X007746
X007492
X010492
X010746
X011
X011254
X011508
Y007238
X011254
X011
X010746
X010492
X013492
X013746
X014
X014254
X014508
Y005762
X014254
X014
X013746
X013492
X016492
X016746
Y007238
X016492
X017
X017254
X017508
Y005762
X017254
X017
X019492
X019746
X02
X020254
X020508
Y007238
X020254
X02
X019746
X019492
Y008762
X019746
X02
X020254
X020508
X017508
X017254
X017
X016746
X016492
X014508
X014254
X014
X013746
X013492
X011508
X011254
X011
X010746
X010492
X008508
X008254
X008
X007746
X007492
X005508
X005254
Y010238
X005508
Y011762
X005254
X005
X004746
X004492
Y010238
X004746
X005
Y008762
X004746
X004492
X002508
X002254
X002
X001746
X001492
Y010238
X001746
X002
X002254
X002508
Y011762
X002254
X002
X001746
X001492
M30
